%TF.GenerationSoftware,KiCad,Pcbnew,9.0.2-9.0.2-0~ubuntu22.04.1*%
%TF.CreationDate,2025-07-24T10:37:48-04:00*%
%TF.ProjectId,jarvis,6a617276-6973-42e6-9b69-6361645f7063,rev?*%
%TF.SameCoordinates,Original*%
%TF.FileFunction,Copper,L2,Inr*%
%TF.FilePolarity,Positive*%
%FSLAX46Y46*%
G04 Gerber Fmt 4.6, Leading zero omitted, Abs format (unit mm)*
G04 Created by KiCad (PCBNEW 9.0.2-9.0.2-0~ubuntu22.04.1) date 2025-07-24 10:37:48*
%MOMM*%
%LPD*%
G01*
G04 APERTURE LIST*
G04 Aperture macros list*
%AMRoundRect*
0 Rectangle with rounded corners*
0 $1 Rounding radius*
0 $2 $3 $4 $5 $6 $7 $8 $9 X,Y pos of 4 corners*
0 Add a 4 corners polygon primitive as box body*
4,1,4,$2,$3,$4,$5,$6,$7,$8,$9,$2,$3,0*
0 Add four circle primitives for the rounded corners*
1,1,$1+$1,$2,$3*
1,1,$1+$1,$4,$5*
1,1,$1+$1,$6,$7*
1,1,$1+$1,$8,$9*
0 Add four rect primitives between the rounded corners*
20,1,$1+$1,$2,$3,$4,$5,0*
20,1,$1+$1,$4,$5,$6,$7,0*
20,1,$1+$1,$6,$7,$8,$9,0*
20,1,$1+$1,$8,$9,$2,$3,0*%
%AMFreePoly0*
4,1,121,0.057437,0.323981,0.058316,0.323824,0.113316,0.308824,0.114166,0.308506,0.166166,0.283506,0.166873,0.283092,0.213873,0.250092,0.214579,0.249492,0.254579,0.208492,0.255133,0.207814,0.287133,0.160814,0.287573,0.160023,0.310573,0.108023,0.310851,0.107213,0.324851,0.051213,0.324988,0.050350,0.328988,-0.006650,0.328973,-0.007523,0.322973,-0.064523,0.322801,-0.065397,
0.306801,-0.120397,0.306455,-0.121271,0.280455,-0.172271,0.280021,-0.172972,0.246021,-0.218972,0.245402,-0.219664,0.203402,-0.258664,0.202695,-0.259211,0.155000,-0.289735,0.155000,-1.060082,0.202707,-1.090796,0.203402,-1.091336,0.245402,-1.130336,0.246021,-1.131028,0.280021,-1.177028,0.280455,-1.177729,0.306455,-1.228729,0.306801,-1.229603,0.322801,-1.284603,0.322973,-1.285477,
0.328973,-1.342477,0.328988,-1.343350,0.324988,-1.400350,0.324851,-1.401213,0.310851,-1.457213,0.310573,-1.458023,0.287573,-1.510023,0.287133,-1.510814,0.255133,-1.557814,0.254579,-1.558492,0.214579,-1.599492,0.213873,-1.600092,0.166873,-1.633092,0.166166,-1.633506,0.114166,-1.658506,0.113316,-1.658824,0.058316,-1.673824,0.057437,-1.673981,0.000437,-1.678981,-0.000437,-1.678981,
-0.057437,-1.673981,-0.058316,-1.673824,-0.113316,-1.658824,-0.114166,-1.658506,-0.166166,-1.633506,-0.166873,-1.633092,-0.213873,-1.600092,-0.214579,-1.599492,-0.254579,-1.558492,-0.255133,-1.557814,-0.287133,-1.510814,-0.287573,-1.510023,-0.310573,-1.458023,-0.310851,-1.457213,-0.324851,-1.401213,-0.324988,-1.400350,-0.328988,-1.343350,-0.328973,-1.342477,-0.322973,-1.285477,-0.322801,-1.284603,
-0.306801,-1.229603,-0.306455,-1.228729,-0.280455,-1.177729,-0.280021,-1.177028,-0.246021,-1.131028,-0.245402,-1.130336,-0.203402,-1.091336,-0.202695,-1.090789,-0.155000,-1.060264,-0.155000,-0.289735,-0.202695,-0.259211,-0.203402,-0.258664,-0.245402,-0.219664,-0.246021,-0.218972,-0.280021,-0.172972,-0.280455,-0.172271,-0.306455,-0.121271,-0.306801,-0.120397,-0.322801,-0.065397,-0.322973,-0.064523,
-0.328973,-0.007523,-0.328988,-0.006650,-0.324988,0.050350,-0.324851,0.051213,-0.310851,0.107213,-0.310573,0.108023,-0.287573,0.160023,-0.287133,0.160814,-0.255133,0.207814,-0.254579,0.208492,-0.214579,0.249492,-0.213873,0.250092,-0.166873,0.283092,-0.166166,0.283506,-0.114166,0.308506,-0.113316,0.308824,-0.058316,0.323824,-0.057437,0.323981,-0.000437,0.328981,0.000437,0.328981,
0.057437,0.323981,0.057437,0.323981,$1*%
%AMFreePoly1*
4,1,121,0.057437,0.323981,0.058316,0.323824,0.113316,0.308824,0.114166,0.308506,0.166166,0.283506,0.166873,0.283092,0.213873,0.250092,0.214579,0.249492,0.254579,0.208492,0.255133,0.207814,0.287133,0.160814,0.287573,0.160023,0.310573,0.108023,0.310851,0.107213,0.324851,0.051213,0.324988,0.050350,0.328988,-0.006650,0.328973,-0.007523,0.322973,-0.064523,0.322801,-0.065397,
0.306801,-0.120397,0.306455,-0.121271,0.280455,-0.172271,0.280021,-0.172972,0.246021,-0.218972,0.245402,-0.219664,0.203402,-0.258664,0.202695,-0.259211,0.155000,-0.289735,0.155000,-1.060264,0.202695,-1.090789,0.203402,-1.091336,0.245402,-1.130336,0.246021,-1.131028,0.280021,-1.177028,0.280455,-1.177729,0.306455,-1.228729,0.306801,-1.229603,0.322801,-1.284603,0.322973,-1.285477,
0.328973,-1.342477,0.328988,-1.343350,0.324988,-1.400350,0.324851,-1.401213,0.310851,-1.457213,0.310573,-1.458023,0.287573,-1.510023,0.287133,-1.510814,0.255133,-1.557814,0.254579,-1.558492,0.214579,-1.599492,0.213873,-1.600092,0.166873,-1.633092,0.166166,-1.633506,0.114166,-1.658506,0.113316,-1.658824,0.058316,-1.673824,0.057437,-1.673981,0.000437,-1.678981,-0.000437,-1.678981,
-0.057437,-1.673981,-0.058316,-1.673824,-0.113316,-1.658824,-0.114166,-1.658506,-0.166166,-1.633506,-0.166873,-1.633092,-0.213873,-1.600092,-0.214579,-1.599492,-0.254579,-1.558492,-0.255133,-1.557814,-0.287133,-1.510814,-0.287573,-1.510023,-0.310573,-1.458023,-0.310851,-1.457213,-0.324851,-1.401213,-0.324988,-1.400350,-0.328988,-1.343350,-0.328973,-1.342477,-0.322973,-1.285477,-0.322801,-1.284603,
-0.306801,-1.229603,-0.306455,-1.228729,-0.280455,-1.177729,-0.280021,-1.177028,-0.246021,-1.131028,-0.245402,-1.130336,-0.203402,-1.091336,-0.202695,-1.090789,-0.155000,-1.060264,-0.155000,-0.289735,-0.202695,-0.259211,-0.203402,-0.258664,-0.245402,-0.219664,-0.246021,-0.218972,-0.280021,-0.172972,-0.280455,-0.172271,-0.306455,-0.121271,-0.306801,-0.120397,-0.322801,-0.065397,-0.322973,-0.064523,
-0.328973,-0.007523,-0.328988,-0.006650,-0.324988,0.050350,-0.324851,0.051213,-0.310851,0.107213,-0.310573,0.108023,-0.287573,0.160023,-0.287133,0.160814,-0.255133,0.207814,-0.254579,0.208492,-0.214579,0.249492,-0.213873,0.250092,-0.166873,0.283092,-0.166166,0.283506,-0.114166,0.308506,-0.113316,0.308824,-0.058316,0.323824,-0.057437,0.323981,-0.000437,0.328981,0.000437,0.328981,
0.057437,0.323981,0.057437,0.323981,$1*%
G04 Aperture macros list end*
%TA.AperFunction,ComponentPad*%
%ADD10RoundRect,0.200000X0.450000X-0.200000X0.450000X0.200000X-0.450000X0.200000X-0.450000X-0.200000X0*%
%TD*%
%TA.AperFunction,ComponentPad*%
%ADD11O,1.300000X0.800000*%
%TD*%
%TA.AperFunction,ComponentPad*%
%ADD12FreePoly0,90.000000*%
%TD*%
%TA.AperFunction,ComponentPad*%
%ADD13C,0.648000*%
%TD*%
%TA.AperFunction,ComponentPad*%
%ADD14FreePoly1,90.000000*%
%TD*%
%TA.AperFunction,ComponentPad*%
%ADD15O,2.500000X1.300000*%
%TD*%
%TA.AperFunction,ComponentPad*%
%ADD16O,3.200000X1.300000*%
%TD*%
%TA.AperFunction,ViaPad*%
%ADD17C,0.600000*%
%TD*%
G04 APERTURE END LIST*
D10*
%TO.N,/Components/MIC-DATA*%
%TO.C,J2*%
X136010000Y-115290000D03*
D11*
%TO.N,/Components/MIC-WS*%
X136010000Y-114040000D03*
%TO.N,/Components/MIC-BCK*%
X136010000Y-112790000D03*
%TO.N,+3.3V*%
X136010000Y-111540000D03*
%TO.N,GND*%
X136010000Y-110290000D03*
%TD*%
D10*
%TO.N,Net-(IC2-OUTN)*%
%TO.C,J1*%
X136040000Y-120685000D03*
D11*
%TO.N,Net-(IC2-OUTP)*%
X136040000Y-119435000D03*
%TD*%
D10*
%TO.N,/Power/VBAT_1*%
%TO.C,J3*%
X136020000Y-125995000D03*
D11*
%TO.N,GND*%
X136020000Y-124745000D03*
%TD*%
D12*
%TO.N,GND*%
%TO.C,U2*%
X176270000Y-126230000D03*
%TO.N,/Power/VBUS*%
X176270000Y-125380000D03*
D13*
%TO.N,Net-(U2-CC1)*%
X176270000Y-124530000D03*
%TO.N,/Power/USB_DP*%
X176270000Y-123680000D03*
%TO.N,/Power/USB_DN*%
X176270000Y-122830000D03*
%TO.N,unconnected-(U2-SBU1-PadA8)*%
X176270000Y-121980000D03*
D14*
%TO.N,/Power/VBUS*%
X176270000Y-121130000D03*
D12*
%TO.N,GND*%
X176270000Y-120280000D03*
D13*
X177620000Y-120280000D03*
%TO.N,/Power/VBUS*%
X177620000Y-121130000D03*
%TO.N,Net-(U2-CC2)*%
X177620000Y-121980000D03*
%TO.N,/Power/USB_DP*%
X177620000Y-122830000D03*
%TO.N,/Power/USB_DN*%
X177620000Y-123680000D03*
%TO.N,unconnected-(U2-SBU2-PadB8)*%
X177620000Y-124530000D03*
%TO.N,/Power/VBUS*%
X177620000Y-125380000D03*
%TO.N,GND*%
X177620000Y-126230000D03*
D15*
X180920000Y-127575000D03*
X180920000Y-118935000D03*
D16*
X176770000Y-127575000D03*
X176770000Y-118935000D03*
%TD*%
D17*
%TO.N,Net-(IC1-GPIO18)*%
X161924067Y-118820499D03*
%TO.N,GND*%
X134820000Y-127870000D03*
%TO.N,+3.3V*%
X139440000Y-122290000D03*
X148230000Y-127430000D03*
X154510000Y-127730000D03*
X139440000Y-127530000D03*
%TO.N,/ESP/ESP-GPIO11*%
X149070000Y-127760000D03*
%TO.N,/ESP/ESP-GPIO10*%
X144570000Y-127810000D03*
%TO.N,GND*%
X174360000Y-128380000D03*
%TO.N,Net-(IC1-GPIO18)*%
X167490000Y-125200000D03*
%TO.N,Net-(IC1-GPIO17)*%
X168940000Y-125240000D03*
%TO.N,Net-(IC1-GPIO13)*%
X170370000Y-125340000D03*
%TO.N,/ESP/ESP-GPIO12*%
X157487042Y-118083920D03*
%TO.N,Net-(IC1-GPIO13)*%
X159300000Y-117510000D03*
%TO.N,Net-(IC1-GPIO17)*%
X161340000Y-118350000D03*
%TO.N,GND*%
X133840000Y-108760000D03*
X135890000Y-102690000D03*
%TO.N,Net-(IC1-GPIO0)*%
X142950000Y-107770000D03*
%TO.N,GND*%
X142340000Y-101860000D03*
X150920000Y-101850000D03*
%TO.N,Net-(IC1-GPIO0)*%
X156190000Y-112300000D03*
%TO.N,Net-(IC3-CE)*%
X150080000Y-121880000D03*
X144000000Y-118450000D03*
%TO.N,/Power/VBAT_1*%
X152610000Y-125210000D03*
%TO.N,/Power/VBUS*%
X150010000Y-126680000D03*
%TO.N,GND*%
X157420000Y-123430000D03*
X173290000Y-117390000D03*
X162430000Y-123590000D03*
X165310000Y-106080000D03*
X171540000Y-125400000D03*
X174520000Y-107270000D03*
X180500000Y-102090000D03*
X159680000Y-102280000D03*
X183200000Y-103110000D03*
X181070000Y-105970000D03*
X161610000Y-125410000D03*
X146140000Y-118120000D03*
X157590000Y-106760000D03*
X182360000Y-105860000D03*
X175080000Y-104770000D03*
X160660000Y-102110000D03*
X162606895Y-120520056D03*
X149430000Y-111950000D03*
X167450000Y-119440000D03*
X160480000Y-106110000D03*
X178680000Y-105760000D03*
X182980000Y-105230000D03*
X162190000Y-124550000D03*
X146990000Y-118900000D03*
X159140000Y-111660000D03*
X159090000Y-113120000D03*
X159790000Y-118710000D03*
X163360000Y-103470000D03*
X156100000Y-105550000D03*
X145530000Y-126700000D03*
X163140000Y-122860000D03*
X183380000Y-104110000D03*
X163150000Y-104960000D03*
X153570000Y-117660000D03*
X162030000Y-114520000D03*
X160238162Y-123160000D03*
X155080000Y-105030000D03*
X171060000Y-122000000D03*
X157460000Y-121590000D03*
X157250000Y-105920000D03*
X151680000Y-108480000D03*
X160610000Y-114570000D03*
X161950000Y-102280000D03*
X158120000Y-124240000D03*
X160560000Y-125630000D03*
X159920000Y-108380000D03*
X162846496Y-121478462D03*
X177710000Y-102240000D03*
X158500000Y-102120000D03*
X182300000Y-102050000D03*
X157080000Y-107870000D03*
X157550000Y-120610000D03*
X155630000Y-103570000D03*
X159190000Y-114540000D03*
X141400000Y-114380000D03*
X162040000Y-111690000D03*
X141240000Y-122220000D03*
X176020000Y-102230000D03*
X158300000Y-125210000D03*
X175090000Y-102850000D03*
X159670000Y-119950000D03*
X158660000Y-120430000D03*
X177830000Y-105670000D03*
X162190000Y-105310000D03*
X162000000Y-113200000D03*
X147900000Y-119840000D03*
X141440000Y-117160000D03*
X181150000Y-112870000D03*
X157360000Y-102300000D03*
X147780000Y-118170000D03*
X156090000Y-102450000D03*
X156720000Y-122620000D03*
X142990000Y-108700000D03*
X179210000Y-102210000D03*
X161730000Y-120120000D03*
X146400000Y-108520000D03*
X176520000Y-105570000D03*
X161580000Y-106060000D03*
X159780000Y-106790000D03*
X160620000Y-113170000D03*
X160610000Y-111640000D03*
X161700000Y-104110000D03*
X159360000Y-125530000D03*
X162810000Y-102810000D03*
%TO.N,/Power/VBUS*%
X144030000Y-119860000D03*
X146990000Y-122105000D03*
%TO.N,/Power/VBAT_1*%
X143280000Y-117570000D03*
%TO.N,/Power/SYS*%
X142360000Y-126160000D03*
X145150000Y-120980000D03*
%TO.N,+3.3V*%
X158737351Y-118077624D03*
X145530000Y-111160000D03*
X157240000Y-109220000D03*
X141620000Y-121160000D03*
X151920000Y-117570000D03*
X139490000Y-109110000D03*
X139950000Y-115760000D03*
X162670000Y-108500000D03*
%TO.N,Net-(U2-CC2)*%
X180460000Y-121980000D03*
X173650000Y-121550000D03*
%TO.N,Net-(IC1-CHIP_PU)*%
X148920000Y-108440000D03*
X155700000Y-111690000D03*
%TO.N,/Power/USB_DP*%
X174360000Y-123680000D03*
X171130000Y-123650000D03*
%TO.N,/Power/USB_DN*%
X171120000Y-122790000D03*
X174350000Y-122820000D03*
%TO.N,/Components/FLASH-CLK*%
X170380000Y-110110000D03*
X175730000Y-114230000D03*
%TO.N,+1.8*%
X164405000Y-116715000D03*
X179970000Y-117390000D03*
%TO.N,/Components/AMP-DIN*%
X155640000Y-112870000D03*
X142970000Y-112830000D03*
%TO.N,/Components/MIC-BCK*%
X156150000Y-114810000D03*
%TO.N,/Components/MIC-DATA*%
X156320000Y-116310000D03*
%TO.N,Net-(IC1-LNA_IN)*%
X156070000Y-110310000D03*
X175840000Y-103930000D03*
%TO.N,/Components/MIC-WS*%
X155780000Y-115560000D03*
%TO.N,/Components/AMP-BCLK*%
X156055422Y-113616006D03*
X143810000Y-113350000D03*
%TO.N,/Components/AMP-LRCLK*%
X155500000Y-114120000D03*
X143910000Y-114610000D03*
%TO.N,/Components/FLASH-DO_IO1*%
X171430000Y-107480000D03*
X177000000Y-107230000D03*
%TO.N,/Components/FLASH-DI_IO0*%
X174520000Y-114230000D03*
X169330000Y-107960000D03*
%TO.N,/ESP/ESP-GPIO12*%
X149960000Y-120095000D03*
%TO.N,/ESP/ESP-GPIO10*%
X150140000Y-118915000D03*
X156887128Y-116800784D03*
%TO.N,/ESP/ESP-GPIO11*%
X157410670Y-117337819D03*
X150680000Y-119495000D03*
%TD*%
%TA.AperFunction,Conductor*%
%TO.N,GND*%
G36*
X184206553Y-101439853D02*
G01*
X184273569Y-101459617D01*
X184319261Y-101512476D01*
X184330404Y-101563447D01*
X184389203Y-119529896D01*
X184389499Y-119620149D01*
X184389500Y-119620555D01*
X184389500Y-128816122D01*
X184369815Y-128883161D01*
X184317011Y-128928916D01*
X184265599Y-128940122D01*
X181814940Y-128942072D01*
X181747885Y-128922441D01*
X181702088Y-128869673D01*
X181692089Y-128800523D01*
X181721063Y-128736944D01*
X181779812Y-128699123D01*
X181785908Y-128697495D01*
X181789295Y-128696682D01*
X181961444Y-128640748D01*
X181961447Y-128640747D01*
X182122734Y-128558565D01*
X182269169Y-128452176D01*
X182397176Y-128324169D01*
X182503565Y-128177734D01*
X182585747Y-128016447D01*
X182585749Y-128016441D01*
X182641681Y-127844295D01*
X182641684Y-127844285D01*
X182644739Y-127825000D01*
X181614975Y-127825000D01*
X181650070Y-127789905D01*
X181696148Y-127710095D01*
X181720000Y-127621078D01*
X181720000Y-127528922D01*
X181696148Y-127439905D01*
X181650070Y-127360095D01*
X181614975Y-127325000D01*
X182644739Y-127325000D01*
X182641684Y-127305714D01*
X182641681Y-127305704D01*
X182585749Y-127133558D01*
X182585747Y-127133552D01*
X182503565Y-126972265D01*
X182397176Y-126825830D01*
X182269169Y-126697823D01*
X182122734Y-126591434D01*
X181961447Y-126509252D01*
X181961444Y-126509251D01*
X181789293Y-126453317D01*
X181610506Y-126425000D01*
X181170000Y-126425000D01*
X181170000Y-127225000D01*
X180670000Y-127225000D01*
X180670000Y-126425000D01*
X180229494Y-126425000D01*
X180050706Y-126453317D01*
X179878555Y-126509251D01*
X179878552Y-126509252D01*
X179717265Y-126591434D01*
X179570830Y-126697823D01*
X179442823Y-126825830D01*
X179336434Y-126972265D01*
X179254252Y-127133552D01*
X179254250Y-127133558D01*
X179198318Y-127305704D01*
X179198315Y-127305714D01*
X179195261Y-127325000D01*
X180225025Y-127325000D01*
X180189930Y-127360095D01*
X180143852Y-127439905D01*
X180120000Y-127528922D01*
X180120000Y-127621078D01*
X180143852Y-127710095D01*
X180189930Y-127789905D01*
X180225025Y-127825000D01*
X179195261Y-127825000D01*
X179198315Y-127844285D01*
X179198318Y-127844295D01*
X179254250Y-128016441D01*
X179254252Y-128016447D01*
X179336434Y-128177734D01*
X179442823Y-128324169D01*
X179570830Y-128452176D01*
X179717265Y-128558565D01*
X179878552Y-128640747D01*
X179878555Y-128640748D01*
X180050706Y-128696682D01*
X180052816Y-128697017D01*
X180053552Y-128697366D01*
X180055439Y-128697819D01*
X180055343Y-128698215D01*
X180115950Y-128726946D01*
X180152882Y-128786257D01*
X180151884Y-128856120D01*
X180113275Y-128914353D01*
X180049311Y-128942467D01*
X180033517Y-128943490D01*
X177996446Y-128945111D01*
X177929391Y-128925480D01*
X177883594Y-128872712D01*
X177873595Y-128803562D01*
X177902569Y-128739983D01*
X177961317Y-128702162D01*
X177976950Y-128698638D01*
X177989292Y-128696683D01*
X178161444Y-128640748D01*
X178161447Y-128640747D01*
X178322734Y-128558565D01*
X178469169Y-128452176D01*
X178597176Y-128324169D01*
X178703565Y-128177734D01*
X178785747Y-128016447D01*
X178785749Y-128016441D01*
X178841681Y-127844295D01*
X178841684Y-127844285D01*
X178844739Y-127825000D01*
X177664975Y-127825000D01*
X177700070Y-127789905D01*
X177746148Y-127710095D01*
X177770000Y-127621078D01*
X177770000Y-127528922D01*
X177746148Y-127439905D01*
X177700070Y-127360095D01*
X177664975Y-127325000D01*
X178844739Y-127325000D01*
X178841684Y-127305714D01*
X178841681Y-127305704D01*
X178785749Y-127133558D01*
X178785747Y-127133552D01*
X178703565Y-126972265D01*
X178597176Y-126825830D01*
X178469171Y-126697825D01*
X178444034Y-126679563D01*
X178401368Y-126624234D01*
X178395387Y-126554621D01*
X178402839Y-126530645D01*
X178406151Y-126522870D01*
X178406789Y-126521158D01*
X178420050Y-126480000D01*
X177195000Y-126480000D01*
X177195000Y-127065000D01*
X177189380Y-127084137D01*
X177188683Y-127104073D01*
X177179737Y-127116976D01*
X177175315Y-127132039D01*
X177160241Y-127145100D01*
X177148877Y-127161494D01*
X177124825Y-127175788D01*
X177122511Y-127177794D01*
X177120839Y-127178157D01*
X177118537Y-127179526D01*
X177020000Y-127220426D01*
X177020000Y-127225000D01*
X176520000Y-127225000D01*
X176520000Y-126480000D01*
X175468581Y-126480000D01*
X175378554Y-126509253D01*
X175217264Y-126591434D01*
X175070830Y-126697823D01*
X174942823Y-126825830D01*
X174836434Y-126972265D01*
X174754252Y-127133552D01*
X174754250Y-127133558D01*
X174698318Y-127305704D01*
X174698315Y-127305714D01*
X174695261Y-127325000D01*
X175875025Y-127325000D01*
X175839930Y-127360095D01*
X175793852Y-127439905D01*
X175770000Y-127528922D01*
X175770000Y-127621078D01*
X175793852Y-127710095D01*
X175839930Y-127789905D01*
X175875025Y-127825000D01*
X174695261Y-127825000D01*
X174698315Y-127844285D01*
X174698318Y-127844295D01*
X174754250Y-128016441D01*
X174754252Y-128016447D01*
X174836434Y-128177734D01*
X174942823Y-128324169D01*
X175070830Y-128452176D01*
X175217265Y-128558565D01*
X175378552Y-128640747D01*
X175378555Y-128640748D01*
X175550703Y-128696681D01*
X175575307Y-128700578D01*
X175638443Y-128730506D01*
X175675376Y-128789816D01*
X175674380Y-128859679D01*
X175635772Y-128917913D01*
X175571809Y-128946029D01*
X175556012Y-128947052D01*
X134272980Y-128979902D01*
X134205925Y-128960271D01*
X134160128Y-128907503D01*
X134148886Y-128857025D01*
X134145921Y-128529735D01*
X134143572Y-128270294D01*
X134136152Y-127451153D01*
X138639500Y-127451153D01*
X138639500Y-127608846D01*
X138670261Y-127763489D01*
X138670264Y-127763501D01*
X138730602Y-127909172D01*
X138730609Y-127909185D01*
X138818210Y-128040288D01*
X138818213Y-128040292D01*
X138929707Y-128151786D01*
X138929711Y-128151789D01*
X139060814Y-128239390D01*
X139060827Y-128239397D01*
X139206498Y-128299735D01*
X139206503Y-128299737D01*
X139361153Y-128330499D01*
X139361156Y-128330500D01*
X139361158Y-128330500D01*
X139518844Y-128330500D01*
X139518845Y-128330499D01*
X139673497Y-128299737D01*
X139819179Y-128239394D01*
X139950289Y-128151789D01*
X140061789Y-128040289D01*
X140149394Y-127909179D01*
X140209737Y-127763497D01*
X140216171Y-127731153D01*
X143769500Y-127731153D01*
X143769500Y-127888846D01*
X143800261Y-128043489D01*
X143800264Y-128043501D01*
X143860602Y-128189172D01*
X143860609Y-128189185D01*
X143948210Y-128320288D01*
X143948213Y-128320292D01*
X144059707Y-128431786D01*
X144059711Y-128431789D01*
X144190814Y-128519390D01*
X144190827Y-128519397D01*
X144290060Y-128560500D01*
X144336503Y-128579737D01*
X144491153Y-128610499D01*
X144491156Y-128610500D01*
X144491158Y-128610500D01*
X144648844Y-128610500D01*
X144648845Y-128610499D01*
X144803497Y-128579737D01*
X144949179Y-128519394D01*
X145080289Y-128431789D01*
X145191789Y-128320289D01*
X145279394Y-128189179D01*
X145339737Y-128043497D01*
X145370500Y-127888842D01*
X145370500Y-127731158D01*
X145370500Y-127731155D01*
X145370499Y-127731153D01*
X145360554Y-127681158D01*
X145339737Y-127576503D01*
X145332528Y-127559099D01*
X145279397Y-127430827D01*
X145279389Y-127430813D01*
X145268127Y-127413958D01*
X145268126Y-127413957D01*
X145226162Y-127351153D01*
X147429500Y-127351153D01*
X147429500Y-127508846D01*
X147460261Y-127663489D01*
X147460264Y-127663501D01*
X147520602Y-127809172D01*
X147520609Y-127809185D01*
X147608210Y-127940288D01*
X147608213Y-127940292D01*
X147719707Y-128051786D01*
X147719711Y-128051789D01*
X147850814Y-128139390D01*
X147850827Y-128139397D01*
X147971028Y-128189185D01*
X147996503Y-128199737D01*
X148132316Y-128226752D01*
X148151153Y-128230499D01*
X148151156Y-128230500D01*
X148151158Y-128230500D01*
X148308842Y-128230500D01*
X148327682Y-128226752D01*
X148397271Y-128232976D01*
X148443360Y-128266524D01*
X148443903Y-128265982D01*
X148447349Y-128269428D01*
X148447735Y-128269709D01*
X148448215Y-128270294D01*
X148559707Y-128381786D01*
X148559711Y-128381789D01*
X148690814Y-128469390D01*
X148690827Y-128469397D01*
X148836498Y-128529735D01*
X148836503Y-128529737D01*
X148981430Y-128558565D01*
X148991153Y-128560499D01*
X148991156Y-128560500D01*
X148991158Y-128560500D01*
X149148844Y-128560500D01*
X149148845Y-128560499D01*
X149303497Y-128529737D01*
X149449179Y-128469394D01*
X149580289Y-128381789D01*
X149691789Y-128270289D01*
X149779394Y-128139179D01*
X149839737Y-127993497D01*
X149870500Y-127838842D01*
X149870500Y-127681158D01*
X149866987Y-127663497D01*
X149864532Y-127651153D01*
X153709500Y-127651153D01*
X153709500Y-127808846D01*
X153740261Y-127963489D01*
X153740264Y-127963501D01*
X153800602Y-128109172D01*
X153800609Y-128109185D01*
X153888210Y-128240288D01*
X153888213Y-128240292D01*
X153999707Y-128351786D01*
X153999711Y-128351789D01*
X154130814Y-128439390D01*
X154130827Y-128439397D01*
X154276498Y-128499735D01*
X154276503Y-128499737D01*
X154427312Y-128529735D01*
X154431153Y-128530499D01*
X154431156Y-128530500D01*
X154431158Y-128530500D01*
X154588844Y-128530500D01*
X154588845Y-128530499D01*
X154743497Y-128499737D01*
X154889179Y-128439394D01*
X155020289Y-128351789D01*
X155131789Y-128240289D01*
X155219394Y-128109179D01*
X155279737Y-127963497D01*
X155310500Y-127808842D01*
X155310500Y-127651158D01*
X155310500Y-127651155D01*
X155310499Y-127651153D01*
X155304517Y-127621078D01*
X155279737Y-127496503D01*
X155235370Y-127389390D01*
X155219397Y-127350826D01*
X155219390Y-127350814D01*
X155131789Y-127219711D01*
X155131786Y-127219707D01*
X155020292Y-127108213D01*
X155020288Y-127108210D01*
X154889185Y-127020609D01*
X154889172Y-127020602D01*
X154743501Y-126960264D01*
X154743489Y-126960261D01*
X154588845Y-126929500D01*
X154588842Y-126929500D01*
X154431158Y-126929500D01*
X154431155Y-126929500D01*
X154276510Y-126960261D01*
X154276498Y-126960264D01*
X154130827Y-127020602D01*
X154130814Y-127020609D01*
X153999711Y-127108210D01*
X153999707Y-127108213D01*
X153888213Y-127219707D01*
X153888210Y-127219711D01*
X153800609Y-127350814D01*
X153800602Y-127350827D01*
X153740264Y-127496498D01*
X153740261Y-127496510D01*
X153709500Y-127651153D01*
X149864532Y-127651153D01*
X149860064Y-127628691D01*
X149866291Y-127559099D01*
X149909154Y-127503922D01*
X149975044Y-127480678D01*
X149981681Y-127480500D01*
X150088844Y-127480500D01*
X150088845Y-127480499D01*
X150243497Y-127449737D01*
X150389179Y-127389394D01*
X150520289Y-127301789D01*
X150631789Y-127190289D01*
X150719394Y-127059179D01*
X150722854Y-127050827D01*
X150739972Y-127009500D01*
X150779737Y-126913497D01*
X150810500Y-126758842D01*
X150810500Y-126601158D01*
X150810500Y-126601155D01*
X150810499Y-126601153D01*
X150798173Y-126539185D01*
X150779737Y-126446503D01*
X150770830Y-126425000D01*
X150719397Y-126300827D01*
X150719390Y-126300814D01*
X150631789Y-126169711D01*
X150631786Y-126169707D01*
X150520292Y-126058213D01*
X150520288Y-126058210D01*
X150389185Y-125970609D01*
X150389172Y-125970602D01*
X150243501Y-125910264D01*
X150243489Y-125910261D01*
X150088845Y-125879500D01*
X150088842Y-125879500D01*
X149931158Y-125879500D01*
X149931155Y-125879500D01*
X149776510Y-125910261D01*
X149776498Y-125910264D01*
X149630827Y-125970602D01*
X149630814Y-125970609D01*
X149499711Y-126058210D01*
X149499707Y-126058213D01*
X149388213Y-126169707D01*
X149388210Y-126169711D01*
X149300609Y-126300814D01*
X149300602Y-126300827D01*
X149240264Y-126446498D01*
X149240261Y-126446510D01*
X149209500Y-126601153D01*
X149209500Y-126601158D01*
X149209500Y-126758842D01*
X149209500Y-126758844D01*
X149209499Y-126758844D01*
X149219936Y-126811308D01*
X149218278Y-126829836D01*
X149221674Y-126848126D01*
X149215228Y-126863913D01*
X149213709Y-126880900D01*
X149202296Y-126895590D01*
X149195266Y-126912813D01*
X149181307Y-126922610D01*
X149170846Y-126936077D01*
X149153303Y-126942265D01*
X149138077Y-126952953D01*
X149109821Y-126957605D01*
X149104957Y-126959322D01*
X149103376Y-126959397D01*
X149100853Y-126959500D01*
X148991158Y-126959500D01*
X148962834Y-126965133D01*
X148953179Y-126965528D01*
X148928280Y-126959307D01*
X148902722Y-126957021D01*
X148894151Y-126950782D01*
X148885393Y-126948594D01*
X148872897Y-126935309D01*
X148856640Y-126923474D01*
X148856097Y-126924018D01*
X148852645Y-126920566D01*
X148852263Y-126920288D01*
X148851787Y-126919708D01*
X148740292Y-126808213D01*
X148740288Y-126808210D01*
X148609185Y-126720609D01*
X148609172Y-126720602D01*
X148463501Y-126660264D01*
X148463489Y-126660261D01*
X148308845Y-126629500D01*
X148308842Y-126629500D01*
X148151158Y-126629500D01*
X148151155Y-126629500D01*
X147996510Y-126660261D01*
X147996498Y-126660264D01*
X147850827Y-126720602D01*
X147850814Y-126720609D01*
X147719711Y-126808210D01*
X147719707Y-126808213D01*
X147608213Y-126919707D01*
X147608210Y-126919711D01*
X147520609Y-127050814D01*
X147520602Y-127050827D01*
X147460264Y-127196498D01*
X147460261Y-127196510D01*
X147429500Y-127351153D01*
X145226162Y-127351153D01*
X145191789Y-127299711D01*
X145191786Y-127299707D01*
X145080292Y-127188213D01*
X145080288Y-127188210D01*
X144949185Y-127100609D01*
X144949172Y-127100602D01*
X144803501Y-127040264D01*
X144803489Y-127040261D01*
X144648845Y-127009500D01*
X144648842Y-127009500D01*
X144491158Y-127009500D01*
X144491155Y-127009500D01*
X144336510Y-127040261D01*
X144336498Y-127040264D01*
X144190827Y-127100602D01*
X144190814Y-127100609D01*
X144059711Y-127188210D01*
X144059707Y-127188213D01*
X143948213Y-127299707D01*
X143948210Y-127299711D01*
X143860609Y-127430814D01*
X143860602Y-127430827D01*
X143800264Y-127576498D01*
X143800261Y-127576510D01*
X143769500Y-127731153D01*
X140216171Y-127731153D01*
X140222194Y-127700874D01*
X140222194Y-127700873D01*
X140240499Y-127608846D01*
X140240500Y-127608844D01*
X140240500Y-127451155D01*
X140240499Y-127451153D01*
X140222386Y-127360095D01*
X140209737Y-127296503D01*
X140209735Y-127296498D01*
X140149397Y-127150827D01*
X140149390Y-127150814D01*
X140061789Y-127019711D01*
X140061786Y-127019707D01*
X139950292Y-126908213D01*
X139950288Y-126908210D01*
X139819185Y-126820609D01*
X139819172Y-126820602D01*
X139673501Y-126760264D01*
X139673489Y-126760261D01*
X139518845Y-126729500D01*
X139518842Y-126729500D01*
X139361158Y-126729500D01*
X139361155Y-126729500D01*
X139206510Y-126760261D01*
X139206498Y-126760264D01*
X139060827Y-126820602D01*
X139060814Y-126820609D01*
X138929711Y-126908210D01*
X138929707Y-126908213D01*
X138818213Y-127019707D01*
X138818210Y-127019711D01*
X138730609Y-127150814D01*
X138730602Y-127150827D01*
X138670264Y-127296498D01*
X138670261Y-127296510D01*
X138639500Y-127451153D01*
X134136152Y-127451153D01*
X134136107Y-127446189D01*
X134126857Y-126425000D01*
X134120638Y-125738386D01*
X134869500Y-125738386D01*
X134869500Y-126251613D01*
X134875913Y-126322192D01*
X134875913Y-126322194D01*
X134875914Y-126322196D01*
X134926522Y-126484606D01*
X135010930Y-126624234D01*
X135014530Y-126630188D01*
X135134811Y-126750469D01*
X135134813Y-126750470D01*
X135134815Y-126750472D01*
X135280394Y-126838478D01*
X135442804Y-126889086D01*
X135513384Y-126895500D01*
X135513387Y-126895500D01*
X136526613Y-126895500D01*
X136526616Y-126895500D01*
X136597196Y-126889086D01*
X136759606Y-126838478D01*
X136905185Y-126750472D01*
X137025472Y-126630185D01*
X137113478Y-126484606D01*
X137164086Y-126322196D01*
X137170500Y-126251616D01*
X137170500Y-126081153D01*
X141559500Y-126081153D01*
X141559500Y-126238846D01*
X141590261Y-126393489D01*
X141590264Y-126393501D01*
X141650602Y-126539172D01*
X141650609Y-126539185D01*
X141738210Y-126670288D01*
X141738213Y-126670292D01*
X141849707Y-126781786D01*
X141849711Y-126781789D01*
X141980814Y-126869390D01*
X141980827Y-126869397D01*
X142112696Y-126924018D01*
X142126503Y-126929737D01*
X142279967Y-126960263D01*
X142281153Y-126960499D01*
X142281156Y-126960500D01*
X142281158Y-126960500D01*
X142438844Y-126960500D01*
X142438845Y-126960499D01*
X142593497Y-126929737D01*
X142739179Y-126869394D01*
X142870289Y-126781789D01*
X142981789Y-126670289D01*
X143069394Y-126539179D01*
X143076859Y-126521158D01*
X143091999Y-126484606D01*
X143129737Y-126393497D01*
X143160500Y-126238842D01*
X143160500Y-126081158D01*
X143160500Y-126081155D01*
X143160499Y-126081153D01*
X143129737Y-125926503D01*
X143123010Y-125910263D01*
X143069397Y-125780827D01*
X143069390Y-125780814D01*
X142981789Y-125649711D01*
X142981786Y-125649707D01*
X142870292Y-125538213D01*
X142870288Y-125538210D01*
X142739185Y-125450609D01*
X142739172Y-125450602D01*
X142593501Y-125390264D01*
X142593489Y-125390261D01*
X142438845Y-125359500D01*
X142438842Y-125359500D01*
X142281158Y-125359500D01*
X142281155Y-125359500D01*
X142126510Y-125390261D01*
X142126498Y-125390264D01*
X141980827Y-125450602D01*
X141980814Y-125450609D01*
X141849711Y-125538210D01*
X141849707Y-125538213D01*
X141738213Y-125649707D01*
X141738210Y-125649711D01*
X141650609Y-125780814D01*
X141650602Y-125780827D01*
X141590264Y-125926498D01*
X141590261Y-125926510D01*
X141559500Y-126081153D01*
X137170500Y-126081153D01*
X137170500Y-125738384D01*
X137164086Y-125667804D01*
X137113478Y-125505394D01*
X137026431Y-125361402D01*
X137023828Y-125351544D01*
X137017511Y-125343539D01*
X137015060Y-125318332D01*
X137008596Y-125293850D01*
X137011556Y-125282298D01*
X137010749Y-125273997D01*
X137018581Y-125254881D01*
X137022235Y-125240624D01*
X137078431Y-125131153D01*
X151809500Y-125131153D01*
X151809500Y-125288846D01*
X151840261Y-125443489D01*
X151840264Y-125443501D01*
X151900602Y-125589172D01*
X151900609Y-125589185D01*
X151988210Y-125720288D01*
X151988213Y-125720292D01*
X152099707Y-125831786D01*
X152099711Y-125831789D01*
X152230814Y-125919390D01*
X152230827Y-125919397D01*
X152354466Y-125970609D01*
X152376503Y-125979737D01*
X152527312Y-126009735D01*
X152531153Y-126010499D01*
X152531156Y-126010500D01*
X152531158Y-126010500D01*
X152688844Y-126010500D01*
X152688845Y-126010499D01*
X152843497Y-125979737D01*
X152989179Y-125919394D01*
X153120289Y-125831789D01*
X153231789Y-125720289D01*
X153319394Y-125589179D01*
X153379737Y-125443497D01*
X153410500Y-125288842D01*
X153410500Y-125131158D01*
X153408510Y-125121153D01*
X166689500Y-125121153D01*
X166689500Y-125278846D01*
X166720261Y-125433489D01*
X166720264Y-125433501D01*
X166780602Y-125579172D01*
X166780609Y-125579185D01*
X166868210Y-125710288D01*
X166868213Y-125710292D01*
X166979707Y-125821786D01*
X166979711Y-125821789D01*
X167110814Y-125909390D01*
X167110827Y-125909397D01*
X167256498Y-125969735D01*
X167256503Y-125969737D01*
X167407061Y-125999685D01*
X167411153Y-126000499D01*
X167411156Y-126000500D01*
X167411158Y-126000500D01*
X167568844Y-126000500D01*
X167568845Y-126000499D01*
X167723497Y-125969737D01*
X167836166Y-125923067D01*
X167869172Y-125909397D01*
X167869172Y-125909396D01*
X167869179Y-125909394D01*
X168000289Y-125821789D01*
X168111789Y-125710289D01*
X168111791Y-125710285D01*
X168112667Y-125709410D01*
X168173990Y-125675925D01*
X168243682Y-125680909D01*
X168299616Y-125722780D01*
X168303451Y-125728200D01*
X168318210Y-125750288D01*
X168318213Y-125750292D01*
X168429707Y-125861786D01*
X168429711Y-125861789D01*
X168560814Y-125949390D01*
X168560827Y-125949397D01*
X168706498Y-126009735D01*
X168706503Y-126009737D01*
X168861153Y-126040499D01*
X168861156Y-126040500D01*
X168861158Y-126040500D01*
X169018844Y-126040500D01*
X169018845Y-126040499D01*
X169173497Y-126009737D01*
X169289262Y-125961786D01*
X169319172Y-125949397D01*
X169319172Y-125949396D01*
X169319179Y-125949394D01*
X169450289Y-125861789D01*
X169526647Y-125785430D01*
X169587968Y-125751947D01*
X169657660Y-125756931D01*
X169713594Y-125798802D01*
X169717429Y-125804221D01*
X169748213Y-125850292D01*
X169859707Y-125961786D01*
X169859711Y-125961789D01*
X169990814Y-126049390D01*
X169990827Y-126049397D01*
X170100543Y-126094842D01*
X170136503Y-126109737D01*
X170260708Y-126134443D01*
X170291153Y-126140499D01*
X170291156Y-126140500D01*
X170291158Y-126140500D01*
X170448844Y-126140500D01*
X170448845Y-126140499D01*
X170603497Y-126109737D01*
X170727895Y-126058210D01*
X170749172Y-126049397D01*
X170749172Y-126049396D01*
X170749179Y-126049394D01*
X170880289Y-125961789D01*
X170991789Y-125850289D01*
X171079394Y-125719179D01*
X171139737Y-125573497D01*
X171170500Y-125418842D01*
X171170500Y-125261158D01*
X171170500Y-125261155D01*
X171170499Y-125261153D01*
X171169251Y-125254881D01*
X171139737Y-125106503D01*
X171125832Y-125072932D01*
X171079397Y-124960827D01*
X171079390Y-124960814D01*
X170991789Y-124829711D01*
X170991786Y-124829707D01*
X170880292Y-124718213D01*
X170880288Y-124718210D01*
X170749185Y-124630609D01*
X170749172Y-124630602D01*
X170603501Y-124570264D01*
X170603489Y-124570261D01*
X170448845Y-124539500D01*
X170448842Y-124539500D01*
X170291158Y-124539500D01*
X170291155Y-124539500D01*
X170136510Y-124570261D01*
X170136498Y-124570264D01*
X169990827Y-124630602D01*
X169990814Y-124630609D01*
X169859711Y-124718210D01*
X169783353Y-124794568D01*
X169722029Y-124828052D01*
X169652338Y-124823067D01*
X169596404Y-124781196D01*
X169592570Y-124775777D01*
X169561789Y-124729711D01*
X169561786Y-124729707D01*
X169450292Y-124618213D01*
X169450288Y-124618210D01*
X169319185Y-124530609D01*
X169319172Y-124530602D01*
X169173501Y-124470264D01*
X169173489Y-124470261D01*
X169018845Y-124439500D01*
X169018842Y-124439500D01*
X168861158Y-124439500D01*
X168861155Y-124439500D01*
X168706510Y-124470261D01*
X168706498Y-124470264D01*
X168560827Y-124530602D01*
X168560814Y-124530609D01*
X168429711Y-124618210D01*
X168317331Y-124730590D01*
X168256008Y-124764074D01*
X168186316Y-124759090D01*
X168130383Y-124717218D01*
X168126548Y-124711799D01*
X168111789Y-124689710D01*
X168000292Y-124578213D01*
X168000288Y-124578210D01*
X167869185Y-124490609D01*
X167869172Y-124490602D01*
X167723501Y-124430264D01*
X167723489Y-124430261D01*
X167568845Y-124399500D01*
X167568842Y-124399500D01*
X167411158Y-124399500D01*
X167411155Y-124399500D01*
X167256510Y-124430261D01*
X167256498Y-124430264D01*
X167110827Y-124490602D01*
X167110814Y-124490609D01*
X166979711Y-124578210D01*
X166979707Y-124578213D01*
X166868213Y-124689707D01*
X166868210Y-124689711D01*
X166780609Y-124820814D01*
X166780602Y-124820827D01*
X166720264Y-124966498D01*
X166720261Y-124966510D01*
X166689500Y-125121153D01*
X153408510Y-125121153D01*
X153379737Y-124976503D01*
X153373241Y-124960821D01*
X153319397Y-124830827D01*
X153319390Y-124830814D01*
X153231789Y-124699711D01*
X153231786Y-124699707D01*
X153120292Y-124588213D01*
X153120288Y-124588210D01*
X152989185Y-124500609D01*
X152989172Y-124500602D01*
X152843501Y-124440264D01*
X152843489Y-124440261D01*
X152688845Y-124409500D01*
X152688842Y-124409500D01*
X152531158Y-124409500D01*
X152531155Y-124409500D01*
X152376510Y-124440261D01*
X152376498Y-124440264D01*
X152230827Y-124500602D01*
X152230814Y-124500609D01*
X152099711Y-124588210D01*
X152099707Y-124588213D01*
X151988213Y-124699707D01*
X151988210Y-124699711D01*
X151900609Y-124830814D01*
X151900602Y-124830827D01*
X151840264Y-124976498D01*
X151840261Y-124976510D01*
X151809500Y-125131153D01*
X137078431Y-125131153D01*
X137108319Y-125072932D01*
X137135412Y-125007523D01*
X137135415Y-125007516D01*
X137137904Y-124995000D01*
X136069728Y-124995000D01*
X136161614Y-124956940D01*
X136231940Y-124886614D01*
X136270000Y-124794728D01*
X136270000Y-124695272D01*
X136231940Y-124603386D01*
X136161614Y-124533060D01*
X136069728Y-124495000D01*
X136270000Y-124495000D01*
X137137904Y-124495000D01*
X137135415Y-124482483D01*
X137135412Y-124482476D01*
X137067571Y-124318693D01*
X137067566Y-124318683D01*
X136969076Y-124171283D01*
X136969073Y-124171279D01*
X136843720Y-124045926D01*
X136843716Y-124045923D01*
X136696316Y-123947433D01*
X136696307Y-123947428D01*
X136532520Y-123879586D01*
X136532512Y-123879584D01*
X136358646Y-123845000D01*
X136270000Y-123845000D01*
X136270000Y-124495000D01*
X136069728Y-124495000D01*
X135970272Y-124495000D01*
X135878386Y-124533060D01*
X135808060Y-124603386D01*
X135770000Y-124695272D01*
X135770000Y-124794728D01*
X135808060Y-124886614D01*
X135878386Y-124956940D01*
X135970272Y-124995000D01*
X134902096Y-124995000D01*
X134904584Y-125007516D01*
X134904587Y-125007523D01*
X134972429Y-125171308D01*
X135010552Y-125228364D01*
X135031429Y-125295042D01*
X135013566Y-125361403D01*
X134926523Y-125505391D01*
X134875913Y-125667807D01*
X134874723Y-125680909D01*
X134870426Y-125728200D01*
X134869500Y-125738386D01*
X134120638Y-125738386D01*
X134109375Y-124495000D01*
X134902096Y-124495000D01*
X135770000Y-124495000D01*
X135770000Y-123845000D01*
X135681353Y-123845000D01*
X135507487Y-123879584D01*
X135507479Y-123879586D01*
X135343692Y-123947428D01*
X135343683Y-123947433D01*
X135196283Y-124045923D01*
X135196279Y-124045926D01*
X135070926Y-124171279D01*
X135070923Y-124171283D01*
X134972433Y-124318683D01*
X134972428Y-124318693D01*
X134904587Y-124482476D01*
X134904584Y-124482483D01*
X134902096Y-124495000D01*
X134109375Y-124495000D01*
X134088688Y-122211153D01*
X138639500Y-122211153D01*
X138639500Y-122368846D01*
X138670261Y-122523489D01*
X138670264Y-122523501D01*
X138730602Y-122669172D01*
X138730609Y-122669185D01*
X138818210Y-122800288D01*
X138818213Y-122800292D01*
X138929707Y-122911786D01*
X138929711Y-122911789D01*
X139060814Y-122999390D01*
X139060827Y-122999397D01*
X139191419Y-123053489D01*
X139206503Y-123059737D01*
X139361153Y-123090499D01*
X139361156Y-123090500D01*
X139361158Y-123090500D01*
X139518844Y-123090500D01*
X139518845Y-123090499D01*
X139673497Y-123059737D01*
X139819179Y-122999394D01*
X139950289Y-122911789D01*
X140061789Y-122800289D01*
X140149394Y-122669179D01*
X140209737Y-122523497D01*
X140240500Y-122368842D01*
X140240500Y-122211158D01*
X140240500Y-122211155D01*
X140240499Y-122211153D01*
X140231957Y-122168210D01*
X140209737Y-122056503D01*
X140207152Y-122050263D01*
X140197166Y-122026153D01*
X146189500Y-122026153D01*
X146189500Y-122183846D01*
X146220261Y-122338489D01*
X146220264Y-122338501D01*
X146280602Y-122484172D01*
X146280609Y-122484185D01*
X146368210Y-122615288D01*
X146368213Y-122615292D01*
X146479707Y-122726786D01*
X146479711Y-122726789D01*
X146610814Y-122814390D01*
X146610827Y-122814397D01*
X146756498Y-122874735D01*
X146756503Y-122874737D01*
X146911153Y-122905499D01*
X146911156Y-122905500D01*
X146911158Y-122905500D01*
X147068844Y-122905500D01*
X147068845Y-122905499D01*
X147223497Y-122874737D01*
X147369179Y-122814394D01*
X147500289Y-122726789D01*
X147515925Y-122711153D01*
X170319500Y-122711153D01*
X170319500Y-122868846D01*
X170350261Y-123023489D01*
X170350264Y-123023501D01*
X170410606Y-123169179D01*
X170412317Y-123172381D01*
X170412705Y-123174248D01*
X170412937Y-123174807D01*
X170412831Y-123174850D01*
X170426555Y-123240784D01*
X170417516Y-123278279D01*
X170360264Y-123416498D01*
X170360261Y-123416510D01*
X170329500Y-123571153D01*
X170329500Y-123728846D01*
X170360261Y-123883489D01*
X170360264Y-123883501D01*
X170420602Y-124029172D01*
X170420609Y-124029185D01*
X170508210Y-124160288D01*
X170508213Y-124160292D01*
X170619707Y-124271786D01*
X170619711Y-124271789D01*
X170750814Y-124359390D01*
X170750827Y-124359397D01*
X170896498Y-124419735D01*
X170896503Y-124419737D01*
X171047312Y-124449735D01*
X171051153Y-124450499D01*
X171051156Y-124450500D01*
X171051158Y-124450500D01*
X171208844Y-124450500D01*
X171208845Y-124450499D01*
X171363497Y-124419737D01*
X171509179Y-124359394D01*
X171640289Y-124271789D01*
X171751789Y-124160289D01*
X171839394Y-124029179D01*
X171899737Y-123883497D01*
X171930500Y-123728842D01*
X171930500Y-123571158D01*
X171930500Y-123571155D01*
X171930499Y-123571153D01*
X171899737Y-123416503D01*
X171899735Y-123416498D01*
X171839397Y-123270828D01*
X171839396Y-123270827D01*
X171839394Y-123270821D01*
X171839390Y-123270815D01*
X171837687Y-123267629D01*
X171837297Y-123265759D01*
X171837063Y-123265193D01*
X171837170Y-123265148D01*
X171823444Y-123199227D01*
X171832482Y-123161723D01*
X171889737Y-123023497D01*
X171920500Y-122868842D01*
X171920500Y-122711158D01*
X171920500Y-122711155D01*
X171920499Y-122711153D01*
X171914402Y-122680500D01*
X171889737Y-122556503D01*
X171870363Y-122509729D01*
X171829397Y-122410827D01*
X171829390Y-122410814D01*
X171741789Y-122279711D01*
X171741786Y-122279707D01*
X171630292Y-122168213D01*
X171630288Y-122168210D01*
X171499185Y-122080609D01*
X171499172Y-122080602D01*
X171353501Y-122020264D01*
X171353489Y-122020261D01*
X171198845Y-121989500D01*
X171198842Y-121989500D01*
X171041158Y-121989500D01*
X171041155Y-121989500D01*
X170886510Y-122020261D01*
X170886498Y-122020264D01*
X170740827Y-122080602D01*
X170740814Y-122080609D01*
X170609711Y-122168210D01*
X170609707Y-122168213D01*
X170498213Y-122279707D01*
X170498210Y-122279711D01*
X170410609Y-122410814D01*
X170410602Y-122410827D01*
X170350264Y-122556498D01*
X170350261Y-122556510D01*
X170319500Y-122711153D01*
X147515925Y-122711153D01*
X147611789Y-122615289D01*
X147699394Y-122484179D01*
X147759737Y-122338497D01*
X147790500Y-122183842D01*
X147790500Y-122026158D01*
X147790500Y-122026155D01*
X147790499Y-122026153D01*
X147777440Y-121960500D01*
X147759737Y-121871503D01*
X147758865Y-121869397D01*
X147699397Y-121725827D01*
X147699390Y-121725814D01*
X147611789Y-121594711D01*
X147611786Y-121594707D01*
X147500292Y-121483213D01*
X147500288Y-121483210D01*
X147369185Y-121395609D01*
X147369172Y-121395602D01*
X147223501Y-121335264D01*
X147223489Y-121335261D01*
X147068845Y-121304500D01*
X147068842Y-121304500D01*
X146911158Y-121304500D01*
X146911155Y-121304500D01*
X146756510Y-121335261D01*
X146756498Y-121335264D01*
X146610827Y-121395602D01*
X146610814Y-121395609D01*
X146479711Y-121483210D01*
X146479707Y-121483213D01*
X146368213Y-121594707D01*
X146368210Y-121594711D01*
X146280609Y-121725814D01*
X146280602Y-121725827D01*
X146220264Y-121871498D01*
X146220261Y-121871510D01*
X146189500Y-122026153D01*
X140197166Y-122026153D01*
X140149397Y-121910827D01*
X140149390Y-121910814D01*
X140061789Y-121779711D01*
X140061786Y-121779707D01*
X139950292Y-121668213D01*
X139950288Y-121668210D01*
X139819185Y-121580609D01*
X139819172Y-121580602D01*
X139673501Y-121520264D01*
X139673489Y-121520261D01*
X139518845Y-121489500D01*
X139518842Y-121489500D01*
X139361158Y-121489500D01*
X139361155Y-121489500D01*
X139206510Y-121520261D01*
X139206498Y-121520264D01*
X139060827Y-121580602D01*
X139060814Y-121580609D01*
X138929711Y-121668210D01*
X138929707Y-121668213D01*
X138818213Y-121779707D01*
X138818210Y-121779711D01*
X138730609Y-121910814D01*
X138730602Y-121910827D01*
X138670264Y-122056498D01*
X138670261Y-122056510D01*
X138639500Y-122211153D01*
X134088688Y-122211153D01*
X134062738Y-119346304D01*
X134889500Y-119346304D01*
X134889500Y-119523695D01*
X134924103Y-119697658D01*
X134924106Y-119697667D01*
X134991983Y-119861540D01*
X134991991Y-119861555D01*
X135030265Y-119918834D01*
X135051144Y-119985511D01*
X135033281Y-120051875D01*
X134946523Y-120195391D01*
X134946522Y-120195393D01*
X134946522Y-120195394D01*
X134932878Y-120239179D01*
X134895913Y-120357807D01*
X134889500Y-120428386D01*
X134889500Y-120941613D01*
X134895913Y-121012192D01*
X134895913Y-121012194D01*
X134895914Y-121012196D01*
X134946522Y-121174606D01*
X135032306Y-121316510D01*
X135034530Y-121320188D01*
X135154811Y-121440469D01*
X135154813Y-121440470D01*
X135154815Y-121440472D01*
X135300394Y-121528478D01*
X135462804Y-121579086D01*
X135533384Y-121585500D01*
X135533387Y-121585500D01*
X136546613Y-121585500D01*
X136546616Y-121585500D01*
X136617196Y-121579086D01*
X136779606Y-121528478D01*
X136925185Y-121440472D01*
X137045472Y-121320185D01*
X137133478Y-121174606D01*
X137162599Y-121081153D01*
X140819500Y-121081153D01*
X140819500Y-121238846D01*
X140850261Y-121393489D01*
X140850264Y-121393501D01*
X140910602Y-121539172D01*
X140910609Y-121539185D01*
X140998210Y-121670288D01*
X140998213Y-121670292D01*
X141109707Y-121781786D01*
X141109711Y-121781789D01*
X141240814Y-121869390D01*
X141240827Y-121869397D01*
X141385139Y-121929172D01*
X141386503Y-121929737D01*
X141532823Y-121958842D01*
X141541153Y-121960499D01*
X141541156Y-121960500D01*
X141541158Y-121960500D01*
X141698844Y-121960500D01*
X141698845Y-121960499D01*
X141853497Y-121929737D01*
X141875945Y-121920438D01*
X141912000Y-121905505D01*
X141999172Y-121869397D01*
X141999172Y-121869396D01*
X141999179Y-121869394D01*
X142130289Y-121781789D01*
X142241789Y-121670289D01*
X142329394Y-121539179D01*
X142333827Y-121528478D01*
X142345285Y-121500814D01*
X142389737Y-121393497D01*
X142420500Y-121238842D01*
X142420500Y-121081158D01*
X142420500Y-121081155D01*
X142420499Y-121081153D01*
X142409917Y-121027954D01*
X142389737Y-120926503D01*
X142364153Y-120864737D01*
X142329397Y-120780827D01*
X142329390Y-120780814D01*
X142241789Y-120649711D01*
X142241786Y-120649707D01*
X142130292Y-120538213D01*
X142130288Y-120538210D01*
X141999185Y-120450609D01*
X141999172Y-120450602D01*
X141853501Y-120390264D01*
X141853489Y-120390261D01*
X141698845Y-120359500D01*
X141698842Y-120359500D01*
X141541158Y-120359500D01*
X141541155Y-120359500D01*
X141386510Y-120390261D01*
X141386498Y-120390264D01*
X141240827Y-120450602D01*
X141240814Y-120450609D01*
X141109711Y-120538210D01*
X141109707Y-120538213D01*
X140998213Y-120649707D01*
X140998210Y-120649711D01*
X140910609Y-120780814D01*
X140910602Y-120780827D01*
X140850264Y-120926498D01*
X140850261Y-120926510D01*
X140819500Y-121081153D01*
X137162599Y-121081153D01*
X137184086Y-121012196D01*
X137190500Y-120941616D01*
X137190500Y-120428384D01*
X137184086Y-120357804D01*
X137133478Y-120195394D01*
X137046716Y-120051873D01*
X137028881Y-119984322D01*
X137049731Y-119918839D01*
X137088013Y-119861547D01*
X137155894Y-119697666D01*
X137171233Y-119620555D01*
X137190499Y-119523695D01*
X137190500Y-119523693D01*
X137190500Y-119346306D01*
X137190499Y-119346304D01*
X137155896Y-119172341D01*
X137155893Y-119172332D01*
X137088016Y-119008459D01*
X137088009Y-119008446D01*
X136989464Y-118860965D01*
X136989461Y-118860961D01*
X136864038Y-118735538D01*
X136864034Y-118735535D01*
X136716553Y-118636990D01*
X136716540Y-118636983D01*
X136552667Y-118569106D01*
X136552658Y-118569103D01*
X136378694Y-118534500D01*
X136378691Y-118534500D01*
X135701309Y-118534500D01*
X135701306Y-118534500D01*
X135527341Y-118569103D01*
X135527332Y-118569106D01*
X135363459Y-118636983D01*
X135363446Y-118636990D01*
X135215965Y-118735535D01*
X135215961Y-118735538D01*
X135090538Y-118860961D01*
X135090535Y-118860965D01*
X134991990Y-119008446D01*
X134991983Y-119008459D01*
X134924106Y-119172332D01*
X134924103Y-119172341D01*
X134889500Y-119346304D01*
X134062738Y-119346304D01*
X134045934Y-117491153D01*
X142479500Y-117491153D01*
X142479500Y-117648846D01*
X142510261Y-117803489D01*
X142510264Y-117803501D01*
X142570602Y-117949172D01*
X142570609Y-117949185D01*
X142658210Y-118080288D01*
X142658213Y-118080292D01*
X142769707Y-118191786D01*
X142769711Y-118191789D01*
X142900814Y-118279390D01*
X142900827Y-118279397D01*
X142934178Y-118293211D01*
X143046503Y-118339737D01*
X143099692Y-118350316D01*
X143161601Y-118382699D01*
X143196176Y-118443414D01*
X143199500Y-118471933D01*
X143199500Y-118528846D01*
X143230261Y-118683489D01*
X143230264Y-118683501D01*
X143290602Y-118829172D01*
X143290609Y-118829185D01*
X143378210Y-118960288D01*
X143378213Y-118960292D01*
X143489708Y-119071787D01*
X143491840Y-119073537D01*
X143492655Y-119074734D01*
X143494018Y-119076097D01*
X143493759Y-119076355D01*
X143531172Y-119131284D01*
X143533039Y-119201129D01*
X143500853Y-119257068D01*
X143408210Y-119349711D01*
X143320609Y-119480814D01*
X143320602Y-119480827D01*
X143260264Y-119626498D01*
X143260261Y-119626510D01*
X143229500Y-119781153D01*
X143229500Y-119938846D01*
X143260261Y-120093489D01*
X143260264Y-120093501D01*
X143320602Y-120239172D01*
X143320609Y-120239185D01*
X143408210Y-120370288D01*
X143408213Y-120370292D01*
X143519707Y-120481786D01*
X143519711Y-120481789D01*
X143650814Y-120569390D01*
X143650827Y-120569397D01*
X143779702Y-120622778D01*
X143796503Y-120629737D01*
X143951153Y-120660499D01*
X143951156Y-120660500D01*
X143951158Y-120660500D01*
X144108843Y-120660500D01*
X144137722Y-120654755D01*
X144227244Y-120636948D01*
X144296833Y-120643175D01*
X144352011Y-120686037D01*
X144375256Y-120751927D01*
X144373051Y-120782756D01*
X144349500Y-120901153D01*
X144349500Y-121058846D01*
X144380261Y-121213489D01*
X144380264Y-121213501D01*
X144440602Y-121359172D01*
X144440609Y-121359185D01*
X144528210Y-121490288D01*
X144528213Y-121490292D01*
X144639707Y-121601786D01*
X144639711Y-121601789D01*
X144770814Y-121689390D01*
X144770827Y-121689397D01*
X144891810Y-121739509D01*
X144916503Y-121749737D01*
X145071153Y-121780499D01*
X145071156Y-121780500D01*
X145071158Y-121780500D01*
X145228844Y-121780500D01*
X145228845Y-121780499D01*
X145383497Y-121749737D01*
X145529179Y-121689394D01*
X145660289Y-121601789D01*
X145771789Y-121490289D01*
X145859394Y-121359179D01*
X145919737Y-121213497D01*
X145950500Y-121058842D01*
X145950500Y-120901158D01*
X145950500Y-120901155D01*
X145950499Y-120901153D01*
X145938455Y-120840606D01*
X145919737Y-120746503D01*
X145902320Y-120704454D01*
X145859397Y-120600827D01*
X145859390Y-120600814D01*
X145771789Y-120469711D01*
X145771786Y-120469707D01*
X145660292Y-120358213D01*
X145660288Y-120358210D01*
X145529185Y-120270609D01*
X145529172Y-120270602D01*
X145383501Y-120210264D01*
X145383489Y-120210261D01*
X145228845Y-120179500D01*
X145228842Y-120179500D01*
X145071158Y-120179500D01*
X145071155Y-120179500D01*
X144952756Y-120203051D01*
X144920078Y-120200127D01*
X144887310Y-120198370D01*
X144885449Y-120197028D01*
X144883165Y-120196824D01*
X144857250Y-120176693D01*
X144830639Y-120157503D01*
X144829799Y-120155368D01*
X144827987Y-120153961D01*
X144817072Y-120123022D01*
X144805058Y-120092485D01*
X144805221Y-120089428D01*
X144804743Y-120088071D01*
X144806947Y-120057247D01*
X144815121Y-120016153D01*
X149159500Y-120016153D01*
X149159500Y-120173846D01*
X149190261Y-120328489D01*
X149190264Y-120328501D01*
X149250602Y-120474172D01*
X149250609Y-120474185D01*
X149338210Y-120605288D01*
X149338213Y-120605292D01*
X149449707Y-120716786D01*
X149449711Y-120716789D01*
X149580814Y-120804390D01*
X149580827Y-120804397D01*
X149668245Y-120840606D01*
X149726503Y-120864737D01*
X149807104Y-120880769D01*
X149869013Y-120913153D01*
X149903587Y-120973869D01*
X149899848Y-121043638D01*
X149858982Y-121100310D01*
X149830364Y-121116947D01*
X149700824Y-121170604D01*
X149700814Y-121170609D01*
X149569711Y-121258210D01*
X149569707Y-121258213D01*
X149458213Y-121369707D01*
X149458210Y-121369711D01*
X149370609Y-121500814D01*
X149370602Y-121500827D01*
X149310264Y-121646498D01*
X149310261Y-121646510D01*
X149279500Y-121801153D01*
X149279500Y-121958846D01*
X149310261Y-122113489D01*
X149310264Y-122113501D01*
X149370602Y-122259172D01*
X149370609Y-122259185D01*
X149458210Y-122390288D01*
X149458213Y-122390292D01*
X149569707Y-122501786D01*
X149569711Y-122501789D01*
X149700814Y-122589390D01*
X149700827Y-122589397D01*
X149846498Y-122649735D01*
X149846503Y-122649737D01*
X150001153Y-122680499D01*
X150001156Y-122680500D01*
X150001158Y-122680500D01*
X150158844Y-122680500D01*
X150158845Y-122680499D01*
X150313497Y-122649737D01*
X150371568Y-122625683D01*
X150456498Y-122590505D01*
X150456499Y-122590504D01*
X150459179Y-122589394D01*
X150590289Y-122501789D01*
X150701789Y-122390289D01*
X150789394Y-122259179D01*
X150849737Y-122113497D01*
X150880500Y-121958842D01*
X150880500Y-121801158D01*
X150880500Y-121801155D01*
X150880499Y-121801153D01*
X150868235Y-121739497D01*
X150849737Y-121646503D01*
X150842423Y-121628846D01*
X150794240Y-121512518D01*
X150789396Y-121500826D01*
X150789390Y-121500814D01*
X150769571Y-121471153D01*
X172849500Y-121471153D01*
X172849500Y-121628846D01*
X172880261Y-121783489D01*
X172880264Y-121783501D01*
X172940602Y-121929172D01*
X172940609Y-121929185D01*
X173028210Y-122060288D01*
X173028213Y-122060292D01*
X173139707Y-122171786D01*
X173139711Y-122171789D01*
X173270814Y-122259390D01*
X173270827Y-122259397D01*
X173392288Y-122309707D01*
X173416503Y-122319737D01*
X173464611Y-122329306D01*
X173521692Y-122340661D01*
X173583603Y-122373046D01*
X173618177Y-122433762D01*
X173614438Y-122503531D01*
X173612063Y-122509729D01*
X173580263Y-122586503D01*
X173580261Y-122586510D01*
X173549500Y-122741153D01*
X173549500Y-122898846D01*
X173580261Y-123053489D01*
X173580264Y-123053501D01*
X173640606Y-123199179D01*
X173642317Y-123202381D01*
X173642705Y-123204248D01*
X173642937Y-123204807D01*
X173642831Y-123204850D01*
X173656555Y-123270784D01*
X173647516Y-123308279D01*
X173590264Y-123446498D01*
X173590261Y-123446510D01*
X173559500Y-123601153D01*
X173559500Y-123758846D01*
X173590261Y-123913489D01*
X173590264Y-123913501D01*
X173650602Y-124059172D01*
X173650609Y-124059185D01*
X173738210Y-124190288D01*
X173738213Y-124190292D01*
X173849707Y-124301786D01*
X173849711Y-124301789D01*
X173980814Y-124389390D01*
X173980827Y-124389397D01*
X174103633Y-124440264D01*
X174126503Y-124449737D01*
X174229699Y-124470264D01*
X174281153Y-124480499D01*
X174281156Y-124480500D01*
X174281158Y-124480500D01*
X174438844Y-124480500D01*
X174438845Y-124480499D01*
X174593497Y-124449737D01*
X174739179Y-124389394D01*
X174870289Y-124301789D01*
X174981789Y-124190289D01*
X175069394Y-124059179D01*
X175129737Y-123913497D01*
X175160500Y-123758842D01*
X175160500Y-123601158D01*
X175160500Y-123601155D01*
X175160499Y-123601153D01*
X175129738Y-123446510D01*
X175129737Y-123446503D01*
X175069394Y-123300821D01*
X175069390Y-123300815D01*
X175067687Y-123297629D01*
X175067297Y-123295759D01*
X175067063Y-123295193D01*
X175067170Y-123295148D01*
X175066033Y-123289687D01*
X175061132Y-123283224D01*
X175059013Y-123255976D01*
X175053444Y-123229227D01*
X175056345Y-123221653D01*
X175055717Y-123213565D01*
X175062481Y-123191725D01*
X175119737Y-123053497D01*
X175150500Y-122898842D01*
X175150500Y-122741158D01*
X175150500Y-122741155D01*
X175150499Y-122741153D01*
X175138434Y-122680499D01*
X175119737Y-122586503D01*
X175093641Y-122523501D01*
X175059397Y-122440827D01*
X175059390Y-122440814D01*
X174971789Y-122309711D01*
X174971786Y-122309707D01*
X174860292Y-122198213D01*
X174860288Y-122198210D01*
X174729185Y-122110609D01*
X174729172Y-122110602D01*
X174583501Y-122050264D01*
X174583491Y-122050261D01*
X174478306Y-122029338D01*
X174416395Y-121996953D01*
X174381821Y-121936237D01*
X174385562Y-121866467D01*
X174387928Y-121860289D01*
X174419737Y-121783497D01*
X174450500Y-121628842D01*
X174450500Y-121471158D01*
X174450500Y-121471155D01*
X174450499Y-121471153D01*
X174444396Y-121440472D01*
X174419737Y-121316503D01*
X174404022Y-121278563D01*
X174360655Y-121173865D01*
X174360654Y-121173864D01*
X174360653Y-121173860D01*
X174359396Y-121170825D01*
X174359390Y-121170814D01*
X174331529Y-121129117D01*
X175430538Y-121129117D01*
X175430538Y-121130882D01*
X175432470Y-121175030D01*
X175437472Y-121232047D01*
X175443421Y-121276802D01*
X175443736Y-121278563D01*
X175453660Y-121322624D01*
X175468667Y-121377648D01*
X175474453Y-121395606D01*
X175482741Y-121421331D01*
X175483376Y-121423033D01*
X175501404Y-121465363D01*
X175525371Y-121515215D01*
X175536679Y-121584162D01*
X175528177Y-121616395D01*
X175477186Y-121739497D01*
X175477183Y-121739509D01*
X175445500Y-121898789D01*
X175445500Y-122061210D01*
X175477183Y-122220490D01*
X175477186Y-122220502D01*
X175533952Y-122357548D01*
X175541421Y-122427017D01*
X175533952Y-122452452D01*
X175477186Y-122589497D01*
X175477183Y-122589509D01*
X175445500Y-122748789D01*
X175445500Y-122911210D01*
X175477183Y-123070490D01*
X175477186Y-123070502D01*
X175533952Y-123207548D01*
X175534154Y-123209434D01*
X175535303Y-123210949D01*
X175537875Y-123244036D01*
X175541421Y-123277017D01*
X175540644Y-123279661D01*
X175540718Y-123280608D01*
X175539944Y-123282046D01*
X175533952Y-123302452D01*
X175477186Y-123439497D01*
X175477183Y-123439509D01*
X175445500Y-123598789D01*
X175445500Y-123761210D01*
X175477183Y-123920490D01*
X175477186Y-123920502D01*
X175533952Y-124057548D01*
X175541421Y-124127017D01*
X175533952Y-124152452D01*
X175477186Y-124289497D01*
X175477183Y-124289509D01*
X175445500Y-124448789D01*
X175445500Y-124611210D01*
X175477183Y-124770490D01*
X175477185Y-124770498D01*
X175528177Y-124893603D01*
X175535646Y-124963073D01*
X175525371Y-124994785D01*
X175501413Y-125044617D01*
X175501405Y-125044633D01*
X175483376Y-125086965D01*
X175482741Y-125088667D01*
X175468667Y-125132351D01*
X175453660Y-125187375D01*
X175443736Y-125231436D01*
X175443421Y-125233197D01*
X175437472Y-125277952D01*
X175432470Y-125334969D01*
X175430538Y-125379117D01*
X175430538Y-125380882D01*
X175432470Y-125425030D01*
X175437472Y-125482047D01*
X175443421Y-125526802D01*
X175443736Y-125528563D01*
X175453660Y-125572624D01*
X175468667Y-125627648D01*
X175482741Y-125671332D01*
X175483376Y-125673034D01*
X175499243Y-125710289D01*
X175501404Y-125715363D01*
X175503774Y-125720292D01*
X175518945Y-125751849D01*
X175530251Y-125820798D01*
X175518945Y-125859304D01*
X175501864Y-125894833D01*
X175501856Y-125894850D01*
X175483844Y-125937141D01*
X175483210Y-125938841D01*
X175469950Y-125980000D01*
X175635317Y-125980000D01*
X175702356Y-125999685D01*
X175717938Y-126011535D01*
X175735532Y-126027255D01*
X175738025Y-126029483D01*
X175739380Y-126030591D01*
X175774881Y-126057112D01*
X175774890Y-126057118D01*
X175810198Y-126081158D01*
X175821881Y-126089112D01*
X175860974Y-126113205D01*
X175861765Y-126113644D01*
X175862551Y-126114081D01*
X175862556Y-126114083D01*
X175862557Y-126114084D01*
X175903477Y-126134443D01*
X175955477Y-126157443D01*
X175995858Y-126173269D01*
X175997478Y-126173825D01*
X175997489Y-126173828D01*
X175997497Y-126173831D01*
X176034984Y-126184927D01*
X176038973Y-126186108D01*
X176070000Y-126193864D01*
X176070000Y-126269782D01*
X176100448Y-126343291D01*
X176156709Y-126399552D01*
X176230218Y-126430000D01*
X176309782Y-126430000D01*
X176383291Y-126399552D01*
X176439552Y-126343291D01*
X176470000Y-126269782D01*
X176470000Y-126194924D01*
X176477994Y-126192981D01*
X176532994Y-126176981D01*
X176578001Y-126161556D01*
X176579750Y-126160863D01*
X176623134Y-126141262D01*
X176674134Y-126115262D01*
X176710414Y-126094842D01*
X176711816Y-126093975D01*
X176746409Y-126070553D01*
X176747458Y-126069777D01*
X176747664Y-126069702D01*
X176748530Y-126069116D01*
X176748676Y-126069331D01*
X176767904Y-126062294D01*
X176786221Y-126050523D01*
X176809026Y-126047244D01*
X176813070Y-126045764D01*
X176821156Y-126045500D01*
X177068844Y-126045500D01*
X177135883Y-126065185D01*
X177142535Y-126069772D01*
X177143591Y-126070553D01*
X177178184Y-126093975D01*
X177179586Y-126094842D01*
X177215866Y-126115262D01*
X177266866Y-126141262D01*
X177310250Y-126160863D01*
X177311999Y-126161556D01*
X177357006Y-126176981D01*
X177412006Y-126192981D01*
X177420000Y-126194924D01*
X177420000Y-126269782D01*
X177450448Y-126343291D01*
X177506709Y-126399552D01*
X177580218Y-126430000D01*
X177659782Y-126430000D01*
X177733291Y-126399552D01*
X177789552Y-126343291D01*
X177820000Y-126269782D01*
X177820000Y-126193864D01*
X177851027Y-126186108D01*
X177892522Y-126173825D01*
X177894142Y-126173269D01*
X177934523Y-126157443D01*
X177986523Y-126134443D01*
X178027443Y-126114084D01*
X178029026Y-126113205D01*
X178068119Y-126089112D01*
X178115119Y-126057112D01*
X178150620Y-126030591D01*
X178151975Y-126029483D01*
X178163442Y-126019235D01*
X178172062Y-126011535D01*
X178235168Y-125981545D01*
X178254683Y-125980000D01*
X178420049Y-125980000D01*
X178406789Y-125938841D01*
X178406155Y-125937141D01*
X178388143Y-125894850D01*
X178371055Y-125859307D01*
X178359747Y-125790358D01*
X178371054Y-125751850D01*
X178388596Y-125715363D01*
X178406624Y-125673033D01*
X178407259Y-125671331D01*
X178421336Y-125627637D01*
X178436336Y-125572637D01*
X178446264Y-125528562D01*
X178446578Y-125526805D01*
X178452528Y-125482046D01*
X178457528Y-125425046D01*
X178457529Y-125425030D01*
X178459462Y-125380882D01*
X178459462Y-125379117D01*
X178457529Y-125334969D01*
X178457528Y-125334954D01*
X178452528Y-125277954D01*
X178446578Y-125233195D01*
X178446264Y-125231438D01*
X178436336Y-125187363D01*
X178421336Y-125132363D01*
X178407259Y-125088669D01*
X178406624Y-125086967D01*
X178388596Y-125044637D01*
X178364627Y-124994782D01*
X178353320Y-124925836D01*
X178361819Y-124893611D01*
X178412815Y-124770498D01*
X178444500Y-124611206D01*
X178444500Y-124448794D01*
X178412815Y-124289502D01*
X178356047Y-124152453D01*
X178348578Y-124082984D01*
X178356047Y-124057547D01*
X178367800Y-124029172D01*
X178412815Y-123920498D01*
X178444500Y-123761206D01*
X178444500Y-123598794D01*
X178412815Y-123439502D01*
X178356047Y-123302453D01*
X178348578Y-123232984D01*
X178356047Y-123207547D01*
X178364116Y-123188064D01*
X178412815Y-123070498D01*
X178444500Y-122911206D01*
X178444500Y-122748794D01*
X178412815Y-122589502D01*
X178356047Y-122452453D01*
X178348578Y-122382984D01*
X178356047Y-122357547D01*
X178375863Y-122309707D01*
X178412815Y-122220498D01*
X178444500Y-122061206D01*
X178444500Y-121901153D01*
X179659500Y-121901153D01*
X179659500Y-122058846D01*
X179690261Y-122213489D01*
X179690264Y-122213501D01*
X179750602Y-122359172D01*
X179750609Y-122359185D01*
X179838210Y-122490288D01*
X179838213Y-122490292D01*
X179949707Y-122601786D01*
X179949711Y-122601789D01*
X180080814Y-122689390D01*
X180080827Y-122689397D01*
X180171101Y-122726789D01*
X180226503Y-122749737D01*
X180381153Y-122780499D01*
X180381156Y-122780500D01*
X180381158Y-122780500D01*
X180538844Y-122780500D01*
X180538845Y-122780499D01*
X180693497Y-122749737D01*
X180839179Y-122689394D01*
X180970289Y-122601789D01*
X181081789Y-122490289D01*
X181169394Y-122359179D01*
X181229737Y-122213497D01*
X181260500Y-122058842D01*
X181260500Y-121901158D01*
X181260500Y-121901155D01*
X181260499Y-121901153D01*
X181252366Y-121860268D01*
X181229737Y-121746503D01*
X181221170Y-121725821D01*
X181169397Y-121600827D01*
X181169390Y-121600814D01*
X181081789Y-121469711D01*
X181081786Y-121469707D01*
X180970292Y-121358213D01*
X180970288Y-121358210D01*
X180839185Y-121270609D01*
X180839172Y-121270602D01*
X180693501Y-121210264D01*
X180693489Y-121210261D01*
X180538845Y-121179500D01*
X180538842Y-121179500D01*
X180381158Y-121179500D01*
X180381155Y-121179500D01*
X180226510Y-121210261D01*
X180226498Y-121210264D01*
X180080827Y-121270602D01*
X180080814Y-121270609D01*
X179949711Y-121358210D01*
X179949707Y-121358213D01*
X179838213Y-121469707D01*
X179838210Y-121469711D01*
X179750609Y-121600814D01*
X179750602Y-121600827D01*
X179690264Y-121746498D01*
X179690261Y-121746510D01*
X179659500Y-121901153D01*
X178444500Y-121901153D01*
X178444500Y-121898794D01*
X178412815Y-121739502D01*
X178361821Y-121616394D01*
X178354353Y-121546928D01*
X178364627Y-121515217D01*
X178388596Y-121465363D01*
X178406624Y-121423033D01*
X178407259Y-121421331D01*
X178421336Y-121377637D01*
X178436336Y-121322637D01*
X178446264Y-121278562D01*
X178446578Y-121276805D01*
X178452528Y-121232046D01*
X178457528Y-121175046D01*
X178457529Y-121175030D01*
X178459462Y-121130882D01*
X178459462Y-121129117D01*
X178457529Y-121084969D01*
X178457195Y-121081158D01*
X178452528Y-121027954D01*
X178446578Y-120983195D01*
X178446264Y-120981438D01*
X178437294Y-120941616D01*
X178436339Y-120937375D01*
X178436336Y-120937363D01*
X178421336Y-120882363D01*
X178407259Y-120838669D01*
X178406624Y-120836967D01*
X178388596Y-120794637D01*
X178371055Y-120758151D01*
X178359748Y-120689202D01*
X178371056Y-120650691D01*
X178388135Y-120615167D01*
X178388143Y-120615149D01*
X178406155Y-120572858D01*
X178406789Y-120571158D01*
X178420050Y-120530000D01*
X178254683Y-120530000D01*
X178187644Y-120510315D01*
X178172062Y-120498465D01*
X178151975Y-120480517D01*
X178150624Y-120479412D01*
X178137633Y-120469707D01*
X178115119Y-120452888D01*
X178111772Y-120450609D01*
X178068127Y-120420893D01*
X178029023Y-120396793D01*
X178029019Y-120396791D01*
X178027448Y-120395918D01*
X177986549Y-120375570D01*
X177986523Y-120375557D01*
X177974613Y-120370289D01*
X177934527Y-120352558D01*
X177894147Y-120336733D01*
X177894142Y-120336731D01*
X177892522Y-120336175D01*
X177892524Y-120336175D01*
X177892502Y-120336168D01*
X177851036Y-120323894D01*
X177820000Y-120316135D01*
X177820000Y-120240218D01*
X177789552Y-120166709D01*
X177733291Y-120110448D01*
X177659782Y-120080000D01*
X177580218Y-120080000D01*
X177506709Y-120110448D01*
X177450448Y-120166709D01*
X177420000Y-120240218D01*
X177420000Y-120315074D01*
X177412011Y-120317017D01*
X177369702Y-120329325D01*
X177357006Y-120333019D01*
X177335324Y-120340449D01*
X177311992Y-120348446D01*
X177310250Y-120349136D01*
X177266888Y-120368727D01*
X177266848Y-120368746D01*
X177215868Y-120394736D01*
X177179591Y-120415154D01*
X177178183Y-120416025D01*
X177170994Y-120420893D01*
X177143591Y-120439447D01*
X177142541Y-120440222D01*
X177142335Y-120440297D01*
X177141470Y-120440884D01*
X177141323Y-120440668D01*
X177122095Y-120447705D01*
X177103779Y-120459477D01*
X177080973Y-120462755D01*
X177076930Y-120464236D01*
X177068844Y-120464500D01*
X176821156Y-120464500D01*
X176754117Y-120444815D01*
X176747464Y-120440227D01*
X176746409Y-120439447D01*
X176711816Y-120416025D01*
X176710414Y-120415158D01*
X176710408Y-120415154D01*
X176674131Y-120394736D01*
X176623151Y-120368746D01*
X176623111Y-120368727D01*
X176579749Y-120349136D01*
X176578007Y-120348446D01*
X176574712Y-120347316D01*
X176532994Y-120333019D01*
X176487492Y-120319782D01*
X176477988Y-120317017D01*
X176470000Y-120315074D01*
X176470000Y-120240218D01*
X176439552Y-120166709D01*
X176383291Y-120110448D01*
X176309782Y-120080000D01*
X176230218Y-120080000D01*
X176156709Y-120110448D01*
X176100448Y-120166709D01*
X176070000Y-120240218D01*
X176070000Y-120316134D01*
X176038963Y-120323894D01*
X175997497Y-120336168D01*
X175995852Y-120336733D01*
X175955472Y-120352558D01*
X175903503Y-120375545D01*
X175903485Y-120375553D01*
X175903477Y-120375557D01*
X175903466Y-120375562D01*
X175903450Y-120375570D01*
X175862551Y-120395918D01*
X175860980Y-120396791D01*
X175860976Y-120396793D01*
X175821872Y-120420893D01*
X175774890Y-120452881D01*
X175739375Y-120479412D01*
X175738024Y-120480517D01*
X175717938Y-120498465D01*
X175654832Y-120528455D01*
X175635317Y-120530000D01*
X175469950Y-120530000D01*
X175483210Y-120571158D01*
X175483844Y-120572858D01*
X175501856Y-120615149D01*
X175501864Y-120615167D01*
X175518944Y-120650693D01*
X175530251Y-120719642D01*
X175518945Y-120758148D01*
X175501420Y-120794600D01*
X175501405Y-120794633D01*
X175483376Y-120836965D01*
X175482741Y-120838667D01*
X175468667Y-120882351D01*
X175453660Y-120937375D01*
X175443736Y-120981436D01*
X175443421Y-120983197D01*
X175437472Y-121027952D01*
X175432470Y-121084969D01*
X175430538Y-121129117D01*
X174331529Y-121129117D01*
X174271789Y-121039711D01*
X174271786Y-121039707D01*
X174160292Y-120928213D01*
X174160288Y-120928210D01*
X174029185Y-120840609D01*
X174029172Y-120840602D01*
X173883501Y-120780264D01*
X173883489Y-120780261D01*
X173728845Y-120749500D01*
X173728842Y-120749500D01*
X173571158Y-120749500D01*
X173571155Y-120749500D01*
X173416510Y-120780261D01*
X173416498Y-120780264D01*
X173270827Y-120840602D01*
X173270814Y-120840609D01*
X173139711Y-120928210D01*
X173139707Y-120928213D01*
X173028213Y-121039707D01*
X173028210Y-121039711D01*
X172940609Y-121170814D01*
X172940602Y-121170827D01*
X172880264Y-121316498D01*
X172880261Y-121316510D01*
X172849500Y-121471153D01*
X150769571Y-121471153D01*
X150701789Y-121369711D01*
X150701786Y-121369707D01*
X150590292Y-121258213D01*
X150590288Y-121258210D01*
X150459185Y-121170609D01*
X150459172Y-121170602D01*
X150313501Y-121110264D01*
X150313489Y-121110261D01*
X150232897Y-121094230D01*
X150170986Y-121061845D01*
X150136412Y-121001129D01*
X150140151Y-120931360D01*
X150181018Y-120874688D01*
X150209636Y-120858052D01*
X150339172Y-120804397D01*
X150339172Y-120804396D01*
X150339179Y-120804394D01*
X150470289Y-120716789D01*
X150581789Y-120605289D01*
X150669394Y-120474179D01*
X150716655Y-120360079D01*
X150760494Y-120305678D01*
X150807024Y-120285916D01*
X150816895Y-120283952D01*
X150913497Y-120264737D01*
X151026166Y-120218067D01*
X151059172Y-120204397D01*
X151059172Y-120204396D01*
X151059179Y-120204394D01*
X151190289Y-120116789D01*
X151301789Y-120005289D01*
X151389394Y-119874179D01*
X151449737Y-119728497D01*
X151480500Y-119573842D01*
X151480500Y-119416158D01*
X151480500Y-119416155D01*
X151480499Y-119416153D01*
X151463519Y-119330788D01*
X151449737Y-119261503D01*
X151426037Y-119204285D01*
X151389397Y-119115827D01*
X151389390Y-119115814D01*
X151301789Y-118984711D01*
X151301786Y-118984707D01*
X151190292Y-118873213D01*
X151190288Y-118873210D01*
X151059185Y-118785609D01*
X151059175Y-118785604D01*
X150978289Y-118752100D01*
X150923886Y-118708259D01*
X150911180Y-118684991D01*
X150909738Y-118681510D01*
X150909737Y-118681503D01*
X150849394Y-118535821D01*
X150849392Y-118535818D01*
X150849390Y-118535814D01*
X150761789Y-118404711D01*
X150761786Y-118404707D01*
X150650292Y-118293213D01*
X150650288Y-118293210D01*
X150519185Y-118205609D01*
X150519172Y-118205602D01*
X150373501Y-118145264D01*
X150373489Y-118145261D01*
X150218845Y-118114500D01*
X150218842Y-118114500D01*
X150061158Y-118114500D01*
X150061155Y-118114500D01*
X149906510Y-118145261D01*
X149906498Y-118145264D01*
X149760827Y-118205602D01*
X149760814Y-118205609D01*
X149629711Y-118293210D01*
X149629707Y-118293213D01*
X149518213Y-118404707D01*
X149518210Y-118404711D01*
X149430609Y-118535814D01*
X149430602Y-118535827D01*
X149370264Y-118681498D01*
X149370261Y-118681510D01*
X149339500Y-118836153D01*
X149339500Y-118993846D01*
X149370261Y-119148489D01*
X149370264Y-119148501D01*
X149430602Y-119294172D01*
X149430610Y-119294187D01*
X149453430Y-119328338D01*
X149474309Y-119395015D01*
X149455825Y-119462396D01*
X149438010Y-119484911D01*
X149338213Y-119584707D01*
X149338210Y-119584711D01*
X149250609Y-119715814D01*
X149250602Y-119715827D01*
X149190264Y-119861498D01*
X149190261Y-119861510D01*
X149159500Y-120016153D01*
X144815121Y-120016153D01*
X144822842Y-119977340D01*
X144830500Y-119938844D01*
X144830500Y-119781155D01*
X144830499Y-119781153D01*
X144817505Y-119715827D01*
X144799737Y-119626503D01*
X144784714Y-119590234D01*
X144739397Y-119480827D01*
X144739390Y-119480814D01*
X144651789Y-119349711D01*
X144651786Y-119349707D01*
X144540289Y-119238210D01*
X144538158Y-119236461D01*
X144537342Y-119235263D01*
X144535982Y-119233903D01*
X144536240Y-119233644D01*
X144498827Y-119178713D01*
X144496960Y-119108868D01*
X144529145Y-119052932D01*
X144621789Y-118960289D01*
X144709394Y-118829179D01*
X144769737Y-118683497D01*
X144800500Y-118528842D01*
X144800500Y-118371158D01*
X144800500Y-118371155D01*
X144800499Y-118371153D01*
X144794250Y-118339736D01*
X144769737Y-118216503D01*
X144757027Y-118185817D01*
X144709397Y-118070827D01*
X144709390Y-118070814D01*
X144621789Y-117939711D01*
X144621786Y-117939707D01*
X144510292Y-117828213D01*
X144510288Y-117828210D01*
X144379185Y-117740609D01*
X144379172Y-117740602D01*
X144233501Y-117680264D01*
X144233492Y-117680261D01*
X144180307Y-117669682D01*
X144152180Y-117654968D01*
X144123297Y-117641778D01*
X144121439Y-117638887D01*
X144118397Y-117637296D01*
X144102689Y-117609712D01*
X144085523Y-117583000D01*
X144084862Y-117578405D01*
X144083823Y-117576580D01*
X144080500Y-117548065D01*
X144080500Y-117491155D01*
X144080499Y-117491153D01*
X151119500Y-117491153D01*
X151119500Y-117648846D01*
X151150261Y-117803489D01*
X151150264Y-117803501D01*
X151210602Y-117949172D01*
X151210609Y-117949185D01*
X151298210Y-118080288D01*
X151298213Y-118080292D01*
X151409707Y-118191786D01*
X151409711Y-118191789D01*
X151540814Y-118279390D01*
X151540827Y-118279397D01*
X151668464Y-118332265D01*
X151686503Y-118339737D01*
X151839685Y-118370207D01*
X151841153Y-118370499D01*
X151841156Y-118370500D01*
X151841158Y-118370500D01*
X151998844Y-118370500D01*
X151998845Y-118370499D01*
X152153497Y-118339737D01*
X152299179Y-118279394D01*
X152430289Y-118191789D01*
X152541789Y-118080289D01*
X152629394Y-117949179D01*
X152689737Y-117803497D01*
X152720500Y-117648842D01*
X152720500Y-117491158D01*
X152720500Y-117491155D01*
X152720499Y-117491153D01*
X152708565Y-117431158D01*
X152689737Y-117336503D01*
X152689735Y-117336498D01*
X152629397Y-117190827D01*
X152629390Y-117190814D01*
X152541789Y-117059711D01*
X152541786Y-117059707D01*
X152430292Y-116948213D01*
X152430288Y-116948210D01*
X152299185Y-116860609D01*
X152299172Y-116860602D01*
X152153501Y-116800264D01*
X152153489Y-116800261D01*
X151998845Y-116769500D01*
X151998842Y-116769500D01*
X151841158Y-116769500D01*
X151841155Y-116769500D01*
X151686510Y-116800261D01*
X151686498Y-116800264D01*
X151540827Y-116860602D01*
X151540814Y-116860609D01*
X151409711Y-116948210D01*
X151409707Y-116948213D01*
X151298213Y-117059707D01*
X151298210Y-117059711D01*
X151210609Y-117190814D01*
X151210602Y-117190827D01*
X151150264Y-117336498D01*
X151150261Y-117336510D01*
X151119500Y-117491153D01*
X144080499Y-117491153D01*
X144068565Y-117431158D01*
X144049737Y-117336503D01*
X144049735Y-117336498D01*
X143989397Y-117190827D01*
X143989390Y-117190814D01*
X143901789Y-117059711D01*
X143901786Y-117059707D01*
X143790292Y-116948213D01*
X143790288Y-116948210D01*
X143659185Y-116860609D01*
X143659172Y-116860602D01*
X143513501Y-116800264D01*
X143513489Y-116800261D01*
X143358845Y-116769500D01*
X143358842Y-116769500D01*
X143201158Y-116769500D01*
X143201155Y-116769500D01*
X143046510Y-116800261D01*
X143046498Y-116800264D01*
X142900827Y-116860602D01*
X142900814Y-116860609D01*
X142769711Y-116948210D01*
X142769707Y-116948213D01*
X142658213Y-117059707D01*
X142658210Y-117059711D01*
X142570609Y-117190814D01*
X142570602Y-117190827D01*
X142510264Y-117336498D01*
X142510261Y-117336510D01*
X142479500Y-117491153D01*
X134045934Y-117491153D01*
X133991225Y-111451304D01*
X134859500Y-111451304D01*
X134859500Y-111628695D01*
X134894103Y-111802658D01*
X134894106Y-111802667D01*
X134961983Y-111966540D01*
X134961990Y-111966553D01*
X135048557Y-112096109D01*
X135069435Y-112162787D01*
X135050950Y-112230167D01*
X135048557Y-112233891D01*
X134961990Y-112363446D01*
X134961983Y-112363459D01*
X134894106Y-112527332D01*
X134894103Y-112527341D01*
X134859500Y-112701304D01*
X134859500Y-112878695D01*
X134894103Y-113052658D01*
X134894106Y-113052667D01*
X134961983Y-113216540D01*
X134961990Y-113216553D01*
X135048557Y-113346109D01*
X135069435Y-113412787D01*
X135050950Y-113480167D01*
X135048557Y-113483891D01*
X134961990Y-113613446D01*
X134961983Y-113613459D01*
X134894106Y-113777332D01*
X134894103Y-113777341D01*
X134859500Y-113951304D01*
X134859500Y-114128695D01*
X134894103Y-114302658D01*
X134894106Y-114302667D01*
X134961983Y-114466540D01*
X134961991Y-114466555D01*
X135000265Y-114523834D01*
X135021144Y-114590511D01*
X135003281Y-114656875D01*
X134916523Y-114800391D01*
X134865913Y-114962807D01*
X134859500Y-115033386D01*
X134859500Y-115546613D01*
X134865913Y-115617192D01*
X134865913Y-115617194D01*
X134865914Y-115617196D01*
X134888043Y-115688211D01*
X134916522Y-115779606D01*
X135004530Y-115925188D01*
X135124811Y-116045469D01*
X135124813Y-116045470D01*
X135124815Y-116045472D01*
X135270394Y-116133478D01*
X135432804Y-116184086D01*
X135503384Y-116190500D01*
X135503387Y-116190500D01*
X136516613Y-116190500D01*
X136516616Y-116190500D01*
X136587196Y-116184086D01*
X136749606Y-116133478D01*
X136895185Y-116045472D01*
X137015472Y-115925185D01*
X137103478Y-115779606D01*
X137134157Y-115681153D01*
X139149500Y-115681153D01*
X139149500Y-115838846D01*
X139180261Y-115993489D01*
X139180264Y-115993501D01*
X139240602Y-116139172D01*
X139240609Y-116139185D01*
X139328210Y-116270288D01*
X139328213Y-116270292D01*
X139439707Y-116381786D01*
X139439711Y-116381789D01*
X139570814Y-116469390D01*
X139570827Y-116469397D01*
X139716498Y-116529735D01*
X139716503Y-116529737D01*
X139871153Y-116560499D01*
X139871156Y-116560500D01*
X139871158Y-116560500D01*
X140028844Y-116560500D01*
X140028845Y-116560499D01*
X140183497Y-116529737D01*
X140329179Y-116469394D01*
X140460289Y-116381789D01*
X140571789Y-116270289D01*
X140659394Y-116139179D01*
X140719737Y-115993497D01*
X140750500Y-115838842D01*
X140750500Y-115681158D01*
X140750500Y-115681155D01*
X140750499Y-115681153D01*
X140719737Y-115526503D01*
X140699819Y-115478416D01*
X140659397Y-115380827D01*
X140659390Y-115380814D01*
X140571789Y-115249711D01*
X140571786Y-115249707D01*
X140460292Y-115138213D01*
X140460288Y-115138210D01*
X140329185Y-115050609D01*
X140329172Y-115050602D01*
X140183501Y-114990264D01*
X140183489Y-114990261D01*
X140028845Y-114959500D01*
X140028842Y-114959500D01*
X139871158Y-114959500D01*
X139871155Y-114959500D01*
X139716510Y-114990261D01*
X139716498Y-114990264D01*
X139570827Y-115050602D01*
X139570814Y-115050609D01*
X139439711Y-115138210D01*
X139439707Y-115138213D01*
X139328213Y-115249707D01*
X139328210Y-115249711D01*
X139240609Y-115380814D01*
X139240602Y-115380827D01*
X139180264Y-115526498D01*
X139180261Y-115526510D01*
X139149500Y-115681153D01*
X137134157Y-115681153D01*
X137154086Y-115617196D01*
X137160500Y-115546616D01*
X137160500Y-115033384D01*
X137154086Y-114962804D01*
X137103478Y-114800394D01*
X137016716Y-114656873D01*
X136998881Y-114589322D01*
X137019731Y-114523839D01*
X137058013Y-114466547D01*
X137125894Y-114302666D01*
X137137263Y-114245514D01*
X137156031Y-114151158D01*
X137160500Y-114128691D01*
X137160500Y-113951309D01*
X137160500Y-113951306D01*
X137160499Y-113951304D01*
X137125896Y-113777341D01*
X137125893Y-113777332D01*
X137058016Y-113613459D01*
X137058014Y-113613455D01*
X137058013Y-113613453D01*
X136971442Y-113483891D01*
X136950564Y-113417214D01*
X136969048Y-113349834D01*
X136971442Y-113346109D01*
X137021526Y-113271153D01*
X137058013Y-113216547D01*
X137125894Y-113052666D01*
X137135435Y-113004704D01*
X137154502Y-112908846D01*
X137160500Y-112878691D01*
X137160500Y-112751153D01*
X142169500Y-112751153D01*
X142169500Y-112908846D01*
X142200261Y-113063489D01*
X142200264Y-113063501D01*
X142260602Y-113209172D01*
X142260609Y-113209185D01*
X142348210Y-113340288D01*
X142348213Y-113340292D01*
X142459707Y-113451786D01*
X142459711Y-113451789D01*
X142590814Y-113539390D01*
X142590827Y-113539397D01*
X142736498Y-113599735D01*
X142736503Y-113599737D01*
X142881093Y-113628498D01*
X142891153Y-113630499D01*
X142891156Y-113630500D01*
X142976878Y-113630500D01*
X143043917Y-113650185D01*
X143089672Y-113702989D01*
X143091439Y-113707048D01*
X143100606Y-113729179D01*
X143100607Y-113729182D01*
X143188210Y-113860288D01*
X143188213Y-113860292D01*
X143272096Y-113944175D01*
X143305581Y-114005498D01*
X143300597Y-114075190D01*
X143287518Y-114100746D01*
X143200608Y-114230816D01*
X143200602Y-114230827D01*
X143140264Y-114376498D01*
X143140261Y-114376510D01*
X143109500Y-114531153D01*
X143109500Y-114688846D01*
X143140261Y-114843489D01*
X143140264Y-114843501D01*
X143200602Y-114989172D01*
X143200609Y-114989185D01*
X143288210Y-115120288D01*
X143288213Y-115120292D01*
X143399707Y-115231786D01*
X143399711Y-115231789D01*
X143530814Y-115319390D01*
X143530827Y-115319397D01*
X143676498Y-115379735D01*
X143676503Y-115379737D01*
X143831153Y-115410499D01*
X143831156Y-115410500D01*
X143831158Y-115410500D01*
X143988844Y-115410500D01*
X143988845Y-115410499D01*
X144143497Y-115379737D01*
X144289179Y-115319394D01*
X144420289Y-115231789D01*
X144531789Y-115120289D01*
X144619394Y-114989179D01*
X144679737Y-114843497D01*
X144710500Y-114688842D01*
X144710500Y-114531158D01*
X144710500Y-114531155D01*
X144710499Y-114531153D01*
X144704139Y-114499179D01*
X144679737Y-114376503D01*
X144670208Y-114353497D01*
X144619397Y-114230827D01*
X144619390Y-114230814D01*
X144566161Y-114151153D01*
X144531789Y-114099711D01*
X144473231Y-114041153D01*
X154699500Y-114041153D01*
X154699500Y-114198846D01*
X154730261Y-114353489D01*
X154730264Y-114353501D01*
X154790602Y-114499172D01*
X154790609Y-114499185D01*
X154878210Y-114630288D01*
X154878213Y-114630292D01*
X154989707Y-114741786D01*
X154989711Y-114741789D01*
X155120814Y-114829390D01*
X155120818Y-114829392D01*
X155120821Y-114829394D01*
X155131591Y-114833855D01*
X155185995Y-114877694D01*
X155208062Y-114943988D01*
X155190784Y-115011688D01*
X155171825Y-115036096D01*
X155158210Y-115049711D01*
X155070609Y-115180814D01*
X155070602Y-115180827D01*
X155010264Y-115326498D01*
X155010261Y-115326510D01*
X154979500Y-115481153D01*
X154979500Y-115638846D01*
X155010261Y-115793489D01*
X155010264Y-115793501D01*
X155070602Y-115939172D01*
X155070609Y-115939185D01*
X155158210Y-116070288D01*
X155158213Y-116070292D01*
X155269707Y-116181786D01*
X155269711Y-116181789D01*
X155400814Y-116269390D01*
X155400821Y-116269394D01*
X155443616Y-116287120D01*
X155498019Y-116330959D01*
X155517199Y-116383089D01*
X155518311Y-116382868D01*
X155550261Y-116543489D01*
X155550264Y-116543501D01*
X155610602Y-116689172D01*
X155610609Y-116689185D01*
X155698210Y-116820288D01*
X155698213Y-116820292D01*
X155809707Y-116931786D01*
X155809711Y-116931789D01*
X155940814Y-117019390D01*
X155940827Y-117019397D01*
X156038146Y-117059707D01*
X156086503Y-117079737D01*
X156086504Y-117079737D01*
X156086506Y-117079738D01*
X156087244Y-117079962D01*
X156087583Y-117080184D01*
X156092131Y-117082068D01*
X156091773Y-117082930D01*
X156145681Y-117118261D01*
X156165805Y-117151167D01*
X156177729Y-117179954D01*
X156177737Y-117179969D01*
X156265338Y-117311072D01*
X156265341Y-117311076D01*
X156376835Y-117422570D01*
X156376839Y-117422573D01*
X156507945Y-117510176D01*
X156507947Y-117510176D01*
X156507949Y-117510178D01*
X156575908Y-117538327D01*
X156590451Y-117544351D01*
X156612836Y-117562390D01*
X156636975Y-117578013D01*
X156641649Y-117585607D01*
X156644855Y-117588191D01*
X156655960Y-117607766D01*
X156656793Y-117609606D01*
X156701276Y-117716998D01*
X156714123Y-117736225D01*
X156718323Y-117745501D01*
X156721823Y-117770422D01*
X156729342Y-117794435D01*
X156726960Y-117806993D01*
X156728042Y-117814692D01*
X156723722Y-117824070D01*
X156719925Y-117844094D01*
X156717307Y-117850414D01*
X156717303Y-117850425D01*
X156686542Y-118005073D01*
X156686542Y-118162766D01*
X156717303Y-118317409D01*
X156717306Y-118317421D01*
X156777644Y-118463092D01*
X156777651Y-118463105D01*
X156865252Y-118594208D01*
X156865255Y-118594212D01*
X156976749Y-118705706D01*
X156976753Y-118705709D01*
X157107856Y-118793310D01*
X157107869Y-118793317D01*
X157211286Y-118836153D01*
X157253545Y-118853657D01*
X157408195Y-118884419D01*
X157408198Y-118884420D01*
X157408200Y-118884420D01*
X157565886Y-118884420D01*
X157565887Y-118884419D01*
X157720539Y-118853657D01*
X157866221Y-118793314D01*
X157997331Y-118705709D01*
X158027663Y-118675376D01*
X158088984Y-118641892D01*
X158158676Y-118646876D01*
X158203025Y-118675377D01*
X158227058Y-118699410D01*
X158227062Y-118699413D01*
X158358165Y-118787014D01*
X158358178Y-118787021D01*
X158476795Y-118836153D01*
X158503854Y-118847361D01*
X158633805Y-118873210D01*
X158658504Y-118878123D01*
X158658507Y-118878124D01*
X158658509Y-118878124D01*
X158816195Y-118878124D01*
X158816196Y-118878123D01*
X158970848Y-118847361D01*
X159116530Y-118787018D01*
X159247640Y-118699413D01*
X159359140Y-118587913D01*
X159446745Y-118456803D01*
X159482614Y-118370207D01*
X159497655Y-118333895D01*
X159541495Y-118279491D01*
X159556766Y-118271153D01*
X160539500Y-118271153D01*
X160539500Y-118428846D01*
X160570261Y-118583489D01*
X160570264Y-118583501D01*
X160630602Y-118729172D01*
X160630609Y-118729185D01*
X160718210Y-118860288D01*
X160718213Y-118860292D01*
X160829707Y-118971786D01*
X160829711Y-118971789D01*
X160960814Y-119059390D01*
X160960827Y-119059397D01*
X161048230Y-119095599D01*
X161106503Y-119119737D01*
X161117045Y-119121834D01*
X161123293Y-119123077D01*
X161185204Y-119155462D01*
X161211705Y-119194364D01*
X161211805Y-119194312D01*
X161212297Y-119195232D01*
X161213659Y-119197232D01*
X161214671Y-119199675D01*
X161214674Y-119199681D01*
X161302277Y-119330787D01*
X161302280Y-119330791D01*
X161413774Y-119442285D01*
X161413778Y-119442288D01*
X161544881Y-119529889D01*
X161544894Y-119529896D01*
X161677231Y-119584711D01*
X161690570Y-119590236D01*
X161840952Y-119620149D01*
X161845220Y-119620998D01*
X161845223Y-119620999D01*
X161845225Y-119620999D01*
X162002911Y-119620999D01*
X162002912Y-119620998D01*
X162157564Y-119590236D01*
X162303246Y-119529893D01*
X162434356Y-119442288D01*
X162545856Y-119330788D01*
X162633461Y-119199678D01*
X162654078Y-119149905D01*
X162674547Y-119100487D01*
X162674547Y-119100486D01*
X162693804Y-119053996D01*
X162724567Y-118899341D01*
X162724567Y-118741657D01*
X162724567Y-118741654D01*
X162724566Y-118741651D01*
X162713297Y-118685000D01*
X174695261Y-118685000D01*
X175875025Y-118685000D01*
X175839930Y-118720095D01*
X175793852Y-118799905D01*
X175770000Y-118888922D01*
X175770000Y-118981078D01*
X175793852Y-119070095D01*
X175839930Y-119149905D01*
X175875025Y-119185000D01*
X174695261Y-119185000D01*
X174698315Y-119204285D01*
X174698318Y-119204295D01*
X174754250Y-119376441D01*
X174754252Y-119376447D01*
X174836434Y-119537734D01*
X174942823Y-119684169D01*
X175070830Y-119812176D01*
X175217265Y-119918565D01*
X175378552Y-120000747D01*
X175378558Y-120000749D01*
X175468580Y-120029998D01*
X175468589Y-120030000D01*
X176520000Y-120030000D01*
X176520000Y-119285000D01*
X177020000Y-119285000D01*
X177020000Y-119321000D01*
X177071000Y-119321000D01*
X177138039Y-119340685D01*
X177183794Y-119393489D01*
X177195000Y-119445000D01*
X177195000Y-120030000D01*
X178420049Y-120030000D01*
X178406789Y-119988841D01*
X178406152Y-119987134D01*
X178402837Y-119979350D01*
X178394674Y-119909958D01*
X178425324Y-119847170D01*
X178444035Y-119830435D01*
X178469176Y-119812169D01*
X178597176Y-119684169D01*
X178703565Y-119537734D01*
X178785747Y-119376447D01*
X178785749Y-119376441D01*
X178841681Y-119204295D01*
X178841684Y-119204285D01*
X178844739Y-119185000D01*
X177664975Y-119185000D01*
X177700070Y-119149905D01*
X177746148Y-119070095D01*
X177770000Y-118981078D01*
X177770000Y-118888922D01*
X177746148Y-118799905D01*
X177700070Y-118720095D01*
X177664975Y-118685000D01*
X178844739Y-118685000D01*
X178841684Y-118665714D01*
X178841681Y-118665704D01*
X178785749Y-118493558D01*
X178785747Y-118493552D01*
X178703565Y-118332265D01*
X178597176Y-118185830D01*
X178469169Y-118057823D01*
X178322734Y-117951434D01*
X178161447Y-117869252D01*
X178161444Y-117869251D01*
X177989293Y-117813317D01*
X177810506Y-117785000D01*
X177020000Y-117785000D01*
X177020000Y-118585000D01*
X176520000Y-118585000D01*
X176520000Y-117785000D01*
X175729494Y-117785000D01*
X175550706Y-117813317D01*
X175378555Y-117869251D01*
X175378552Y-117869252D01*
X175217265Y-117951434D01*
X175070830Y-118057823D01*
X174942823Y-118185830D01*
X174836434Y-118332265D01*
X174754252Y-118493552D01*
X174754250Y-118493558D01*
X174698318Y-118665704D01*
X174698315Y-118665714D01*
X174695261Y-118685000D01*
X162713297Y-118685000D01*
X162693805Y-118587007D01*
X162693804Y-118587006D01*
X162693804Y-118587002D01*
X162672607Y-118535827D01*
X162633464Y-118441326D01*
X162633457Y-118441313D01*
X162545856Y-118310210D01*
X162545853Y-118310206D01*
X162434359Y-118198712D01*
X162434355Y-118198709D01*
X162303252Y-118111108D01*
X162303239Y-118111101D01*
X162157568Y-118050763D01*
X162157559Y-118050760D01*
X162140770Y-118047421D01*
X162078859Y-118015035D01*
X162052366Y-117976137D01*
X162052264Y-117976192D01*
X162051754Y-117975238D01*
X162050400Y-117973250D01*
X162049394Y-117970821D01*
X162002266Y-117900289D01*
X161961789Y-117839710D01*
X161850292Y-117728213D01*
X161850288Y-117728210D01*
X161719185Y-117640609D01*
X161719172Y-117640602D01*
X161573501Y-117580264D01*
X161573489Y-117580261D01*
X161418845Y-117549500D01*
X161418842Y-117549500D01*
X161261158Y-117549500D01*
X161261155Y-117549500D01*
X161106510Y-117580261D01*
X161106498Y-117580264D01*
X160960827Y-117640602D01*
X160960814Y-117640609D01*
X160829711Y-117728210D01*
X160829707Y-117728213D01*
X160718213Y-117839707D01*
X160718210Y-117839711D01*
X160630609Y-117970814D01*
X160630602Y-117970827D01*
X160570264Y-118116498D01*
X160570261Y-118116510D01*
X160539500Y-118271153D01*
X159556766Y-118271153D01*
X159564764Y-118266786D01*
X159679172Y-118219397D01*
X159679172Y-118219396D01*
X159679179Y-118219394D01*
X159710135Y-118198710D01*
X159765130Y-118161964D01*
X159807430Y-118133699D01*
X159810289Y-118131789D01*
X159921789Y-118020289D01*
X160009394Y-117889179D01*
X160069737Y-117743497D01*
X160100500Y-117588842D01*
X160100500Y-117431158D01*
X160100500Y-117431155D01*
X160100499Y-117431153D01*
X160087983Y-117368230D01*
X160069737Y-117276503D01*
X160060303Y-117253728D01*
X160009397Y-117130827D01*
X160009390Y-117130814D01*
X159921789Y-116999711D01*
X159921786Y-116999707D01*
X159810292Y-116888213D01*
X159810288Y-116888210D01*
X159679185Y-116800609D01*
X159679172Y-116800602D01*
X159544033Y-116744627D01*
X159533497Y-116740263D01*
X159533489Y-116740261D01*
X159378845Y-116709500D01*
X159378842Y-116709500D01*
X159221158Y-116709500D01*
X159221155Y-116709500D01*
X159066510Y-116740261D01*
X159066498Y-116740264D01*
X158920827Y-116800602D01*
X158920814Y-116800609D01*
X158789711Y-116888210D01*
X158789707Y-116888213D01*
X158678213Y-116999707D01*
X158678210Y-116999711D01*
X158590609Y-117130814D01*
X158590602Y-117130827D01*
X158539696Y-117253728D01*
X158520443Y-117277619D01*
X158502941Y-117302828D01*
X158497553Y-117306024D01*
X158495855Y-117308132D01*
X158472587Y-117320837D01*
X158381737Y-117358468D01*
X158312268Y-117365937D01*
X158249789Y-117334662D01*
X158214137Y-117274573D01*
X158212443Y-117264934D01*
X158212359Y-117264951D01*
X158190788Y-117156510D01*
X158180407Y-117104322D01*
X158161927Y-117059707D01*
X158120067Y-116958646D01*
X158120060Y-116958633D01*
X158032459Y-116827530D01*
X158032456Y-116827526D01*
X157920962Y-116716032D01*
X157920958Y-116716029D01*
X157801416Y-116636153D01*
X163604500Y-116636153D01*
X163604500Y-116793846D01*
X163635261Y-116948489D01*
X163635264Y-116948501D01*
X163695602Y-117094172D01*
X163695609Y-117094185D01*
X163783210Y-117225288D01*
X163783213Y-117225292D01*
X163894707Y-117336786D01*
X163894711Y-117336789D01*
X164025814Y-117424390D01*
X164025827Y-117424397D01*
X164133138Y-117468846D01*
X164171503Y-117484737D01*
X164299393Y-117510176D01*
X164326153Y-117515499D01*
X164326156Y-117515500D01*
X164326158Y-117515500D01*
X164483844Y-117515500D01*
X164483845Y-117515499D01*
X164638497Y-117484737D01*
X164767849Y-117431158D01*
X164784172Y-117424397D01*
X164784172Y-117424396D01*
X164784179Y-117424394D01*
X164915289Y-117336789D01*
X164940925Y-117311153D01*
X179169500Y-117311153D01*
X179169500Y-117468846D01*
X179200261Y-117623489D01*
X179200264Y-117623501D01*
X179260602Y-117769172D01*
X179260609Y-117769185D01*
X179348210Y-117900288D01*
X179348213Y-117900292D01*
X179450605Y-118002684D01*
X179484090Y-118064007D01*
X179479106Y-118133699D01*
X179450613Y-118178038D01*
X179442834Y-118185817D01*
X179442825Y-118185828D01*
X179336434Y-118332265D01*
X179254252Y-118493552D01*
X179254250Y-118493558D01*
X179198318Y-118665704D01*
X179198315Y-118665714D01*
X179195261Y-118685000D01*
X180225025Y-118685000D01*
X180189930Y-118720095D01*
X180143852Y-118799905D01*
X180120000Y-118888922D01*
X180120000Y-118981078D01*
X180143852Y-119070095D01*
X180189930Y-119149905D01*
X180225025Y-119185000D01*
X179195261Y-119185000D01*
X179198315Y-119204285D01*
X179198318Y-119204295D01*
X179254250Y-119376441D01*
X179254252Y-119376447D01*
X179336434Y-119537734D01*
X179442823Y-119684169D01*
X179570830Y-119812176D01*
X179717265Y-119918565D01*
X179878552Y-120000747D01*
X179878555Y-120000748D01*
X180050706Y-120056682D01*
X180229494Y-120085000D01*
X180670000Y-120085000D01*
X180670000Y-119285000D01*
X181170000Y-119285000D01*
X181170000Y-120085000D01*
X181610506Y-120085000D01*
X181789293Y-120056682D01*
X181961444Y-120000748D01*
X181961447Y-120000747D01*
X182122734Y-119918565D01*
X182269169Y-119812176D01*
X182397176Y-119684169D01*
X182503565Y-119537734D01*
X182585747Y-119376447D01*
X182585749Y-119376441D01*
X182641681Y-119204295D01*
X182641684Y-119204285D01*
X182644739Y-119185000D01*
X181614975Y-119185000D01*
X181650070Y-119149905D01*
X181696148Y-119070095D01*
X181720000Y-118981078D01*
X181720000Y-118888922D01*
X181696148Y-118799905D01*
X181650070Y-118720095D01*
X181614975Y-118685000D01*
X182644739Y-118685000D01*
X182641684Y-118665714D01*
X182641681Y-118665704D01*
X182585749Y-118493558D01*
X182585747Y-118493552D01*
X182503565Y-118332265D01*
X182397176Y-118185830D01*
X182269169Y-118057823D01*
X182122734Y-117951434D01*
X181961447Y-117869252D01*
X181961444Y-117869251D01*
X181789293Y-117813317D01*
X181610506Y-117785000D01*
X181170000Y-117785000D01*
X181170000Y-118585000D01*
X180670000Y-118585000D01*
X180670000Y-117816522D01*
X180671626Y-117808343D01*
X180670711Y-117803267D01*
X180679438Y-117769072D01*
X180739737Y-117623497D01*
X180770500Y-117468842D01*
X180770500Y-117311158D01*
X180770500Y-117311155D01*
X180770499Y-117311153D01*
X180753419Y-117225288D01*
X180739737Y-117156503D01*
X180712404Y-117090514D01*
X180679397Y-117010827D01*
X180679390Y-117010814D01*
X180591789Y-116879711D01*
X180591786Y-116879707D01*
X180480292Y-116768213D01*
X180480288Y-116768210D01*
X180349185Y-116680609D01*
X180349172Y-116680602D01*
X180203501Y-116620264D01*
X180203489Y-116620261D01*
X180048845Y-116589500D01*
X180048842Y-116589500D01*
X179891158Y-116589500D01*
X179891155Y-116589500D01*
X179736510Y-116620261D01*
X179736498Y-116620264D01*
X179590827Y-116680602D01*
X179590814Y-116680609D01*
X179459711Y-116768210D01*
X179459707Y-116768213D01*
X179348213Y-116879707D01*
X179348210Y-116879711D01*
X179260609Y-117010814D01*
X179260602Y-117010827D01*
X179200264Y-117156498D01*
X179200261Y-117156510D01*
X179169500Y-117311153D01*
X164940925Y-117311153D01*
X165026789Y-117225289D01*
X165114394Y-117094179D01*
X165119054Y-117082930D01*
X165148922Y-117010821D01*
X165174737Y-116948497D01*
X165205500Y-116793842D01*
X165205500Y-116636158D01*
X165205500Y-116636155D01*
X165205499Y-116636153D01*
X165174738Y-116481507D01*
X165174735Y-116481498D01*
X165114397Y-116335827D01*
X165114390Y-116335814D01*
X165026789Y-116204711D01*
X165026786Y-116204707D01*
X164915292Y-116093213D01*
X164915288Y-116093210D01*
X164784185Y-116005609D01*
X164784172Y-116005602D01*
X164638501Y-115945264D01*
X164638489Y-115945261D01*
X164483845Y-115914500D01*
X164483842Y-115914500D01*
X164326158Y-115914500D01*
X164326155Y-115914500D01*
X164171510Y-115945261D01*
X164171498Y-115945264D01*
X164025827Y-116005602D01*
X164025814Y-116005609D01*
X163894711Y-116093210D01*
X163894707Y-116093213D01*
X163783213Y-116204707D01*
X163783210Y-116204711D01*
X163695609Y-116335814D01*
X163695602Y-116335827D01*
X163635264Y-116481498D01*
X163635262Y-116481507D01*
X163604500Y-116636153D01*
X157801416Y-116636153D01*
X157789855Y-116628428D01*
X157789845Y-116628423D01*
X157707344Y-116594250D01*
X157652941Y-116550409D01*
X157640236Y-116527141D01*
X157596525Y-116421610D01*
X157596518Y-116421598D01*
X157508917Y-116290495D01*
X157508914Y-116290491D01*
X157397420Y-116178997D01*
X157397416Y-116178994D01*
X157266313Y-116091393D01*
X157266300Y-116091386D01*
X157120627Y-116031047D01*
X157119880Y-116030821D01*
X157119536Y-116030595D01*
X157114998Y-116028716D01*
X157115354Y-116027854D01*
X157061444Y-115992521D01*
X157041321Y-115959617D01*
X157029394Y-115930821D01*
X156941789Y-115799711D01*
X156941786Y-115799707D01*
X156830292Y-115688213D01*
X156830288Y-115688210D01*
X156700298Y-115601353D01*
X156655493Y-115547741D01*
X156646786Y-115478416D01*
X156676941Y-115415388D01*
X156681489Y-115410588D01*
X156771789Y-115320289D01*
X156859394Y-115189179D01*
X156862854Y-115180827D01*
X156919735Y-115043501D01*
X156919737Y-115043497D01*
X156950500Y-114888842D01*
X156950500Y-114731158D01*
X156950500Y-114731155D01*
X156950499Y-114731153D01*
X156919737Y-114576503D01*
X156900955Y-114531158D01*
X156859397Y-114430827D01*
X156859390Y-114430814D01*
X156771789Y-114299711D01*
X156771786Y-114299707D01*
X156717592Y-114245514D01*
X156702378Y-114217652D01*
X156685690Y-114190637D01*
X156685751Y-114187204D01*
X156684106Y-114184191D01*
X156686370Y-114152529D01*
X156686395Y-114151153D01*
X173719500Y-114151153D01*
X173719500Y-114308846D01*
X173750261Y-114463489D01*
X173750264Y-114463501D01*
X173810602Y-114609172D01*
X173810609Y-114609185D01*
X173898210Y-114740288D01*
X173898213Y-114740292D01*
X174009707Y-114851786D01*
X174009711Y-114851789D01*
X174140814Y-114939390D01*
X174140827Y-114939397D01*
X174263633Y-114990264D01*
X174286503Y-114999737D01*
X174441153Y-115030499D01*
X174441156Y-115030500D01*
X174441158Y-115030500D01*
X174598844Y-115030500D01*
X174598845Y-115030499D01*
X174753497Y-114999737D01*
X174899179Y-114939394D01*
X175030289Y-114851789D01*
X175037315Y-114844763D01*
X175098637Y-114811275D01*
X175168328Y-114816256D01*
X175212685Y-114844763D01*
X175219711Y-114851789D01*
X175350814Y-114939390D01*
X175350827Y-114939397D01*
X175473633Y-114990264D01*
X175496503Y-114999737D01*
X175651153Y-115030499D01*
X175651156Y-115030500D01*
X175651158Y-115030500D01*
X175808844Y-115030500D01*
X175808845Y-115030499D01*
X175963497Y-114999737D01*
X176109179Y-114939394D01*
X176240289Y-114851789D01*
X176351789Y-114740289D01*
X176439394Y-114609179D01*
X176447127Y-114590511D01*
X176474745Y-114523833D01*
X176499737Y-114463497D01*
X176530500Y-114308842D01*
X176530500Y-114151158D01*
X176530500Y-114151155D01*
X176530499Y-114151153D01*
X176508618Y-114041153D01*
X176499737Y-113996503D01*
X176489500Y-113971789D01*
X176439397Y-113850827D01*
X176439390Y-113850814D01*
X176351789Y-113719711D01*
X176351786Y-113719707D01*
X176240292Y-113608213D01*
X176240288Y-113608210D01*
X176109185Y-113520609D01*
X176109172Y-113520602D01*
X175963501Y-113460264D01*
X175963489Y-113460261D01*
X175808845Y-113429500D01*
X175808842Y-113429500D01*
X175651158Y-113429500D01*
X175651155Y-113429500D01*
X175496510Y-113460261D01*
X175496498Y-113460264D01*
X175350827Y-113520602D01*
X175350814Y-113520609D01*
X175219711Y-113608210D01*
X175219707Y-113608213D01*
X175212681Y-113615240D01*
X175151358Y-113648725D01*
X175081666Y-113643741D01*
X175037319Y-113615240D01*
X175030292Y-113608213D01*
X175030288Y-113608210D01*
X174899185Y-113520609D01*
X174899172Y-113520602D01*
X174753501Y-113460264D01*
X174753489Y-113460261D01*
X174598845Y-113429500D01*
X174598842Y-113429500D01*
X174441158Y-113429500D01*
X174441155Y-113429500D01*
X174286510Y-113460261D01*
X174286498Y-113460264D01*
X174140827Y-113520602D01*
X174140814Y-113520609D01*
X174009711Y-113608210D01*
X174009707Y-113608213D01*
X173898213Y-113719707D01*
X173898210Y-113719711D01*
X173810609Y-113850814D01*
X173810602Y-113850827D01*
X173750264Y-113996498D01*
X173750261Y-113996510D01*
X173719500Y-114151153D01*
X156686395Y-114151153D01*
X156686937Y-114120779D01*
X156688940Y-114116591D01*
X156689090Y-114114499D01*
X156702170Y-114088941D01*
X156710700Y-114076175D01*
X156711358Y-114075190D01*
X156764816Y-113995185D01*
X156825159Y-113849503D01*
X156855922Y-113694848D01*
X156855922Y-113537164D01*
X156855922Y-113537161D01*
X156855921Y-113537159D01*
X156845215Y-113483337D01*
X156825159Y-113382509D01*
X156825157Y-113382504D01*
X156764819Y-113236833D01*
X156764812Y-113236820D01*
X156677210Y-113105715D01*
X156674692Y-113102647D01*
X156673875Y-113100724D01*
X156673827Y-113100652D01*
X156673840Y-113100642D01*
X156647377Y-113038338D01*
X156659167Y-112969470D01*
X156696501Y-112926774D01*
X156695581Y-112925653D01*
X156700285Y-112921791D01*
X156700289Y-112921789D01*
X156811789Y-112810289D01*
X156899394Y-112679179D01*
X156959737Y-112533497D01*
X156990500Y-112378842D01*
X156990500Y-112221158D01*
X156990500Y-112221155D01*
X156990499Y-112221153D01*
X156970498Y-112120602D01*
X156959737Y-112066503D01*
X156957152Y-112060263D01*
X156899397Y-111920827D01*
X156899390Y-111920814D01*
X156811789Y-111789711D01*
X156811786Y-111789707D01*
X156700292Y-111678213D01*
X156700288Y-111678210D01*
X156569185Y-111590609D01*
X156569172Y-111590602D01*
X156551112Y-111583122D01*
X156496708Y-111539282D01*
X156476947Y-111492754D01*
X156469737Y-111456503D01*
X156443641Y-111393501D01*
X156409397Y-111310827D01*
X156409390Y-111310814D01*
X156349448Y-111221105D01*
X156328570Y-111154428D01*
X156347054Y-111087047D01*
X156399033Y-111040357D01*
X156405072Y-111037663D01*
X156449179Y-111019394D01*
X156580289Y-110931789D01*
X156691789Y-110820289D01*
X156779394Y-110689179D01*
X156839737Y-110543497D01*
X156870500Y-110388842D01*
X156870500Y-110231158D01*
X156870500Y-110231155D01*
X156851022Y-110133236D01*
X156857249Y-110063644D01*
X156882489Y-110031153D01*
X169579500Y-110031153D01*
X169579500Y-110188846D01*
X169610261Y-110343489D01*
X169610264Y-110343501D01*
X169670602Y-110489172D01*
X169670609Y-110489185D01*
X169758210Y-110620288D01*
X169758213Y-110620292D01*
X169869707Y-110731786D01*
X169869711Y-110731789D01*
X170000814Y-110819390D01*
X170000827Y-110819397D01*
X170146498Y-110879735D01*
X170146503Y-110879737D01*
X170282110Y-110906711D01*
X170301153Y-110910499D01*
X170301156Y-110910500D01*
X170301158Y-110910500D01*
X170458844Y-110910500D01*
X170458845Y-110910499D01*
X170613497Y-110879737D01*
X170759179Y-110819394D01*
X170890289Y-110731789D01*
X171001789Y-110620289D01*
X171089394Y-110489179D01*
X171149737Y-110343497D01*
X171180500Y-110188842D01*
X171180500Y-110031158D01*
X171180500Y-110031155D01*
X171180499Y-110031153D01*
X171160543Y-109930827D01*
X171149737Y-109876503D01*
X171117929Y-109799711D01*
X171089397Y-109730827D01*
X171089390Y-109730814D01*
X171001789Y-109599711D01*
X171001786Y-109599707D01*
X170890292Y-109488213D01*
X170890288Y-109488210D01*
X170759185Y-109400609D01*
X170759172Y-109400602D01*
X170613501Y-109340264D01*
X170613489Y-109340261D01*
X170458845Y-109309500D01*
X170458842Y-109309500D01*
X170301158Y-109309500D01*
X170301155Y-109309500D01*
X170146510Y-109340261D01*
X170146498Y-109340264D01*
X170000827Y-109400602D01*
X170000814Y-109400609D01*
X169869711Y-109488210D01*
X169869707Y-109488213D01*
X169758213Y-109599707D01*
X169758210Y-109599711D01*
X169670609Y-109730814D01*
X169670602Y-109730827D01*
X169610264Y-109876498D01*
X169610261Y-109876510D01*
X169579500Y-110031153D01*
X156882489Y-110031153D01*
X156900112Y-110008467D01*
X156966001Y-109985222D01*
X157000362Y-109989382D01*
X157000528Y-109988549D01*
X157161153Y-110020499D01*
X157161156Y-110020500D01*
X157161158Y-110020500D01*
X157318844Y-110020500D01*
X157318845Y-110020499D01*
X157473497Y-109989737D01*
X157586166Y-109943067D01*
X157619172Y-109929397D01*
X157619172Y-109929396D01*
X157619179Y-109929394D01*
X157623628Y-109926420D01*
X157630301Y-109921963D01*
X157630301Y-109921962D01*
X157750289Y-109841789D01*
X157861789Y-109730289D01*
X157949394Y-109599179D01*
X157952813Y-109590926D01*
X157971928Y-109544777D01*
X158009737Y-109453497D01*
X158040500Y-109298842D01*
X158040500Y-109141158D01*
X158040500Y-109141155D01*
X158040499Y-109141153D01*
X158009738Y-108986510D01*
X158009737Y-108986503D01*
X157994737Y-108950289D01*
X157949397Y-108840827D01*
X157949390Y-108840814D01*
X157861789Y-108709711D01*
X157861786Y-108709707D01*
X157750292Y-108598213D01*
X157750288Y-108598210D01*
X157630545Y-108518200D01*
X157630496Y-108518168D01*
X157619179Y-108510606D01*
X157619172Y-108510602D01*
X157473501Y-108450264D01*
X157473489Y-108450261D01*
X157327155Y-108421153D01*
X161869500Y-108421153D01*
X161869500Y-108578846D01*
X161900261Y-108733489D01*
X161900264Y-108733501D01*
X161960602Y-108879172D01*
X161960609Y-108879185D01*
X162048210Y-109010288D01*
X162048213Y-109010292D01*
X162159707Y-109121786D01*
X162159711Y-109121789D01*
X162290814Y-109209390D01*
X162290827Y-109209397D01*
X162436498Y-109269735D01*
X162436503Y-109269737D01*
X162582823Y-109298842D01*
X162591153Y-109300499D01*
X162591156Y-109300500D01*
X162591158Y-109300500D01*
X162748844Y-109300500D01*
X162748845Y-109300499D01*
X162903497Y-109269737D01*
X163049179Y-109209394D01*
X163180289Y-109121789D01*
X163291789Y-109010289D01*
X163379394Y-108879179D01*
X163380503Y-108876503D01*
X163404247Y-108819179D01*
X163439737Y-108733497D01*
X163470500Y-108578842D01*
X163470500Y-108421158D01*
X163470500Y-108421155D01*
X163470499Y-108421153D01*
X163470170Y-108419500D01*
X163439737Y-108266503D01*
X163432792Y-108249735D01*
X163379397Y-108120827D01*
X163379390Y-108120814D01*
X163291789Y-107989711D01*
X163291786Y-107989707D01*
X163183232Y-107881153D01*
X168529500Y-107881153D01*
X168529500Y-108038846D01*
X168560261Y-108193489D01*
X168560264Y-108193501D01*
X168620602Y-108339172D01*
X168620609Y-108339185D01*
X168708210Y-108470288D01*
X168708213Y-108470292D01*
X168819707Y-108581786D01*
X168819711Y-108581789D01*
X168950814Y-108669390D01*
X168950827Y-108669397D01*
X169096498Y-108729735D01*
X169096503Y-108729737D01*
X169251153Y-108760499D01*
X169251156Y-108760500D01*
X169251158Y-108760500D01*
X169408844Y-108760500D01*
X169408845Y-108760499D01*
X169563497Y-108729737D01*
X169699264Y-108673501D01*
X169709172Y-108669397D01*
X169709172Y-108669396D01*
X169709179Y-108669394D01*
X169840289Y-108581789D01*
X169951789Y-108470289D01*
X170039394Y-108339179D01*
X170099737Y-108193497D01*
X170130500Y-108038842D01*
X170130500Y-107881158D01*
X170130500Y-107881155D01*
X170130499Y-107881153D01*
X170124658Y-107851789D01*
X170099737Y-107726503D01*
X170099735Y-107726498D01*
X170039397Y-107580827D01*
X170039390Y-107580814D01*
X169961308Y-107463957D01*
X169961307Y-107463956D01*
X169961000Y-107463497D01*
X169951789Y-107449711D01*
X169951787Y-107449708D01*
X169903232Y-107401153D01*
X170629500Y-107401153D01*
X170629500Y-107558846D01*
X170660261Y-107713489D01*
X170660264Y-107713501D01*
X170720602Y-107859172D01*
X170720609Y-107859185D01*
X170808210Y-107990288D01*
X170808213Y-107990292D01*
X170919707Y-108101786D01*
X170919711Y-108101789D01*
X171050814Y-108189390D01*
X171050827Y-108189397D01*
X171196498Y-108249735D01*
X171196503Y-108249737D01*
X171350092Y-108280288D01*
X171351153Y-108280499D01*
X171351156Y-108280500D01*
X171351158Y-108280500D01*
X171508844Y-108280500D01*
X171508845Y-108280499D01*
X171663497Y-108249737D01*
X171799264Y-108193501D01*
X171809172Y-108189397D01*
X171809172Y-108189396D01*
X171809179Y-108189394D01*
X171940289Y-108101789D01*
X172051789Y-107990289D01*
X172139394Y-107859179D01*
X172199737Y-107713497D01*
X172230500Y-107558842D01*
X172230500Y-107401158D01*
X172230500Y-107401155D01*
X172230499Y-107401153D01*
X172202363Y-107259707D01*
X172199737Y-107246503D01*
X172160242Y-107151153D01*
X176199500Y-107151153D01*
X176199500Y-107308846D01*
X176230261Y-107463489D01*
X176230264Y-107463501D01*
X176290602Y-107609172D01*
X176290609Y-107609185D01*
X176378210Y-107740288D01*
X176378213Y-107740292D01*
X176489707Y-107851786D01*
X176489711Y-107851789D01*
X176620814Y-107939390D01*
X176620827Y-107939397D01*
X176766498Y-107999735D01*
X176766503Y-107999737D01*
X176921153Y-108030499D01*
X176921156Y-108030500D01*
X176921158Y-108030500D01*
X177078844Y-108030500D01*
X177078845Y-108030499D01*
X177233497Y-107999737D01*
X177379179Y-107939394D01*
X177510289Y-107851789D01*
X177621789Y-107740289D01*
X177709394Y-107609179D01*
X177769737Y-107463497D01*
X177800500Y-107308842D01*
X177800500Y-107151158D01*
X177800500Y-107151155D01*
X177800499Y-107151153D01*
X177790486Y-107100814D01*
X177769737Y-106996503D01*
X177769735Y-106996498D01*
X177709397Y-106850827D01*
X177709390Y-106850814D01*
X177621789Y-106719711D01*
X177621786Y-106719707D01*
X177510292Y-106608213D01*
X177510288Y-106608210D01*
X177379185Y-106520609D01*
X177379172Y-106520602D01*
X177233501Y-106460264D01*
X177233489Y-106460261D01*
X177078845Y-106429500D01*
X177078842Y-106429500D01*
X176921158Y-106429500D01*
X176921155Y-106429500D01*
X176766510Y-106460261D01*
X176766498Y-106460264D01*
X176620827Y-106520602D01*
X176620814Y-106520609D01*
X176489711Y-106608210D01*
X176489707Y-106608213D01*
X176378213Y-106719707D01*
X176378210Y-106719711D01*
X176290609Y-106850814D01*
X176290602Y-106850827D01*
X176230264Y-106996498D01*
X176230261Y-106996510D01*
X176199500Y-107151153D01*
X172160242Y-107151153D01*
X172159023Y-107148210D01*
X172139397Y-107100827D01*
X172139390Y-107100814D01*
X172051789Y-106969711D01*
X172051786Y-106969707D01*
X171940292Y-106858213D01*
X171940288Y-106858210D01*
X171809185Y-106770609D01*
X171809172Y-106770602D01*
X171663501Y-106710264D01*
X171663489Y-106710261D01*
X171508845Y-106679500D01*
X171508842Y-106679500D01*
X171351158Y-106679500D01*
X171351155Y-106679500D01*
X171196510Y-106710261D01*
X171196498Y-106710264D01*
X171050827Y-106770602D01*
X171050814Y-106770609D01*
X170919711Y-106858210D01*
X170919707Y-106858213D01*
X170808213Y-106969707D01*
X170808210Y-106969711D01*
X170720609Y-107100814D01*
X170720602Y-107100827D01*
X170660264Y-107246498D01*
X170660261Y-107246510D01*
X170629500Y-107401153D01*
X169903232Y-107401153D01*
X169840292Y-107338213D01*
X169840288Y-107338210D01*
X169709185Y-107250609D01*
X169709172Y-107250602D01*
X169563501Y-107190264D01*
X169563489Y-107190261D01*
X169408845Y-107159500D01*
X169408842Y-107159500D01*
X169251158Y-107159500D01*
X169251155Y-107159500D01*
X169096510Y-107190261D01*
X169096498Y-107190264D01*
X168950827Y-107250602D01*
X168950814Y-107250609D01*
X168819711Y-107338210D01*
X168819707Y-107338213D01*
X168708213Y-107449707D01*
X168708210Y-107449711D01*
X168620609Y-107580814D01*
X168620602Y-107580827D01*
X168560264Y-107726498D01*
X168560261Y-107726510D01*
X168529500Y-107881153D01*
X163183232Y-107881153D01*
X163180292Y-107878213D01*
X163180288Y-107878210D01*
X163049185Y-107790609D01*
X163049172Y-107790602D01*
X162903501Y-107730264D01*
X162903489Y-107730261D01*
X162748845Y-107699500D01*
X162748842Y-107699500D01*
X162591158Y-107699500D01*
X162591155Y-107699500D01*
X162436510Y-107730261D01*
X162436498Y-107730264D01*
X162290827Y-107790602D01*
X162290814Y-107790609D01*
X162159711Y-107878210D01*
X162159707Y-107878213D01*
X162048213Y-107989707D01*
X162048210Y-107989711D01*
X161960609Y-108120814D01*
X161960602Y-108120827D01*
X161900264Y-108266498D01*
X161900261Y-108266510D01*
X161869500Y-108421153D01*
X157327155Y-108421153D01*
X157318845Y-108419500D01*
X157318842Y-108419500D01*
X157161158Y-108419500D01*
X157161155Y-108419500D01*
X157006510Y-108450261D01*
X157006498Y-108450264D01*
X156860827Y-108510602D01*
X156860814Y-108510609D01*
X156729711Y-108598210D01*
X156729707Y-108598213D01*
X156618213Y-108709707D01*
X156618210Y-108709711D01*
X156530609Y-108840814D01*
X156530602Y-108840827D01*
X156470264Y-108986498D01*
X156470261Y-108986510D01*
X156439500Y-109141153D01*
X156439500Y-109298846D01*
X156458977Y-109396764D01*
X156452750Y-109466356D01*
X156409887Y-109521533D01*
X156343997Y-109544777D01*
X156309637Y-109540619D01*
X156309472Y-109541451D01*
X156148845Y-109509500D01*
X156148842Y-109509500D01*
X155991158Y-109509500D01*
X155991155Y-109509500D01*
X155836510Y-109540261D01*
X155836498Y-109540264D01*
X155690827Y-109600602D01*
X155690814Y-109600609D01*
X155559711Y-109688210D01*
X155559707Y-109688213D01*
X155448213Y-109799707D01*
X155448210Y-109799711D01*
X155360609Y-109930814D01*
X155360602Y-109930827D01*
X155300264Y-110076498D01*
X155300261Y-110076510D01*
X155269500Y-110231153D01*
X155269500Y-110388846D01*
X155300261Y-110543489D01*
X155300264Y-110543501D01*
X155360602Y-110689172D01*
X155360609Y-110689185D01*
X155420551Y-110778894D01*
X155441429Y-110845572D01*
X155422944Y-110912952D01*
X155370966Y-110959642D01*
X155364903Y-110962345D01*
X155320829Y-110980601D01*
X155320814Y-110980609D01*
X155189711Y-111068210D01*
X155189707Y-111068213D01*
X155078213Y-111179707D01*
X155078210Y-111179711D01*
X154990609Y-111310814D01*
X154990602Y-111310827D01*
X154930264Y-111456498D01*
X154930261Y-111456510D01*
X154899500Y-111611153D01*
X154899500Y-111768846D01*
X154930261Y-111923489D01*
X154930264Y-111923501D01*
X154990602Y-112069172D01*
X154990609Y-112069185D01*
X155061496Y-112175274D01*
X155082374Y-112241952D01*
X155063890Y-112309332D01*
X155046075Y-112331846D01*
X155018213Y-112359707D01*
X155018210Y-112359711D01*
X154930609Y-112490814D01*
X154930602Y-112490827D01*
X154870264Y-112636498D01*
X154870261Y-112636510D01*
X154839500Y-112791153D01*
X154839500Y-112948846D01*
X154870261Y-113103489D01*
X154870264Y-113103501D01*
X154930602Y-113249172D01*
X154930609Y-113249185D01*
X154997490Y-113349279D01*
X155018368Y-113415957D01*
X154999883Y-113483337D01*
X154982070Y-113505851D01*
X154878210Y-113609711D01*
X154790609Y-113740814D01*
X154790602Y-113740827D01*
X154730264Y-113886498D01*
X154730261Y-113886510D01*
X154699500Y-114041153D01*
X144473231Y-114041153D01*
X144446905Y-114014827D01*
X144445922Y-114013798D01*
X144430502Y-113983957D01*
X144414418Y-113954501D01*
X144414522Y-113953033D01*
X144413847Y-113951725D01*
X144417006Y-113918301D01*
X144419402Y-113884809D01*
X144420347Y-113882960D01*
X144420423Y-113882166D01*
X144421376Y-113880951D01*
X144432482Y-113859252D01*
X144519390Y-113729185D01*
X144519392Y-113729182D01*
X144519394Y-113729179D01*
X144579737Y-113583497D01*
X144610500Y-113428842D01*
X144610500Y-113271158D01*
X144610500Y-113271155D01*
X144610499Y-113271153D01*
X144598173Y-113209185D01*
X144579737Y-113116503D01*
X144575269Y-113105717D01*
X144519397Y-112970827D01*
X144519390Y-112970814D01*
X144431789Y-112839711D01*
X144431786Y-112839707D01*
X144320292Y-112728213D01*
X144320288Y-112728210D01*
X144189185Y-112640609D01*
X144189172Y-112640602D01*
X144043501Y-112580264D01*
X144043489Y-112580261D01*
X143888845Y-112549500D01*
X143888842Y-112549500D01*
X143803122Y-112549500D01*
X143736083Y-112529815D01*
X143690328Y-112477011D01*
X143688561Y-112472952D01*
X143679397Y-112450828D01*
X143679396Y-112450827D01*
X143679394Y-112450821D01*
X143631302Y-112378846D01*
X143591789Y-112319710D01*
X143480292Y-112208213D01*
X143480288Y-112208210D01*
X143349185Y-112120609D01*
X143349172Y-112120602D01*
X143203501Y-112060264D01*
X143203489Y-112060261D01*
X143048845Y-112029500D01*
X143048842Y-112029500D01*
X142891158Y-112029500D01*
X142891155Y-112029500D01*
X142736510Y-112060261D01*
X142736498Y-112060264D01*
X142590827Y-112120602D01*
X142590814Y-112120609D01*
X142459711Y-112208210D01*
X142459707Y-112208213D01*
X142348213Y-112319707D01*
X142348210Y-112319711D01*
X142260609Y-112450814D01*
X142260602Y-112450827D01*
X142200264Y-112596498D01*
X142200261Y-112596510D01*
X142169500Y-112751153D01*
X137160500Y-112751153D01*
X137160500Y-112701309D01*
X137160500Y-112701306D01*
X137160499Y-112701304D01*
X137125896Y-112527341D01*
X137125893Y-112527332D01*
X137058016Y-112363459D01*
X137058014Y-112363455D01*
X137058013Y-112363453D01*
X136971442Y-112233891D01*
X136950564Y-112167214D01*
X136969048Y-112099834D01*
X136971442Y-112096109D01*
X136995393Y-112060264D01*
X137058013Y-111966547D01*
X137125894Y-111802666D01*
X137130048Y-111781786D01*
X137160499Y-111628695D01*
X137160500Y-111628693D01*
X137160500Y-111451306D01*
X137160499Y-111451304D01*
X137125896Y-111277341D01*
X137125893Y-111277332D01*
X137102603Y-111221105D01*
X137058013Y-111113453D01*
X137036431Y-111081153D01*
X144729500Y-111081153D01*
X144729500Y-111238846D01*
X144760261Y-111393489D01*
X144760264Y-111393501D01*
X144820602Y-111539172D01*
X144820609Y-111539185D01*
X144908210Y-111670288D01*
X144908213Y-111670292D01*
X145019707Y-111781786D01*
X145019711Y-111781789D01*
X145150814Y-111869390D01*
X145150827Y-111869397D01*
X145274992Y-111920827D01*
X145296503Y-111929737D01*
X145451153Y-111960499D01*
X145451156Y-111960500D01*
X145451158Y-111960500D01*
X145608844Y-111960500D01*
X145608845Y-111960499D01*
X145763497Y-111929737D01*
X145909179Y-111869394D01*
X146040289Y-111781789D01*
X146151789Y-111670289D01*
X146239394Y-111539179D01*
X146299737Y-111393497D01*
X146330500Y-111238842D01*
X146330500Y-111081158D01*
X146330500Y-111081155D01*
X146330499Y-111081153D01*
X146318213Y-111019390D01*
X146299737Y-110926503D01*
X146293869Y-110912336D01*
X146239397Y-110780827D01*
X146239390Y-110780814D01*
X146151789Y-110649711D01*
X146151786Y-110649707D01*
X146040292Y-110538213D01*
X146040288Y-110538210D01*
X145909185Y-110450609D01*
X145909172Y-110450602D01*
X145763501Y-110390264D01*
X145763489Y-110390261D01*
X145608845Y-110359500D01*
X145608842Y-110359500D01*
X145451158Y-110359500D01*
X145451155Y-110359500D01*
X145296510Y-110390261D01*
X145296498Y-110390264D01*
X145150827Y-110450602D01*
X145150814Y-110450609D01*
X145019711Y-110538210D01*
X145019707Y-110538213D01*
X144908213Y-110649707D01*
X144908210Y-110649711D01*
X144820609Y-110780814D01*
X144820602Y-110780827D01*
X144760264Y-110926498D01*
X144760261Y-110926510D01*
X144729500Y-111081153D01*
X137036431Y-111081153D01*
X136970362Y-110982275D01*
X136969611Y-110981094D01*
X136960297Y-110948812D01*
X136950263Y-110916764D01*
X136950647Y-110915361D01*
X136950244Y-110913962D01*
X136959866Y-110881757D01*
X136968747Y-110849384D01*
X136970226Y-110847081D01*
X136970246Y-110847017D01*
X136970295Y-110846974D01*
X136971141Y-110845659D01*
X137057566Y-110716315D01*
X137057571Y-110716306D01*
X137125412Y-110552523D01*
X137125415Y-110552516D01*
X137127904Y-110540000D01*
X136059728Y-110540000D01*
X136151614Y-110501940D01*
X136221940Y-110431614D01*
X136260000Y-110339728D01*
X136260000Y-110240272D01*
X136221940Y-110148386D01*
X136151614Y-110078060D01*
X136059728Y-110040000D01*
X136260000Y-110040000D01*
X137127904Y-110040000D01*
X137125415Y-110027483D01*
X137125412Y-110027476D01*
X137057571Y-109863693D01*
X137057566Y-109863683D01*
X136959076Y-109716283D01*
X136959073Y-109716279D01*
X136833720Y-109590926D01*
X136833716Y-109590923D01*
X136686316Y-109492433D01*
X136686307Y-109492428D01*
X136522520Y-109424586D01*
X136522512Y-109424584D01*
X136348646Y-109390000D01*
X136260000Y-109390000D01*
X136260000Y-110040000D01*
X136059728Y-110040000D01*
X135960272Y-110040000D01*
X135868386Y-110078060D01*
X135798060Y-110148386D01*
X135760000Y-110240272D01*
X135760000Y-110339728D01*
X135798060Y-110431614D01*
X135868386Y-110501940D01*
X135960272Y-110540000D01*
X134892096Y-110540000D01*
X134894584Y-110552516D01*
X134894587Y-110552523D01*
X134962428Y-110716306D01*
X134962433Y-110716316D01*
X135048858Y-110845659D01*
X135069736Y-110912336D01*
X135051252Y-110979717D01*
X135048858Y-110983441D01*
X134961990Y-111113446D01*
X134961983Y-111113459D01*
X134894106Y-111277332D01*
X134894103Y-111277341D01*
X134859500Y-111451304D01*
X133991225Y-111451304D01*
X133978441Y-110040000D01*
X134892096Y-110040000D01*
X135760000Y-110040000D01*
X135760000Y-109390000D01*
X135671353Y-109390000D01*
X135497487Y-109424584D01*
X135497479Y-109424586D01*
X135333692Y-109492428D01*
X135333683Y-109492433D01*
X135186283Y-109590923D01*
X135186279Y-109590926D01*
X135060926Y-109716279D01*
X135060923Y-109716283D01*
X134962433Y-109863683D01*
X134962428Y-109863693D01*
X134894587Y-110027476D01*
X134894584Y-110027483D01*
X134892096Y-110040000D01*
X133978441Y-110040000D01*
X133969303Y-109031153D01*
X138689500Y-109031153D01*
X138689500Y-109188846D01*
X138720261Y-109343489D01*
X138720264Y-109343501D01*
X138780602Y-109489172D01*
X138780609Y-109489185D01*
X138868210Y-109620288D01*
X138868213Y-109620292D01*
X138979707Y-109731786D01*
X138979711Y-109731789D01*
X139110814Y-109819390D01*
X139110827Y-109819397D01*
X139217769Y-109863693D01*
X139256503Y-109879737D01*
X139411153Y-109910499D01*
X139411156Y-109910500D01*
X139411158Y-109910500D01*
X139568844Y-109910500D01*
X139568845Y-109910499D01*
X139723497Y-109879737D01*
X139869179Y-109819394D01*
X140000289Y-109731789D01*
X140111789Y-109620289D01*
X140199394Y-109489179D01*
X140259737Y-109343497D01*
X140290500Y-109188842D01*
X140290500Y-109031158D01*
X140290500Y-109031155D01*
X140290499Y-109031153D01*
X140281619Y-108986510D01*
X140259737Y-108876503D01*
X140244954Y-108840814D01*
X140199397Y-108730827D01*
X140199390Y-108730814D01*
X140111789Y-108599711D01*
X140111786Y-108599707D01*
X140000292Y-108488213D01*
X140000288Y-108488210D01*
X139869185Y-108400609D01*
X139869172Y-108400602D01*
X139723501Y-108340264D01*
X139723489Y-108340261D01*
X139568845Y-108309500D01*
X139568842Y-108309500D01*
X139411158Y-108309500D01*
X139411155Y-108309500D01*
X139256510Y-108340261D01*
X139256498Y-108340264D01*
X139110827Y-108400602D01*
X139110814Y-108400609D01*
X138979711Y-108488210D01*
X138979707Y-108488213D01*
X138868213Y-108599707D01*
X138868210Y-108599711D01*
X138780609Y-108730814D01*
X138780602Y-108730827D01*
X138720264Y-108876498D01*
X138720261Y-108876510D01*
X138689500Y-109031153D01*
X133969303Y-109031153D01*
X133957165Y-107691153D01*
X142149500Y-107691153D01*
X142149500Y-107848846D01*
X142180261Y-108003489D01*
X142180264Y-108003501D01*
X142240602Y-108149172D01*
X142240609Y-108149185D01*
X142328210Y-108280288D01*
X142328213Y-108280292D01*
X142439707Y-108391786D01*
X142439711Y-108391789D01*
X142570814Y-108479390D01*
X142570827Y-108479397D01*
X142666062Y-108518844D01*
X142716503Y-108539737D01*
X142871153Y-108570499D01*
X142871156Y-108570500D01*
X142871158Y-108570500D01*
X143028844Y-108570500D01*
X143028845Y-108570499D01*
X143183497Y-108539737D01*
X143329179Y-108479394D01*
X143460289Y-108391789D01*
X143490925Y-108361153D01*
X148119500Y-108361153D01*
X148119500Y-108518846D01*
X148150261Y-108673489D01*
X148150264Y-108673501D01*
X148210602Y-108819172D01*
X148210609Y-108819185D01*
X148298210Y-108950288D01*
X148298213Y-108950292D01*
X148409707Y-109061786D01*
X148409711Y-109061789D01*
X148540814Y-109149390D01*
X148540827Y-109149397D01*
X148636062Y-109188844D01*
X148686503Y-109209737D01*
X148841153Y-109240499D01*
X148841156Y-109240500D01*
X148841158Y-109240500D01*
X148998844Y-109240500D01*
X148998845Y-109240499D01*
X149153497Y-109209737D01*
X149299179Y-109149394D01*
X149430289Y-109061789D01*
X149541789Y-108950289D01*
X149629394Y-108819179D01*
X149689737Y-108673497D01*
X149720500Y-108518842D01*
X149720500Y-108361158D01*
X149720500Y-108361155D01*
X149720499Y-108361153D01*
X149716127Y-108339172D01*
X149689737Y-108206503D01*
X149689735Y-108206498D01*
X149629397Y-108060827D01*
X149629390Y-108060814D01*
X149541789Y-107929711D01*
X149541786Y-107929707D01*
X149430292Y-107818213D01*
X149430288Y-107818210D01*
X149299185Y-107730609D01*
X149299172Y-107730602D01*
X149153501Y-107670264D01*
X149153489Y-107670261D01*
X148998845Y-107639500D01*
X148998842Y-107639500D01*
X148841158Y-107639500D01*
X148841155Y-107639500D01*
X148686510Y-107670261D01*
X148686498Y-107670264D01*
X148540827Y-107730602D01*
X148540814Y-107730609D01*
X148409711Y-107818210D01*
X148409707Y-107818213D01*
X148298213Y-107929707D01*
X148298210Y-107929711D01*
X148210609Y-108060814D01*
X148210602Y-108060827D01*
X148150264Y-108206498D01*
X148150261Y-108206510D01*
X148119500Y-108361153D01*
X143490925Y-108361153D01*
X143571789Y-108280289D01*
X143659394Y-108149179D01*
X143719737Y-108003497D01*
X143750500Y-107848842D01*
X143750500Y-107691158D01*
X143750500Y-107691155D01*
X143750499Y-107691153D01*
X143746343Y-107670261D01*
X143719737Y-107536503D01*
X143689688Y-107463957D01*
X143659397Y-107390827D01*
X143659390Y-107390814D01*
X143571789Y-107259711D01*
X143571786Y-107259707D01*
X143460292Y-107148213D01*
X143460288Y-107148210D01*
X143329185Y-107060609D01*
X143329172Y-107060602D01*
X143183501Y-107000264D01*
X143183489Y-107000261D01*
X143028845Y-106969500D01*
X143028842Y-106969500D01*
X142871158Y-106969500D01*
X142871155Y-106969500D01*
X142716510Y-107000261D01*
X142716498Y-107000264D01*
X142570827Y-107060602D01*
X142570814Y-107060609D01*
X142439711Y-107148210D01*
X142439707Y-107148213D01*
X142328213Y-107259707D01*
X142328210Y-107259711D01*
X142240609Y-107390814D01*
X142240602Y-107390827D01*
X142180264Y-107536498D01*
X142180261Y-107536510D01*
X142149500Y-107691153D01*
X133957165Y-107691153D01*
X133922383Y-103851153D01*
X175039500Y-103851153D01*
X175039500Y-104008846D01*
X175070261Y-104163489D01*
X175070264Y-104163501D01*
X175130602Y-104309172D01*
X175130609Y-104309185D01*
X175218210Y-104440288D01*
X175218213Y-104440292D01*
X175329707Y-104551786D01*
X175329711Y-104551789D01*
X175460814Y-104639390D01*
X175460827Y-104639397D01*
X175606498Y-104699735D01*
X175606503Y-104699737D01*
X175761153Y-104730499D01*
X175761156Y-104730500D01*
X175761158Y-104730500D01*
X175918844Y-104730500D01*
X175918845Y-104730499D01*
X176073497Y-104699737D01*
X176219179Y-104639394D01*
X176350289Y-104551789D01*
X176461789Y-104440289D01*
X176549394Y-104309179D01*
X176609737Y-104163497D01*
X176640500Y-104008842D01*
X176640500Y-103851158D01*
X176640500Y-103851155D01*
X176640499Y-103851153D01*
X176609738Y-103696510D01*
X176609737Y-103696503D01*
X176609735Y-103696498D01*
X176549397Y-103550827D01*
X176549390Y-103550814D01*
X176461789Y-103419711D01*
X176461786Y-103419707D01*
X176350292Y-103308213D01*
X176350288Y-103308210D01*
X176219185Y-103220609D01*
X176219172Y-103220602D01*
X176073501Y-103160264D01*
X176073489Y-103160261D01*
X175918845Y-103129500D01*
X175918842Y-103129500D01*
X175761158Y-103129500D01*
X175761155Y-103129500D01*
X175606510Y-103160261D01*
X175606498Y-103160264D01*
X175460827Y-103220602D01*
X175460814Y-103220609D01*
X175329711Y-103308210D01*
X175329707Y-103308213D01*
X175218213Y-103419707D01*
X175218210Y-103419711D01*
X175130609Y-103550814D01*
X175130602Y-103550827D01*
X175070264Y-103696498D01*
X175070261Y-103696510D01*
X175039500Y-103851153D01*
X133922383Y-103851153D01*
X133901134Y-101505269D01*
X133920211Y-101438057D01*
X133972598Y-101391826D01*
X134025276Y-101380149D01*
X184206553Y-101439853D01*
G37*
%TD.AperFunction*%
%TD*%
M02*
