M48
; DRILL file {KiCad 9.0.2-9.0.2-0~ubuntu22.04.1} date 2025-07-24T10:37:45-0400
; FORMAT={-:-/ absolute / metric / decimal}
; #@! TF.CreationDate,2025-07-24T10:37:45-04:00
; #@! TF.GenerationSoftware,Kicad,Pcbnew,9.0.2-9.0.2-0~ubuntu22.04.1
; #@! TF.FileFunction,Plated,1,4,PTH
FMAT,2
METRIC
; #@! TA.AperFunction,Plated,PTH,ViaDrill
T1C0.300
; #@! TA.AperFunction,Plated,PTH,ComponentDrill
T2C0.400
; #@! TA.AperFunction,Plated,PTH,ComponentDrill
T3C0.500
; #@! TA.AperFunction,Plated,PTH,ComponentDrill
T4C0.700
%
G90
G05
T1
X133.84Y-108.76
X134.82Y-127.87
X135.89Y-102.69
X139.44Y-122.29
X139.44Y-127.53
X139.49Y-109.11
X139.95Y-115.76
X141.24Y-122.22
X141.4Y-114.38
X141.44Y-117.16
X141.62Y-121.16
X142.34Y-101.86
X142.36Y-126.16
X142.95Y-107.77
X142.97Y-112.83
X142.99Y-108.7
X143.28Y-117.57
X143.81Y-113.35
X143.91Y-114.61
X144.0Y-118.45
X144.03Y-119.86
X144.57Y-127.81
X145.15Y-120.98
X145.53Y-111.16
X145.53Y-126.7
X146.14Y-118.12
X146.4Y-108.52
X146.99Y-118.9
X146.99Y-122.105
X147.78Y-118.17
X147.9Y-119.84
X148.23Y-127.43
X148.92Y-108.44
X149.07Y-127.76
X149.43Y-111.95
X149.96Y-120.095
X150.01Y-126.68
X150.08Y-121.88
X150.14Y-118.915
X150.68Y-119.495
X150.92Y-101.85
X151.68Y-108.48
X151.92Y-117.57
X152.61Y-125.21
X153.57Y-117.66
X154.51Y-127.73
X155.08Y-105.03
X155.5Y-114.12
X155.63Y-103.57
X155.64Y-112.87
X155.7Y-111.69
X155.78Y-115.56
X156.055Y-113.616
X156.07Y-110.31
X156.09Y-102.45
X156.1Y-105.55
X156.15Y-114.81
X156.19Y-112.3
X156.32Y-116.31
X156.72Y-122.62
X156.887Y-116.801
X157.08Y-107.87
X157.24Y-109.22
X157.25Y-105.92
X157.36Y-102.3
X157.411Y-117.338
X157.42Y-123.43
X157.46Y-121.59
X157.487Y-118.084
X157.55Y-120.61
X157.59Y-106.76
X158.12Y-124.24
X158.3Y-125.21
X158.5Y-102.12
X158.66Y-120.43
X158.737Y-118.078
X159.09Y-113.12
X159.14Y-111.66
X159.19Y-114.54
X159.3Y-117.51
X159.36Y-125.53
X159.67Y-119.95
X159.68Y-102.28
X159.78Y-106.79
X159.79Y-118.71
X159.92Y-108.38
X160.238Y-123.16
X160.48Y-106.11
X160.56Y-125.63
X160.61Y-111.64
X160.61Y-114.57
X160.62Y-113.17
X160.66Y-102.11
X161.34Y-118.35
X161.58Y-106.06
X161.61Y-125.41
X161.7Y-104.11
X161.73Y-120.12
X161.924Y-118.82
X161.95Y-102.28
X162.0Y-113.2
X162.03Y-114.52
X162.04Y-111.69
X162.19Y-105.31
X162.19Y-124.55
X162.43Y-123.59
X162.607Y-120.52
X162.67Y-108.5
X162.81Y-102.81
X162.846Y-121.478
X163.14Y-122.86
X163.15Y-104.96
X163.36Y-103.47
X164.405Y-116.715
X165.31Y-106.08
X167.45Y-119.44
X167.49Y-125.2
X168.94Y-125.24
X169.33Y-107.96
X170.37Y-125.34
X170.38Y-110.11
X171.06Y-122.0
X171.12Y-122.79
X171.13Y-123.65
X171.43Y-107.48
X171.54Y-125.4
X173.29Y-117.39
X173.65Y-121.55
X174.35Y-122.82
X174.36Y-123.68
X174.36Y-128.38
X174.52Y-107.27
X174.52Y-114.23
X175.08Y-104.77
X175.09Y-102.85
X175.73Y-114.23
X175.84Y-103.93
X176.02Y-102.23
X176.52Y-105.57
X177.0Y-107.23
X177.71Y-102.24
X177.83Y-105.67
X178.68Y-105.76
X179.21Y-102.21
X179.97Y-117.39
X180.46Y-121.98
X180.5Y-102.09
X181.07Y-105.97
X181.15Y-112.87
X182.3Y-102.05
X182.36Y-105.86
X182.98Y-105.23
X183.2Y-103.11
X183.38Y-104.11
T2
X176.27Y-120.28
X176.27Y-121.13
X176.27Y-121.98
X176.27Y-122.83
X176.27Y-123.68
X176.27Y-124.53
X176.27Y-125.38
X176.27Y-126.23
X177.62Y-120.28
X177.62Y-121.13
X177.62Y-121.98
X177.62Y-122.83
X177.62Y-123.68
X177.62Y-124.53
X177.62Y-125.38
X177.62Y-126.23
T3
X136.01Y-110.29
X136.01Y-111.54
X136.01Y-112.79
X136.01Y-114.04
X136.01Y-115.29
X136.02Y-124.745
X136.02Y-125.995
X136.04Y-119.435
X136.04Y-120.685
T4
G00X176.12Y-118.935
M15
G01X177.42Y-118.935
M16
G05
G00X176.12Y-127.575
M15
G01X177.42Y-127.575
M16
G05
G00X180.47Y-118.935
M15
G01X181.37Y-118.935
M16
G05
G00X180.47Y-127.575
M15
G01X181.37Y-127.575
M16
G05
M30
