%TF.GenerationSoftware,KiCad,Pcbnew,9.0.2-9.0.2-0~ubuntu22.04.1*%
%TF.CreationDate,2025-07-24T10:37:48-04:00*%
%TF.ProjectId,jarvis,6a617276-6973-42e6-9b69-6361645f7063,rev?*%
%TF.SameCoordinates,Original*%
%TF.FileFunction,Copper,L1,Top*%
%TF.FilePolarity,Positive*%
%FSLAX46Y46*%
G04 Gerber Fmt 4.6, Leading zero omitted, Abs format (unit mm)*
G04 Created by KiCad (PCBNEW 9.0.2-9.0.2-0~ubuntu22.04.1) date 2025-07-24 10:37:48*
%MOMM*%
%LPD*%
G01*
G04 APERTURE LIST*
G04 Aperture macros list*
%AMRoundRect*
0 Rectangle with rounded corners*
0 $1 Rounding radius*
0 $2 $3 $4 $5 $6 $7 $8 $9 X,Y pos of 4 corners*
0 Add a 4 corners polygon primitive as box body*
4,1,4,$2,$3,$4,$5,$6,$7,$8,$9,$2,$3,0*
0 Add four circle primitives for the rounded corners*
1,1,$1+$1,$2,$3*
1,1,$1+$1,$4,$5*
1,1,$1+$1,$6,$7*
1,1,$1+$1,$8,$9*
0 Add four rect primitives between the rounded corners*
20,1,$1+$1,$2,$3,$4,$5,0*
20,1,$1+$1,$4,$5,$6,$7,0*
20,1,$1+$1,$6,$7,$8,$9,0*
20,1,$1+$1,$8,$9,$2,$3,0*%
%AMFreePoly0*
4,1,121,0.057437,0.323981,0.058316,0.323824,0.113316,0.308824,0.114166,0.308506,0.166166,0.283506,0.166873,0.283092,0.213873,0.250092,0.214579,0.249492,0.254579,0.208492,0.255133,0.207814,0.287133,0.160814,0.287573,0.160023,0.310573,0.108023,0.310851,0.107213,0.324851,0.051213,0.324988,0.050350,0.328988,-0.006650,0.328973,-0.007523,0.322973,-0.064523,0.322801,-0.065397,
0.306801,-0.120397,0.306455,-0.121271,0.280455,-0.172271,0.280021,-0.172972,0.246021,-0.218972,0.245402,-0.219664,0.203402,-0.258664,0.202695,-0.259211,0.155000,-0.289735,0.155000,-1.060082,0.202707,-1.090796,0.203402,-1.091336,0.245402,-1.130336,0.246021,-1.131028,0.280021,-1.177028,0.280455,-1.177729,0.306455,-1.228729,0.306801,-1.229603,0.322801,-1.284603,0.322973,-1.285477,
0.328973,-1.342477,0.328988,-1.343350,0.324988,-1.400350,0.324851,-1.401213,0.310851,-1.457213,0.310573,-1.458023,0.287573,-1.510023,0.287133,-1.510814,0.255133,-1.557814,0.254579,-1.558492,0.214579,-1.599492,0.213873,-1.600092,0.166873,-1.633092,0.166166,-1.633506,0.114166,-1.658506,0.113316,-1.658824,0.058316,-1.673824,0.057437,-1.673981,0.000437,-1.678981,-0.000437,-1.678981,
-0.057437,-1.673981,-0.058316,-1.673824,-0.113316,-1.658824,-0.114166,-1.658506,-0.166166,-1.633506,-0.166873,-1.633092,-0.213873,-1.600092,-0.214579,-1.599492,-0.254579,-1.558492,-0.255133,-1.557814,-0.287133,-1.510814,-0.287573,-1.510023,-0.310573,-1.458023,-0.310851,-1.457213,-0.324851,-1.401213,-0.324988,-1.400350,-0.328988,-1.343350,-0.328973,-1.342477,-0.322973,-1.285477,-0.322801,-1.284603,
-0.306801,-1.229603,-0.306455,-1.228729,-0.280455,-1.177729,-0.280021,-1.177028,-0.246021,-1.131028,-0.245402,-1.130336,-0.203402,-1.091336,-0.202695,-1.090789,-0.155000,-1.060264,-0.155000,-0.289735,-0.202695,-0.259211,-0.203402,-0.258664,-0.245402,-0.219664,-0.246021,-0.218972,-0.280021,-0.172972,-0.280455,-0.172271,-0.306455,-0.121271,-0.306801,-0.120397,-0.322801,-0.065397,-0.322973,-0.064523,
-0.328973,-0.007523,-0.328988,-0.006650,-0.324988,0.050350,-0.324851,0.051213,-0.310851,0.107213,-0.310573,0.108023,-0.287573,0.160023,-0.287133,0.160814,-0.255133,0.207814,-0.254579,0.208492,-0.214579,0.249492,-0.213873,0.250092,-0.166873,0.283092,-0.166166,0.283506,-0.114166,0.308506,-0.113316,0.308824,-0.058316,0.323824,-0.057437,0.323981,-0.000437,0.328981,0.000437,0.328981,
0.057437,0.323981,0.057437,0.323981,$1*%
%AMFreePoly1*
4,1,121,0.057437,0.323981,0.058316,0.323824,0.113316,0.308824,0.114166,0.308506,0.166166,0.283506,0.166873,0.283092,0.213873,0.250092,0.214579,0.249492,0.254579,0.208492,0.255133,0.207814,0.287133,0.160814,0.287573,0.160023,0.310573,0.108023,0.310851,0.107213,0.324851,0.051213,0.324988,0.050350,0.328988,-0.006650,0.328973,-0.007523,0.322973,-0.064523,0.322801,-0.065397,
0.306801,-0.120397,0.306455,-0.121271,0.280455,-0.172271,0.280021,-0.172972,0.246021,-0.218972,0.245402,-0.219664,0.203402,-0.258664,0.202695,-0.259211,0.155000,-0.289735,0.155000,-1.060264,0.202695,-1.090789,0.203402,-1.091336,0.245402,-1.130336,0.246021,-1.131028,0.280021,-1.177028,0.280455,-1.177729,0.306455,-1.228729,0.306801,-1.229603,0.322801,-1.284603,0.322973,-1.285477,
0.328973,-1.342477,0.328988,-1.343350,0.324988,-1.400350,0.324851,-1.401213,0.310851,-1.457213,0.310573,-1.458023,0.287573,-1.510023,0.287133,-1.510814,0.255133,-1.557814,0.254579,-1.558492,0.214579,-1.599492,0.213873,-1.600092,0.166873,-1.633092,0.166166,-1.633506,0.114166,-1.658506,0.113316,-1.658824,0.058316,-1.673824,0.057437,-1.673981,0.000437,-1.678981,-0.000437,-1.678981,
-0.057437,-1.673981,-0.058316,-1.673824,-0.113316,-1.658824,-0.114166,-1.658506,-0.166166,-1.633506,-0.166873,-1.633092,-0.213873,-1.600092,-0.214579,-1.599492,-0.254579,-1.558492,-0.255133,-1.557814,-0.287133,-1.510814,-0.287573,-1.510023,-0.310573,-1.458023,-0.310851,-1.457213,-0.324851,-1.401213,-0.324988,-1.400350,-0.328988,-1.343350,-0.328973,-1.342477,-0.322973,-1.285477,-0.322801,-1.284603,
-0.306801,-1.229603,-0.306455,-1.228729,-0.280455,-1.177729,-0.280021,-1.177028,-0.246021,-1.131028,-0.245402,-1.130336,-0.203402,-1.091336,-0.202695,-1.090789,-0.155000,-1.060264,-0.155000,-0.289735,-0.202695,-0.259211,-0.203402,-0.258664,-0.245402,-0.219664,-0.246021,-0.218972,-0.280021,-0.172972,-0.280455,-0.172271,-0.306455,-0.121271,-0.306801,-0.120397,-0.322801,-0.065397,-0.322973,-0.064523,
-0.328973,-0.007523,-0.328988,-0.006650,-0.324988,0.050350,-0.324851,0.051213,-0.310851,0.107213,-0.310573,0.108023,-0.287573,0.160023,-0.287133,0.160814,-0.255133,0.207814,-0.254579,0.208492,-0.214579,0.249492,-0.213873,0.250092,-0.166873,0.283092,-0.166166,0.283506,-0.114166,0.308506,-0.113316,0.308824,-0.058316,0.323824,-0.057437,0.323981,-0.000437,0.328981,0.000437,0.328981,
0.057437,0.323981,0.057437,0.323981,$1*%
G04 Aperture macros list end*
%TA.AperFunction,ComponentPad*%
%ADD10RoundRect,0.200000X0.450000X-0.200000X0.450000X0.200000X-0.450000X0.200000X-0.450000X-0.200000X0*%
%TD*%
%TA.AperFunction,ComponentPad*%
%ADD11O,1.300000X0.800000*%
%TD*%
%TA.AperFunction,SMDPad,CuDef*%
%ADD12R,0.711200X0.304800*%
%TD*%
%TA.AperFunction,SMDPad,CuDef*%
%ADD13R,0.508000X0.254000*%
%TD*%
%TA.AperFunction,SMDPad,CuDef*%
%ADD14RoundRect,0.200000X0.275000X-0.200000X0.275000X0.200000X-0.275000X0.200000X-0.275000X-0.200000X0*%
%TD*%
%TA.AperFunction,SMDPad,CuDef*%
%ADD15RoundRect,0.218750X-0.218750X-0.256250X0.218750X-0.256250X0.218750X0.256250X-0.218750X0.256250X0*%
%TD*%
%TA.AperFunction,SMDPad,CuDef*%
%ADD16R,1.450000X1.000000*%
%TD*%
%TA.AperFunction,SMDPad,CuDef*%
%ADD17R,1.400000X0.650000*%
%TD*%
%TA.AperFunction,SMDPad,CuDef*%
%ADD18RoundRect,0.200000X-0.200000X-0.275000X0.200000X-0.275000X0.200000X0.275000X-0.200000X0.275000X0*%
%TD*%
%TA.AperFunction,SMDPad,CuDef*%
%ADD19RoundRect,0.112500X-0.112500X-0.637500X0.112500X-0.637500X0.112500X0.637500X-0.112500X0.637500X0*%
%TD*%
%TA.AperFunction,SMDPad,CuDef*%
%ADD20R,0.600000X0.540000*%
%TD*%
%TA.AperFunction,SMDPad,CuDef*%
%ADD21R,0.762000X1.701800*%
%TD*%
%TA.AperFunction,SMDPad,CuDef*%
%ADD22R,2.800000X2.800000*%
%TD*%
%TA.AperFunction,SMDPad,CuDef*%
%ADD23R,0.800000X0.300000*%
%TD*%
%TA.AperFunction,SMDPad,CuDef*%
%ADD24R,0.300000X0.800000*%
%TD*%
%TA.AperFunction,SMDPad,CuDef*%
%ADD25R,0.520000X0.470000*%
%TD*%
%TA.AperFunction,SMDPad,CuDef*%
%ADD26RoundRect,0.225000X0.225000X0.250000X-0.225000X0.250000X-0.225000X-0.250000X0.225000X-0.250000X0*%
%TD*%
%TA.AperFunction,SMDPad,CuDef*%
%ADD27RoundRect,0.225000X-0.225000X-0.250000X0.225000X-0.250000X0.225000X0.250000X-0.225000X0.250000X0*%
%TD*%
%TA.AperFunction,SMDPad,CuDef*%
%ADD28R,0.300000X0.850000*%
%TD*%
%TA.AperFunction,SMDPad,CuDef*%
%ADD29R,0.850000X0.300000*%
%TD*%
%TA.AperFunction,SMDPad,CuDef*%
%ADD30R,1.250000X1.250000*%
%TD*%
%TA.AperFunction,SMDPad,CuDef*%
%ADD31RoundRect,0.225000X0.250000X-0.225000X0.250000X0.225000X-0.250000X0.225000X-0.250000X-0.225000X0*%
%TD*%
%TA.AperFunction,SMDPad,CuDef*%
%ADD32R,1.200000X0.850000*%
%TD*%
%TA.AperFunction,SMDPad,CuDef*%
%ADD33RoundRect,0.140000X-0.140000X-0.170000X0.140000X-0.170000X0.140000X0.170000X-0.140000X0.170000X0*%
%TD*%
%TA.AperFunction,SMDPad,CuDef*%
%ADD34RoundRect,0.140000X-0.170000X0.140000X-0.170000X-0.140000X0.170000X-0.140000X0.170000X0.140000X0*%
%TD*%
%TA.AperFunction,SMDPad,CuDef*%
%ADD35RoundRect,0.200000X-0.275000X0.200000X-0.275000X-0.200000X0.275000X-0.200000X0.275000X0.200000X0*%
%TD*%
%TA.AperFunction,SMDPad,CuDef*%
%ADD36RoundRect,0.050000X0.232500X0.050000X-0.232500X0.050000X-0.232500X-0.050000X0.232500X-0.050000X0*%
%TD*%
%TA.AperFunction,SMDPad,CuDef*%
%ADD37RoundRect,0.050000X0.232500X0.150000X-0.232500X0.150000X-0.232500X-0.150000X0.232500X-0.150000X0*%
%TD*%
%TA.AperFunction,SMDPad,CuDef*%
%ADD38RoundRect,0.225000X-0.250000X0.225000X-0.250000X-0.225000X0.250000X-0.225000X0.250000X0.225000X0*%
%TD*%
%TA.AperFunction,SMDPad,CuDef*%
%ADD39RoundRect,0.200000X0.200000X0.275000X-0.200000X0.275000X-0.200000X-0.275000X0.200000X-0.275000X0*%
%TD*%
%TA.AperFunction,SMDPad,CuDef*%
%ADD40R,0.540000X0.600000*%
%TD*%
%TA.AperFunction,ComponentPad*%
%ADD41FreePoly0,90.000000*%
%TD*%
%TA.AperFunction,ComponentPad*%
%ADD42C,0.648000*%
%TD*%
%TA.AperFunction,ComponentPad*%
%ADD43FreePoly1,90.000000*%
%TD*%
%TA.AperFunction,ComponentPad*%
%ADD44O,2.500000X1.300000*%
%TD*%
%TA.AperFunction,ComponentPad*%
%ADD45O,3.200000X1.300000*%
%TD*%
%TA.AperFunction,SMDPad,CuDef*%
%ADD46R,0.500000X0.600000*%
%TD*%
%TA.AperFunction,SMDPad,CuDef*%
%ADD47R,0.600000X1.250000*%
%TD*%
%TA.AperFunction,SMDPad,CuDef*%
%ADD48R,0.650000X1.650000*%
%TD*%
%TA.AperFunction,SMDPad,CuDef*%
%ADD49R,0.850000X0.200000*%
%TD*%
%TA.AperFunction,SMDPad,CuDef*%
%ADD50R,0.200000X0.850000*%
%TD*%
%TA.AperFunction,SMDPad,CuDef*%
%ADD51R,4.050000X4.050000*%
%TD*%
%TA.AperFunction,SMDPad,CuDef*%
%ADD52RoundRect,0.140000X0.170000X-0.140000X0.170000X0.140000X-0.170000X0.140000X-0.170000X-0.140000X0*%
%TD*%
%TA.AperFunction,ViaPad*%
%ADD53C,0.600000*%
%TD*%
%TA.AperFunction,Conductor*%
%ADD54C,0.200000*%
%TD*%
%TA.AperFunction,Conductor*%
%ADD55C,0.300000*%
%TD*%
%TA.AperFunction,Conductor*%
%ADD56C,0.400000*%
%TD*%
G04 APERTURE END LIST*
D10*
%TO.P,J2,1,Pin_1*%
%TO.N,/Components/MIC-DATA*%
X136010000Y-115290000D03*
D11*
%TO.P,J2,2,Pin_2*%
%TO.N,/Components/MIC-WS*%
X136010000Y-114040000D03*
%TO.P,J2,3,Pin_3*%
%TO.N,/Components/MIC-BCK*%
X136010000Y-112790000D03*
%TO.P,J2,4,Pin_4*%
%TO.N,+3.3V*%
X136010000Y-111540000D03*
%TO.P,J2,5,Pin_5*%
%TO.N,GND*%
X136010000Y-110290000D03*
%TD*%
D12*
%TO.P,LED1,1,1*%
%TO.N,Net-(LED1-Pad1)*%
X172783600Y-128860001D03*
D13*
%TO.P,LED1,2,2*%
%TO.N,GND*%
X172683600Y-128385001D03*
%TO.P,LED1,3,3*%
%TO.N,Net-(LED1-Pad3)*%
X172683600Y-127934999D03*
D12*
%TO.P,LED1,4,4*%
%TO.N,Net-(LED1-Pad4)*%
X172783600Y-127459999D03*
%TD*%
D14*
%TO.P,R23,1*%
%TO.N,Net-(LED1-Pad4)*%
X170640000Y-128035000D03*
%TO.P,R23,2*%
%TO.N,Net-(IC1-GPIO13)*%
X170640000Y-126385000D03*
%TD*%
%TO.P,R22,1*%
%TO.N,Net-(LED1-Pad3)*%
X169060000Y-128025000D03*
%TO.P,R22,2*%
%TO.N,Net-(IC1-GPIO17)*%
X169060000Y-126375000D03*
%TD*%
%TO.P,R21,1*%
%TO.N,Net-(LED1-Pad1)*%
X167480000Y-128035000D03*
%TO.P,R21,2*%
%TO.N,Net-(IC1-GPIO18)*%
X167480000Y-126385000D03*
%TD*%
D15*
%TO.P,D5,1,K*%
%TO.N,/ESP/ESP-GPIO11*%
X149482500Y-128980000D03*
%TO.P,D5,2,A*%
%TO.N,Net-(D5-A)*%
X151057500Y-128980000D03*
%TD*%
%TO.P,D4,1,K*%
%TO.N,/ESP/ESP-GPIO10*%
X143282500Y-129000000D03*
%TO.P,D4,2,A*%
%TO.N,Net-(D4-A)*%
X144857500Y-129000000D03*
%TD*%
%TO.P,D3,1,K*%
%TO.N,GND*%
X135352500Y-128970000D03*
%TO.P,D3,2,A*%
%TO.N,Net-(D3-A)*%
X136927500Y-128970000D03*
%TD*%
D16*
%TO.P,S2,1,NO_1*%
%TO.N,GND*%
X142460000Y-103290000D03*
%TO.P,S2,2,COM_1*%
%TO.N,Net-(IC1-GPIO0)*%
X142460000Y-104990000D03*
%TO.P,S2,3,NO_2*%
%TO.N,unconnected-(S2-NO_2-Pad3)*%
X137310000Y-103290000D03*
%TO.P,S2,4,COM_2*%
%TO.N,unconnected-(S2-COM_2-Pad4)*%
X137310000Y-104990000D03*
D17*
%TO.P,S2,5,GND*%
%TO.N,GND*%
X139885000Y-102115000D03*
%TD*%
D16*
%TO.P,S1,1,NO_1*%
%TO.N,GND*%
X151160000Y-103300000D03*
%TO.P,S1,2,COM_1*%
%TO.N,Net-(IC1-CHIP_PU)*%
X151160000Y-105000000D03*
%TO.P,S1,3,NO_2*%
%TO.N,unconnected-(S1-NO_2-Pad3)*%
X146010000Y-103300000D03*
%TO.P,S1,4,COM_2*%
%TO.N,unconnected-(S1-COM_2-Pad4)*%
X146010000Y-105000000D03*
D17*
%TO.P,S1,5,GND*%
%TO.N,GND*%
X148585000Y-102125000D03*
%TD*%
D18*
%TO.P,R20,1*%
%TO.N,Net-(D4-A)*%
X146325000Y-128990000D03*
%TO.P,R20,2*%
%TO.N,+3.3V*%
X147975000Y-128990000D03*
%TD*%
%TO.P,R19,1*%
%TO.N,Net-(D5-A)*%
X152515000Y-128980000D03*
%TO.P,R19,2*%
%TO.N,+3.3V*%
X154165000Y-128980000D03*
%TD*%
%TO.P,R18,1*%
%TO.N,Net-(D3-A)*%
X138405000Y-128970000D03*
%TO.P,R18,2*%
%TO.N,+3.3V*%
X140055000Y-128970000D03*
%TD*%
D19*
%TO.P,D2,1*%
%TO.N,/Power/VBUS*%
X150300000Y-124820000D03*
%TO.P,D2,2*%
%TO.N,/Power/VBAT_1*%
X151600000Y-124820000D03*
%TO.P,D2,3*%
%TO.N,Net-(IC3-CE)*%
X150950000Y-122160000D03*
%TD*%
D18*
%TO.P,R17,1*%
%TO.N,+3.3V*%
X140165000Y-107860000D03*
%TO.P,R17,2*%
%TO.N,Net-(IC1-GPIO0)*%
X141815000Y-107860000D03*
%TD*%
D20*
%TO.P,L3,1*%
%TO.N,Net-(AE1-Pad1)*%
X176840000Y-103478000D03*
%TO.P,L3,2*%
%TO.N,Net-(IC1-LNA_IN)*%
X176840000Y-104342000D03*
%TD*%
D21*
%TO.P,AE1,2*%
%TO.N,N/C*%
X181596400Y-103930000D03*
%TO.P,AE1,1,1*%
%TO.N,Net-(AE1-Pad1)*%
X178243600Y-103930000D03*
%TD*%
D22*
%TO.P,IC3,21,EP*%
%TO.N,GND*%
X146990000Y-118900000D03*
D23*
%TO.P,IC3,20,OUT_2*%
%TO.N,/Power/SYS*%
X144990000Y-119900000D03*
%TO.P,IC3,19,IN_2*%
%TO.N,/Power/VBUS*%
X144990000Y-119400000D03*
%TO.P,IC3,18,IN_1*%
X144990000Y-118900000D03*
%TO.P,IC3,17,CE*%
%TO.N,Net-(IC3-CE)*%
X144990000Y-118400000D03*
%TO.P,IC3,16,VBAT_SENSE*%
%TO.N,/Power/VBAT_1*%
X144990000Y-117900000D03*
D24*
%TO.P,IC3,15,VBAT_2*%
X145990000Y-116900000D03*
%TO.P,IC3,14,VBAT_1*%
X146490000Y-116900000D03*
%TO.P,IC3,13,PROG1*%
%TO.N,/Power/PROG1*%
X146990000Y-116900000D03*
%TO.P,IC3,12,PROG3*%
%TO.N,Net-(IC3-PROG3)*%
X147490000Y-116900000D03*
%TO.P,IC3,11,VSS_2*%
%TO.N,GND*%
X147990000Y-116900000D03*
D23*
%TO.P,IC3,10,VSS_1*%
X148990000Y-117900000D03*
%TO.P,IC3,9,~{TE}*%
X148990000Y-118400000D03*
%TO.P,IC3,8,STAT1/~{LBO}*%
%TO.N,/ESP/ESP-GPIO10*%
X148990000Y-118900000D03*
%TO.P,IC3,7,STAT2*%
%TO.N,/ESP/ESP-GPIO11*%
X148990000Y-119400000D03*
%TO.P,IC3,6,~{PG}*%
%TO.N,/ESP/ESP-GPIO12*%
X148990000Y-119900000D03*
D24*
%TO.P,IC3,5,THERM*%
%TO.N,/Power/THERM*%
X147990000Y-120900000D03*
%TO.P,IC3,4,PROG2*%
%TO.N,/Power/VBUS*%
X147490000Y-120900000D03*
%TO.P,IC3,3,SEL*%
%TO.N,GND*%
X146990000Y-120900000D03*
%TO.P,IC3,2,VPCC*%
%TO.N,unconnected-(IC3-VPCC-Pad2)*%
X146490000Y-120900000D03*
%TO.P,IC3,1,OUT_1*%
%TO.N,/Power/SYS*%
X145990000Y-120900000D03*
%TD*%
D25*
%TO.P,Y3,4*%
%TO.N,N/C*%
X159748162Y-121555000D03*
%TO.P,Y3,3*%
%TO.N,Net-(IC1-XTAL_32K_N)*%
X160568162Y-121555000D03*
%TO.P,Y3,2*%
%TO.N,GND*%
X160568162Y-122225000D03*
%TO.P,Y3,1*%
%TO.N,Net-(IC1-XTAL_32K_P)*%
X159748162Y-122225000D03*
%TD*%
D26*
%TO.P,C26,1*%
%TO.N,GND*%
X181890000Y-114090000D03*
%TO.P,C26,2*%
%TO.N,+1.8*%
X180340000Y-114090000D03*
%TD*%
%TO.P,C4,1*%
%TO.N,GND*%
X143395000Y-127210000D03*
%TO.P,C4,2*%
%TO.N,/Power/SYS*%
X141845000Y-127210000D03*
%TD*%
D27*
%TO.P,C13,1*%
%TO.N,+3.3V*%
X152660000Y-114870000D03*
%TO.P,C13,2*%
%TO.N,GND*%
X154210000Y-114870000D03*
%TD*%
D26*
%TO.P,C7,1*%
%TO.N,+3.3V*%
X154165000Y-109240000D03*
%TO.P,C7,2*%
%TO.N,GND*%
X152615000Y-109240000D03*
%TD*%
D18*
%TO.P,R9,1*%
%TO.N,Net-(IC1-GPIO45)*%
X162535000Y-107310000D03*
%TO.P,R9,2*%
%TO.N,+3.3V*%
X164185000Y-107310000D03*
%TD*%
%TO.P,R15,1*%
%TO.N,Net-(IC1-SPIHD)*%
X166555000Y-115560000D03*
%TO.P,R15,2*%
%TO.N,/Components/FLASH-HOLD*%
X168205000Y-115560000D03*
%TD*%
D28*
%TO.P,IC2,1,DIN*%
%TO.N,/Components/AMP-DIN*%
X142150000Y-112930000D03*
%TO.P,IC2,2,GAIN_SLOT*%
%TO.N,GND*%
X141650000Y-112930000D03*
%TO.P,IC2,3,GND_1*%
X141150000Y-112930000D03*
%TO.P,IC2,4,~{SD_MODE}*%
%TO.N,+3.3V*%
X140650000Y-112930000D03*
D29*
%TO.P,IC2,5,N.C._1*%
%TO.N,unconnected-(IC2-N.C._1-Pad5)*%
X139950000Y-113630000D03*
%TO.P,IC2,6,N.C._2*%
%TO.N,unconnected-(IC2-N.C._2-Pad6)*%
X139950000Y-114130000D03*
%TO.P,IC2,7,VDD_1*%
%TO.N,+3.3V*%
X139950000Y-114630000D03*
%TO.P,IC2,8,VDD_2*%
X139950000Y-115130000D03*
D28*
%TO.P,IC2,9,OUTP*%
%TO.N,Net-(IC2-OUTP)*%
X140650000Y-115830000D03*
%TO.P,IC2,10,OUTN*%
%TO.N,Net-(IC2-OUTN)*%
X141150000Y-115830000D03*
%TO.P,IC2,11,GND_2*%
%TO.N,GND*%
X141650000Y-115830000D03*
%TO.P,IC2,12,N.C._3*%
%TO.N,unconnected-(IC2-N.C._3-Pad12)*%
X142150000Y-115830000D03*
D29*
%TO.P,IC2,13,N.C._4*%
%TO.N,unconnected-(IC2-N.C._4-Pad13)*%
X142850000Y-115130000D03*
%TO.P,IC2,14,LRCLK*%
%TO.N,/Components/AMP-LRCLK*%
X142850000Y-114630000D03*
%TO.P,IC2,15,GND_3*%
%TO.N,GND*%
X142850000Y-114130000D03*
%TO.P,IC2,16,BCLK*%
%TO.N,/Components/AMP-BCLK*%
X142850000Y-113630000D03*
D30*
%TO.P,IC2,17,THERMAL_PAD*%
%TO.N,GND*%
X141400000Y-114380000D03*
%TD*%
D18*
%TO.P,R12,1*%
%TO.N,Net-(IC1-SPIQ)*%
X166520000Y-109430000D03*
%TO.P,R12,2*%
%TO.N,/Components/FLASH-DO_IO1*%
X168170000Y-109430000D03*
%TD*%
D10*
%TO.P,J1,1,Pin_1*%
%TO.N,Net-(IC2-OUTN)*%
X136040000Y-120685000D03*
D11*
%TO.P,J1,2,Pin_2*%
%TO.N,Net-(IC2-OUTP)*%
X136040000Y-119435000D03*
%TD*%
D10*
%TO.P,J3,1,Pin_1*%
%TO.N,/Power/VBAT_1*%
X136020000Y-125995000D03*
D11*
%TO.P,J3,2,Pin_2*%
%TO.N,GND*%
X136020000Y-124745000D03*
%TD*%
D20*
%TO.P,L1,1*%
%TO.N,Net-(IC1-XTAL_P)*%
X158590000Y-108502000D03*
%TO.P,L1,2*%
%TO.N,Net-(C14-Pad2)*%
X158590000Y-107638000D03*
%TD*%
D31*
%TO.P,C17,1*%
%TO.N,GND*%
X168220000Y-118590000D03*
%TO.P,C17,2*%
%TO.N,+1.8*%
X168220000Y-117040000D03*
%TD*%
D32*
%TO.P,Y2,1*%
%TO.N,Net-(C14-Pad2)*%
X157998000Y-104690000D03*
%TO.P,Y2,2,GND*%
%TO.N,GND*%
X159622000Y-104690000D03*
%TO.P,Y2,3*%
%TO.N,Net-(IC1-XTAL_N)*%
X159622000Y-103490000D03*
%TO.P,Y2,4,GND__1*%
%TO.N,GND*%
X157998000Y-103490000D03*
%TD*%
D26*
%TO.P,C27,1*%
%TO.N,GND*%
X181885000Y-115690000D03*
%TO.P,C27,2*%
%TO.N,+1.8*%
X180335000Y-115690000D03*
%TD*%
D33*
%TO.P,C18,1*%
%TO.N,+3.3V*%
X163910000Y-108500000D03*
%TO.P,C18,2*%
%TO.N,GND*%
X164870000Y-108500000D03*
%TD*%
D34*
%TO.P,C10,1*%
%TO.N,Net-(IC1-XTAL_32K_N)*%
X161858162Y-121445000D03*
%TO.P,C10,2*%
%TO.N,GND*%
X161858162Y-122405000D03*
%TD*%
D35*
%TO.P,R6,1*%
%TO.N,GND*%
X172590000Y-118375000D03*
%TO.P,R6,2*%
%TO.N,Net-(U2-CC2)*%
X172590000Y-120025000D03*
%TD*%
D26*
%TO.P,C24,1*%
%TO.N,GND*%
X141945000Y-111320000D03*
%TO.P,C24,2*%
%TO.N,+3.3V*%
X140395000Y-111320000D03*
%TD*%
%TO.P,C15,1*%
%TO.N,+3.3V*%
X156235000Y-117830000D03*
%TO.P,C15,2*%
%TO.N,GND*%
X154685000Y-117830000D03*
%TD*%
D36*
%TO.P,U1,1*%
%TO.N,/Power/USB_DP*%
X172820000Y-123500000D03*
%TO.P,U1,2*%
%TO.N,/Power/USB_DN*%
X172820000Y-123000000D03*
D37*
%TO.P,U1,3*%
%TO.N,GND*%
X172820000Y-122500000D03*
D36*
%TO.P,U1,4*%
%TO.N,Net-(U2-CC1)*%
X172820000Y-122000000D03*
%TO.P,U1,5*%
%TO.N,Net-(U2-CC2)*%
X172820000Y-121500000D03*
%TO.P,U1,6,NC_6*%
%TO.N,unconnected-(U1-NC_6-Pad6)*%
X171985000Y-121500000D03*
%TO.P,U1,7,NC_7*%
%TO.N,unconnected-(U1-NC_7-Pad7)*%
X171985000Y-122000000D03*
D37*
%TO.P,U1,8*%
%TO.N,GND*%
X171985000Y-122500000D03*
D36*
%TO.P,U1,9,NC_9*%
%TO.N,unconnected-(U1-NC_9-Pad9)*%
X171985000Y-123000000D03*
%TO.P,U1,10,NC_10*%
%TO.N,unconnected-(U1-NC_10-Pad10)*%
X171985000Y-123500000D03*
%TD*%
D38*
%TO.P,C3,1*%
%TO.N,/Power/VBUS*%
X146990000Y-123350000D03*
%TO.P,C3,2*%
%TO.N,GND*%
X146990000Y-124900000D03*
%TD*%
D31*
%TO.P,C19,1*%
%TO.N,GND*%
X166630000Y-118570000D03*
%TO.P,C19,2*%
%TO.N,+1.8*%
X166630000Y-117020000D03*
%TD*%
D26*
%TO.P,C25,1*%
%TO.N,GND*%
X141970000Y-109830000D03*
%TO.P,C25,2*%
%TO.N,+3.3V*%
X140420000Y-109830000D03*
%TD*%
D39*
%TO.P,R5,1*%
%TO.N,/Power/USB_DN*%
X170035000Y-122460000D03*
%TO.P,R5,2*%
%TO.N,/ESP/ESP-GPIO20*%
X168385000Y-122460000D03*
%TD*%
D31*
%TO.P,C2,1*%
%TO.N,GND*%
X145530000Y-124905000D03*
%TO.P,C2,2*%
%TO.N,/Power/SYS*%
X145530000Y-123355000D03*
%TD*%
D40*
%TO.P,L2,1*%
%TO.N,+3.3V*%
X153503000Y-112070000D03*
%TO.P,L2,2*%
%TO.N,Net-(IC1-VDD3P3_1)*%
X154367000Y-112070000D03*
%TD*%
D38*
%TO.P,C22,1*%
%TO.N,+3.3V*%
X134160000Y-105575000D03*
%TO.P,C22,2*%
%TO.N,GND*%
X134160000Y-107125000D03*
%TD*%
D41*
%TO.P,U2,A1,GND1*%
%TO.N,GND*%
X176270000Y-126230000D03*
%TO.P,U2,A4,VBUS1*%
%TO.N,/Power/VBUS*%
X176270000Y-125380000D03*
D42*
%TO.P,U2,A5,CC1*%
%TO.N,Net-(U2-CC1)*%
X176270000Y-124530000D03*
%TO.P,U2,A6,DA+*%
%TO.N,/Power/USB_DP*%
X176270000Y-123680000D03*
%TO.P,U2,A7,DA-*%
%TO.N,/Power/USB_DN*%
X176270000Y-122830000D03*
%TO.P,U2,A8,SBU1*%
%TO.N,unconnected-(U2-SBU1-PadA8)*%
X176270000Y-121980000D03*
D43*
%TO.P,U2,A9,VBUS2*%
%TO.N,/Power/VBUS*%
X176270000Y-121130000D03*
D41*
%TO.P,U2,A12,GND2*%
%TO.N,GND*%
X176270000Y-120280000D03*
D42*
%TO.P,U2,B1,GND3*%
X177620000Y-120280000D03*
%TO.P,U2,B4,VBUS3*%
%TO.N,/Power/VBUS*%
X177620000Y-121130000D03*
%TO.P,U2,B5,CC2*%
%TO.N,Net-(U2-CC2)*%
X177620000Y-121980000D03*
%TO.P,U2,B6,DB+*%
%TO.N,/Power/USB_DP*%
X177620000Y-122830000D03*
%TO.P,U2,B7,DB-*%
%TO.N,/Power/USB_DN*%
X177620000Y-123680000D03*
%TO.P,U2,B8,SBU2*%
%TO.N,unconnected-(U2-SBU2-PadB8)*%
X177620000Y-124530000D03*
%TO.P,U2,B9,VBUS4*%
%TO.N,/Power/VBUS*%
X177620000Y-125380000D03*
%TO.P,U2,B12,GND4*%
%TO.N,GND*%
X177620000Y-126230000D03*
D44*
%TO.P,U2,SH1,SHIELD1*%
X180920000Y-127575000D03*
%TO.P,U2,SH2,SHIELD2*%
X180920000Y-118935000D03*
D45*
%TO.P,U2,SH3,SHIELD3*%
X176770000Y-127575000D03*
%TO.P,U2,SH4,SHIELD4*%
X176770000Y-118935000D03*
%TD*%
D27*
%TO.P,C12,1*%
%TO.N,+3.3V*%
X152660000Y-113370000D03*
%TO.P,C12,2*%
%TO.N,GND*%
X154210000Y-113370000D03*
%TD*%
D31*
%TO.P,C23,1*%
%TO.N,+3.3V*%
X134140000Y-103765000D03*
%TO.P,C23,2*%
%TO.N,GND*%
X134140000Y-102215000D03*
%TD*%
D14*
%TO.P,R1,1*%
%TO.N,GND*%
X148480000Y-124960000D03*
%TO.P,R1,2*%
%TO.N,/Power/THERM*%
X148480000Y-123310000D03*
%TD*%
D38*
%TO.P,C6,1*%
%TO.N,GND*%
X142170000Y-117980000D03*
%TO.P,C6,2*%
%TO.N,+3.3V*%
X142170000Y-119530000D03*
%TD*%
D18*
%TO.P,R7,1*%
%TO.N,Net-(IC1-XTAL_32K_P)*%
X159348162Y-124080000D03*
%TO.P,R7,2*%
%TO.N,Net-(IC1-XTAL_32K_N)*%
X160998162Y-124080000D03*
%TD*%
%TO.P,R11,1*%
%TO.N,Net-(IC1-SPICLK)*%
X166520000Y-110970000D03*
%TO.P,R11,2*%
%TO.N,/Components/FLASH-CLK*%
X168170000Y-110970000D03*
%TD*%
D31*
%TO.P,C1,1*%
%TO.N,/Power/VBAT_1*%
X145450000Y-115340000D03*
%TO.P,C1,2*%
%TO.N,GND*%
X145450000Y-113790000D03*
%TD*%
D14*
%TO.P,R2,1*%
%TO.N,/Power/PROG1*%
X146980000Y-115385000D03*
%TO.P,R2,2*%
%TO.N,GND*%
X146980000Y-113735000D03*
%TD*%
D18*
%TO.P,R8,1*%
%TO.N,+3.3V*%
X146400000Y-111170000D03*
%TO.P,R8,2*%
%TO.N,Net-(IC1-CHIP_PU)*%
X148050000Y-111170000D03*
%TD*%
D26*
%TO.P,C11,1*%
%TO.N,Net-(IC1-VDD3P3_1)*%
X154210000Y-110770000D03*
%TO.P,C11,2*%
%TO.N,GND*%
X152660000Y-110770000D03*
%TD*%
D14*
%TO.P,R3,1*%
%TO.N,Net-(U2-CC1)*%
X174080000Y-119995000D03*
%TO.P,R3,2*%
%TO.N,GND*%
X174080000Y-118345000D03*
%TD*%
D46*
%TO.P,D1,1,K*%
%TO.N,GND*%
X173030000Y-125380000D03*
%TO.P,D1,2,A*%
%TO.N,/Power/VBUS*%
X174430000Y-125380000D03*
%TD*%
D26*
%TO.P,C8,1*%
%TO.N,+3.3V*%
X154165000Y-107740000D03*
%TO.P,C8,2*%
%TO.N,GND*%
X152615000Y-107740000D03*
%TD*%
D18*
%TO.P,R14,1*%
%TO.N,Net-(IC1-SPIWP)*%
X166545000Y-114060000D03*
%TO.P,R14,2*%
%TO.N,/Components/FLASH-WP_IO2*%
X168195000Y-114060000D03*
%TD*%
D38*
%TO.P,C5,1*%
%TO.N,GND*%
X140620000Y-117980000D03*
%TO.P,C5,2*%
%TO.N,+3.3V*%
X140620000Y-119530000D03*
%TD*%
D34*
%TO.P,C14,1*%
%TO.N,GND*%
X156600000Y-103600000D03*
%TO.P,C14,2*%
%TO.N,Net-(C14-Pad2)*%
X156600000Y-104560000D03*
%TD*%
D26*
%TO.P,C21,1*%
%TO.N,Net-(IC1-CHIP_PU)*%
X148000000Y-109570000D03*
%TO.P,C21,2*%
%TO.N,GND*%
X146450000Y-109570000D03*
%TD*%
D34*
%TO.P,C16,1*%
%TO.N,Net-(IC1-XTAL_N)*%
X161010000Y-103670000D03*
%TO.P,C16,2*%
%TO.N,GND*%
X161010000Y-104630000D03*
%TD*%
D39*
%TO.P,R4,1*%
%TO.N,/Power/USB_DP*%
X170015000Y-123970000D03*
%TO.P,R4,2*%
%TO.N,/ESP/ESP-GPIO19*%
X168365000Y-123970000D03*
%TD*%
D18*
%TO.P,R10,1*%
%TO.N,Net-(IC1-SPICS0)*%
X166525000Y-112500000D03*
%TO.P,R10,2*%
%TO.N,/Components/FLASH-CS*%
X168175000Y-112500000D03*
%TD*%
D47*
%TO.P,IC4,1,IN*%
%TO.N,/Power/SYS*%
X140670000Y-123605000D03*
%TO.P,IC4,2,GND*%
%TO.N,GND*%
X141620000Y-123605000D03*
%TO.P,IC4,3,EN*%
%TO.N,/Power/SYS*%
X142570000Y-123605000D03*
%TO.P,IC4,4,N/C*%
%TO.N,unconnected-(IC4-N{slash}C-Pad4)*%
X142570000Y-121105000D03*
%TO.P,IC4,5,OUT*%
%TO.N,+3.3V*%
X140670000Y-121105000D03*
%TD*%
D48*
%TO.P,IC5,1,/CS*%
%TO.N,/Components/FLASH-CS*%
X178325000Y-108790000D03*
%TO.P,IC5,2,DO_(IO1)*%
%TO.N,/Components/FLASH-DO_IO1*%
X177055000Y-108790000D03*
%TO.P,IC5,3,/WP_(IO2)*%
%TO.N,/Components/FLASH-WP_IO2*%
X175785000Y-108790000D03*
%TO.P,IC5,4,GND*%
%TO.N,GND*%
X174515000Y-108790000D03*
%TO.P,IC5,5,DI_(IO0)*%
%TO.N,/Components/FLASH-DI_IO0*%
X174515000Y-115990000D03*
%TO.P,IC5,6,CLK*%
%TO.N,/Components/FLASH-CLK*%
X175785000Y-115990000D03*
%TO.P,IC5,7,/HOLD_OR_/RESET_(IO3)*%
%TO.N,/Components/FLASH-HOLD*%
X177055000Y-115990000D03*
%TO.P,IC5,8,VCC*%
%TO.N,+1.8*%
X178325000Y-115990000D03*
%TD*%
D49*
%TO.P,IC1,1,LNA_IN*%
%TO.N,Net-(IC1-LNA_IN)*%
X157140000Y-110530000D03*
%TO.P,IC1,2,VDD3P3_1*%
%TO.N,Net-(IC1-VDD3P3_1)*%
X157140000Y-110930000D03*
%TO.P,IC1,3,VDD3P3_2*%
X157140000Y-111330000D03*
%TO.P,IC1,4,CHIP_PU*%
%TO.N,Net-(IC1-CHIP_PU)*%
X157140000Y-111730000D03*
%TO.P,IC1,5,GPIO0*%
%TO.N,Net-(IC1-GPIO0)*%
X157140000Y-112130000D03*
%TO.P,IC1,6,GPIO1*%
%TO.N,unconnected-(IC1-GPIO1-Pad6)*%
X157140000Y-112530000D03*
%TO.P,IC1,7,GPIO2*%
%TO.N,unconnected-(IC1-GPIO2-Pad7)*%
X157140000Y-112930000D03*
%TO.P,IC1,8,GPIO3*%
%TO.N,/Components/AMP-DIN*%
X157140000Y-113330000D03*
%TO.P,IC1,9,GPIO4*%
%TO.N,/Components/AMP-BCLK*%
X157140000Y-113730000D03*
%TO.P,IC1,10,GPIO5*%
%TO.N,/Components/AMP-LRCLK*%
X157140000Y-114130000D03*
%TO.P,IC1,11,GPIO6*%
%TO.N,unconnected-(IC1-GPIO6-Pad11)*%
X157140000Y-114530000D03*
%TO.P,IC1,12,GPIO7*%
%TO.N,/Components/MIC-BCK*%
X157140000Y-114930000D03*
%TO.P,IC1,13,GPIO8*%
%TO.N,/Components/MIC-WS*%
X157140000Y-115330000D03*
%TO.P,IC1,14,GPIO9*%
%TO.N,/Components/MIC-DATA*%
X157140000Y-115730000D03*
D50*
%TO.P,IC1,15,GPIO10*%
%TO.N,/ESP/ESP-GPIO10*%
X157990000Y-116580000D03*
%TO.P,IC1,16,GPIO11*%
%TO.N,/ESP/ESP-GPIO11*%
X158390000Y-116580000D03*
%TO.P,IC1,17,GPIO12*%
%TO.N,/ESP/ESP-GPIO12*%
X158790000Y-116580000D03*
%TO.P,IC1,18,GPIO13*%
%TO.N,Net-(IC1-GPIO13)*%
X159190000Y-116580000D03*
%TO.P,IC1,19,GPIO14*%
%TO.N,unconnected-(IC1-GPIO14-Pad19)*%
X159590000Y-116580000D03*
%TO.P,IC1,20,VDD3P3_RTC*%
%TO.N,+3.3V*%
X159990000Y-116580000D03*
%TO.P,IC1,21,XTAL_32K_P*%
%TO.N,Net-(IC1-XTAL_32K_P)*%
X160390000Y-116580000D03*
%TO.P,IC1,22,XTAL_32K_N*%
%TO.N,Net-(IC1-XTAL_32K_N)*%
X160790000Y-116580000D03*
%TO.P,IC1,23,GPIO17*%
%TO.N,Net-(IC1-GPIO17)*%
X161190000Y-116580000D03*
%TO.P,IC1,24,GPIO18*%
%TO.N,Net-(IC1-GPIO18)*%
X161590000Y-116580000D03*
%TO.P,IC1,25,GPIO19*%
%TO.N,/ESP/ESP-GPIO19*%
X161990000Y-116580000D03*
%TO.P,IC1,26,GPIO20*%
%TO.N,/ESP/ESP-GPIO20*%
X162390000Y-116580000D03*
%TO.P,IC1,27,GPIO21*%
%TO.N,/ESP/ESP-GPIO21*%
X162790000Y-116580000D03*
%TO.P,IC1,28,SPICS1*%
%TO.N,unconnected-(IC1-SPICS1-Pad28)*%
X163190000Y-116580000D03*
D49*
%TO.P,IC1,29,VDD_SPI*%
%TO.N,+1.8*%
X164040000Y-115730000D03*
%TO.P,IC1,30,SPIHD*%
%TO.N,Net-(IC1-SPIHD)*%
X164040000Y-115330000D03*
%TO.P,IC1,31,SPIWP*%
%TO.N,Net-(IC1-SPIWP)*%
X164040000Y-114930000D03*
%TO.P,IC1,32,SPICS0*%
%TO.N,Net-(IC1-SPICS0)*%
X164040000Y-114530000D03*
%TO.P,IC1,33,SPICLK*%
%TO.N,Net-(IC1-SPICLK)*%
X164040000Y-114130000D03*
%TO.P,IC1,34,SPIQ*%
%TO.N,Net-(IC1-SPIQ)*%
X164040000Y-113730000D03*
%TO.P,IC1,35,SPID*%
%TO.N,Net-(IC1-SPID)*%
X164040000Y-113330000D03*
%TO.P,IC1,36,SPICLK_N*%
%TO.N,unconnected-(IC1-SPICLK_N-Pad36)*%
X164040000Y-112930000D03*
%TO.P,IC1,37,SPICLK_P*%
%TO.N,unconnected-(IC1-SPICLK_P-Pad37)*%
X164040000Y-112530000D03*
%TO.P,IC1,38,GPIO33*%
%TO.N,unconnected-(IC1-GPIO33-Pad38)*%
X164040000Y-112130000D03*
%TO.P,IC1,39,GPIO34*%
%TO.N,unconnected-(IC1-GPIO34-Pad39)*%
X164040000Y-111730000D03*
%TO.P,IC1,40,GPIO35*%
%TO.N,unconnected-(IC1-GPIO35-Pad40)*%
X164040000Y-111330000D03*
%TO.P,IC1,41,GPIO36*%
%TO.N,unconnected-(IC1-GPIO36-Pad41)*%
X164040000Y-110930000D03*
%TO.P,IC1,42,GPIO37*%
%TO.N,unconnected-(IC1-GPIO37-Pad42)*%
X164040000Y-110530000D03*
D50*
%TO.P,IC1,43,GPIO38*%
%TO.N,unconnected-(IC1-GPIO38-Pad43)*%
X163190000Y-109680000D03*
%TO.P,IC1,44,MTCK*%
%TO.N,unconnected-(IC1-MTCK-Pad44)*%
X162790000Y-109680000D03*
%TO.P,IC1,45,MTDO*%
%TO.N,unconnected-(IC1-MTDO-Pad45)*%
X162390000Y-109680000D03*
%TO.P,IC1,46,VDD3P3_CPU*%
%TO.N,+3.3V*%
X161990000Y-109680000D03*
%TO.P,IC1,47,MTDI*%
%TO.N,unconnected-(IC1-MTDI-Pad47)*%
X161590000Y-109680000D03*
%TO.P,IC1,48,MTMS*%
%TO.N,unconnected-(IC1-MTMS-Pad48)*%
X161190000Y-109680000D03*
%TO.P,IC1,49,U0TXD*%
%TO.N,unconnected-(IC1-U0TXD-Pad49)*%
X160790000Y-109680000D03*
%TO.P,IC1,50,U0RXD*%
%TO.N,unconnected-(IC1-U0RXD-Pad50)*%
X160390000Y-109680000D03*
%TO.P,IC1,51,GPIO45*%
%TO.N,Net-(IC1-GPIO45)*%
X159990000Y-109680000D03*
%TO.P,IC1,52,GPIO46*%
%TO.N,unconnected-(IC1-GPIO46-Pad52)*%
X159590000Y-109680000D03*
%TO.P,IC1,53,XTAL_N*%
%TO.N,Net-(IC1-XTAL_N)*%
X159190000Y-109680000D03*
%TO.P,IC1,54,XTAL_P*%
%TO.N,Net-(IC1-XTAL_P)*%
X158790000Y-109680000D03*
%TO.P,IC1,55,VDDA_1*%
%TO.N,+3.3V*%
X158390000Y-109680000D03*
%TO.P,IC1,56,VDDA_2*%
X157990000Y-109680000D03*
D51*
%TO.P,IC1,57,GND*%
%TO.N,GND*%
X160590000Y-113130000D03*
%TD*%
D52*
%TO.P,C9,1*%
%TO.N,Net-(IC1-XTAL_32K_P)*%
X158458162Y-122395000D03*
%TO.P,C9,2*%
%TO.N,GND*%
X158458162Y-121435000D03*
%TD*%
D18*
%TO.P,R13,1*%
%TO.N,Net-(IC1-SPID)*%
X166515000Y-107880000D03*
%TO.P,R13,2*%
%TO.N,/Components/FLASH-DI_IO0*%
X168165000Y-107880000D03*
%TD*%
D14*
%TO.P,R16,1*%
%TO.N,Net-(IC3-PROG3)*%
X148510000Y-115375000D03*
%TO.P,R16,2*%
%TO.N,GND*%
X148510000Y-113725000D03*
%TD*%
D27*
%TO.P,C20,1*%
%TO.N,+3.3V*%
X152660000Y-116370000D03*
%TO.P,C20,2*%
%TO.N,GND*%
X154210000Y-116370000D03*
%TD*%
D53*
%TO.N,Net-(IC1-GPIO18)*%
X161924067Y-118820499D03*
%TO.N,GND*%
X134820000Y-127870000D03*
%TO.N,+3.3V*%
X139440000Y-122290000D03*
X148230000Y-127430000D03*
X154510000Y-127730000D03*
X139440000Y-127530000D03*
%TO.N,/ESP/ESP-GPIO11*%
X149070000Y-127760000D03*
%TO.N,/ESP/ESP-GPIO10*%
X144570000Y-127810000D03*
%TO.N,GND*%
X174360000Y-128380000D03*
%TO.N,Net-(IC1-GPIO18)*%
X167490000Y-125200000D03*
%TO.N,Net-(IC1-GPIO17)*%
X168940000Y-125240000D03*
%TO.N,Net-(IC1-GPIO13)*%
X170370000Y-125340000D03*
%TO.N,/ESP/ESP-GPIO12*%
X157487042Y-118083920D03*
%TO.N,Net-(IC1-GPIO13)*%
X159300000Y-117510000D03*
%TO.N,Net-(IC1-GPIO17)*%
X161340000Y-118350000D03*
%TO.N,GND*%
X133840000Y-108760000D03*
X135890000Y-102690000D03*
%TO.N,Net-(IC1-GPIO0)*%
X142950000Y-107770000D03*
%TO.N,GND*%
X142340000Y-101860000D03*
X150920000Y-101850000D03*
%TO.N,Net-(IC1-GPIO0)*%
X156190000Y-112300000D03*
%TO.N,Net-(IC3-CE)*%
X150080000Y-121880000D03*
X144000000Y-118450000D03*
%TO.N,/Power/VBAT_1*%
X152610000Y-125210000D03*
%TO.N,/Power/VBUS*%
X150010000Y-126680000D03*
%TO.N,GND*%
X157420000Y-123430000D03*
X173290000Y-117390000D03*
X162430000Y-123590000D03*
X165310000Y-106080000D03*
X171540000Y-125400000D03*
X174520000Y-107270000D03*
X180500000Y-102090000D03*
X159680000Y-102280000D03*
X183200000Y-103110000D03*
X181070000Y-105970000D03*
X161610000Y-125410000D03*
X146140000Y-118120000D03*
X157590000Y-106760000D03*
X182360000Y-105860000D03*
X175080000Y-104770000D03*
X160660000Y-102110000D03*
X162606895Y-120520056D03*
X149430000Y-111950000D03*
X167450000Y-119440000D03*
X160480000Y-106110000D03*
X178680000Y-105760000D03*
X182980000Y-105230000D03*
X162190000Y-124550000D03*
X146990000Y-118900000D03*
X159140000Y-111660000D03*
X159090000Y-113120000D03*
X159790000Y-118710000D03*
X163360000Y-103470000D03*
X156100000Y-105550000D03*
X145530000Y-126700000D03*
X163140000Y-122860000D03*
X183380000Y-104110000D03*
X163150000Y-104960000D03*
X153570000Y-117660000D03*
X162030000Y-114520000D03*
X160238162Y-123160000D03*
X155080000Y-105030000D03*
X171060000Y-122000000D03*
X157460000Y-121590000D03*
X157250000Y-105920000D03*
X151680000Y-108480000D03*
X160610000Y-114570000D03*
X161950000Y-102280000D03*
X158120000Y-124240000D03*
X160560000Y-125630000D03*
X159920000Y-108380000D03*
X162846496Y-121478462D03*
X177710000Y-102240000D03*
X158500000Y-102120000D03*
X182300000Y-102050000D03*
X157080000Y-107870000D03*
X157550000Y-120610000D03*
X155630000Y-103570000D03*
X159190000Y-114540000D03*
X141400000Y-114380000D03*
X162040000Y-111690000D03*
X141240000Y-122220000D03*
X176020000Y-102230000D03*
X158300000Y-125210000D03*
X175090000Y-102850000D03*
X159670000Y-119950000D03*
X158660000Y-120430000D03*
X177830000Y-105670000D03*
X162190000Y-105310000D03*
X162000000Y-113200000D03*
X147900000Y-119840000D03*
X141440000Y-117160000D03*
X181150000Y-112870000D03*
X157360000Y-102300000D03*
X147780000Y-118170000D03*
X156090000Y-102450000D03*
X156720000Y-122620000D03*
X142990000Y-108700000D03*
X179210000Y-102210000D03*
X161730000Y-120120000D03*
X146400000Y-108520000D03*
X176520000Y-105570000D03*
X161580000Y-106060000D03*
X159780000Y-106790000D03*
X160620000Y-113170000D03*
X160610000Y-111640000D03*
X161700000Y-104110000D03*
X159360000Y-125530000D03*
X162810000Y-102810000D03*
%TO.N,/Power/VBUS*%
X144030000Y-119860000D03*
X146990000Y-122105000D03*
%TO.N,/Power/VBAT_1*%
X143280000Y-117570000D03*
%TO.N,/Power/SYS*%
X142360000Y-126160000D03*
X145150000Y-120980000D03*
%TO.N,+3.3V*%
X158737351Y-118077624D03*
X145530000Y-111160000D03*
X157240000Y-109220000D03*
X141620000Y-121160000D03*
X151920000Y-117570000D03*
X139490000Y-109110000D03*
X139950000Y-115760000D03*
X162670000Y-108500000D03*
%TO.N,Net-(U2-CC2)*%
X180460000Y-121980000D03*
X173650000Y-121550000D03*
%TO.N,Net-(IC1-CHIP_PU)*%
X148920000Y-108440000D03*
X155700000Y-111690000D03*
%TO.N,/Power/USB_DP*%
X174360000Y-123680000D03*
X171130000Y-123650000D03*
%TO.N,/Power/USB_DN*%
X171120000Y-122790000D03*
X174350000Y-122820000D03*
%TO.N,/Components/FLASH-CLK*%
X170380000Y-110110000D03*
X175730000Y-114230000D03*
%TO.N,+1.8*%
X164405000Y-116715000D03*
X179970000Y-117390000D03*
%TO.N,/Components/AMP-DIN*%
X155640000Y-112870000D03*
X142970000Y-112830000D03*
%TO.N,/Components/MIC-BCK*%
X156150000Y-114810000D03*
%TO.N,/Components/MIC-DATA*%
X156320000Y-116310000D03*
%TO.N,Net-(IC1-LNA_IN)*%
X156070000Y-110310000D03*
X175840000Y-103930000D03*
%TO.N,/Components/MIC-WS*%
X155780000Y-115560000D03*
%TO.N,/Components/AMP-BCLK*%
X156055422Y-113616006D03*
X143810000Y-113350000D03*
%TO.N,/Components/AMP-LRCLK*%
X155500000Y-114120000D03*
X143910000Y-114610000D03*
%TO.N,/Components/FLASH-DO_IO1*%
X171430000Y-107480000D03*
X177000000Y-107230000D03*
%TO.N,/Components/FLASH-DI_IO0*%
X174520000Y-114230000D03*
X169330000Y-107960000D03*
%TO.N,/ESP/ESP-GPIO12*%
X149960000Y-120095000D03*
%TO.N,/ESP/ESP-GPIO10*%
X150140000Y-118915000D03*
X156887128Y-116800784D03*
%TO.N,/ESP/ESP-GPIO11*%
X157410670Y-117337819D03*
X150680000Y-119495000D03*
%TD*%
D54*
%TO.N,/Components/FLASH-CS*%
X168175000Y-112500000D02*
X169110000Y-112500000D01*
X169110000Y-112500000D02*
X173190000Y-108420000D01*
X173190000Y-108420000D02*
X173190000Y-106430000D01*
X173190000Y-106430000D02*
X178325000Y-106430000D01*
X178325000Y-106430000D02*
X178325000Y-108790000D01*
%TO.N,Net-(IC2-OUTN)*%
X141150000Y-115830000D02*
X141150000Y-116455000D01*
X141150000Y-116455000D02*
X140604306Y-117000694D01*
X140604306Y-117000694D02*
X140250694Y-117000694D01*
X140250694Y-117000694D02*
X136566388Y-120685000D01*
X136566388Y-120685000D02*
X136040000Y-120685000D01*
%TO.N,Net-(IC2-OUTP)*%
X140650000Y-115830000D02*
X140650000Y-116105000D01*
X140650000Y-116105000D02*
X137320000Y-119435000D01*
X137320000Y-119435000D02*
X136040000Y-119435000D01*
%TO.N,+3.3V*%
X136010000Y-111540000D02*
X134886000Y-110416000D01*
X134886000Y-110416000D02*
X134886000Y-106301000D01*
X134886000Y-106301000D02*
X134160000Y-105575000D01*
X134160000Y-105590000D02*
X134160000Y-105575000D01*
%TO.N,GND*%
X134160000Y-107125000D02*
X133620000Y-107665000D01*
X133620000Y-107665000D02*
X133620000Y-108540000D01*
X133620000Y-108540000D02*
X133840000Y-108760000D01*
%TO.N,/Components/MIC-BCK*%
X136010000Y-112790000D02*
X136040000Y-112820000D01*
%TO.N,/Components/MIC-WS*%
X136010000Y-114040000D02*
X136040000Y-114070000D01*
%TO.N,/Components/MIC-DATA*%
X135720000Y-115290000D02*
X136010000Y-115290000D01*
%TO.N,GND*%
X145360000Y-127180000D02*
X144420768Y-127180000D01*
X144420768Y-127180000D02*
X144260768Y-127340000D01*
X144260768Y-127340000D02*
X143395000Y-127340000D01*
X145530000Y-126700000D02*
X145530000Y-127010000D01*
X145530000Y-127010000D02*
X145360000Y-127180000D01*
X145530000Y-126700000D02*
X145530000Y-124905000D01*
%TO.N,Net-(IC1-GPIO18)*%
X161924067Y-118820499D02*
X161786400Y-118682832D01*
X161891000Y-118121768D02*
X161590000Y-117820768D01*
X161786400Y-118682832D02*
X161891000Y-118578232D01*
X161891000Y-118578232D02*
X161891000Y-118121768D01*
X161590000Y-117820768D02*
X161590000Y-116580000D01*
%TO.N,Net-(IC1-GPIO17)*%
X161340000Y-118350000D02*
X161190000Y-118200000D01*
X161190000Y-118200000D02*
X161190000Y-116580000D01*
%TO.N,GND*%
X134820000Y-127870000D02*
X134820000Y-128700000D01*
X134820000Y-128700000D02*
X135090000Y-128970000D01*
X135090000Y-128970000D02*
X135352500Y-128970000D01*
%TO.N,Net-(D3-A)*%
X136927500Y-128970000D02*
X138405000Y-128970000D01*
%TO.N,Net-(D5-A)*%
X152515000Y-128980000D02*
X151057500Y-128980000D01*
%TO.N,Net-(D4-A)*%
X146325000Y-128990000D02*
X144867500Y-128990000D01*
X144867500Y-128990000D02*
X144857500Y-129000000D01*
%TO.N,+3.3V*%
X154165000Y-128980000D02*
X154165000Y-128075000D01*
X154165000Y-128075000D02*
X154510000Y-127730000D01*
X147975000Y-128990000D02*
X147975000Y-127685000D01*
X147975000Y-127685000D02*
X148230000Y-127430000D01*
X140055000Y-128970000D02*
X140055000Y-128145000D01*
X140055000Y-128145000D02*
X139440000Y-127530000D01*
%TO.N,/ESP/ESP-GPIO10*%
X143282500Y-129000000D02*
X143380000Y-129000000D01*
X143380000Y-129000000D02*
X144570000Y-127810000D01*
%TO.N,/ESP/ESP-GPIO11*%
X149482500Y-128980000D02*
X149482500Y-128172500D01*
X149482500Y-128172500D02*
X149070000Y-127760000D01*
D55*
%TO.N,+3.3V*%
X159990000Y-116580000D02*
X159990000Y-117669943D01*
X159990000Y-117669943D02*
X159548943Y-118111000D01*
X159548943Y-118111000D02*
X158770727Y-118111000D01*
X158770727Y-118111000D02*
X158737351Y-118077624D01*
X158737351Y-118077624D02*
X158482111Y-118332863D01*
X158482111Y-118332863D02*
X158088042Y-118332863D01*
X158088042Y-118332863D02*
X157735985Y-118684920D01*
X157735985Y-118684920D02*
X157238099Y-118684920D01*
X157238099Y-118684920D02*
X156886042Y-118332863D01*
X156886042Y-118332863D02*
X156737863Y-118332863D01*
X156737863Y-118332863D02*
X156235000Y-117830000D01*
D54*
%TO.N,Net-(IC1-GPIO13)*%
X159190000Y-116580000D02*
X159190000Y-117400000D01*
X159190000Y-117400000D02*
X159300000Y-117510000D01*
%TO.N,Net-(LED1-Pad1)*%
X167480000Y-128035000D02*
X168482000Y-129037000D01*
X168482000Y-129037000D02*
X172606601Y-129037000D01*
X172606601Y-129037000D02*
X172783600Y-128860001D01*
%TO.N,Net-(LED1-Pad3)*%
X169060000Y-128025000D02*
X169721000Y-128686000D01*
X169721000Y-128686000D02*
X171499601Y-128686000D01*
X171499601Y-128686000D02*
X172250602Y-127934999D01*
X172250602Y-127934999D02*
X172683600Y-127934999D01*
%TO.N,Net-(LED1-Pad4)*%
X170640000Y-128035000D02*
X171215001Y-127459999D01*
X171215001Y-127459999D02*
X172783600Y-127459999D01*
%TO.N,GND*%
X172683600Y-128385001D02*
X174354999Y-128385001D01*
X174354999Y-128385001D02*
X174360000Y-128380000D01*
%TO.N,Net-(IC1-GPIO18)*%
X167490000Y-125200000D02*
X167490000Y-126375000D01*
X167490000Y-126375000D02*
X167480000Y-126385000D01*
%TO.N,Net-(IC1-GPIO17)*%
X168940000Y-125240000D02*
X168940000Y-126255000D01*
X168940000Y-126255000D02*
X169060000Y-126375000D01*
%TO.N,Net-(IC1-GPIO13)*%
X170370000Y-125340000D02*
X170370000Y-126115000D01*
X170370000Y-126115000D02*
X170640000Y-126385000D01*
%TO.N,/ESP/ESP-GPIO20*%
X168385000Y-122460000D02*
X167676388Y-122460000D01*
X167676388Y-122460000D02*
X162390000Y-117173612D01*
X162390000Y-117173612D02*
X162390000Y-116580000D01*
%TO.N,+3.3V*%
X134160000Y-105575000D02*
X134366000Y-105369000D01*
X134366000Y-105369000D02*
X134366000Y-103991000D01*
X134366000Y-103991000D02*
X134140000Y-103765000D01*
%TO.N,GND*%
X134140000Y-102215000D02*
X135415000Y-102215000D01*
X135415000Y-102215000D02*
X135890000Y-102690000D01*
%TO.N,Net-(IC1-GPIO0)*%
X141815000Y-107860000D02*
X142860000Y-107860000D01*
X142860000Y-107860000D02*
X142950000Y-107770000D01*
%TO.N,+3.3V*%
X139490000Y-109110000D02*
X139490000Y-108535000D01*
X139490000Y-108535000D02*
X140165000Y-107860000D01*
%TO.N,Net-(IC1-GPIO0)*%
X141815000Y-107860000D02*
X141815000Y-105635000D01*
X141815000Y-105635000D02*
X142470000Y-104980000D01*
%TO.N,GND*%
X142470000Y-103280000D02*
X142470000Y-101990000D01*
X142470000Y-101990000D02*
X142340000Y-101860000D01*
X139895000Y-102105000D02*
X142095000Y-102105000D01*
X142095000Y-102105000D02*
X142340000Y-101860000D01*
X151205000Y-103300000D02*
X151205000Y-102135000D01*
X151205000Y-102135000D02*
X150920000Y-101850000D01*
X148630000Y-102125000D02*
X150645000Y-102125000D01*
X150645000Y-102125000D02*
X150920000Y-101850000D01*
%TO.N,Net-(IC1-CHIP_PU)*%
X148920000Y-108440000D02*
X148920000Y-108420000D01*
X148920000Y-108420000D02*
X151205000Y-106135000D01*
X151205000Y-106135000D02*
X151205000Y-105000000D01*
%TO.N,GND*%
X141970000Y-109720000D02*
X142990000Y-108700000D01*
X141970000Y-109830000D02*
X141970000Y-109720000D01*
%TO.N,Net-(IC1-CHIP_PU)*%
X157140000Y-111730000D02*
X155740000Y-111730000D01*
X155740000Y-111730000D02*
X155700000Y-111690000D01*
%TO.N,Net-(IC1-GPIO0)*%
X157140000Y-112130000D02*
X156360000Y-112130000D01*
X156360000Y-112130000D02*
X156190000Y-112300000D01*
%TO.N,Net-(IC3-CE)*%
X150950000Y-122160000D02*
X150360000Y-122160000D01*
X150360000Y-122160000D02*
X150080000Y-121880000D01*
X144990000Y-118400000D02*
X144050000Y-118400000D01*
X144050000Y-118400000D02*
X144000000Y-118450000D01*
D55*
%TO.N,/Power/VBAT_1*%
X143280000Y-117570000D02*
X144370000Y-116480000D01*
X144990000Y-117900000D02*
X144990000Y-117100000D01*
X144990000Y-117100000D02*
X144370000Y-116480000D01*
X144370000Y-116480000D02*
X145450000Y-115400000D01*
X145450000Y-115400000D02*
X145450000Y-115340000D01*
D54*
X152610000Y-125210000D02*
X151990000Y-125210000D01*
X151990000Y-125210000D02*
X151600000Y-124820000D01*
%TO.N,/Power/VBUS*%
X150010000Y-126680000D02*
X150010000Y-125110000D01*
X150010000Y-125110000D02*
X150300000Y-124820000D01*
%TO.N,GND*%
X171540000Y-125400000D02*
X171560000Y-125380000D01*
X171560000Y-125380000D02*
X173030000Y-125380000D01*
X145860000Y-118400000D02*
X146140000Y-118120000D01*
X147050000Y-124960000D02*
X146990000Y-124900000D01*
X152615000Y-107740000D02*
X152420000Y-107740000D01*
X141400000Y-114380000D02*
X141650000Y-114630000D01*
X141600000Y-122580000D02*
X141600000Y-123585000D01*
X146985000Y-124905000D02*
X146990000Y-124900000D01*
X164870000Y-106520000D02*
X165310000Y-106080000D01*
X172590000Y-118090000D02*
X173290000Y-117390000D01*
X148990000Y-118400000D02*
X148010000Y-118400000D01*
X141970000Y-111295000D02*
X141945000Y-111320000D01*
X147990000Y-116900000D02*
X147990000Y-117960000D01*
X166630000Y-118570000D02*
X166630000Y-118620000D01*
X171109232Y-122000000D02*
X171060000Y-122000000D01*
X148510000Y-113725000D02*
X148510000Y-112870000D01*
X152660000Y-109285000D02*
X152615000Y-109240000D01*
X161010000Y-104630000D02*
X159682000Y-104630000D01*
X174515000Y-108790000D02*
X174515000Y-107275000D01*
X153740000Y-117830000D02*
X153570000Y-117660000D01*
X141150000Y-114130000D02*
X141400000Y-114380000D01*
X141240000Y-122220000D02*
X141600000Y-122580000D01*
X181885000Y-115690000D02*
X181885000Y-114095000D01*
X154685000Y-117830000D02*
X154685000Y-116845000D01*
X161010000Y-104630000D02*
X161180000Y-104630000D01*
X152615000Y-107740000D02*
X152615000Y-109240000D01*
X156600000Y-103600000D02*
X155660000Y-103600000D01*
X160748162Y-122405000D02*
X160568162Y-122225000D01*
X161858162Y-122405000D02*
X160748162Y-122405000D01*
X145450000Y-113790000D02*
X146925000Y-113790000D01*
X157888000Y-103600000D02*
X157998000Y-103490000D01*
X141650000Y-112841000D02*
X141630000Y-112821000D01*
X146450000Y-109570000D02*
X146450000Y-108570000D01*
X148500000Y-113735000D02*
X148510000Y-113725000D01*
X141650000Y-114630000D02*
X141650000Y-115830000D01*
X142850000Y-114130000D02*
X141650000Y-114130000D01*
X148510000Y-112870000D02*
X149430000Y-111950000D01*
X146990000Y-118900000D02*
X146990000Y-120900000D01*
X174080000Y-118345000D02*
X174080000Y-118180000D01*
X168220000Y-118670000D02*
X167450000Y-119440000D01*
X148050000Y-117900000D02*
X147780000Y-118170000D01*
X161180000Y-104630000D02*
X161700000Y-104110000D01*
X181150000Y-113350000D02*
X181890000Y-114090000D01*
X146450000Y-108570000D02*
X146400000Y-108520000D01*
X154210000Y-114870000D02*
X154210000Y-116370000D01*
X171985000Y-122500000D02*
X171609232Y-122500000D01*
X171609232Y-122500000D02*
X171109232Y-122000000D01*
X141970000Y-109830000D02*
X141970000Y-111295000D01*
X141650000Y-112930000D02*
X141650000Y-114130000D01*
X160568162Y-122830000D02*
X160238162Y-123160000D01*
X148010000Y-118400000D02*
X147780000Y-118170000D01*
X164870000Y-108500000D02*
X164870000Y-106520000D01*
X168220000Y-118590000D02*
X168220000Y-118670000D01*
X159682000Y-104630000D02*
X159622000Y-104690000D01*
X174515000Y-107275000D02*
X174520000Y-107270000D01*
X172820000Y-122500000D02*
X171985000Y-122500000D01*
X141600000Y-123585000D02*
X141620000Y-123605000D01*
X152420000Y-107740000D02*
X151680000Y-108480000D01*
X146925000Y-113790000D02*
X146980000Y-113735000D01*
X154685000Y-116845000D02*
X154210000Y-116370000D01*
X141630000Y-112821000D02*
X141630000Y-111635000D01*
X158303162Y-121590000D02*
X158458162Y-121435000D01*
X157460000Y-121590000D02*
X158303162Y-121590000D01*
X181885000Y-114095000D02*
X181890000Y-114090000D01*
X181150000Y-112870000D02*
X181150000Y-113350000D01*
X145530000Y-124905000D02*
X146985000Y-124905000D01*
X141650000Y-112930000D02*
X141650000Y-112841000D01*
X174080000Y-118180000D02*
X173290000Y-117390000D01*
X142170000Y-117980000D02*
X142170000Y-117890000D01*
X142170000Y-117890000D02*
X141440000Y-117160000D01*
X160568162Y-122830000D02*
X160568162Y-122225000D01*
X154685000Y-117830000D02*
X153740000Y-117830000D01*
X140620000Y-117980000D02*
X141440000Y-117160000D01*
X152660000Y-110770000D02*
X152660000Y-109285000D01*
X154210000Y-113370000D02*
X154210000Y-114870000D01*
X141150000Y-112930000D02*
X141150000Y-114130000D01*
X148480000Y-124960000D02*
X147050000Y-124960000D01*
X141630000Y-111635000D02*
X141945000Y-111320000D01*
X155660000Y-103600000D02*
X155630000Y-103570000D01*
X147990000Y-117960000D02*
X147780000Y-118170000D01*
X148990000Y-117900000D02*
X148050000Y-117900000D01*
X141150000Y-112930000D02*
X141650000Y-112930000D01*
X172590000Y-118375000D02*
X172590000Y-118090000D01*
X156600000Y-103600000D02*
X157888000Y-103600000D01*
X146980000Y-113735000D02*
X148500000Y-113735000D01*
X141650000Y-114130000D02*
X141400000Y-114380000D01*
X166630000Y-118620000D02*
X167450000Y-119440000D01*
D55*
%TO.N,/Power/VBUS*%
X144990000Y-119400000D02*
X144990000Y-118900000D01*
D54*
X176270000Y-125380000D02*
X174720000Y-125380000D01*
D55*
X147490000Y-120900000D02*
X147490000Y-121605000D01*
X147490000Y-121605000D02*
X146990000Y-122105000D01*
D54*
X146990000Y-123350000D02*
X146990000Y-122105000D01*
D55*
X144990000Y-118900000D02*
X144030000Y-119860000D01*
D54*
%TO.N,/Power/VBAT_1*%
X146490000Y-116900000D02*
X146490000Y-116380000D01*
X146490000Y-116380000D02*
X145450000Y-115340000D01*
D56*
%TO.N,/Power/SYS*%
X142570000Y-125950000D02*
X142360000Y-126160000D01*
X145530000Y-123355000D02*
X145530000Y-121360000D01*
D54*
X144990000Y-120820000D02*
X145150000Y-120980000D01*
D56*
X141845000Y-126675000D02*
X142360000Y-126160000D01*
X144990000Y-120090000D02*
X144990000Y-120820000D01*
X145150000Y-120980000D02*
X145530000Y-121360000D01*
X140670000Y-123605000D02*
X140670000Y-124470000D01*
X141845000Y-127340000D02*
X141845000Y-126675000D01*
X145480000Y-121360000D02*
X145940000Y-120900000D01*
X142570000Y-123605000D02*
X142570000Y-125950000D01*
X140670000Y-124470000D02*
X142360000Y-126160000D01*
%TO.N,Net-(IC1-VDD3P3_1)*%
X154300000Y-110770000D02*
X154300000Y-111913000D01*
D54*
X154210000Y-111913000D02*
X154367000Y-112070000D01*
X157140000Y-111330000D02*
X157140000Y-110930000D01*
X154370000Y-110930000D02*
X154210000Y-110770000D01*
D56*
X157140000Y-111030000D02*
X154370000Y-111030000D01*
D54*
%TO.N,+3.3V*%
X163910000Y-107585000D02*
X164185000Y-107310000D01*
X140395000Y-111320000D02*
X140395000Y-109855000D01*
X140650000Y-112930000D02*
X140650000Y-111575000D01*
D56*
X139950000Y-115760000D02*
X139950000Y-115130000D01*
X153503000Y-112527000D02*
X152660000Y-113370000D01*
X140620000Y-119530000D02*
X140620000Y-120160000D01*
D55*
X162013500Y-109046500D02*
X162560000Y-108500000D01*
D56*
X152660000Y-116370000D02*
X152660000Y-114870000D01*
D54*
X140650000Y-111575000D02*
X140395000Y-111320000D01*
X140420000Y-109830000D02*
X140210000Y-109830000D01*
X140210000Y-109830000D02*
X139490000Y-109110000D01*
D56*
X157880000Y-109680000D02*
X157440000Y-109240000D01*
X158280000Y-109680000D02*
X157880000Y-109680000D01*
D55*
X162560000Y-108500000D02*
X162670000Y-108500000D01*
D56*
X140620000Y-120160000D02*
X141565000Y-121105000D01*
D54*
X145540000Y-111170000D02*
X145530000Y-111160000D01*
D56*
X142170000Y-119530000D02*
X140620000Y-119530000D01*
X151920000Y-117570000D02*
X152420000Y-117570000D01*
X152420000Y-117570000D02*
X152660000Y-117330000D01*
X157440000Y-109240000D02*
X154165000Y-109240000D01*
X152660000Y-117330000D02*
X152660000Y-116370000D01*
D54*
X162543000Y-108500000D02*
X162670000Y-108500000D01*
D56*
X153503000Y-112070000D02*
X153503000Y-112527000D01*
D55*
X161990000Y-109680000D02*
X161990000Y-109053000D01*
X162670000Y-108500000D02*
X163910000Y-108500000D01*
D54*
X146400000Y-111170000D02*
X145540000Y-111170000D01*
D56*
X140670000Y-121105000D02*
X141565000Y-121105000D01*
X157990000Y-109680000D02*
X157880000Y-109680000D01*
X139950000Y-114690000D02*
X139950000Y-115190000D01*
D55*
X163910000Y-108500000D02*
X163910000Y-107585000D01*
D54*
X154165000Y-109240000D02*
X154165000Y-107740000D01*
X140395000Y-109855000D02*
X140420000Y-109830000D01*
D56*
X152660000Y-113370000D02*
X152660000Y-114870000D01*
D54*
X141565000Y-121105000D02*
X141620000Y-121160000D01*
%TO.N,Net-(U2-CC1)*%
X173990000Y-122101000D02*
X173421768Y-122101000D01*
X173320768Y-122000000D02*
X172820000Y-122000000D01*
X176270000Y-124530000D02*
X175695000Y-123955000D01*
X175695000Y-123385768D02*
X174410232Y-122101000D01*
X175695000Y-123955000D02*
X175695000Y-123385768D01*
X174410232Y-122101000D02*
X173990000Y-122101000D01*
X173990000Y-122101000D02*
X174201000Y-121890000D01*
X173421768Y-122101000D02*
X173320768Y-122000000D01*
X174201000Y-121890000D02*
X174201000Y-120116000D01*
X174201000Y-120116000D02*
X174080000Y-119995000D01*
%TO.N,Net-(C14-Pad2)*%
X156730000Y-104690000D02*
X156600000Y-104560000D01*
X158790000Y-107648000D02*
X158790000Y-105482000D01*
X157998000Y-104690000D02*
X156730000Y-104690000D01*
X158790000Y-105482000D02*
X157998000Y-104690000D01*
%TO.N,Net-(U2-CC2)*%
X173650000Y-121550000D02*
X173650000Y-121085000D01*
X172870000Y-121550000D02*
X172820000Y-121500000D01*
X173650000Y-121085000D02*
X172590000Y-120025000D01*
X173650000Y-121550000D02*
X172870000Y-121550000D01*
X180460000Y-121980000D02*
X177620000Y-121980000D01*
%TO.N,Net-(IC1-XTAL_N)*%
X161140000Y-105530000D02*
X162250000Y-104420000D01*
X159340000Y-105530000D02*
X161140000Y-105530000D01*
X159622000Y-103490000D02*
X160830000Y-103490000D01*
X162250000Y-102890000D02*
X159720000Y-102890000D01*
X159190000Y-105680000D02*
X159340000Y-105530000D01*
X159190000Y-109680000D02*
X159190000Y-105680000D01*
X159622000Y-102988000D02*
X159622000Y-103490000D01*
X159720000Y-102890000D02*
X159622000Y-102988000D01*
X160830000Y-103490000D02*
X161010000Y-103670000D01*
X162250000Y-104420000D02*
X162250000Y-102890000D01*
%TO.N,Net-(IC1-CHIP_PU)*%
X148000000Y-109360000D02*
X148920000Y-108440000D01*
X148000000Y-109570000D02*
X148000000Y-109360000D01*
X148050000Y-109620000D02*
X148000000Y-109570000D01*
X148050000Y-111170000D02*
X148050000Y-109620000D01*
%TO.N,Net-(IC1-XTAL_32K_N)*%
X161050000Y-124080000D02*
X160998162Y-124080000D01*
X160790000Y-121333162D02*
X160568162Y-121555000D01*
X162419162Y-122710838D02*
X162419162Y-122006000D01*
X162419162Y-122710838D02*
X161050000Y-124080000D01*
X161748162Y-121555000D02*
X161858162Y-121445000D01*
X160790000Y-116580000D02*
X160790000Y-121333162D01*
X162419162Y-122006000D02*
X161858162Y-121445000D01*
X160568162Y-121555000D02*
X161748162Y-121555000D01*
%TO.N,Net-(IC1-XTAL_32K_P)*%
X160390000Y-120570000D02*
X159891000Y-121069000D01*
X158458162Y-122395000D02*
X158458162Y-123190000D01*
X159891000Y-121069000D02*
X159237162Y-121069000D01*
X158458162Y-123190000D02*
X159348162Y-124080000D01*
X159748162Y-122225000D02*
X158628162Y-122225000D01*
X159237162Y-121069000D02*
X159237162Y-122174000D01*
X159288162Y-122225000D02*
X159748162Y-122225000D01*
X159237162Y-122174000D02*
X159288162Y-122225000D01*
X158628162Y-122225000D02*
X158458162Y-122395000D01*
X160390000Y-116580000D02*
X160390000Y-120570000D01*
%TO.N,Net-(IC1-XTAL_P)*%
X158790000Y-109680000D02*
X158790000Y-108512000D01*
%TO.N,/Power/PROG1*%
X146990000Y-116900000D02*
X146990000Y-115395000D01*
X146990000Y-115395000D02*
X146980000Y-115385000D01*
%TO.N,/Power/THERM*%
X147990000Y-122820000D02*
X148480000Y-123310000D01*
X147990000Y-120900000D02*
X147990000Y-122820000D01*
%TO.N,/Power/USB_DP*%
X170335000Y-123650000D02*
X170015000Y-123970000D01*
X174190000Y-123510000D02*
X172830000Y-123510000D01*
X174360000Y-123680000D02*
X174190000Y-123510000D01*
X172830000Y-123510000D02*
X172820000Y-123500000D01*
X171130000Y-123650000D02*
X170335000Y-123650000D01*
%TO.N,/Power/USB_DN*%
X171120000Y-122790000D02*
X170365000Y-122790000D01*
X176770000Y-122830000D02*
X177620000Y-123680000D01*
X174350000Y-122820000D02*
X174170000Y-123000000D01*
X170365000Y-122790000D02*
X170035000Y-122460000D01*
X174170000Y-123000000D02*
X172820000Y-123000000D01*
X176270000Y-122830000D02*
X176770000Y-122830000D01*
%TO.N,/Components/FLASH-CLK*%
X168170000Y-110970000D02*
X169520000Y-110970000D01*
X169520000Y-110970000D02*
X170380000Y-110110000D01*
X175785000Y-115990000D02*
X175785000Y-114285000D01*
X175785000Y-114285000D02*
X175730000Y-114230000D01*
%TO.N,Net-(AE1-Pad1)*%
X176840000Y-103351200D02*
X177664800Y-103351200D01*
X177664800Y-103351200D02*
X178243600Y-103930000D01*
%TO.N,+1.8*%
X166650000Y-117040000D02*
X166630000Y-117020000D01*
D56*
X179970000Y-117390000D02*
X179725000Y-117390000D01*
X178325000Y-115990000D02*
X180035000Y-115990000D01*
X164040000Y-115840000D02*
X164040000Y-116350000D01*
X164405000Y-116715000D02*
X164710000Y-117020000D01*
X164040000Y-116350000D02*
X164405000Y-116715000D01*
X180035000Y-115990000D02*
X180335000Y-115690000D01*
X180335000Y-114095000D02*
X180340000Y-114090000D01*
X179725000Y-117390000D02*
X178325000Y-115990000D01*
X168220000Y-117040000D02*
X166650000Y-117040000D01*
X180335000Y-115690000D02*
X180335000Y-114095000D01*
X164710000Y-117020000D02*
X166630000Y-117020000D01*
D54*
%TO.N,Net-(IC1-SPIWP)*%
X165635000Y-114930000D02*
X166545000Y-114020000D01*
X164040000Y-114930000D02*
X165635000Y-114930000D01*
%TO.N,/Components/AMP-DIN*%
X142250000Y-112830000D02*
X142150000Y-112930000D01*
X157140000Y-113330000D02*
X156548648Y-113330000D01*
X142970000Y-112830000D02*
X142250000Y-112830000D01*
X156088648Y-112870000D02*
X155640000Y-112870000D01*
X156548648Y-113330000D02*
X156088648Y-112870000D01*
%TO.N,Net-(IC1-SPIQ)*%
X164040000Y-113730000D02*
X164713389Y-113730000D01*
X164713389Y-113730000D02*
X165151000Y-113292389D01*
X165151000Y-111842611D02*
X165540000Y-111453612D01*
X165540000Y-111453612D02*
X165540000Y-110410000D01*
X165151000Y-113292389D02*
X165151000Y-111842611D01*
X165540000Y-110410000D02*
X166520000Y-109430000D01*
%TO.N,Net-(IC1-SPICS0)*%
X164916648Y-114530000D02*
X166525000Y-112921648D01*
X164040000Y-114530000D02*
X164916648Y-114530000D01*
X166525000Y-112921648D02*
X166525000Y-112500000D01*
%TO.N,/ESP/ESP-GPIO19*%
X168365000Y-123970000D02*
X168365000Y-123645000D01*
X161990000Y-117270000D02*
X161990000Y-116580000D01*
X168365000Y-123645000D02*
X161990000Y-117270000D01*
%TO.N,/Components/MIC-BCK*%
X156270000Y-114930000D02*
X156150000Y-114810000D01*
X157140000Y-114930000D02*
X156270000Y-114930000D01*
%TO.N,/Components/MIC-DATA*%
X156900000Y-115730000D02*
X156320000Y-116310000D01*
X157140000Y-115730000D02*
X156900000Y-115730000D01*
%TO.N,Net-(IC1-LNA_IN)*%
X175840000Y-103930000D02*
X176378800Y-104468800D01*
X156290000Y-110530000D02*
X156070000Y-110310000D01*
X157140000Y-110530000D02*
X156290000Y-110530000D01*
X176378800Y-104468800D02*
X176840000Y-104468800D01*
%TO.N,/Components/MIC-WS*%
X157140000Y-115330000D02*
X156515000Y-115330000D01*
X156515000Y-115330000D02*
X156285000Y-115560000D01*
X156285000Y-115560000D02*
X155780000Y-115560000D01*
%TO.N,Net-(IC1-GPIO45)*%
X162535000Y-107310000D02*
X162535000Y-107845000D01*
X162535000Y-107845000D02*
X161376000Y-109004000D01*
X161376000Y-109004000D02*
X159990000Y-109004000D01*
X159990000Y-109004000D02*
X159990000Y-109680000D01*
%TO.N,/Components/AMP-BCLK*%
X156169416Y-113730000D02*
X156055422Y-113616006D01*
X143810000Y-113350000D02*
X143530000Y-113630000D01*
X143530000Y-113630000D02*
X142850000Y-113630000D01*
X157140000Y-113730000D02*
X156169416Y-113730000D01*
%TO.N,Net-(IC1-SPIHD)*%
X166325000Y-115330000D02*
X166555000Y-115560000D01*
X164040000Y-115330000D02*
X166325000Y-115330000D01*
%TO.N,Net-(IC1-SPID)*%
X164040000Y-113330000D02*
X164617001Y-113330000D01*
X164800000Y-111697221D02*
X165160306Y-111336917D01*
X164617001Y-113330000D02*
X164800000Y-113147001D01*
X165160306Y-109234694D02*
X166515000Y-107880000D01*
X165160306Y-111336917D02*
X165160306Y-109234694D01*
X164800000Y-113147001D02*
X164800000Y-111697221D01*
%TO.N,Net-(IC1-SPICLK)*%
X165502000Y-111988000D02*
X166520000Y-110970000D01*
X165502000Y-113437779D02*
X165502000Y-111988000D01*
X164809777Y-114130000D02*
X165502000Y-113437779D01*
X164040000Y-114130000D02*
X164809777Y-114130000D01*
%TO.N,/Components/AMP-LRCLK*%
X157140000Y-114130000D02*
X157102994Y-114167006D01*
X142870000Y-114610000D02*
X142850000Y-114630000D01*
X157102994Y-114167006D02*
X155547006Y-114167006D01*
X155547006Y-114167006D02*
X155500000Y-114120000D01*
X143910000Y-114610000D02*
X142870000Y-114610000D01*
%TO.N,/Components/FLASH-DO_IO1*%
X169480000Y-109430000D02*
X171430000Y-107480000D01*
X177055000Y-107285000D02*
X177000000Y-107230000D01*
X177055000Y-108790000D02*
X177055000Y-107285000D01*
X168170000Y-109430000D02*
X169480000Y-109430000D01*
%TO.N,/Components/FLASH-DI_IO0*%
X169250000Y-107880000D02*
X169330000Y-107960000D01*
X174515000Y-114235000D02*
X174520000Y-114230000D01*
X168165000Y-107880000D02*
X169250000Y-107880000D01*
X174515000Y-115990000D02*
X174515000Y-114235000D01*
%TO.N,/Components/FLASH-WP_IO2*%
X168195000Y-114060000D02*
X171015000Y-114060000D01*
X171015000Y-114060000D02*
X175785000Y-109290000D01*
X175785000Y-109290000D02*
X175785000Y-108790000D01*
%TO.N,/Components/FLASH-HOLD*%
X173190000Y-113580000D02*
X175889232Y-113580000D01*
X173190000Y-114710768D02*
X173190000Y-113580000D01*
X172340768Y-115560000D02*
X173190000Y-114710768D01*
X168205000Y-115560000D02*
X172340768Y-115560000D01*
X177055000Y-114745768D02*
X177055000Y-115990000D01*
X175889232Y-113580000D02*
X177055000Y-114745768D01*
%TO.N,Net-(IC3-PROG3)*%
X147490000Y-116395000D02*
X148510000Y-115375000D01*
X147490000Y-116900000D02*
X147490000Y-116395000D01*
%TO.N,/ESP/ESP-GPIO12*%
X158741000Y-117296156D02*
X158741000Y-116828549D01*
X158276156Y-117761000D02*
X158741000Y-117296156D01*
X157487042Y-118082507D02*
X157808549Y-117761000D01*
X157808549Y-117761000D02*
X158276156Y-117761000D01*
X158741000Y-116828549D02*
X158790000Y-116779549D01*
X158790000Y-116779549D02*
X158790000Y-116580000D01*
X157487042Y-118083920D02*
X157487042Y-118082507D01*
X149765000Y-119900000D02*
X149960000Y-120095000D01*
X148990000Y-119900000D02*
X149765000Y-119900000D01*
%TO.N,/ESP/ESP-GPIO10*%
X150125000Y-118900000D02*
X150140000Y-118915000D01*
X157057912Y-116630000D02*
X157940000Y-116630000D01*
X156887128Y-116800784D02*
X157057912Y-116630000D01*
X157940000Y-116630000D02*
X157990000Y-116580000D01*
X148990000Y-118900000D02*
X150125000Y-118900000D01*
%TO.N,/ESP/ESP-GPIO11*%
X157510000Y-117410000D02*
X158130768Y-117410000D01*
X158130768Y-117410000D02*
X158390000Y-117150768D01*
X157469124Y-117369124D02*
X157510000Y-117410000D01*
X157441975Y-117369124D02*
X157469124Y-117369124D01*
X158390000Y-117150768D02*
X158390000Y-116580000D01*
X148990000Y-119400000D02*
X149085000Y-119495000D01*
X149085000Y-119495000D02*
X150680000Y-119495000D01*
X157410670Y-117337819D02*
X157441975Y-117369124D01*
%TD*%
M02*
