%TF.GenerationSoftware,KiCad,Pcbnew,9.0.2-9.0.2-0~ubuntu22.04.1*%
%TF.CreationDate,2025-07-24T10:37:48-04:00*%
%TF.ProjectId,jarvis,6a617276-6973-42e6-9b69-6361645f7063,rev?*%
%TF.SameCoordinates,Original*%
%TF.FileFunction,Copper,L3,Inr*%
%TF.FilePolarity,Positive*%
%FSLAX46Y46*%
G04 Gerber Fmt 4.6, Leading zero omitted, Abs format (unit mm)*
G04 Created by KiCad (PCBNEW 9.0.2-9.0.2-0~ubuntu22.04.1) date 2025-07-24 10:37:48*
%MOMM*%
%LPD*%
G01*
G04 APERTURE LIST*
G04 Aperture macros list*
%AMRoundRect*
0 Rectangle with rounded corners*
0 $1 Rounding radius*
0 $2 $3 $4 $5 $6 $7 $8 $9 X,Y pos of 4 corners*
0 Add a 4 corners polygon primitive as box body*
4,1,4,$2,$3,$4,$5,$6,$7,$8,$9,$2,$3,0*
0 Add four circle primitives for the rounded corners*
1,1,$1+$1,$2,$3*
1,1,$1+$1,$4,$5*
1,1,$1+$1,$6,$7*
1,1,$1+$1,$8,$9*
0 Add four rect primitives between the rounded corners*
20,1,$1+$1,$2,$3,$4,$5,0*
20,1,$1+$1,$4,$5,$6,$7,0*
20,1,$1+$1,$6,$7,$8,$9,0*
20,1,$1+$1,$8,$9,$2,$3,0*%
%AMFreePoly0*
4,1,121,0.057437,0.323981,0.058316,0.323824,0.113316,0.308824,0.114166,0.308506,0.166166,0.283506,0.166873,0.283092,0.213873,0.250092,0.214579,0.249492,0.254579,0.208492,0.255133,0.207814,0.287133,0.160814,0.287573,0.160023,0.310573,0.108023,0.310851,0.107213,0.324851,0.051213,0.324988,0.050350,0.328988,-0.006650,0.328973,-0.007523,0.322973,-0.064523,0.322801,-0.065397,
0.306801,-0.120397,0.306455,-0.121271,0.280455,-0.172271,0.280021,-0.172972,0.246021,-0.218972,0.245402,-0.219664,0.203402,-0.258664,0.202695,-0.259211,0.155000,-0.289735,0.155000,-1.060082,0.202707,-1.090796,0.203402,-1.091336,0.245402,-1.130336,0.246021,-1.131028,0.280021,-1.177028,0.280455,-1.177729,0.306455,-1.228729,0.306801,-1.229603,0.322801,-1.284603,0.322973,-1.285477,
0.328973,-1.342477,0.328988,-1.343350,0.324988,-1.400350,0.324851,-1.401213,0.310851,-1.457213,0.310573,-1.458023,0.287573,-1.510023,0.287133,-1.510814,0.255133,-1.557814,0.254579,-1.558492,0.214579,-1.599492,0.213873,-1.600092,0.166873,-1.633092,0.166166,-1.633506,0.114166,-1.658506,0.113316,-1.658824,0.058316,-1.673824,0.057437,-1.673981,0.000437,-1.678981,-0.000437,-1.678981,
-0.057437,-1.673981,-0.058316,-1.673824,-0.113316,-1.658824,-0.114166,-1.658506,-0.166166,-1.633506,-0.166873,-1.633092,-0.213873,-1.600092,-0.214579,-1.599492,-0.254579,-1.558492,-0.255133,-1.557814,-0.287133,-1.510814,-0.287573,-1.510023,-0.310573,-1.458023,-0.310851,-1.457213,-0.324851,-1.401213,-0.324988,-1.400350,-0.328988,-1.343350,-0.328973,-1.342477,-0.322973,-1.285477,-0.322801,-1.284603,
-0.306801,-1.229603,-0.306455,-1.228729,-0.280455,-1.177729,-0.280021,-1.177028,-0.246021,-1.131028,-0.245402,-1.130336,-0.203402,-1.091336,-0.202695,-1.090789,-0.155000,-1.060264,-0.155000,-0.289735,-0.202695,-0.259211,-0.203402,-0.258664,-0.245402,-0.219664,-0.246021,-0.218972,-0.280021,-0.172972,-0.280455,-0.172271,-0.306455,-0.121271,-0.306801,-0.120397,-0.322801,-0.065397,-0.322973,-0.064523,
-0.328973,-0.007523,-0.328988,-0.006650,-0.324988,0.050350,-0.324851,0.051213,-0.310851,0.107213,-0.310573,0.108023,-0.287573,0.160023,-0.287133,0.160814,-0.255133,0.207814,-0.254579,0.208492,-0.214579,0.249492,-0.213873,0.250092,-0.166873,0.283092,-0.166166,0.283506,-0.114166,0.308506,-0.113316,0.308824,-0.058316,0.323824,-0.057437,0.323981,-0.000437,0.328981,0.000437,0.328981,
0.057437,0.323981,0.057437,0.323981,$1*%
%AMFreePoly1*
4,1,121,0.057437,0.323981,0.058316,0.323824,0.113316,0.308824,0.114166,0.308506,0.166166,0.283506,0.166873,0.283092,0.213873,0.250092,0.214579,0.249492,0.254579,0.208492,0.255133,0.207814,0.287133,0.160814,0.287573,0.160023,0.310573,0.108023,0.310851,0.107213,0.324851,0.051213,0.324988,0.050350,0.328988,-0.006650,0.328973,-0.007523,0.322973,-0.064523,0.322801,-0.065397,
0.306801,-0.120397,0.306455,-0.121271,0.280455,-0.172271,0.280021,-0.172972,0.246021,-0.218972,0.245402,-0.219664,0.203402,-0.258664,0.202695,-0.259211,0.155000,-0.289735,0.155000,-1.060264,0.202695,-1.090789,0.203402,-1.091336,0.245402,-1.130336,0.246021,-1.131028,0.280021,-1.177028,0.280455,-1.177729,0.306455,-1.228729,0.306801,-1.229603,0.322801,-1.284603,0.322973,-1.285477,
0.328973,-1.342477,0.328988,-1.343350,0.324988,-1.400350,0.324851,-1.401213,0.310851,-1.457213,0.310573,-1.458023,0.287573,-1.510023,0.287133,-1.510814,0.255133,-1.557814,0.254579,-1.558492,0.214579,-1.599492,0.213873,-1.600092,0.166873,-1.633092,0.166166,-1.633506,0.114166,-1.658506,0.113316,-1.658824,0.058316,-1.673824,0.057437,-1.673981,0.000437,-1.678981,-0.000437,-1.678981,
-0.057437,-1.673981,-0.058316,-1.673824,-0.113316,-1.658824,-0.114166,-1.658506,-0.166166,-1.633506,-0.166873,-1.633092,-0.213873,-1.600092,-0.214579,-1.599492,-0.254579,-1.558492,-0.255133,-1.557814,-0.287133,-1.510814,-0.287573,-1.510023,-0.310573,-1.458023,-0.310851,-1.457213,-0.324851,-1.401213,-0.324988,-1.400350,-0.328988,-1.343350,-0.328973,-1.342477,-0.322973,-1.285477,-0.322801,-1.284603,
-0.306801,-1.229603,-0.306455,-1.228729,-0.280455,-1.177729,-0.280021,-1.177028,-0.246021,-1.131028,-0.245402,-1.130336,-0.203402,-1.091336,-0.202695,-1.090789,-0.155000,-1.060264,-0.155000,-0.289735,-0.202695,-0.259211,-0.203402,-0.258664,-0.245402,-0.219664,-0.246021,-0.218972,-0.280021,-0.172972,-0.280455,-0.172271,-0.306455,-0.121271,-0.306801,-0.120397,-0.322801,-0.065397,-0.322973,-0.064523,
-0.328973,-0.007523,-0.328988,-0.006650,-0.324988,0.050350,-0.324851,0.051213,-0.310851,0.107213,-0.310573,0.108023,-0.287573,0.160023,-0.287133,0.160814,-0.255133,0.207814,-0.254579,0.208492,-0.214579,0.249492,-0.213873,0.250092,-0.166873,0.283092,-0.166166,0.283506,-0.114166,0.308506,-0.113316,0.308824,-0.058316,0.323824,-0.057437,0.323981,-0.000437,0.328981,0.000437,0.328981,
0.057437,0.323981,0.057437,0.323981,$1*%
G04 Aperture macros list end*
%TA.AperFunction,ComponentPad*%
%ADD10RoundRect,0.200000X0.450000X-0.200000X0.450000X0.200000X-0.450000X0.200000X-0.450000X-0.200000X0*%
%TD*%
%TA.AperFunction,ComponentPad*%
%ADD11O,1.300000X0.800000*%
%TD*%
%TA.AperFunction,ComponentPad*%
%ADD12FreePoly0,90.000000*%
%TD*%
%TA.AperFunction,ComponentPad*%
%ADD13C,0.648000*%
%TD*%
%TA.AperFunction,ComponentPad*%
%ADD14FreePoly1,90.000000*%
%TD*%
%TA.AperFunction,ComponentPad*%
%ADD15O,2.500000X1.300000*%
%TD*%
%TA.AperFunction,ComponentPad*%
%ADD16O,3.200000X1.300000*%
%TD*%
%TA.AperFunction,ViaPad*%
%ADD17C,0.600000*%
%TD*%
%TA.AperFunction,Conductor*%
%ADD18C,0.200000*%
%TD*%
%TA.AperFunction,Conductor*%
%ADD19C,0.400000*%
%TD*%
G04 APERTURE END LIST*
D10*
%TO.N,/Components/MIC-DATA*%
%TO.C,J2*%
X136010000Y-115290000D03*
D11*
%TO.N,/Components/MIC-WS*%
X136010000Y-114040000D03*
%TO.N,/Components/MIC-BCK*%
X136010000Y-112790000D03*
%TO.N,+3.3V*%
X136010000Y-111540000D03*
%TO.N,GND*%
X136010000Y-110290000D03*
%TD*%
D10*
%TO.N,Net-(IC2-OUTN)*%
%TO.C,J1*%
X136040000Y-120685000D03*
D11*
%TO.N,Net-(IC2-OUTP)*%
X136040000Y-119435000D03*
%TD*%
D10*
%TO.N,/Power/VBAT_1*%
%TO.C,J3*%
X136020000Y-125995000D03*
D11*
%TO.N,GND*%
X136020000Y-124745000D03*
%TD*%
D12*
%TO.N,GND*%
%TO.C,U2*%
X176270000Y-126230000D03*
%TO.N,/Power/VBUS*%
X176270000Y-125380000D03*
D13*
%TO.N,Net-(U2-CC1)*%
X176270000Y-124530000D03*
%TO.N,/Power/USB_DP*%
X176270000Y-123680000D03*
%TO.N,/Power/USB_DN*%
X176270000Y-122830000D03*
%TO.N,unconnected-(U2-SBU1-PadA8)*%
X176270000Y-121980000D03*
D14*
%TO.N,/Power/VBUS*%
X176270000Y-121130000D03*
D12*
%TO.N,GND*%
X176270000Y-120280000D03*
D13*
X177620000Y-120280000D03*
%TO.N,/Power/VBUS*%
X177620000Y-121130000D03*
%TO.N,Net-(U2-CC2)*%
X177620000Y-121980000D03*
%TO.N,/Power/USB_DP*%
X177620000Y-122830000D03*
%TO.N,/Power/USB_DN*%
X177620000Y-123680000D03*
%TO.N,unconnected-(U2-SBU2-PadB8)*%
X177620000Y-124530000D03*
%TO.N,/Power/VBUS*%
X177620000Y-125380000D03*
%TO.N,GND*%
X177620000Y-126230000D03*
D15*
X180920000Y-127575000D03*
X180920000Y-118935000D03*
D16*
X176770000Y-127575000D03*
X176770000Y-118935000D03*
%TD*%
D17*
%TO.N,Net-(IC1-GPIO18)*%
X161924067Y-118820499D03*
%TO.N,GND*%
X134820000Y-127870000D03*
%TO.N,+3.3V*%
X139440000Y-122290000D03*
X148230000Y-127430000D03*
X154510000Y-127730000D03*
X139440000Y-127530000D03*
%TO.N,/ESP/ESP-GPIO11*%
X149070000Y-127760000D03*
%TO.N,/ESP/ESP-GPIO10*%
X144570000Y-127810000D03*
%TO.N,GND*%
X174360000Y-128380000D03*
%TO.N,Net-(IC1-GPIO18)*%
X167490000Y-125200000D03*
%TO.N,Net-(IC1-GPIO17)*%
X168940000Y-125240000D03*
%TO.N,Net-(IC1-GPIO13)*%
X170370000Y-125340000D03*
%TO.N,/ESP/ESP-GPIO12*%
X157487042Y-118083920D03*
%TO.N,Net-(IC1-GPIO13)*%
X159300000Y-117510000D03*
%TO.N,Net-(IC1-GPIO17)*%
X161340000Y-118350000D03*
%TO.N,GND*%
X133840000Y-108760000D03*
X135890000Y-102690000D03*
%TO.N,Net-(IC1-GPIO0)*%
X142950000Y-107770000D03*
%TO.N,GND*%
X142340000Y-101860000D03*
X150920000Y-101850000D03*
%TO.N,Net-(IC1-GPIO0)*%
X156190000Y-112300000D03*
%TO.N,Net-(IC3-CE)*%
X150080000Y-121880000D03*
X144000000Y-118450000D03*
%TO.N,/Power/VBAT_1*%
X152610000Y-125210000D03*
%TO.N,/Power/VBUS*%
X150010000Y-126680000D03*
%TO.N,GND*%
X157420000Y-123430000D03*
X173290000Y-117390000D03*
X162430000Y-123590000D03*
X165310000Y-106080000D03*
X171540000Y-125400000D03*
X174520000Y-107270000D03*
X180500000Y-102090000D03*
X159680000Y-102280000D03*
X183200000Y-103110000D03*
X181070000Y-105970000D03*
X161610000Y-125410000D03*
X146140000Y-118120000D03*
X157590000Y-106760000D03*
X182360000Y-105860000D03*
X175080000Y-104770000D03*
X160660000Y-102110000D03*
X162606895Y-120520056D03*
X149430000Y-111950000D03*
X167450000Y-119440000D03*
X160480000Y-106110000D03*
X178680000Y-105760000D03*
X182980000Y-105230000D03*
X162190000Y-124550000D03*
X146990000Y-118900000D03*
X159140000Y-111660000D03*
X159090000Y-113120000D03*
X159790000Y-118710000D03*
X163360000Y-103470000D03*
X156100000Y-105550000D03*
X145530000Y-126700000D03*
X163140000Y-122860000D03*
X183380000Y-104110000D03*
X163150000Y-104960000D03*
X153570000Y-117660000D03*
X162030000Y-114520000D03*
X160238162Y-123160000D03*
X155080000Y-105030000D03*
X171060000Y-122000000D03*
X157460000Y-121590000D03*
X157250000Y-105920000D03*
X151680000Y-108480000D03*
X160610000Y-114570000D03*
X161950000Y-102280000D03*
X158120000Y-124240000D03*
X160560000Y-125630000D03*
X159920000Y-108380000D03*
X162846496Y-121478462D03*
X177710000Y-102240000D03*
X158500000Y-102120000D03*
X182300000Y-102050000D03*
X157080000Y-107870000D03*
X157550000Y-120610000D03*
X155630000Y-103570000D03*
X159190000Y-114540000D03*
X141400000Y-114380000D03*
X162040000Y-111690000D03*
X141240000Y-122220000D03*
X176020000Y-102230000D03*
X158300000Y-125210000D03*
X175090000Y-102850000D03*
X159670000Y-119950000D03*
X158660000Y-120430000D03*
X177830000Y-105670000D03*
X162190000Y-105310000D03*
X162000000Y-113200000D03*
X147900000Y-119840000D03*
X141440000Y-117160000D03*
X181150000Y-112870000D03*
X157360000Y-102300000D03*
X147780000Y-118170000D03*
X156090000Y-102450000D03*
X156720000Y-122620000D03*
X142990000Y-108700000D03*
X179210000Y-102210000D03*
X161730000Y-120120000D03*
X146400000Y-108520000D03*
X176520000Y-105570000D03*
X161580000Y-106060000D03*
X159780000Y-106790000D03*
X160620000Y-113170000D03*
X160610000Y-111640000D03*
X161700000Y-104110000D03*
X159360000Y-125530000D03*
X162810000Y-102810000D03*
%TO.N,/Power/VBUS*%
X144030000Y-119860000D03*
X146990000Y-122105000D03*
%TO.N,/Power/VBAT_1*%
X143280000Y-117570000D03*
%TO.N,/Power/SYS*%
X142360000Y-126160000D03*
X145150000Y-120980000D03*
%TO.N,+3.3V*%
X158737351Y-118077624D03*
X145530000Y-111160000D03*
X157240000Y-109220000D03*
X141620000Y-121160000D03*
X151920000Y-117570000D03*
X139490000Y-109110000D03*
X139950000Y-115760000D03*
X162670000Y-108500000D03*
%TO.N,Net-(U2-CC2)*%
X180460000Y-121980000D03*
X173650000Y-121550000D03*
%TO.N,Net-(IC1-CHIP_PU)*%
X148920000Y-108440000D03*
X155700000Y-111690000D03*
%TO.N,/Power/USB_DP*%
X174360000Y-123680000D03*
X171130000Y-123650000D03*
%TO.N,/Power/USB_DN*%
X171120000Y-122790000D03*
X174350000Y-122820000D03*
%TO.N,/Components/FLASH-CLK*%
X170380000Y-110110000D03*
X175730000Y-114230000D03*
%TO.N,+1.8*%
X164405000Y-116715000D03*
X179970000Y-117390000D03*
%TO.N,/Components/AMP-DIN*%
X155640000Y-112870000D03*
X142970000Y-112830000D03*
%TO.N,/Components/MIC-BCK*%
X156150000Y-114810000D03*
%TO.N,/Components/MIC-DATA*%
X156320000Y-116310000D03*
%TO.N,Net-(IC1-LNA_IN)*%
X156070000Y-110310000D03*
X175840000Y-103930000D03*
%TO.N,/Components/MIC-WS*%
X155780000Y-115560000D03*
%TO.N,/Components/AMP-BCLK*%
X156055422Y-113616006D03*
X143810000Y-113350000D03*
%TO.N,/Components/AMP-LRCLK*%
X155500000Y-114120000D03*
X143910000Y-114610000D03*
%TO.N,/Components/FLASH-DO_IO1*%
X171430000Y-107480000D03*
X177000000Y-107230000D03*
%TO.N,/Components/FLASH-DI_IO0*%
X174520000Y-114230000D03*
X169330000Y-107960000D03*
%TO.N,/ESP/ESP-GPIO12*%
X149960000Y-120095000D03*
%TO.N,/ESP/ESP-GPIO10*%
X150140000Y-118915000D03*
X156887128Y-116800784D03*
%TO.N,/ESP/ESP-GPIO11*%
X157410670Y-117337819D03*
X150680000Y-119495000D03*
%TD*%
D18*
%TO.N,+3.3V*%
X154510000Y-127730000D02*
X153220000Y-126440000D01*
X153220000Y-126440000D02*
X153220000Y-118870000D01*
X153220000Y-118870000D02*
X151920000Y-117570000D01*
X139440000Y-127530000D02*
X140271000Y-128361000D01*
X140271000Y-128361000D02*
X147299000Y-128361000D01*
X147299000Y-128361000D02*
X148230000Y-127430000D01*
X139440000Y-127530000D02*
X139440000Y-122370000D01*
D19*
%TO.N,/Power/VBUS*%
X150000000Y-123070000D02*
X149035000Y-122105000D01*
X176270000Y-125380000D02*
X174970000Y-125380000D01*
X171451000Y-128899000D02*
X150000000Y-128899000D01*
X144030000Y-119860000D02*
X144190000Y-120020000D01*
X146990000Y-121690000D02*
X146990000Y-122105000D01*
X174970000Y-125380000D02*
X171451000Y-128899000D01*
X149035000Y-122105000D02*
X146990000Y-122105000D01*
X145320000Y-120020000D02*
X146990000Y-121690000D01*
X150000000Y-128899000D02*
X150000000Y-123070000D01*
X144190000Y-120020000D02*
X145320000Y-120020000D01*
D18*
%TO.N,/Power/SYS*%
X143870000Y-125600000D02*
X143880000Y-125610000D01*
D19*
X143330000Y-126160000D02*
X142360000Y-126160000D01*
X143870000Y-125040000D02*
X143870000Y-125600000D01*
X143870000Y-122260000D02*
X143870000Y-125040000D01*
X143880000Y-125610000D02*
X143330000Y-126160000D01*
X145150000Y-120980000D02*
X143870000Y-122260000D01*
%TO.N,+1.8*%
X164405000Y-116715000D02*
X179295000Y-116715000D01*
X179295000Y-116715000D02*
X179970000Y-117390000D01*
%TD*%
%TA.AperFunction,Conductor*%
%TO.N,+3.3V*%
G36*
X150101830Y-102025853D02*
G01*
X150147987Y-102078306D01*
X150150150Y-102083225D01*
X150210602Y-102229172D01*
X150210609Y-102229185D01*
X150298210Y-102360288D01*
X150298213Y-102360292D01*
X150409707Y-102471786D01*
X150409711Y-102471789D01*
X150540814Y-102559390D01*
X150540827Y-102559397D01*
X150665779Y-102611153D01*
X150686503Y-102619737D01*
X150736766Y-102629735D01*
X150823550Y-102646998D01*
X150885461Y-102679383D01*
X150920035Y-102740099D01*
X150923340Y-102766457D01*
X151014352Y-107995547D01*
X150995837Y-108062919D01*
X150993475Y-108066593D01*
X150970610Y-108100814D01*
X150970602Y-108100828D01*
X150910264Y-108246498D01*
X150910261Y-108246510D01*
X150879500Y-108401153D01*
X150879500Y-108558846D01*
X150910261Y-108713489D01*
X150910264Y-108713501D01*
X150970602Y-108859172D01*
X150970609Y-108859185D01*
X151058210Y-108990288D01*
X151058213Y-108990292D01*
X151169707Y-109101786D01*
X151169711Y-109101789D01*
X151300814Y-109189390D01*
X151300827Y-109189397D01*
X151446498Y-109249735D01*
X151446503Y-109249737D01*
X151601153Y-109280499D01*
X151601156Y-109280500D01*
X151601158Y-109280500D01*
X151758844Y-109280500D01*
X151758845Y-109280499D01*
X151913497Y-109249737D01*
X152059179Y-109189394D01*
X152190289Y-109101789D01*
X152301789Y-108990289D01*
X152389394Y-108859179D01*
X152449737Y-108713497D01*
X152480500Y-108558842D01*
X152480500Y-108435163D01*
X152500185Y-108368124D01*
X152552989Y-108322369D01*
X152603803Y-108311166D01*
X156331162Y-108290375D01*
X156398308Y-108309685D01*
X156434953Y-108345482D01*
X156458210Y-108380288D01*
X156458213Y-108380292D01*
X156569707Y-108491786D01*
X156569711Y-108491789D01*
X156700814Y-108579390D01*
X156700827Y-108579397D01*
X156846498Y-108639735D01*
X156846503Y-108639737D01*
X157001153Y-108670499D01*
X157001156Y-108670500D01*
X157001158Y-108670500D01*
X157158844Y-108670500D01*
X157158845Y-108670499D01*
X157313497Y-108639737D01*
X157459179Y-108579394D01*
X157590289Y-108491789D01*
X157701789Y-108380289D01*
X157730642Y-108337106D01*
X157784253Y-108292301D01*
X157833048Y-108281998D01*
X158994811Y-108275518D01*
X159061957Y-108294828D01*
X159108005Y-108347376D01*
X159119500Y-108399516D01*
X159119500Y-108458846D01*
X159150261Y-108613489D01*
X159150264Y-108613501D01*
X159210602Y-108759172D01*
X159210609Y-108759185D01*
X159298210Y-108890288D01*
X159298213Y-108890292D01*
X159409707Y-109001786D01*
X159409711Y-109001789D01*
X159540814Y-109089390D01*
X159540827Y-109089397D01*
X159685665Y-109149390D01*
X159686503Y-109149737D01*
X159841153Y-109180499D01*
X159841156Y-109180500D01*
X159841158Y-109180500D01*
X159998844Y-109180500D01*
X159998845Y-109180499D01*
X160153497Y-109149737D01*
X160299179Y-109089394D01*
X160430289Y-109001789D01*
X160541789Y-108890289D01*
X160629394Y-108759179D01*
X160689737Y-108613497D01*
X160720500Y-108458842D01*
X160720500Y-108389203D01*
X160740185Y-108322164D01*
X160792989Y-108276409D01*
X160843804Y-108265205D01*
X163443260Y-108250706D01*
X163510406Y-108270016D01*
X163556454Y-108322564D01*
X163567933Y-108376725D01*
X163541980Y-109968508D01*
X163521205Y-110035218D01*
X163467662Y-110080106D01*
X163418492Y-110090486D01*
X161040000Y-110099999D01*
X161039999Y-110100000D01*
X161040829Y-110766267D01*
X161021228Y-110833331D01*
X160968481Y-110879151D01*
X160899335Y-110889181D01*
X160869378Y-110880983D01*
X160843497Y-110870263D01*
X160843489Y-110870261D01*
X160688845Y-110839500D01*
X160688842Y-110839500D01*
X160531158Y-110839500D01*
X160531155Y-110839500D01*
X160376510Y-110870261D01*
X160376498Y-110870264D01*
X160230827Y-110930602D01*
X160230814Y-110930609D01*
X160099711Y-111018210D01*
X160099707Y-111018213D01*
X159988213Y-111129707D01*
X159988208Y-111129713D01*
X159971419Y-111154840D01*
X159917806Y-111199645D01*
X159848481Y-111208351D01*
X159785454Y-111178195D01*
X159765217Y-111154840D01*
X159761791Y-111149714D01*
X159761786Y-111149707D01*
X159650292Y-111038213D01*
X159650288Y-111038210D01*
X159519185Y-110950609D01*
X159519172Y-110950602D01*
X159373501Y-110890264D01*
X159373489Y-110890261D01*
X159218845Y-110859500D01*
X159218842Y-110859500D01*
X159061158Y-110859500D01*
X159061155Y-110859500D01*
X158906510Y-110890261D01*
X158906498Y-110890264D01*
X158760827Y-110950602D01*
X158760814Y-110950609D01*
X158629711Y-111038210D01*
X158629707Y-111038213D01*
X158518213Y-111149707D01*
X158518210Y-111149711D01*
X158430609Y-111280814D01*
X158430602Y-111280827D01*
X158370264Y-111426498D01*
X158370261Y-111426510D01*
X158339500Y-111581153D01*
X158339500Y-111738846D01*
X158370261Y-111893489D01*
X158370264Y-111893501D01*
X158430602Y-112039172D01*
X158430609Y-112039185D01*
X158518210Y-112170288D01*
X158518213Y-112170292D01*
X158632578Y-112284657D01*
X158666063Y-112345980D01*
X158661079Y-112415672D01*
X158619207Y-112471605D01*
X158613790Y-112475439D01*
X158579709Y-112498211D01*
X158468213Y-112609707D01*
X158468210Y-112609711D01*
X158380609Y-112740814D01*
X158380602Y-112740827D01*
X158320264Y-112886498D01*
X158320261Y-112886510D01*
X158289500Y-113041153D01*
X158289500Y-113198846D01*
X158320261Y-113353489D01*
X158320264Y-113353501D01*
X158380602Y-113499172D01*
X158380609Y-113499185D01*
X158468210Y-113630288D01*
X158468213Y-113630292D01*
X158579708Y-113741787D01*
X158579711Y-113741789D01*
X158619783Y-113768564D01*
X158664587Y-113822175D01*
X158673295Y-113891500D01*
X158643141Y-113954528D01*
X158638574Y-113959347D01*
X158568210Y-114029711D01*
X158480609Y-114160814D01*
X158480602Y-114160827D01*
X158420264Y-114306498D01*
X158420261Y-114306510D01*
X158389500Y-114461153D01*
X158389500Y-114618846D01*
X158420261Y-114773489D01*
X158420264Y-114773501D01*
X158480602Y-114919172D01*
X158480609Y-114919185D01*
X158568210Y-115050288D01*
X158568213Y-115050292D01*
X158679707Y-115161786D01*
X158679711Y-115161789D01*
X158810814Y-115249390D01*
X158810827Y-115249397D01*
X158908218Y-115289737D01*
X158956503Y-115309737D01*
X159107312Y-115339735D01*
X159111153Y-115340499D01*
X159111156Y-115340500D01*
X159111158Y-115340500D01*
X159268844Y-115340500D01*
X159268845Y-115340499D01*
X159423497Y-115309737D01*
X159569179Y-115249394D01*
X159700289Y-115161789D01*
X159798691Y-115063386D01*
X159860012Y-115029903D01*
X159929704Y-115034887D01*
X159984212Y-115075691D01*
X159984347Y-115075581D01*
X159984795Y-115076127D01*
X159985638Y-115076758D01*
X159987671Y-115079631D01*
X159988213Y-115080292D01*
X160099707Y-115191786D01*
X160099711Y-115191789D01*
X160230814Y-115279390D01*
X160230827Y-115279397D01*
X160376498Y-115339735D01*
X160376503Y-115339737D01*
X160531153Y-115370499D01*
X160531156Y-115370500D01*
X160531158Y-115370500D01*
X160688844Y-115370500D01*
X160688845Y-115370499D01*
X160843497Y-115339737D01*
X160875198Y-115326605D01*
X160944666Y-115319137D01*
X161007145Y-115350412D01*
X161042798Y-115410500D01*
X161046650Y-115441013D01*
X161049240Y-117520972D01*
X161029639Y-117588036D01*
X160976892Y-117633856D01*
X160972700Y-117635684D01*
X160960826Y-117640603D01*
X160960818Y-117640607D01*
X160829715Y-117728207D01*
X160829707Y-117728213D01*
X160718213Y-117839707D01*
X160718210Y-117839711D01*
X160630609Y-117970814D01*
X160630604Y-117970824D01*
X160597038Y-118051860D01*
X160584388Y-118067556D01*
X160575963Y-118085871D01*
X160562913Y-118094206D01*
X160553197Y-118106263D01*
X160534068Y-118112629D01*
X160517079Y-118123481D01*
X160489995Y-118127298D01*
X160486902Y-118128328D01*
X160482130Y-118128407D01*
X160391247Y-118128153D01*
X160324263Y-118108281D01*
X160303913Y-118091834D01*
X160300292Y-118088213D01*
X160300288Y-118088210D01*
X160169185Y-118000609D01*
X160169172Y-118000602D01*
X160107960Y-117975248D01*
X160053556Y-117931407D01*
X160031491Y-117865113D01*
X160040851Y-117813235D01*
X160069735Y-117743501D01*
X160069737Y-117743497D01*
X160100500Y-117588842D01*
X160100500Y-117431158D01*
X160100500Y-117431155D01*
X160100499Y-117431153D01*
X160097616Y-117416661D01*
X160069737Y-117276503D01*
X160062476Y-117258974D01*
X160009397Y-117130827D01*
X160009390Y-117130814D01*
X159921789Y-116999711D01*
X159921786Y-116999707D01*
X159810292Y-116888213D01*
X159810288Y-116888210D01*
X159679185Y-116800609D01*
X159679172Y-116800602D01*
X159533501Y-116740264D01*
X159533489Y-116740261D01*
X159378845Y-116709500D01*
X159378842Y-116709500D01*
X159221158Y-116709500D01*
X159221155Y-116709500D01*
X159066510Y-116740261D01*
X159066498Y-116740264D01*
X158920827Y-116800602D01*
X158920814Y-116800609D01*
X158789711Y-116888210D01*
X158789707Y-116888213D01*
X158678213Y-116999707D01*
X158678210Y-116999711D01*
X158590609Y-117130814D01*
X158590602Y-117130827D01*
X158530264Y-117276498D01*
X158530261Y-117276510D01*
X158499500Y-117431153D01*
X158499500Y-117588846D01*
X158530261Y-117743489D01*
X158530264Y-117743501D01*
X158590602Y-117889172D01*
X158590608Y-117889183D01*
X158617883Y-117930003D01*
X158620971Y-117939866D01*
X158627719Y-117947698D01*
X158631234Y-117972643D01*
X158638760Y-117996680D01*
X158636025Y-118006647D01*
X158637468Y-118016885D01*
X158626938Y-118039772D01*
X158620275Y-118064060D01*
X158612586Y-118070966D01*
X158608265Y-118080359D01*
X158587031Y-118093920D01*
X158568296Y-118110750D01*
X158556528Y-118113402D01*
X158549381Y-118117968D01*
X158514432Y-118122893D01*
X158411156Y-118122603D01*
X158344172Y-118102730D01*
X158298565Y-118049798D01*
X158288101Y-118010752D01*
X158287542Y-118005075D01*
X158260553Y-117869397D01*
X158256779Y-117850423D01*
X158256775Y-117850414D01*
X158196439Y-117704748D01*
X158196438Y-117704747D01*
X158196436Y-117704741D01*
X158189246Y-117693981D01*
X158168369Y-117627305D01*
X158177787Y-117577640D01*
X158180407Y-117571316D01*
X158211170Y-117416661D01*
X158211170Y-117258977D01*
X158211170Y-117258974D01*
X158211169Y-117258972D01*
X158189435Y-117149711D01*
X158180407Y-117104322D01*
X158153023Y-117038210D01*
X158120067Y-116958646D01*
X158120060Y-116958633D01*
X158032459Y-116827530D01*
X158032456Y-116827526D01*
X157920962Y-116716032D01*
X157920958Y-116716029D01*
X157789855Y-116628428D01*
X157789845Y-116628423D01*
X157707344Y-116594250D01*
X157652941Y-116550409D01*
X157640236Y-116527141D01*
X157596525Y-116421610D01*
X157596518Y-116421598D01*
X157508917Y-116290495D01*
X157508914Y-116290491D01*
X157397420Y-116178997D01*
X157397416Y-116178994D01*
X157266313Y-116091393D01*
X157266300Y-116091386D01*
X157120627Y-116031047D01*
X157119880Y-116030821D01*
X157119536Y-116030595D01*
X157114998Y-116028716D01*
X157115354Y-116027854D01*
X157061444Y-115992521D01*
X157041321Y-115959617D01*
X157029394Y-115930821D01*
X156941789Y-115799711D01*
X156941786Y-115799707D01*
X156830292Y-115688213D01*
X156830288Y-115688210D01*
X156700298Y-115601353D01*
X156655493Y-115547741D01*
X156646786Y-115478416D01*
X156676941Y-115415388D01*
X156681489Y-115410588D01*
X156771789Y-115320289D01*
X156859394Y-115189179D01*
X156862854Y-115180827D01*
X156900726Y-115089394D01*
X156919737Y-115043497D01*
X156950500Y-114888842D01*
X156950500Y-114731158D01*
X156950500Y-114731155D01*
X156950499Y-114731153D01*
X156919737Y-114576503D01*
X156900955Y-114531158D01*
X156859397Y-114430827D01*
X156859390Y-114430814D01*
X156771789Y-114299711D01*
X156771786Y-114299707D01*
X156717592Y-114245514D01*
X156684106Y-114184191D01*
X156689090Y-114114499D01*
X156702170Y-114088941D01*
X156721701Y-114059711D01*
X156764816Y-113995185D01*
X156825159Y-113849503D01*
X156855922Y-113694848D01*
X156855922Y-113537164D01*
X156855922Y-113537161D01*
X156855921Y-113537159D01*
X156845215Y-113483337D01*
X156825159Y-113382509D01*
X156825157Y-113382504D01*
X156764819Y-113236833D01*
X156764812Y-113236820D01*
X156677210Y-113105715D01*
X156674692Y-113102647D01*
X156673875Y-113100724D01*
X156673827Y-113100652D01*
X156673840Y-113100642D01*
X156647377Y-113038338D01*
X156659167Y-112969470D01*
X156696501Y-112926774D01*
X156695581Y-112925653D01*
X156700285Y-112921791D01*
X156700289Y-112921789D01*
X156811789Y-112810289D01*
X156899394Y-112679179D01*
X156959737Y-112533497D01*
X156990500Y-112378842D01*
X156990500Y-112221158D01*
X156990500Y-112221155D01*
X156990499Y-112221153D01*
X156986349Y-112200289D01*
X156959737Y-112066503D01*
X156957152Y-112060263D01*
X156899397Y-111920827D01*
X156899390Y-111920814D01*
X156811789Y-111789711D01*
X156811786Y-111789707D01*
X156700292Y-111678213D01*
X156700288Y-111678210D01*
X156569185Y-111590609D01*
X156569172Y-111590602D01*
X156551112Y-111583122D01*
X156496708Y-111539282D01*
X156476947Y-111492754D01*
X156469737Y-111456503D01*
X156457309Y-111426498D01*
X156409397Y-111310827D01*
X156409390Y-111310814D01*
X156349448Y-111221105D01*
X156328570Y-111154428D01*
X156347054Y-111087047D01*
X156399033Y-111040357D01*
X156405072Y-111037663D01*
X156449179Y-111019394D01*
X156580289Y-110931789D01*
X156691789Y-110820289D01*
X156779394Y-110689179D01*
X156839737Y-110543497D01*
X156870500Y-110388842D01*
X156870500Y-110231158D01*
X156870500Y-110231155D01*
X156870499Y-110231153D01*
X156844411Y-110100000D01*
X156839737Y-110076503D01*
X156839735Y-110076498D01*
X156779397Y-109930827D01*
X156779390Y-109930814D01*
X156691789Y-109799711D01*
X156691786Y-109799707D01*
X156580292Y-109688213D01*
X156580288Y-109688210D01*
X156449185Y-109600609D01*
X156449172Y-109600602D01*
X156303501Y-109540264D01*
X156303489Y-109540261D01*
X156148845Y-109509500D01*
X156148842Y-109509500D01*
X155991158Y-109509500D01*
X155991155Y-109509500D01*
X155836510Y-109540261D01*
X155836498Y-109540264D01*
X155690827Y-109600602D01*
X155690814Y-109600609D01*
X155559711Y-109688210D01*
X155559707Y-109688213D01*
X155448213Y-109799707D01*
X155448210Y-109799711D01*
X155360609Y-109930814D01*
X155360602Y-109930827D01*
X155300264Y-110076498D01*
X155300261Y-110076510D01*
X155269500Y-110231153D01*
X155269500Y-110388846D01*
X155300261Y-110543489D01*
X155300264Y-110543501D01*
X155360602Y-110689172D01*
X155360609Y-110689185D01*
X155420551Y-110778894D01*
X155441429Y-110845572D01*
X155422944Y-110912952D01*
X155370966Y-110959642D01*
X155364903Y-110962345D01*
X155320829Y-110980601D01*
X155320814Y-110980609D01*
X155189711Y-111068210D01*
X155189707Y-111068213D01*
X155078213Y-111179707D01*
X155078210Y-111179711D01*
X154990609Y-111310814D01*
X154990602Y-111310827D01*
X154930264Y-111456498D01*
X154930261Y-111456510D01*
X154899500Y-111611153D01*
X154899500Y-111768846D01*
X154930261Y-111923489D01*
X154930264Y-111923501D01*
X154990602Y-112069172D01*
X154990609Y-112069185D01*
X155061496Y-112175274D01*
X155082374Y-112241952D01*
X155063890Y-112309332D01*
X155046075Y-112331846D01*
X155018213Y-112359707D01*
X155018210Y-112359711D01*
X154930609Y-112490814D01*
X154930602Y-112490827D01*
X154870264Y-112636498D01*
X154870261Y-112636510D01*
X154839500Y-112791153D01*
X154839500Y-112948846D01*
X154870261Y-113103489D01*
X154870264Y-113103501D01*
X154930602Y-113249172D01*
X154930609Y-113249185D01*
X154997490Y-113349279D01*
X155018368Y-113415957D01*
X154999883Y-113483337D01*
X154982070Y-113505851D01*
X154878210Y-113609711D01*
X154790609Y-113740814D01*
X154790602Y-113740827D01*
X154730264Y-113886498D01*
X154730261Y-113886510D01*
X154699500Y-114041153D01*
X154699500Y-114198846D01*
X154730261Y-114353489D01*
X154730264Y-114353501D01*
X154790602Y-114499172D01*
X154790609Y-114499185D01*
X154878210Y-114630288D01*
X154878213Y-114630292D01*
X154989707Y-114741786D01*
X154989711Y-114741789D01*
X155120814Y-114829390D01*
X155120818Y-114829392D01*
X155120821Y-114829394D01*
X155131591Y-114833855D01*
X155185995Y-114877694D01*
X155208062Y-114943988D01*
X155190784Y-115011688D01*
X155171825Y-115036096D01*
X155158210Y-115049711D01*
X155070609Y-115180814D01*
X155070602Y-115180827D01*
X155010264Y-115326498D01*
X155010261Y-115326510D01*
X154979500Y-115481153D01*
X154979500Y-115638846D01*
X155010261Y-115793489D01*
X155010264Y-115793501D01*
X155070602Y-115939172D01*
X155070609Y-115939185D01*
X155158210Y-116070288D01*
X155158213Y-116070292D01*
X155269707Y-116181786D01*
X155269711Y-116181789D01*
X155400814Y-116269390D01*
X155400821Y-116269394D01*
X155443616Y-116287120D01*
X155498019Y-116330959D01*
X155517199Y-116383089D01*
X155518311Y-116382868D01*
X155550261Y-116543489D01*
X155550264Y-116543501D01*
X155610602Y-116689172D01*
X155610609Y-116689185D01*
X155698210Y-116820288D01*
X155698213Y-116820292D01*
X155809707Y-116931786D01*
X155809711Y-116931789D01*
X155940814Y-117019390D01*
X155940827Y-117019397D01*
X155986254Y-117038213D01*
X156086503Y-117079737D01*
X156086504Y-117079737D01*
X156086506Y-117079738D01*
X156087244Y-117079962D01*
X156087583Y-117080184D01*
X156092131Y-117082068D01*
X156091773Y-117082930D01*
X156145681Y-117118261D01*
X156165805Y-117151167D01*
X156177729Y-117179954D01*
X156177737Y-117179969D01*
X156265338Y-117311072D01*
X156265341Y-117311076D01*
X156376835Y-117422570D01*
X156376839Y-117422573D01*
X156507945Y-117510176D01*
X156507947Y-117510176D01*
X156507949Y-117510178D01*
X156575908Y-117538327D01*
X156590451Y-117544351D01*
X156612836Y-117562390D01*
X156636975Y-117578013D01*
X156641649Y-117585607D01*
X156644855Y-117588191D01*
X156655960Y-117607766D01*
X156656793Y-117609606D01*
X156701276Y-117716998D01*
X156714123Y-117736225D01*
X156718323Y-117745501D01*
X156721823Y-117770422D01*
X156729342Y-117794435D01*
X156726960Y-117806993D01*
X156728042Y-117814692D01*
X156723722Y-117824070D01*
X156719925Y-117844094D01*
X156717307Y-117850414D01*
X156717303Y-117850425D01*
X156686541Y-118005076D01*
X156686491Y-118005590D01*
X156686389Y-118005841D01*
X156685353Y-118011052D01*
X156684364Y-118010855D01*
X156660323Y-118070375D01*
X156603284Y-118110727D01*
X156562741Y-118117423D01*
X154434685Y-118111458D01*
X154367701Y-118091585D01*
X154322095Y-118038653D01*
X154312345Y-117969467D01*
X154320469Y-117940013D01*
X154339737Y-117893497D01*
X154370500Y-117738842D01*
X154370500Y-117581158D01*
X154370500Y-117581155D01*
X154370499Y-117581153D01*
X154363917Y-117548065D01*
X154339737Y-117426503D01*
X154302456Y-117336498D01*
X154279397Y-117280827D01*
X154279390Y-117280814D01*
X154191789Y-117149711D01*
X154191786Y-117149707D01*
X154080292Y-117038213D01*
X154080288Y-117038210D01*
X153949185Y-116950609D01*
X153949172Y-116950602D01*
X153803501Y-116890264D01*
X153803489Y-116890261D01*
X153648845Y-116859500D01*
X153648842Y-116859500D01*
X153491158Y-116859500D01*
X153491155Y-116859500D01*
X153336510Y-116890261D01*
X153336498Y-116890264D01*
X153190827Y-116950602D01*
X153190814Y-116950609D01*
X153059711Y-117038210D01*
X153059707Y-117038213D01*
X152948213Y-117149707D01*
X152948210Y-117149711D01*
X152860609Y-117280814D01*
X152860602Y-117280827D01*
X152800264Y-117426498D01*
X152800261Y-117426510D01*
X152769500Y-117581153D01*
X152769500Y-117738846D01*
X152800261Y-117893489D01*
X152800264Y-117893501D01*
X152817516Y-117935151D01*
X152824985Y-118004621D01*
X152793709Y-118067100D01*
X152733620Y-118102751D01*
X152702607Y-118106603D01*
X148682747Y-118095337D01*
X148615763Y-118075464D01*
X148570157Y-118022532D01*
X148561478Y-117995528D01*
X148554510Y-117960499D01*
X148549737Y-117936503D01*
X148546935Y-117929738D01*
X148489397Y-117790827D01*
X148489390Y-117790814D01*
X148401789Y-117659711D01*
X148401786Y-117659707D01*
X148290292Y-117548213D01*
X148290288Y-117548210D01*
X148159185Y-117460609D01*
X148159172Y-117460602D01*
X148013501Y-117400264D01*
X148013489Y-117400261D01*
X147858845Y-117369500D01*
X147858842Y-117369500D01*
X147701158Y-117369500D01*
X147701155Y-117369500D01*
X147546510Y-117400261D01*
X147546498Y-117400264D01*
X147400827Y-117460602D01*
X147400814Y-117460609D01*
X147269711Y-117548210D01*
X147269707Y-117548213D01*
X147158213Y-117659707D01*
X147158210Y-117659711D01*
X147075718Y-117783169D01*
X147022106Y-117827974D01*
X146952781Y-117836681D01*
X146889753Y-117806526D01*
X146858054Y-117761729D01*
X146851332Y-117745501D01*
X146849394Y-117740821D01*
X146849390Y-117740814D01*
X146761789Y-117609711D01*
X146761786Y-117609707D01*
X146650292Y-117498213D01*
X146650288Y-117498210D01*
X146519185Y-117410609D01*
X146519172Y-117410602D01*
X146373501Y-117350264D01*
X146373489Y-117350261D01*
X146218845Y-117319500D01*
X146218842Y-117319500D01*
X146061158Y-117319500D01*
X146061155Y-117319500D01*
X145906510Y-117350261D01*
X145906498Y-117350264D01*
X145760827Y-117410602D01*
X145760814Y-117410609D01*
X145629711Y-117498210D01*
X145629707Y-117498213D01*
X145518213Y-117609707D01*
X145518210Y-117609711D01*
X145430609Y-117740814D01*
X145430602Y-117740827D01*
X145370264Y-117886498D01*
X145370261Y-117886508D01*
X145350501Y-117985848D01*
X145318116Y-118047759D01*
X145257400Y-118082333D01*
X145228536Y-118085656D01*
X144784406Y-118084411D01*
X144717422Y-118064538D01*
X144681652Y-118029302D01*
X144621789Y-117939710D01*
X144510292Y-117828213D01*
X144510288Y-117828210D01*
X144379185Y-117740609D01*
X144379172Y-117740602D01*
X144233501Y-117680264D01*
X144233492Y-117680261D01*
X144180307Y-117669682D01*
X144118397Y-117637296D01*
X144083823Y-117576580D01*
X144080500Y-117548065D01*
X144080500Y-117491155D01*
X144080499Y-117491153D01*
X144068565Y-117431158D01*
X144049737Y-117336503D01*
X144039203Y-117311072D01*
X143989397Y-117190827D01*
X143989390Y-117190814D01*
X143901789Y-117059711D01*
X143901786Y-117059707D01*
X143790292Y-116948213D01*
X143790288Y-116948210D01*
X143659185Y-116860609D01*
X143659172Y-116860602D01*
X143513501Y-116800264D01*
X143513489Y-116800261D01*
X143358845Y-116769500D01*
X143358842Y-116769500D01*
X143201158Y-116769500D01*
X143201155Y-116769500D01*
X143046510Y-116800261D01*
X143046498Y-116800264D01*
X142900827Y-116860602D01*
X142900814Y-116860609D01*
X142769711Y-116948210D01*
X142769707Y-116948213D01*
X142658213Y-117059707D01*
X142658210Y-117059711D01*
X142570609Y-117190814D01*
X142570602Y-117190827D01*
X142510264Y-117336498D01*
X142510261Y-117336510D01*
X142479500Y-117491153D01*
X142479500Y-117648846D01*
X142510261Y-117803489D01*
X142510264Y-117803501D01*
X142570602Y-117949172D01*
X142570609Y-117949185D01*
X142658210Y-118080288D01*
X142658213Y-118080292D01*
X142769707Y-118191786D01*
X142769711Y-118191789D01*
X142900814Y-118279390D01*
X142900827Y-118279397D01*
X142934178Y-118293211D01*
X143046503Y-118339737D01*
X143099692Y-118350316D01*
X143120935Y-118361428D01*
X143143850Y-118368472D01*
X143151328Y-118377325D01*
X143161601Y-118382699D01*
X143173466Y-118403536D01*
X143188935Y-118421849D01*
X143191900Y-118435905D01*
X143196176Y-118443414D01*
X143198451Y-118455836D01*
X143199500Y-118463848D01*
X143199500Y-118528842D01*
X143224393Y-118653991D01*
X143224927Y-118658063D01*
X143224678Y-118659648D01*
X143225931Y-118670817D01*
X143252350Y-119650501D01*
X143250012Y-119678035D01*
X143229500Y-119781153D01*
X143229500Y-119938846D01*
X143261451Y-120099472D01*
X143261050Y-120099551D01*
X143265139Y-120124771D01*
X143310202Y-121795902D01*
X143292332Y-121863448D01*
X143289351Y-121868133D01*
X143249229Y-121928182D01*
X143249223Y-121928192D01*
X143208645Y-122026158D01*
X143196420Y-122055672D01*
X143181842Y-122128962D01*
X143181842Y-122128963D01*
X143169500Y-122191005D01*
X143169500Y-122405316D01*
X143149815Y-122472355D01*
X143097011Y-122518110D01*
X143045239Y-122529316D01*
X142145865Y-122527426D01*
X142078867Y-122507600D01*
X142033224Y-122454700D01*
X142023425Y-122385521D01*
X142024509Y-122379234D01*
X142040500Y-122298844D01*
X142040500Y-122141155D01*
X142040499Y-122141153D01*
X142034245Y-122109711D01*
X142009737Y-121986503D01*
X141960707Y-121868133D01*
X141949397Y-121840827D01*
X141949390Y-121840814D01*
X141861789Y-121709711D01*
X141861786Y-121709707D01*
X141750292Y-121598213D01*
X141750288Y-121598210D01*
X141619185Y-121510609D01*
X141619172Y-121510602D01*
X141473501Y-121450264D01*
X141473489Y-121450261D01*
X141318845Y-121419500D01*
X141318842Y-121419500D01*
X141161158Y-121419500D01*
X141161155Y-121419500D01*
X141006510Y-121450261D01*
X141006498Y-121450264D01*
X140860827Y-121510602D01*
X140860814Y-121510609D01*
X140729711Y-121598210D01*
X140729707Y-121598213D01*
X140618213Y-121709707D01*
X140618210Y-121709711D01*
X140530609Y-121840814D01*
X140530602Y-121840827D01*
X140470264Y-121986498D01*
X140470261Y-121986510D01*
X140439500Y-122141153D01*
X140439500Y-122298846D01*
X140454733Y-122375427D01*
X140448506Y-122445018D01*
X140405643Y-122500196D01*
X140339753Y-122523440D01*
X140332856Y-122523618D01*
X133973922Y-122510260D01*
X133906924Y-122490434D01*
X133861280Y-122437534D01*
X133850182Y-122386077D01*
X133850311Y-122298846D01*
X133854657Y-119346304D01*
X134889500Y-119346304D01*
X134889500Y-119523695D01*
X134924103Y-119697658D01*
X134924106Y-119697667D01*
X134991983Y-119861540D01*
X134991991Y-119861555D01*
X135030265Y-119918834D01*
X135051144Y-119985511D01*
X135033281Y-120051875D01*
X134946523Y-120195391D01*
X134895913Y-120357807D01*
X134889500Y-120428386D01*
X134889500Y-120941613D01*
X134895913Y-121012192D01*
X134895913Y-121012194D01*
X134895914Y-121012196D01*
X134940042Y-121153811D01*
X134946522Y-121174606D01*
X135034530Y-121320188D01*
X135154811Y-121440469D01*
X135154813Y-121440470D01*
X135154815Y-121440472D01*
X135300394Y-121528478D01*
X135462804Y-121579086D01*
X135533384Y-121585500D01*
X135533387Y-121585500D01*
X136546613Y-121585500D01*
X136546616Y-121585500D01*
X136617196Y-121579086D01*
X136779606Y-121528478D01*
X136925185Y-121440472D01*
X137045472Y-121320185D01*
X137133478Y-121174606D01*
X137184086Y-121012196D01*
X137190500Y-120941616D01*
X137190500Y-120428384D01*
X137184086Y-120357804D01*
X137133478Y-120195394D01*
X137046716Y-120051873D01*
X137028881Y-119984322D01*
X137049731Y-119918839D01*
X137088013Y-119861547D01*
X137155894Y-119697666D01*
X137157091Y-119691651D01*
X137190499Y-119523695D01*
X137190500Y-119523693D01*
X137190500Y-119346306D01*
X137190499Y-119346304D01*
X137155896Y-119172341D01*
X137155893Y-119172332D01*
X137088016Y-119008459D01*
X137088009Y-119008446D01*
X136989464Y-118860965D01*
X136989461Y-118860961D01*
X136864038Y-118735538D01*
X136864034Y-118735535D01*
X136716553Y-118636990D01*
X136716540Y-118636983D01*
X136552667Y-118569106D01*
X136552658Y-118569103D01*
X136378694Y-118534500D01*
X136378691Y-118534500D01*
X135701309Y-118534500D01*
X135701306Y-118534500D01*
X135527341Y-118569103D01*
X135527332Y-118569106D01*
X135363459Y-118636983D01*
X135363446Y-118636990D01*
X135215965Y-118735535D01*
X135215961Y-118735538D01*
X135090538Y-118860961D01*
X135090535Y-118860965D01*
X134991990Y-119008446D01*
X134991983Y-119008459D01*
X134924106Y-119172332D01*
X134924103Y-119172341D01*
X134889500Y-119346304D01*
X133854657Y-119346304D01*
X133857991Y-117081153D01*
X140639500Y-117081153D01*
X140639500Y-117238846D01*
X140670261Y-117393489D01*
X140670264Y-117393501D01*
X140730602Y-117539172D01*
X140730609Y-117539185D01*
X140818210Y-117670288D01*
X140818213Y-117670292D01*
X140929707Y-117781786D01*
X140929711Y-117781789D01*
X141060814Y-117869390D01*
X141060827Y-117869397D01*
X141206498Y-117929735D01*
X141206503Y-117929737D01*
X141361153Y-117960499D01*
X141361156Y-117960500D01*
X141361158Y-117960500D01*
X141518844Y-117960500D01*
X141518845Y-117960499D01*
X141673497Y-117929737D01*
X141819179Y-117869394D01*
X141950289Y-117781789D01*
X142061789Y-117670289D01*
X142149394Y-117539179D01*
X142209737Y-117393497D01*
X142240500Y-117238842D01*
X142240500Y-117081158D01*
X142240500Y-117081155D01*
X142240499Y-117081153D01*
X142224298Y-116999707D01*
X142209737Y-116926503D01*
X142209735Y-116926498D01*
X142149397Y-116780827D01*
X142149390Y-116780814D01*
X142061789Y-116649711D01*
X142061786Y-116649707D01*
X141950292Y-116538213D01*
X141950288Y-116538210D01*
X141819185Y-116450609D01*
X141819172Y-116450602D01*
X141673501Y-116390264D01*
X141673489Y-116390261D01*
X141518845Y-116359500D01*
X141518842Y-116359500D01*
X141361158Y-116359500D01*
X141361155Y-116359500D01*
X141206510Y-116390261D01*
X141206498Y-116390264D01*
X141060827Y-116450602D01*
X141060814Y-116450609D01*
X140929711Y-116538210D01*
X140929707Y-116538213D01*
X140818213Y-116649707D01*
X140818210Y-116649711D01*
X140730609Y-116780814D01*
X140730602Y-116780827D01*
X140670264Y-116926498D01*
X140670261Y-116926510D01*
X140639500Y-117081153D01*
X133857991Y-117081153D01*
X133868118Y-110201304D01*
X134859500Y-110201304D01*
X134859500Y-110378695D01*
X134894103Y-110552658D01*
X134894106Y-110552667D01*
X134961983Y-110716540D01*
X134961990Y-110716552D01*
X135048858Y-110846558D01*
X135069736Y-110913235D01*
X135051252Y-110980615D01*
X135048858Y-110984340D01*
X134962433Y-111113683D01*
X134962428Y-111113693D01*
X134894587Y-111277476D01*
X134894584Y-111277483D01*
X134892096Y-111290000D01*
X135960272Y-111290000D01*
X135868386Y-111328060D01*
X135798060Y-111398386D01*
X135760000Y-111490272D01*
X135760000Y-111589728D01*
X135798060Y-111681614D01*
X135868386Y-111751940D01*
X135960272Y-111790000D01*
X134892096Y-111790000D01*
X134894584Y-111802516D01*
X134894587Y-111802523D01*
X134962428Y-111966306D01*
X134962433Y-111966316D01*
X135048858Y-112095659D01*
X135069736Y-112162336D01*
X135051252Y-112229717D01*
X135048858Y-112233441D01*
X134961990Y-112363446D01*
X134961983Y-112363459D01*
X134894106Y-112527332D01*
X134894103Y-112527341D01*
X134859500Y-112701304D01*
X134859500Y-112878695D01*
X134894103Y-113052658D01*
X134894106Y-113052667D01*
X134961983Y-113216540D01*
X134961990Y-113216553D01*
X135048557Y-113346109D01*
X135069435Y-113412787D01*
X135050950Y-113480167D01*
X135048557Y-113483891D01*
X134961990Y-113613446D01*
X134961983Y-113613459D01*
X134894106Y-113777332D01*
X134894103Y-113777341D01*
X134859500Y-113951304D01*
X134859500Y-114128695D01*
X134894103Y-114302658D01*
X134894106Y-114302667D01*
X134961983Y-114466540D01*
X134961991Y-114466555D01*
X135000265Y-114523834D01*
X135021144Y-114590511D01*
X135003281Y-114656875D01*
X134916523Y-114800391D01*
X134865913Y-114962807D01*
X134859500Y-115033386D01*
X134859500Y-115546613D01*
X134865913Y-115617192D01*
X134865913Y-115617194D01*
X134865914Y-115617196D01*
X134888043Y-115688211D01*
X134916522Y-115779606D01*
X135004530Y-115925188D01*
X135124811Y-116045469D01*
X135124813Y-116045470D01*
X135124815Y-116045472D01*
X135270394Y-116133478D01*
X135432804Y-116184086D01*
X135503384Y-116190500D01*
X135503387Y-116190500D01*
X136516613Y-116190500D01*
X136516616Y-116190500D01*
X136587196Y-116184086D01*
X136749606Y-116133478D01*
X136895185Y-116045472D01*
X137015472Y-115925185D01*
X137103478Y-115779606D01*
X137154086Y-115617196D01*
X137160500Y-115546616D01*
X137160500Y-115033384D01*
X137154086Y-114962804D01*
X137103478Y-114800394D01*
X137016716Y-114656873D01*
X136998881Y-114589322D01*
X137019731Y-114523839D01*
X137058013Y-114466547D01*
X137125894Y-114302666D01*
X137126195Y-114301153D01*
X140599500Y-114301153D01*
X140599500Y-114458846D01*
X140630261Y-114613489D01*
X140630264Y-114613501D01*
X140690602Y-114759172D01*
X140690609Y-114759185D01*
X140778210Y-114890288D01*
X140778213Y-114890292D01*
X140889707Y-115001786D01*
X140889711Y-115001789D01*
X141020814Y-115089390D01*
X141020827Y-115089397D01*
X141166498Y-115149735D01*
X141166503Y-115149737D01*
X141321153Y-115180499D01*
X141321156Y-115180500D01*
X141321158Y-115180500D01*
X141478844Y-115180500D01*
X141478845Y-115180499D01*
X141633497Y-115149737D01*
X141779179Y-115089394D01*
X141910289Y-115001789D01*
X142021789Y-114890289D01*
X142109394Y-114759179D01*
X142169737Y-114613497D01*
X142200500Y-114458842D01*
X142200500Y-114301158D01*
X142200500Y-114301155D01*
X142200499Y-114301153D01*
X142186508Y-114230816D01*
X142169737Y-114146503D01*
X142169735Y-114146498D01*
X142109397Y-114000827D01*
X142109390Y-114000814D01*
X142021789Y-113869711D01*
X142021786Y-113869707D01*
X141910292Y-113758213D01*
X141910288Y-113758210D01*
X141779185Y-113670609D01*
X141779172Y-113670602D01*
X141633501Y-113610264D01*
X141633489Y-113610261D01*
X141478845Y-113579500D01*
X141478842Y-113579500D01*
X141321158Y-113579500D01*
X141321155Y-113579500D01*
X141166510Y-113610261D01*
X141166498Y-113610264D01*
X141020827Y-113670602D01*
X141020814Y-113670609D01*
X140889711Y-113758210D01*
X140889707Y-113758213D01*
X140778213Y-113869707D01*
X140778210Y-113869711D01*
X140690609Y-114000814D01*
X140690602Y-114000827D01*
X140630264Y-114146498D01*
X140630261Y-114146510D01*
X140599500Y-114301153D01*
X137126195Y-114301153D01*
X137140186Y-114230816D01*
X137160500Y-114128693D01*
X137160500Y-113951306D01*
X137160499Y-113951304D01*
X137125896Y-113777341D01*
X137125893Y-113777332D01*
X137058016Y-113613459D01*
X137058014Y-113613455D01*
X137058013Y-113613453D01*
X137055882Y-113610264D01*
X136971442Y-113483891D01*
X136950564Y-113417214D01*
X136969048Y-113349834D01*
X136971442Y-113346109D01*
X136987352Y-113322296D01*
X137058013Y-113216547D01*
X137125894Y-113052666D01*
X137135435Y-113004704D01*
X137154502Y-112908846D01*
X137160500Y-112878691D01*
X137160500Y-112751153D01*
X142169500Y-112751153D01*
X142169500Y-112908846D01*
X142200261Y-113063489D01*
X142200264Y-113063501D01*
X142260602Y-113209172D01*
X142260609Y-113209185D01*
X142348210Y-113340288D01*
X142348213Y-113340292D01*
X142459707Y-113451786D01*
X142459711Y-113451789D01*
X142590814Y-113539390D01*
X142590827Y-113539397D01*
X142736498Y-113599735D01*
X142736503Y-113599737D01*
X142881093Y-113628498D01*
X142891153Y-113630499D01*
X142891156Y-113630500D01*
X142976878Y-113630500D01*
X143043917Y-113650185D01*
X143089672Y-113702989D01*
X143091439Y-113707048D01*
X143100606Y-113729179D01*
X143100607Y-113729182D01*
X143188210Y-113860288D01*
X143188213Y-113860292D01*
X143272096Y-113944175D01*
X143305581Y-114005498D01*
X143300597Y-114075190D01*
X143287518Y-114100746D01*
X143200608Y-114230816D01*
X143200602Y-114230827D01*
X143140264Y-114376498D01*
X143140261Y-114376510D01*
X143109500Y-114531153D01*
X143109500Y-114688846D01*
X143140261Y-114843489D01*
X143140264Y-114843501D01*
X143200602Y-114989172D01*
X143200609Y-114989185D01*
X143288210Y-115120288D01*
X143288213Y-115120292D01*
X143399707Y-115231786D01*
X143399711Y-115231789D01*
X143530814Y-115319390D01*
X143530827Y-115319397D01*
X143676498Y-115379735D01*
X143676503Y-115379737D01*
X143831153Y-115410499D01*
X143831156Y-115410500D01*
X143831158Y-115410500D01*
X143988844Y-115410500D01*
X143988845Y-115410499D01*
X144143497Y-115379737D01*
X144289179Y-115319394D01*
X144420289Y-115231789D01*
X144531789Y-115120289D01*
X144619394Y-114989179D01*
X144679737Y-114843497D01*
X144710500Y-114688842D01*
X144710500Y-114531158D01*
X144710500Y-114531155D01*
X144710499Y-114531153D01*
X144704139Y-114499179D01*
X144679737Y-114376503D01*
X144670208Y-114353497D01*
X144619397Y-114230827D01*
X144619390Y-114230814D01*
X144531789Y-114099711D01*
X144531786Y-114099707D01*
X144447903Y-114015824D01*
X144414418Y-113954501D01*
X144419402Y-113884809D01*
X144432482Y-113859252D01*
X144519390Y-113729185D01*
X144519392Y-113729182D01*
X144519394Y-113729179D01*
X144579737Y-113583497D01*
X144610500Y-113428842D01*
X144610500Y-113271158D01*
X144610500Y-113271155D01*
X144610499Y-113271153D01*
X144598173Y-113209185D01*
X144579737Y-113116503D01*
X144575269Y-113105717D01*
X144519397Y-112970827D01*
X144519390Y-112970814D01*
X144431789Y-112839711D01*
X144431786Y-112839707D01*
X144320292Y-112728213D01*
X144320288Y-112728210D01*
X144189185Y-112640609D01*
X144189172Y-112640602D01*
X144043501Y-112580264D01*
X144043489Y-112580261D01*
X143888845Y-112549500D01*
X143888842Y-112549500D01*
X143803122Y-112549500D01*
X143736083Y-112529815D01*
X143690328Y-112477011D01*
X143688561Y-112472952D01*
X143679397Y-112450828D01*
X143679396Y-112450827D01*
X143679394Y-112450821D01*
X143668167Y-112434019D01*
X143591789Y-112319710D01*
X143480292Y-112208213D01*
X143480288Y-112208210D01*
X143349185Y-112120609D01*
X143349172Y-112120602D01*
X143203501Y-112060264D01*
X143203489Y-112060261D01*
X143048845Y-112029500D01*
X143048842Y-112029500D01*
X142891158Y-112029500D01*
X142891155Y-112029500D01*
X142736510Y-112060261D01*
X142736498Y-112060264D01*
X142590827Y-112120602D01*
X142590814Y-112120609D01*
X142459711Y-112208210D01*
X142459707Y-112208213D01*
X142348213Y-112319707D01*
X142348210Y-112319711D01*
X142260609Y-112450814D01*
X142260602Y-112450827D01*
X142200264Y-112596498D01*
X142200261Y-112596510D01*
X142169500Y-112751153D01*
X137160500Y-112751153D01*
X137160500Y-112701309D01*
X137160500Y-112701306D01*
X137160499Y-112701304D01*
X137125896Y-112527341D01*
X137125893Y-112527332D01*
X137058016Y-112363459D01*
X137058014Y-112363455D01*
X137058013Y-112363453D01*
X136971140Y-112233440D01*
X136950263Y-112166764D01*
X136968747Y-112099384D01*
X136971141Y-112095659D01*
X137057566Y-111966315D01*
X137057571Y-111966306D01*
X137096986Y-111871153D01*
X148629500Y-111871153D01*
X148629500Y-112028846D01*
X148660261Y-112183489D01*
X148660264Y-112183501D01*
X148720602Y-112329172D01*
X148720609Y-112329185D01*
X148808210Y-112460288D01*
X148808213Y-112460292D01*
X148919707Y-112571786D01*
X148919711Y-112571789D01*
X149050814Y-112659390D01*
X149050827Y-112659397D01*
X149192534Y-112718093D01*
X149196503Y-112719737D01*
X149339842Y-112748249D01*
X149351153Y-112750499D01*
X149351156Y-112750500D01*
X149351158Y-112750500D01*
X149508844Y-112750500D01*
X149508845Y-112750499D01*
X149663497Y-112719737D01*
X149809179Y-112659394D01*
X149940289Y-112571789D01*
X150051789Y-112460289D01*
X150139394Y-112329179D01*
X150199737Y-112183497D01*
X150230500Y-112028842D01*
X150230500Y-111871158D01*
X150230500Y-111871155D01*
X150230499Y-111871153D01*
X150219849Y-111817613D01*
X150199737Y-111716503D01*
X150156100Y-111611153D01*
X150139397Y-111570827D01*
X150139390Y-111570814D01*
X150051789Y-111439711D01*
X150051786Y-111439707D01*
X149940292Y-111328213D01*
X149940288Y-111328210D01*
X149809185Y-111240609D01*
X149809172Y-111240602D01*
X149663501Y-111180264D01*
X149663489Y-111180261D01*
X149508845Y-111149500D01*
X149508842Y-111149500D01*
X149351158Y-111149500D01*
X149351155Y-111149500D01*
X149196510Y-111180261D01*
X149196498Y-111180264D01*
X149050827Y-111240602D01*
X149050814Y-111240609D01*
X148919711Y-111328210D01*
X148919707Y-111328213D01*
X148808213Y-111439707D01*
X148808210Y-111439711D01*
X148720609Y-111570814D01*
X148720602Y-111570827D01*
X148660264Y-111716498D01*
X148660261Y-111716510D01*
X148629500Y-111871153D01*
X137096986Y-111871153D01*
X137119163Y-111817613D01*
X137125412Y-111802523D01*
X137125415Y-111802516D01*
X137127904Y-111790000D01*
X136059728Y-111790000D01*
X136151614Y-111751940D01*
X136221940Y-111681614D01*
X136260000Y-111589728D01*
X136260000Y-111490272D01*
X136221940Y-111398386D01*
X136151614Y-111328060D01*
X136059728Y-111290000D01*
X137127904Y-111290000D01*
X137125415Y-111277483D01*
X137125412Y-111277476D01*
X137057571Y-111113693D01*
X137057566Y-111113683D01*
X136971141Y-110984340D01*
X136950263Y-110917663D01*
X136968747Y-110850283D01*
X136971129Y-110846576D01*
X137058013Y-110716547D01*
X137125894Y-110552666D01*
X137127720Y-110543489D01*
X137160499Y-110378695D01*
X137160500Y-110378693D01*
X137160500Y-110201306D01*
X137160499Y-110201304D01*
X137125896Y-110027341D01*
X137125893Y-110027332D01*
X137058016Y-109863459D01*
X137058009Y-109863446D01*
X136959464Y-109715965D01*
X136959461Y-109715961D01*
X136834038Y-109590538D01*
X136834034Y-109590535D01*
X136686553Y-109491990D01*
X136686540Y-109491983D01*
X136522667Y-109424106D01*
X136522658Y-109424103D01*
X136348694Y-109389500D01*
X136348691Y-109389500D01*
X135671309Y-109389500D01*
X135671306Y-109389500D01*
X135497341Y-109424103D01*
X135497332Y-109424106D01*
X135333459Y-109491983D01*
X135333446Y-109491990D01*
X135185965Y-109590535D01*
X135185961Y-109590538D01*
X135060538Y-109715961D01*
X135060535Y-109715965D01*
X134961990Y-109863446D01*
X134961983Y-109863459D01*
X134894106Y-110027332D01*
X134894103Y-110027341D01*
X134859500Y-110201304D01*
X133868118Y-110201304D01*
X133868897Y-109672011D01*
X133888680Y-109605005D01*
X133941552Y-109559328D01*
X133968697Y-109550583D01*
X134073497Y-109529737D01*
X134219179Y-109469394D01*
X134350289Y-109381789D01*
X134461789Y-109270289D01*
X134549394Y-109139179D01*
X134609737Y-108993497D01*
X134640500Y-108838842D01*
X134640500Y-108681158D01*
X134640500Y-108681155D01*
X134640499Y-108681153D01*
X134628565Y-108621158D01*
X134609737Y-108526503D01*
X134595357Y-108491786D01*
X134549397Y-108380827D01*
X134549390Y-108380814D01*
X134461789Y-108249711D01*
X134461786Y-108249707D01*
X134350292Y-108138213D01*
X134350288Y-108138210D01*
X134219185Y-108050609D01*
X134219172Y-108050602D01*
X134073501Y-107990264D01*
X134073491Y-107990261D01*
X133971390Y-107969952D01*
X133943174Y-107955192D01*
X133914242Y-107941928D01*
X133912440Y-107939116D01*
X133909479Y-107937567D01*
X133893718Y-107909889D01*
X133876554Y-107883095D01*
X133875918Y-107878631D01*
X133874905Y-107876851D01*
X133871582Y-107848158D01*
X133871813Y-107691153D01*
X142149500Y-107691153D01*
X142149500Y-107848846D01*
X142180261Y-108003489D01*
X142180264Y-108003501D01*
X142240602Y-108149171D01*
X142240608Y-108149182D01*
X142272508Y-108196924D01*
X142293385Y-108263602D01*
X142281140Y-108314448D01*
X142282937Y-108315193D01*
X142220264Y-108466498D01*
X142220261Y-108466510D01*
X142189500Y-108621153D01*
X142189500Y-108778846D01*
X142220261Y-108933489D01*
X142220264Y-108933501D01*
X142280602Y-109079172D01*
X142280609Y-109079185D01*
X142368210Y-109210288D01*
X142368213Y-109210292D01*
X142479707Y-109321786D01*
X142479711Y-109321789D01*
X142610814Y-109409390D01*
X142610827Y-109409397D01*
X142755665Y-109469390D01*
X142756503Y-109469737D01*
X142868361Y-109491987D01*
X142911153Y-109500499D01*
X142911156Y-109500500D01*
X142911158Y-109500500D01*
X143068844Y-109500500D01*
X143068845Y-109500499D01*
X143223497Y-109469737D01*
X143369179Y-109409394D01*
X143500289Y-109321789D01*
X143611789Y-109210289D01*
X143699394Y-109079179D01*
X143759737Y-108933497D01*
X143790500Y-108778842D01*
X143790500Y-108621158D01*
X143790500Y-108621155D01*
X143790499Y-108621153D01*
X143759739Y-108466510D01*
X143759735Y-108466498D01*
X143749237Y-108441153D01*
X145599500Y-108441153D01*
X145599500Y-108598846D01*
X145630261Y-108753489D01*
X145630264Y-108753501D01*
X145690602Y-108899172D01*
X145690609Y-108899185D01*
X145778210Y-109030288D01*
X145778213Y-109030292D01*
X145889707Y-109141786D01*
X145889711Y-109141789D01*
X146020814Y-109229390D01*
X146020827Y-109229397D01*
X146166498Y-109289735D01*
X146166503Y-109289737D01*
X146321153Y-109320499D01*
X146321156Y-109320500D01*
X146321158Y-109320500D01*
X146478844Y-109320500D01*
X146478845Y-109320499D01*
X146633497Y-109289737D01*
X146779179Y-109229394D01*
X146910289Y-109141789D01*
X147021789Y-109030289D01*
X147109394Y-108899179D01*
X147169737Y-108753497D01*
X147200500Y-108598842D01*
X147200500Y-108441158D01*
X147200500Y-108441155D01*
X147200499Y-108441153D01*
X147188188Y-108379257D01*
X147184587Y-108361153D01*
X148119500Y-108361153D01*
X148119500Y-108518846D01*
X148150261Y-108673489D01*
X148150264Y-108673501D01*
X148210602Y-108819172D01*
X148210609Y-108819185D01*
X148298210Y-108950288D01*
X148298213Y-108950292D01*
X148409707Y-109061786D01*
X148409711Y-109061789D01*
X148540814Y-109149390D01*
X148540827Y-109149397D01*
X148686498Y-109209735D01*
X148686503Y-109209737D01*
X148841153Y-109240499D01*
X148841156Y-109240500D01*
X148841158Y-109240500D01*
X148998844Y-109240500D01*
X148998845Y-109240499D01*
X149153497Y-109209737D01*
X149299179Y-109149394D01*
X149430289Y-109061789D01*
X149541789Y-108950289D01*
X149629394Y-108819179D01*
X149689737Y-108673497D01*
X149720500Y-108518842D01*
X149720500Y-108361158D01*
X149720500Y-108361155D01*
X149720499Y-108361153D01*
X149712784Y-108322369D01*
X149689737Y-108206503D01*
X149668635Y-108155557D01*
X149629397Y-108060827D01*
X149629390Y-108060814D01*
X149541789Y-107929711D01*
X149541786Y-107929707D01*
X149430292Y-107818213D01*
X149430288Y-107818210D01*
X149299185Y-107730609D01*
X149299172Y-107730602D01*
X149153501Y-107670264D01*
X149153489Y-107670261D01*
X148998845Y-107639500D01*
X148998842Y-107639500D01*
X148841158Y-107639500D01*
X148841155Y-107639500D01*
X148686510Y-107670261D01*
X148686498Y-107670264D01*
X148540827Y-107730602D01*
X148540814Y-107730609D01*
X148409711Y-107818210D01*
X148409707Y-107818213D01*
X148298213Y-107929707D01*
X148298210Y-107929711D01*
X148210609Y-108060814D01*
X148210602Y-108060827D01*
X148150264Y-108206498D01*
X148150261Y-108206510D01*
X148119500Y-108361153D01*
X147184587Y-108361153D01*
X147169738Y-108286508D01*
X147169737Y-108286507D01*
X147169737Y-108286503D01*
X147154910Y-108250706D01*
X147109397Y-108140827D01*
X147109390Y-108140814D01*
X147021789Y-108009711D01*
X147021786Y-108009707D01*
X146910292Y-107898213D01*
X146910288Y-107898210D01*
X146779185Y-107810609D01*
X146779172Y-107810602D01*
X146633501Y-107750264D01*
X146633489Y-107750261D01*
X146478845Y-107719500D01*
X146478842Y-107719500D01*
X146321158Y-107719500D01*
X146321155Y-107719500D01*
X146166510Y-107750261D01*
X146166498Y-107750264D01*
X146020827Y-107810602D01*
X146020814Y-107810609D01*
X145889711Y-107898210D01*
X145889707Y-107898213D01*
X145778213Y-108009707D01*
X145778210Y-108009711D01*
X145690609Y-108140814D01*
X145690602Y-108140827D01*
X145630264Y-108286498D01*
X145630261Y-108286510D01*
X145599500Y-108441153D01*
X143749237Y-108441153D01*
X143699397Y-108320828D01*
X143699396Y-108320827D01*
X143699394Y-108320821D01*
X143667491Y-108273075D01*
X143646614Y-108206400D01*
X143658873Y-108155557D01*
X143657063Y-108154808D01*
X143717163Y-108009711D01*
X143719737Y-108003497D01*
X143750500Y-107848842D01*
X143750500Y-107691158D01*
X143750500Y-107691155D01*
X143750499Y-107691153D01*
X143746343Y-107670261D01*
X143719737Y-107536503D01*
X143718303Y-107533041D01*
X143659397Y-107390827D01*
X143659390Y-107390814D01*
X143571789Y-107259711D01*
X143571786Y-107259707D01*
X143460292Y-107148213D01*
X143460288Y-107148210D01*
X143329185Y-107060609D01*
X143329172Y-107060602D01*
X143183501Y-107000264D01*
X143183489Y-107000261D01*
X143028845Y-106969500D01*
X143028842Y-106969500D01*
X142871158Y-106969500D01*
X142871155Y-106969500D01*
X142716510Y-107000261D01*
X142716498Y-107000264D01*
X142570827Y-107060602D01*
X142570814Y-107060609D01*
X142439711Y-107148210D01*
X142439707Y-107148213D01*
X142328213Y-107259707D01*
X142328210Y-107259711D01*
X142240609Y-107390814D01*
X142240602Y-107390827D01*
X142180264Y-107536498D01*
X142180261Y-107536510D01*
X142149500Y-107691153D01*
X133871813Y-107691153D01*
X133879819Y-102252874D01*
X133899602Y-102185865D01*
X133952474Y-102140188D01*
X134002871Y-102129062D01*
X135074590Y-102120880D01*
X135141775Y-102140052D01*
X135187932Y-102192505D01*
X135198403Y-102261586D01*
X135182078Y-102304697D01*
X135183479Y-102305446D01*
X135180602Y-102310827D01*
X135120264Y-102456498D01*
X135120261Y-102456510D01*
X135089500Y-102611153D01*
X135089500Y-102768846D01*
X135120261Y-102923489D01*
X135120264Y-102923501D01*
X135180602Y-103069172D01*
X135180609Y-103069185D01*
X135268210Y-103200288D01*
X135268213Y-103200292D01*
X135379707Y-103311786D01*
X135379711Y-103311789D01*
X135510814Y-103399390D01*
X135510827Y-103399397D01*
X135656498Y-103459735D01*
X135656503Y-103459737D01*
X135811153Y-103490499D01*
X135811156Y-103490500D01*
X135811158Y-103490500D01*
X135968844Y-103490500D01*
X135968845Y-103490499D01*
X136123497Y-103459737D01*
X136269179Y-103399394D01*
X136400289Y-103311789D01*
X136511789Y-103200289D01*
X136599394Y-103069179D01*
X136659737Y-102923497D01*
X136690500Y-102768842D01*
X136690500Y-102611158D01*
X136690500Y-102611155D01*
X136690499Y-102611153D01*
X136682193Y-102569397D01*
X136659737Y-102456503D01*
X136649099Y-102430821D01*
X136599397Y-102310827D01*
X136599392Y-102310818D01*
X136599043Y-102310296D01*
X136593096Y-102301396D01*
X136572218Y-102234720D01*
X136590701Y-102167339D01*
X136642679Y-102120648D01*
X136695244Y-102108509D01*
X141477557Y-102072003D01*
X141544744Y-102091175D01*
X141590901Y-102143628D01*
X141593064Y-102148546D01*
X141630604Y-102239175D01*
X141630609Y-102239185D01*
X141718210Y-102370288D01*
X141718213Y-102370292D01*
X141829707Y-102481786D01*
X141829711Y-102481789D01*
X141960814Y-102569390D01*
X141960827Y-102569397D01*
X142082363Y-102619738D01*
X142106503Y-102629737D01*
X142261153Y-102660499D01*
X142261156Y-102660500D01*
X142261158Y-102660500D01*
X142418844Y-102660500D01*
X142418845Y-102660499D01*
X142573497Y-102629737D01*
X142719179Y-102569394D01*
X142850289Y-102481789D01*
X142961789Y-102370289D01*
X143049394Y-102239179D01*
X143049396Y-102239175D01*
X143049397Y-102239173D01*
X143092400Y-102135352D01*
X143136240Y-102080948D01*
X143202534Y-102058883D01*
X143205938Y-102058809D01*
X150034645Y-102006682D01*
X150101830Y-102025853D01*
G37*
%TD.AperFunction*%
%TD*%
M02*
