%TF.GenerationSoftware,KiCad,Pcbnew,9.0.2-9.0.2-0~ubuntu22.04.1*%
%TF.CreationDate,2025-07-24T10:37:48-04:00*%
%TF.ProjectId,jarvis,6a617276-6973-42e6-9b69-6361645f7063,rev?*%
%TF.SameCoordinates,Original*%
%TF.FileFunction,Soldermask,Bot*%
%TF.FilePolarity,Negative*%
%FSLAX46Y46*%
G04 Gerber Fmt 4.6, Leading zero omitted, Abs format (unit mm)*
G04 Created by KiCad (PCBNEW 9.0.2-9.0.2-0~ubuntu22.04.1) date 2025-07-24 10:37:48*
%MOMM*%
%LPD*%
G01*
G04 APERTURE LIST*
G04 Aperture macros list*
%AMRoundRect*
0 Rectangle with rounded corners*
0 $1 Rounding radius*
0 $2 $3 $4 $5 $6 $7 $8 $9 X,Y pos of 4 corners*
0 Add a 4 corners polygon primitive as box body*
4,1,4,$2,$3,$4,$5,$6,$7,$8,$9,$2,$3,0*
0 Add four circle primitives for the rounded corners*
1,1,$1+$1,$2,$3*
1,1,$1+$1,$4,$5*
1,1,$1+$1,$6,$7*
1,1,$1+$1,$8,$9*
0 Add four rect primitives between the rounded corners*
20,1,$1+$1,$2,$3,$4,$5,0*
20,1,$1+$1,$4,$5,$6,$7,0*
20,1,$1+$1,$6,$7,$8,$9,0*
20,1,$1+$1,$8,$9,$2,$3,0*%
G04 Aperture macros list end*
%ADD10C,0.387500*%
%ADD11RoundRect,0.200000X0.450000X-0.200000X0.450000X0.200000X-0.450000X0.200000X-0.450000X-0.200000X0*%
%ADD12O,1.300000X0.800000*%
%ADD13O,2.652400X1.452400*%
%ADD14O,3.352400X1.452400*%
G04 APERTURE END LIST*
D10*
%TO.C,U2*%
X176463750Y-120280000D02*
G75*
G02*
X176076250Y-120280000I-193750J0D01*
G01*
X176076250Y-120280000D02*
G75*
G02*
X176463750Y-120280000I193750J0D01*
G01*
X176463750Y-121130000D02*
G75*
G02*
X176076250Y-121130000I-193750J0D01*
G01*
X176076250Y-121130000D02*
G75*
G02*
X176463750Y-121130000I193750J0D01*
G01*
X176463750Y-121980000D02*
G75*
G02*
X176076250Y-121980000I-193750J0D01*
G01*
X176076250Y-121980000D02*
G75*
G02*
X176463750Y-121980000I193750J0D01*
G01*
X176463750Y-122830000D02*
G75*
G02*
X176076250Y-122830000I-193750J0D01*
G01*
X176076250Y-122830000D02*
G75*
G02*
X176463750Y-122830000I193750J0D01*
G01*
X176463750Y-123680000D02*
G75*
G02*
X176076250Y-123680000I-193750J0D01*
G01*
X176076250Y-123680000D02*
G75*
G02*
X176463750Y-123680000I193750J0D01*
G01*
X176463750Y-124530000D02*
G75*
G02*
X176076250Y-124530000I-193750J0D01*
G01*
X176076250Y-124530000D02*
G75*
G02*
X176463750Y-124530000I193750J0D01*
G01*
X176463750Y-125380000D02*
G75*
G02*
X176076250Y-125380000I-193750J0D01*
G01*
X176076250Y-125380000D02*
G75*
G02*
X176463750Y-125380000I193750J0D01*
G01*
X176463750Y-126230000D02*
G75*
G02*
X176076250Y-126230000I-193750J0D01*
G01*
X176076250Y-126230000D02*
G75*
G02*
X176463750Y-126230000I193750J0D01*
G01*
X177813750Y-120280000D02*
G75*
G02*
X177426250Y-120280000I-193750J0D01*
G01*
X177426250Y-120280000D02*
G75*
G02*
X177813750Y-120280000I193750J0D01*
G01*
X177813750Y-121130000D02*
G75*
G02*
X177426250Y-121130000I-193750J0D01*
G01*
X177426250Y-121130000D02*
G75*
G02*
X177813750Y-121130000I193750J0D01*
G01*
X177813750Y-121980000D02*
G75*
G02*
X177426250Y-121980000I-193750J0D01*
G01*
X177426250Y-121980000D02*
G75*
G02*
X177813750Y-121980000I193750J0D01*
G01*
X177813750Y-122830000D02*
G75*
G02*
X177426250Y-122830000I-193750J0D01*
G01*
X177426250Y-122830000D02*
G75*
G02*
X177813750Y-122830000I193750J0D01*
G01*
X177813750Y-123680000D02*
G75*
G02*
X177426250Y-123680000I-193750J0D01*
G01*
X177426250Y-123680000D02*
G75*
G02*
X177813750Y-123680000I193750J0D01*
G01*
X177813750Y-124530000D02*
G75*
G02*
X177426250Y-124530000I-193750J0D01*
G01*
X177426250Y-124530000D02*
G75*
G02*
X177813750Y-124530000I193750J0D01*
G01*
X177813750Y-125380000D02*
G75*
G02*
X177426250Y-125380000I-193750J0D01*
G01*
X177426250Y-125380000D02*
G75*
G02*
X177813750Y-125380000I193750J0D01*
G01*
X177813750Y-126230000D02*
G75*
G02*
X177426250Y-126230000I-193750J0D01*
G01*
X177426250Y-126230000D02*
G75*
G02*
X177813750Y-126230000I193750J0D01*
G01*
%TD*%
D11*
%TO.C,J2*%
X136010000Y-115290000D03*
D12*
X136010000Y-114040000D03*
X136010000Y-112790000D03*
X136010000Y-111540000D03*
X136010000Y-110290000D03*
%TD*%
D11*
%TO.C,J1*%
X136040000Y-120685000D03*
D12*
X136040000Y-119435000D03*
%TD*%
D11*
%TO.C,J3*%
X136020000Y-125995000D03*
D12*
X136020000Y-124745000D03*
%TD*%
D13*
%TO.C,U2*%
X180920000Y-127575000D03*
X180920000Y-118935000D03*
D14*
X176770000Y-127575000D03*
X176770000Y-118935000D03*
%TD*%
M02*
