%TF.GenerationSoftware,KiCad,Pcbnew,9.0.2-9.0.2-0~ubuntu22.04.1*%
%TF.CreationDate,2025-07-24T10:37:48-04:00*%
%TF.ProjectId,jarvis,6a617276-6973-42e6-9b69-6361645f7063,rev?*%
%TF.SameCoordinates,Original*%
%TF.FileFunction,Copper,L4,Bot*%
%TF.FilePolarity,Positive*%
%FSLAX46Y46*%
G04 Gerber Fmt 4.6, Leading zero omitted, Abs format (unit mm)*
G04 Created by KiCad (PCBNEW 9.0.2-9.0.2-0~ubuntu22.04.1) date 2025-07-24 10:37:48*
%MOMM*%
%LPD*%
G01*
G04 APERTURE LIST*
G04 Aperture macros list*
%AMRoundRect*
0 Rectangle with rounded corners*
0 $1 Rounding radius*
0 $2 $3 $4 $5 $6 $7 $8 $9 X,Y pos of 4 corners*
0 Add a 4 corners polygon primitive as box body*
4,1,4,$2,$3,$4,$5,$6,$7,$8,$9,$2,$3,0*
0 Add four circle primitives for the rounded corners*
1,1,$1+$1,$2,$3*
1,1,$1+$1,$4,$5*
1,1,$1+$1,$6,$7*
1,1,$1+$1,$8,$9*
0 Add four rect primitives between the rounded corners*
20,1,$1+$1,$2,$3,$4,$5,0*
20,1,$1+$1,$4,$5,$6,$7,0*
20,1,$1+$1,$6,$7,$8,$9,0*
20,1,$1+$1,$8,$9,$2,$3,0*%
%AMFreePoly0*
4,1,121,0.057437,0.323981,0.058316,0.323824,0.113316,0.308824,0.114166,0.308506,0.166166,0.283506,0.166873,0.283092,0.213873,0.250092,0.214579,0.249492,0.254579,0.208492,0.255133,0.207814,0.287133,0.160814,0.287573,0.160023,0.310573,0.108023,0.310851,0.107213,0.324851,0.051213,0.324988,0.050350,0.328988,-0.006650,0.328973,-0.007523,0.322973,-0.064523,0.322801,-0.065397,
0.306801,-0.120397,0.306455,-0.121271,0.280455,-0.172271,0.280021,-0.172972,0.246021,-0.218972,0.245402,-0.219664,0.203402,-0.258664,0.202695,-0.259211,0.155000,-0.289735,0.155000,-1.060082,0.202707,-1.090796,0.203402,-1.091336,0.245402,-1.130336,0.246021,-1.131028,0.280021,-1.177028,0.280455,-1.177729,0.306455,-1.228729,0.306801,-1.229603,0.322801,-1.284603,0.322973,-1.285477,
0.328973,-1.342477,0.328988,-1.343350,0.324988,-1.400350,0.324851,-1.401213,0.310851,-1.457213,0.310573,-1.458023,0.287573,-1.510023,0.287133,-1.510814,0.255133,-1.557814,0.254579,-1.558492,0.214579,-1.599492,0.213873,-1.600092,0.166873,-1.633092,0.166166,-1.633506,0.114166,-1.658506,0.113316,-1.658824,0.058316,-1.673824,0.057437,-1.673981,0.000437,-1.678981,-0.000437,-1.678981,
-0.057437,-1.673981,-0.058316,-1.673824,-0.113316,-1.658824,-0.114166,-1.658506,-0.166166,-1.633506,-0.166873,-1.633092,-0.213873,-1.600092,-0.214579,-1.599492,-0.254579,-1.558492,-0.255133,-1.557814,-0.287133,-1.510814,-0.287573,-1.510023,-0.310573,-1.458023,-0.310851,-1.457213,-0.324851,-1.401213,-0.324988,-1.400350,-0.328988,-1.343350,-0.328973,-1.342477,-0.322973,-1.285477,-0.322801,-1.284603,
-0.306801,-1.229603,-0.306455,-1.228729,-0.280455,-1.177729,-0.280021,-1.177028,-0.246021,-1.131028,-0.245402,-1.130336,-0.203402,-1.091336,-0.202695,-1.090789,-0.155000,-1.060264,-0.155000,-0.289735,-0.202695,-0.259211,-0.203402,-0.258664,-0.245402,-0.219664,-0.246021,-0.218972,-0.280021,-0.172972,-0.280455,-0.172271,-0.306455,-0.121271,-0.306801,-0.120397,-0.322801,-0.065397,-0.322973,-0.064523,
-0.328973,-0.007523,-0.328988,-0.006650,-0.324988,0.050350,-0.324851,0.051213,-0.310851,0.107213,-0.310573,0.108023,-0.287573,0.160023,-0.287133,0.160814,-0.255133,0.207814,-0.254579,0.208492,-0.214579,0.249492,-0.213873,0.250092,-0.166873,0.283092,-0.166166,0.283506,-0.114166,0.308506,-0.113316,0.308824,-0.058316,0.323824,-0.057437,0.323981,-0.000437,0.328981,0.000437,0.328981,
0.057437,0.323981,0.057437,0.323981,$1*%
%AMFreePoly1*
4,1,121,0.057437,0.323981,0.058316,0.323824,0.113316,0.308824,0.114166,0.308506,0.166166,0.283506,0.166873,0.283092,0.213873,0.250092,0.214579,0.249492,0.254579,0.208492,0.255133,0.207814,0.287133,0.160814,0.287573,0.160023,0.310573,0.108023,0.310851,0.107213,0.324851,0.051213,0.324988,0.050350,0.328988,-0.006650,0.328973,-0.007523,0.322973,-0.064523,0.322801,-0.065397,
0.306801,-0.120397,0.306455,-0.121271,0.280455,-0.172271,0.280021,-0.172972,0.246021,-0.218972,0.245402,-0.219664,0.203402,-0.258664,0.202695,-0.259211,0.155000,-0.289735,0.155000,-1.060264,0.202695,-1.090789,0.203402,-1.091336,0.245402,-1.130336,0.246021,-1.131028,0.280021,-1.177028,0.280455,-1.177729,0.306455,-1.228729,0.306801,-1.229603,0.322801,-1.284603,0.322973,-1.285477,
0.328973,-1.342477,0.328988,-1.343350,0.324988,-1.400350,0.324851,-1.401213,0.310851,-1.457213,0.310573,-1.458023,0.287573,-1.510023,0.287133,-1.510814,0.255133,-1.557814,0.254579,-1.558492,0.214579,-1.599492,0.213873,-1.600092,0.166873,-1.633092,0.166166,-1.633506,0.114166,-1.658506,0.113316,-1.658824,0.058316,-1.673824,0.057437,-1.673981,0.000437,-1.678981,-0.000437,-1.678981,
-0.057437,-1.673981,-0.058316,-1.673824,-0.113316,-1.658824,-0.114166,-1.658506,-0.166166,-1.633506,-0.166873,-1.633092,-0.213873,-1.600092,-0.214579,-1.599492,-0.254579,-1.558492,-0.255133,-1.557814,-0.287133,-1.510814,-0.287573,-1.510023,-0.310573,-1.458023,-0.310851,-1.457213,-0.324851,-1.401213,-0.324988,-1.400350,-0.328988,-1.343350,-0.328973,-1.342477,-0.322973,-1.285477,-0.322801,-1.284603,
-0.306801,-1.229603,-0.306455,-1.228729,-0.280455,-1.177729,-0.280021,-1.177028,-0.246021,-1.131028,-0.245402,-1.130336,-0.203402,-1.091336,-0.202695,-1.090789,-0.155000,-1.060264,-0.155000,-0.289735,-0.202695,-0.259211,-0.203402,-0.258664,-0.245402,-0.219664,-0.246021,-0.218972,-0.280021,-0.172972,-0.280455,-0.172271,-0.306455,-0.121271,-0.306801,-0.120397,-0.322801,-0.065397,-0.322973,-0.064523,
-0.328973,-0.007523,-0.328988,-0.006650,-0.324988,0.050350,-0.324851,0.051213,-0.310851,0.107213,-0.310573,0.108023,-0.287573,0.160023,-0.287133,0.160814,-0.255133,0.207814,-0.254579,0.208492,-0.214579,0.249492,-0.213873,0.250092,-0.166873,0.283092,-0.166166,0.283506,-0.114166,0.308506,-0.113316,0.308824,-0.058316,0.323824,-0.057437,0.323981,-0.000437,0.328981,0.000437,0.328981,
0.057437,0.323981,0.057437,0.323981,$1*%
G04 Aperture macros list end*
%TA.AperFunction,ComponentPad*%
%ADD10RoundRect,0.200000X0.450000X-0.200000X0.450000X0.200000X-0.450000X0.200000X-0.450000X-0.200000X0*%
%TD*%
%TA.AperFunction,ComponentPad*%
%ADD11O,1.300000X0.800000*%
%TD*%
%TA.AperFunction,ComponentPad*%
%ADD12FreePoly0,90.000000*%
%TD*%
%TA.AperFunction,ComponentPad*%
%ADD13C,0.648000*%
%TD*%
%TA.AperFunction,ComponentPad*%
%ADD14FreePoly1,90.000000*%
%TD*%
%TA.AperFunction,ComponentPad*%
%ADD15O,2.500000X1.300000*%
%TD*%
%TA.AperFunction,ComponentPad*%
%ADD16O,3.200000X1.300000*%
%TD*%
%TA.AperFunction,ViaPad*%
%ADD17C,0.600000*%
%TD*%
%TA.AperFunction,Conductor*%
%ADD18C,0.300000*%
%TD*%
%TA.AperFunction,Conductor*%
%ADD19C,0.200000*%
%TD*%
%TA.AperFunction,Conductor*%
%ADD20C,0.400000*%
%TD*%
G04 APERTURE END LIST*
D10*
%TO.P,J2,1,Pin_1*%
%TO.N,/Components/MIC-DATA*%
X136010000Y-115290000D03*
D11*
%TO.P,J2,2,Pin_2*%
%TO.N,/Components/MIC-WS*%
X136010000Y-114040000D03*
%TO.P,J2,3,Pin_3*%
%TO.N,/Components/MIC-BCK*%
X136010000Y-112790000D03*
%TO.P,J2,4,Pin_4*%
%TO.N,+3.3V*%
X136010000Y-111540000D03*
%TO.P,J2,5,Pin_5*%
%TO.N,GND*%
X136010000Y-110290000D03*
%TD*%
D10*
%TO.P,J1,1,Pin_1*%
%TO.N,Net-(IC2-OUTN)*%
X136040000Y-120685000D03*
D11*
%TO.P,J1,2,Pin_2*%
%TO.N,Net-(IC2-OUTP)*%
X136040000Y-119435000D03*
%TD*%
D10*
%TO.P,J3,1,Pin_1*%
%TO.N,/Power/VBAT_1*%
X136020000Y-125995000D03*
D11*
%TO.P,J3,2,Pin_2*%
%TO.N,GND*%
X136020000Y-124745000D03*
%TD*%
D12*
%TO.P,U2,A1,GND1*%
%TO.N,GND*%
X176270000Y-126230000D03*
%TO.P,U2,A4,VBUS1*%
%TO.N,/Power/VBUS*%
X176270000Y-125380000D03*
D13*
%TO.P,U2,A5,CC1*%
%TO.N,Net-(U2-CC1)*%
X176270000Y-124530000D03*
%TO.P,U2,A6,DA+*%
%TO.N,/Power/USB_DP*%
X176270000Y-123680000D03*
%TO.P,U2,A7,DA-*%
%TO.N,/Power/USB_DN*%
X176270000Y-122830000D03*
%TO.P,U2,A8,SBU1*%
%TO.N,unconnected-(U2-SBU1-PadA8)*%
X176270000Y-121980000D03*
D14*
%TO.P,U2,A9,VBUS2*%
%TO.N,/Power/VBUS*%
X176270000Y-121130000D03*
D12*
%TO.P,U2,A12,GND2*%
%TO.N,GND*%
X176270000Y-120280000D03*
D13*
%TO.P,U2,B1,GND3*%
X177620000Y-120280000D03*
%TO.P,U2,B4,VBUS3*%
%TO.N,/Power/VBUS*%
X177620000Y-121130000D03*
%TO.P,U2,B5,CC2*%
%TO.N,Net-(U2-CC2)*%
X177620000Y-121980000D03*
%TO.P,U2,B6,DB+*%
%TO.N,/Power/USB_DP*%
X177620000Y-122830000D03*
%TO.P,U2,B7,DB-*%
%TO.N,/Power/USB_DN*%
X177620000Y-123680000D03*
%TO.P,U2,B8,SBU2*%
%TO.N,unconnected-(U2-SBU2-PadB8)*%
X177620000Y-124530000D03*
%TO.P,U2,B9,VBUS4*%
%TO.N,/Power/VBUS*%
X177620000Y-125380000D03*
%TO.P,U2,B12,GND4*%
%TO.N,GND*%
X177620000Y-126230000D03*
D15*
%TO.P,U2,SH1,SHIELD1*%
X180920000Y-127575000D03*
%TO.P,U2,SH2,SHIELD2*%
X180920000Y-118935000D03*
D16*
%TO.P,U2,SH3,SHIELD3*%
X176770000Y-127575000D03*
%TO.P,U2,SH4,SHIELD4*%
X176770000Y-118935000D03*
%TD*%
D17*
%TO.N,Net-(IC1-GPIO18)*%
X161924067Y-118820499D03*
%TO.N,GND*%
X134820000Y-127870000D03*
%TO.N,+3.3V*%
X139440000Y-122290000D03*
X148230000Y-127430000D03*
X154510000Y-127730000D03*
X139440000Y-127530000D03*
%TO.N,/ESP/ESP-GPIO11*%
X149070000Y-127760000D03*
%TO.N,/ESP/ESP-GPIO10*%
X144570000Y-127810000D03*
%TO.N,GND*%
X174360000Y-128380000D03*
%TO.N,Net-(IC1-GPIO18)*%
X167490000Y-125200000D03*
%TO.N,Net-(IC1-GPIO17)*%
X168940000Y-125240000D03*
%TO.N,Net-(IC1-GPIO13)*%
X170370000Y-125340000D03*
%TO.N,/ESP/ESP-GPIO12*%
X157487042Y-118083920D03*
%TO.N,Net-(IC1-GPIO13)*%
X159300000Y-117510000D03*
%TO.N,Net-(IC1-GPIO17)*%
X161340000Y-118350000D03*
%TO.N,GND*%
X133840000Y-108760000D03*
X135890000Y-102690000D03*
%TO.N,Net-(IC1-GPIO0)*%
X142950000Y-107770000D03*
%TO.N,GND*%
X142340000Y-101860000D03*
X150920000Y-101850000D03*
%TO.N,Net-(IC1-GPIO0)*%
X156190000Y-112300000D03*
%TO.N,Net-(IC3-CE)*%
X150080000Y-121880000D03*
X144000000Y-118450000D03*
%TO.N,/Power/VBAT_1*%
X152610000Y-125210000D03*
%TO.N,/Power/VBUS*%
X150010000Y-126680000D03*
%TO.N,GND*%
X157420000Y-123430000D03*
X173290000Y-117390000D03*
X162430000Y-123590000D03*
X165310000Y-106080000D03*
X171540000Y-125400000D03*
X174520000Y-107270000D03*
X180500000Y-102090000D03*
X159680000Y-102280000D03*
X183200000Y-103110000D03*
X181070000Y-105970000D03*
X161610000Y-125410000D03*
X146140000Y-118120000D03*
X157590000Y-106760000D03*
X182360000Y-105860000D03*
X175080000Y-104770000D03*
X160660000Y-102110000D03*
X162606895Y-120520056D03*
X149430000Y-111950000D03*
X167450000Y-119440000D03*
X160480000Y-106110000D03*
X178680000Y-105760000D03*
X182980000Y-105230000D03*
X162190000Y-124550000D03*
X146990000Y-118900000D03*
X159140000Y-111660000D03*
X159090000Y-113120000D03*
X159790000Y-118710000D03*
X163360000Y-103470000D03*
X156100000Y-105550000D03*
X145530000Y-126700000D03*
X163140000Y-122860000D03*
X183380000Y-104110000D03*
X163150000Y-104960000D03*
X153570000Y-117660000D03*
X162030000Y-114520000D03*
X160238162Y-123160000D03*
X155080000Y-105030000D03*
X171060000Y-122000000D03*
X157460000Y-121590000D03*
X157250000Y-105920000D03*
X151680000Y-108480000D03*
X160610000Y-114570000D03*
X161950000Y-102280000D03*
X158120000Y-124240000D03*
X160560000Y-125630000D03*
X159920000Y-108380000D03*
X162846496Y-121478462D03*
X177710000Y-102240000D03*
X158500000Y-102120000D03*
X182300000Y-102050000D03*
X157080000Y-107870000D03*
X157550000Y-120610000D03*
X155630000Y-103570000D03*
X159190000Y-114540000D03*
X141400000Y-114380000D03*
X162040000Y-111690000D03*
X141240000Y-122220000D03*
X176020000Y-102230000D03*
X158300000Y-125210000D03*
X175090000Y-102850000D03*
X159670000Y-119950000D03*
X158660000Y-120430000D03*
X177830000Y-105670000D03*
X162190000Y-105310000D03*
X162000000Y-113200000D03*
X147900000Y-119840000D03*
X141440000Y-117160000D03*
X181150000Y-112870000D03*
X157360000Y-102300000D03*
X147780000Y-118170000D03*
X156090000Y-102450000D03*
X156720000Y-122620000D03*
X142990000Y-108700000D03*
X179210000Y-102210000D03*
X161730000Y-120120000D03*
X146400000Y-108520000D03*
X176520000Y-105570000D03*
X161580000Y-106060000D03*
X159780000Y-106790000D03*
X160620000Y-113170000D03*
X160610000Y-111640000D03*
X161700000Y-104110000D03*
X159360000Y-125530000D03*
X162810000Y-102810000D03*
%TO.N,/Power/VBUS*%
X144030000Y-119860000D03*
X146990000Y-122105000D03*
%TO.N,/Power/VBAT_1*%
X143280000Y-117570000D03*
%TO.N,/Power/SYS*%
X142360000Y-126160000D03*
X145150000Y-120980000D03*
%TO.N,+3.3V*%
X158737351Y-118077624D03*
X145530000Y-111160000D03*
X157240000Y-109220000D03*
X141620000Y-121160000D03*
X151920000Y-117570000D03*
X139490000Y-109110000D03*
X139950000Y-115760000D03*
X162670000Y-108500000D03*
%TO.N,Net-(U2-CC2)*%
X180460000Y-121980000D03*
X173650000Y-121550000D03*
%TO.N,Net-(IC1-CHIP_PU)*%
X148920000Y-108440000D03*
X155700000Y-111690000D03*
%TO.N,/Power/USB_DP*%
X174360000Y-123680000D03*
X171130000Y-123650000D03*
%TO.N,/Power/USB_DN*%
X171120000Y-122790000D03*
X174350000Y-122820000D03*
%TO.N,/Components/FLASH-CLK*%
X170380000Y-110110000D03*
X175730000Y-114230000D03*
%TO.N,+1.8*%
X164405000Y-116715000D03*
X179970000Y-117390000D03*
%TO.N,/Components/AMP-DIN*%
X155640000Y-112870000D03*
X142970000Y-112830000D03*
%TO.N,/Components/MIC-BCK*%
X156150000Y-114810000D03*
%TO.N,/Components/MIC-DATA*%
X156320000Y-116310000D03*
%TO.N,Net-(IC1-LNA_IN)*%
X156070000Y-110310000D03*
X175840000Y-103930000D03*
%TO.N,/Components/MIC-WS*%
X155780000Y-115560000D03*
%TO.N,/Components/AMP-BCLK*%
X156055422Y-113616006D03*
X143810000Y-113350000D03*
%TO.N,/Components/AMP-LRCLK*%
X155500000Y-114120000D03*
X143910000Y-114610000D03*
%TO.N,/Components/FLASH-DO_IO1*%
X171430000Y-107480000D03*
X177000000Y-107230000D03*
%TO.N,/Components/FLASH-DI_IO0*%
X174520000Y-114230000D03*
X169330000Y-107960000D03*
%TO.N,/ESP/ESP-GPIO12*%
X149960000Y-120095000D03*
%TO.N,/ESP/ESP-GPIO10*%
X150140000Y-118915000D03*
X156887128Y-116800784D03*
%TO.N,/ESP/ESP-GPIO11*%
X157410670Y-117337819D03*
X150680000Y-119495000D03*
%TD*%
D18*
%TO.N,/Power/VBAT_1*%
X143280000Y-121400000D02*
X138685000Y-125995000D01*
X138685000Y-125995000D02*
X136020000Y-125995000D01*
D19*
%TO.N,/Components/MIC-WS*%
X155780000Y-115560000D02*
X155381000Y-115959000D01*
X155381000Y-115959000D02*
X140928232Y-115959000D01*
X140928232Y-115959000D02*
X139009232Y-114040000D01*
X139009232Y-114040000D02*
X136010000Y-114040000D01*
%TO.N,/Components/MIC-DATA*%
X136010000Y-115290000D02*
X138410000Y-115290000D01*
X138410000Y-115290000D02*
X139430000Y-116310000D01*
X139430000Y-116310000D02*
X156320000Y-116310000D01*
%TO.N,/Components/MIC-BCK*%
X156150000Y-114810000D02*
X155951000Y-115009000D01*
X155951000Y-115009000D02*
X155551768Y-115009000D01*
X155551768Y-115009000D02*
X155399768Y-115161000D01*
X155399768Y-115161000D02*
X141366000Y-115161000D01*
X138995000Y-112790000D02*
X136010000Y-112790000D01*
X141366000Y-115161000D02*
X138995000Y-112790000D01*
%TO.N,/ESP/ESP-GPIO11*%
X156936042Y-118312152D02*
X156936042Y-118131663D01*
X151335620Y-127760000D02*
X149070000Y-127760000D01*
X156936042Y-118131663D02*
X156926380Y-118122000D01*
X157258810Y-118634920D02*
X156936042Y-118312152D01*
X155678000Y-118122000D02*
X153512000Y-120288000D01*
X156926380Y-118122000D02*
X155678000Y-118122000D01*
X158038042Y-118312152D02*
X157715274Y-118634920D01*
X158038042Y-117855688D02*
X158038042Y-118312152D01*
X155203612Y-117420000D02*
X157602354Y-117420000D01*
X153512000Y-120288000D02*
X153512000Y-125583620D01*
X157715274Y-118634920D02*
X157258810Y-118634920D01*
X153128611Y-119495000D02*
X155203612Y-117420000D01*
X157602354Y-117420000D02*
X158038042Y-117855688D01*
X150680000Y-119495000D02*
X153128611Y-119495000D01*
X153512000Y-125583620D02*
X151335620Y-127760000D01*
%TO.N,/ESP/ESP-GPIO10*%
X150238232Y-127231000D02*
X150409232Y-127060000D01*
X151539232Y-127060000D02*
X153161000Y-125438232D01*
X149781768Y-127231000D02*
X150238232Y-127231000D01*
X148639232Y-127060000D02*
X149610768Y-127060000D01*
X149610768Y-127060000D02*
X149781768Y-127231000D01*
X148458232Y-126879000D02*
X148639232Y-127060000D01*
X153161000Y-125438232D02*
X153161000Y-124075232D01*
X148001768Y-126879000D02*
X148458232Y-126879000D01*
X145758232Y-127251000D02*
X145949232Y-127060000D01*
X147820768Y-127060000D02*
X148001768Y-126879000D01*
X145949232Y-127060000D02*
X147820768Y-127060000D01*
X145301768Y-127251000D02*
X145758232Y-127251000D01*
X150409232Y-127060000D02*
X151539232Y-127060000D01*
X145215384Y-127164616D02*
X145301768Y-127251000D01*
X144570000Y-127810000D02*
X145215384Y-127164616D01*
X153161000Y-124075232D02*
X149409000Y-120323232D01*
X149409000Y-120323232D02*
X149409000Y-119646000D01*
X149409000Y-119646000D02*
X150140000Y-118915000D01*
%TO.N,Net-(IC1-GPIO13)*%
X159300000Y-117510000D02*
X159360000Y-117450000D01*
X159360000Y-117450000D02*
X166792776Y-117450000D01*
X169980000Y-124950000D02*
X170370000Y-125340000D01*
X166792776Y-117450000D02*
X169980000Y-120637224D01*
X169980000Y-120637224D02*
X169980000Y-124950000D01*
%TO.N,Net-(IC1-GPIO17)*%
X161340000Y-118350000D02*
X161340000Y-118090000D01*
X161340000Y-118090000D02*
X161572091Y-117857909D01*
X161572091Y-117857909D02*
X166704297Y-117857909D01*
X166704297Y-117857909D02*
X168940000Y-120093612D01*
X168940000Y-120093612D02*
X168940000Y-125240000D01*
%TO.N,Net-(IC1-GPIO18)*%
X161924067Y-118820499D02*
X162335657Y-118408909D01*
X167470000Y-119991000D02*
X167470000Y-125180000D01*
X166758909Y-118408909D02*
X167239000Y-118889000D01*
X167221768Y-119991000D02*
X167470000Y-119991000D01*
X166899000Y-119211768D02*
X166899000Y-119668232D01*
X167221768Y-118889000D02*
X166899000Y-119211768D01*
X166899000Y-119668232D02*
X167221768Y-119991000D01*
X167470000Y-125180000D02*
X167490000Y-125200000D01*
X167239000Y-118889000D02*
X167221768Y-118889000D01*
X162335657Y-118408909D02*
X166758909Y-118408909D01*
%TO.N,Net-(IC1-GPIO0)*%
X156190000Y-112300000D02*
X150559232Y-112300000D01*
X150559232Y-112300000D02*
X147330232Y-109071000D01*
X147330232Y-109071000D02*
X144251000Y-109071000D01*
X144251000Y-109071000D02*
X142950000Y-107770000D01*
%TO.N,Net-(IC1-CHIP_PU)*%
X155293270Y-111890000D02*
X152370000Y-111890000D01*
X155700000Y-111690000D02*
X155493270Y-111690000D01*
X155493270Y-111690000D02*
X155293270Y-111890000D01*
X152370000Y-111890000D02*
X148920000Y-108440000D01*
%TO.N,Net-(IC3-CE)*%
X144000000Y-118450000D02*
X144114232Y-118450000D01*
X144114232Y-118450000D02*
X147544232Y-121880000D01*
X147544232Y-121880000D02*
X150080000Y-121880000D01*
D18*
%TO.N,/Power/VBAT_1*%
X143280000Y-117570000D02*
X143280000Y-121400000D01*
D19*
X152610000Y-125210000D02*
X147090000Y-125210000D01*
X147090000Y-125210000D02*
X143280000Y-121400000D01*
%TO.N,GND*%
X178430000Y-120280000D02*
X179310000Y-121160000D01*
X178480000Y-126230000D02*
X177620000Y-126230000D01*
X177620000Y-120280000D02*
X178430000Y-120280000D01*
X179310000Y-121160000D02*
X179310000Y-125400000D01*
X179310000Y-125400000D02*
X178480000Y-126230000D01*
D20*
%TO.N,/Power/VBUS*%
X178640000Y-121350000D02*
X178640000Y-124920000D01*
X178640000Y-124920000D02*
X178180000Y-125380000D01*
X177620000Y-121130000D02*
X178420000Y-121130000D01*
X178420000Y-121130000D02*
X178640000Y-121350000D01*
X178180000Y-125380000D02*
X177620000Y-125380000D01*
D19*
%TO.N,Net-(U2-CC2)*%
X180460000Y-121980000D02*
X180290000Y-121980000D01*
X180290000Y-121980000D02*
X180290000Y-121200000D01*
X173650000Y-119470000D02*
X173650000Y-121550000D01*
X178190000Y-117380000D02*
X175740000Y-117380000D01*
X179210000Y-118400000D02*
X178190000Y-117380000D01*
X180290000Y-121200000D02*
X179210000Y-120120000D01*
X175740000Y-117380000D02*
X173650000Y-119470000D01*
X179210000Y-120120000D02*
X179210000Y-118400000D01*
%TO.N,/Power/USB_DP*%
X176270000Y-123680000D02*
X176070001Y-123480001D01*
X176070001Y-123480001D02*
X174559999Y-123480001D01*
X174559999Y-123480001D02*
X174360000Y-123680000D01*
X174190000Y-123510000D02*
X174360000Y-123680000D01*
X171130000Y-123650000D02*
X171270000Y-123510000D01*
X171270000Y-123510000D02*
X174190000Y-123510000D01*
X177120000Y-122830000D02*
X176270000Y-123680000D01*
X177620000Y-122830000D02*
X177120000Y-122830000D01*
%TO.N,/Power/USB_DN*%
X176070001Y-123029999D02*
X174559999Y-123029999D01*
X174170000Y-123000000D02*
X171330000Y-123000000D01*
X174350000Y-122820000D02*
X174170000Y-123000000D01*
X174559999Y-123029999D02*
X174350000Y-122820000D01*
X176270000Y-122830000D02*
X176070001Y-123029999D01*
X171330000Y-123000000D02*
X171120000Y-122790000D01*
%TO.N,/Components/FLASH-CLK*%
X170380000Y-110110000D02*
X171610000Y-110110000D01*
X171610000Y-110110000D02*
X175730000Y-114230000D01*
%TO.N,/Components/AMP-DIN*%
X155640000Y-112870000D02*
X155569000Y-112799000D01*
X143001000Y-112799000D02*
X142970000Y-112830000D01*
X155569000Y-112799000D02*
X143001000Y-112799000D01*
%TO.N,Net-(IC1-LNA_IN)*%
X175840000Y-103930000D02*
X169170000Y-103930000D01*
X169170000Y-103930000D02*
X162790000Y-110310000D01*
X162790000Y-110310000D02*
X156070000Y-110310000D01*
%TO.N,/Components/AMP-BCLK*%
X156008416Y-113569000D02*
X144029000Y-113569000D01*
X156055422Y-113616006D02*
X156008416Y-113569000D01*
X144029000Y-113569000D02*
X143810000Y-113350000D01*
%TO.N,/Components/AMP-LRCLK*%
X155500000Y-114120000D02*
X144400000Y-114120000D01*
X144400000Y-114120000D02*
X143910000Y-114610000D01*
%TO.N,/Components/FLASH-DO_IO1*%
X171771000Y-107821000D02*
X176409000Y-107821000D01*
X176409000Y-107821000D02*
X177000000Y-107230000D01*
X171430000Y-107480000D02*
X171771000Y-107821000D01*
%TO.N,/Components/FLASH-DI_IO0*%
X169330000Y-109900000D02*
X173660000Y-114230000D01*
X169330000Y-107960000D02*
X169330000Y-109900000D01*
X173660000Y-114230000D02*
X174520000Y-114230000D01*
%TO.N,/ESP/ESP-GPIO12*%
X157071768Y-117771000D02*
X155349000Y-117771000D01*
X157485303Y-118083920D02*
X157372383Y-117971000D01*
X157487042Y-118083920D02*
X157485303Y-118083920D01*
X153025000Y-120095000D02*
X149960000Y-120095000D01*
X157372383Y-117971000D02*
X157271768Y-117971000D01*
X155349000Y-117771000D02*
X153025000Y-120095000D01*
X157271768Y-117971000D02*
X157071768Y-117771000D01*
%TO.N,/ESP/ESP-GPIO10*%
X155249000Y-116861000D02*
X155041000Y-117069000D01*
X156548232Y-116861000D02*
X155249000Y-116861000D01*
X155034612Y-117069000D02*
X153188612Y-118915000D01*
X155041000Y-117069000D02*
X155034612Y-117069000D01*
X153188612Y-118915000D02*
X150140000Y-118915000D01*
X156608448Y-116800784D02*
X156548232Y-116861000D01*
X156887128Y-116800784D02*
X156608448Y-116800784D01*
%TO.N,/ESP/ESP-GPIO11*%
X153105000Y-119495000D02*
X150680000Y-119495000D01*
X157410670Y-117337819D02*
X157410670Y-117405717D01*
X157410670Y-117405717D02*
X157396387Y-117420000D01*
X157396387Y-117420000D02*
X155180000Y-117420000D01*
X155180000Y-117420000D02*
X153105000Y-119495000D01*
%TD*%
M02*
