%TF.GenerationSoftware,KiCad,Pcbnew,9.0.2-9.0.2-0~ubuntu22.04.1*%
%TF.CreationDate,2025-07-24T10:37:48-04:00*%
%TF.ProjectId,jarvis,6a617276-6973-42e6-9b69-6361645f7063,rev?*%
%TF.SameCoordinates,Original*%
%TF.FileFunction,Paste,Top*%
%TF.FilePolarity,Positive*%
%FSLAX46Y46*%
G04 Gerber Fmt 4.6, Leading zero omitted, Abs format (unit mm)*
G04 Created by KiCad (PCBNEW 9.0.2-9.0.2-0~ubuntu22.04.1) date 2025-07-24 10:37:48*
%MOMM*%
%LPD*%
G01*
G04 APERTURE LIST*
G04 Aperture macros list*
%AMRoundRect*
0 Rectangle with rounded corners*
0 $1 Rounding radius*
0 $2 $3 $4 $5 $6 $7 $8 $9 X,Y pos of 4 corners*
0 Add a 4 corners polygon primitive as box body*
4,1,4,$2,$3,$4,$5,$6,$7,$8,$9,$2,$3,0*
0 Add four circle primitives for the rounded corners*
1,1,$1+$1,$2,$3*
1,1,$1+$1,$4,$5*
1,1,$1+$1,$6,$7*
1,1,$1+$1,$8,$9*
0 Add four rect primitives between the rounded corners*
20,1,$1+$1,$2,$3,$4,$5,0*
20,1,$1+$1,$4,$5,$6,$7,0*
20,1,$1+$1,$6,$7,$8,$9,0*
20,1,$1+$1,$8,$9,$2,$3,0*%
G04 Aperture macros list end*
%ADD10C,0.010000*%
%ADD11R,0.711200X0.304800*%
%ADD12R,0.508000X0.254000*%
%ADD13RoundRect,0.200000X0.275000X-0.200000X0.275000X0.200000X-0.275000X0.200000X-0.275000X-0.200000X0*%
%ADD14RoundRect,0.218750X-0.218750X-0.256250X0.218750X-0.256250X0.218750X0.256250X-0.218750X0.256250X0*%
%ADD15R,1.450000X1.000000*%
%ADD16R,1.400000X0.650000*%
%ADD17RoundRect,0.200000X-0.200000X-0.275000X0.200000X-0.275000X0.200000X0.275000X-0.200000X0.275000X0*%
%ADD18RoundRect,0.112500X-0.112500X-0.637500X0.112500X-0.637500X0.112500X0.637500X-0.112500X0.637500X0*%
%ADD19R,0.600000X0.540000*%
%ADD20R,0.762000X1.701800*%
%ADD21R,2.800000X2.800000*%
%ADD22R,0.800000X0.300000*%
%ADD23R,0.300000X0.800000*%
%ADD24R,0.520000X0.470000*%
%ADD25RoundRect,0.225000X0.225000X0.250000X-0.225000X0.250000X-0.225000X-0.250000X0.225000X-0.250000X0*%
%ADD26RoundRect,0.225000X-0.225000X-0.250000X0.225000X-0.250000X0.225000X0.250000X-0.225000X0.250000X0*%
%ADD27R,0.300000X0.850000*%
%ADD28R,0.850000X0.300000*%
%ADD29R,1.250000X1.250000*%
%ADD30RoundRect,0.225000X0.250000X-0.225000X0.250000X0.225000X-0.250000X0.225000X-0.250000X-0.225000X0*%
%ADD31R,1.200000X0.850000*%
%ADD32RoundRect,0.140000X-0.140000X-0.170000X0.140000X-0.170000X0.140000X0.170000X-0.140000X0.170000X0*%
%ADD33RoundRect,0.140000X-0.170000X0.140000X-0.170000X-0.140000X0.170000X-0.140000X0.170000X0.140000X0*%
%ADD34RoundRect,0.200000X-0.275000X0.200000X-0.275000X-0.200000X0.275000X-0.200000X0.275000X0.200000X0*%
%ADD35RoundRect,0.050000X0.232500X0.050000X-0.232500X0.050000X-0.232500X-0.050000X0.232500X-0.050000X0*%
%ADD36RoundRect,0.225000X-0.250000X0.225000X-0.250000X-0.225000X0.250000X-0.225000X0.250000X0.225000X0*%
%ADD37RoundRect,0.200000X0.200000X0.275000X-0.200000X0.275000X-0.200000X-0.275000X0.200000X-0.275000X0*%
%ADD38R,0.540000X0.600000*%
%ADD39R,0.500000X0.600000*%
%ADD40R,0.600000X1.250000*%
%ADD41R,0.650000X1.650000*%
%ADD42R,0.850000X0.200000*%
%ADD43R,0.200000X0.850000*%
%ADD44R,4.050000X4.050000*%
%ADD45RoundRect,0.140000X0.170000X-0.140000X0.170000X0.140000X-0.170000X0.140000X-0.170000X-0.140000X0*%
G04 APERTURE END LIST*
D10*
%TO.C,U1*%
X172225500Y-122321000D02*
X172227500Y-122321000D01*
X172230500Y-122322000D01*
X172232500Y-122322000D01*
X172235500Y-122323000D01*
X172237500Y-122324000D01*
X172240500Y-122325000D01*
X172242500Y-122327000D01*
X172244500Y-122328000D01*
X172246500Y-122330000D01*
X172248500Y-122331000D01*
X172250500Y-122333000D01*
X172252500Y-122335000D01*
X172254500Y-122337000D01*
X172256500Y-122339000D01*
X172257500Y-122341000D01*
X172259500Y-122343000D01*
X172260500Y-122345000D01*
X172262500Y-122347000D01*
X172263500Y-122350000D01*
X172264500Y-122352000D01*
X172265500Y-122355000D01*
X172265500Y-122357000D01*
X172266500Y-122360000D01*
X172266500Y-122362000D01*
X172267500Y-122365000D01*
X172267500Y-122367000D01*
X172267500Y-122370000D01*
X172267500Y-122630000D01*
X172267500Y-122633000D01*
X172267500Y-122635000D01*
X172266500Y-122638000D01*
X172266500Y-122640000D01*
X172265500Y-122643000D01*
X172265500Y-122645000D01*
X172264500Y-122648000D01*
X172263500Y-122650000D01*
X172262500Y-122653000D01*
X172260500Y-122655000D01*
X172259500Y-122657000D01*
X172257500Y-122659000D01*
X172256500Y-122661000D01*
X172254500Y-122663000D01*
X172252500Y-122665000D01*
X172250500Y-122667000D01*
X172248500Y-122669000D01*
X172246500Y-122670000D01*
X172244500Y-122672000D01*
X172242500Y-122673000D01*
X172240500Y-122675000D01*
X172237500Y-122676000D01*
X172235500Y-122677000D01*
X172232500Y-122678000D01*
X172230500Y-122678000D01*
X172227500Y-122679000D01*
X172225500Y-122679000D01*
X172222500Y-122680000D01*
X172220500Y-122680000D01*
X172217500Y-122680000D01*
X171750500Y-122680000D01*
X171747500Y-122680000D01*
X171745500Y-122680000D01*
X171742500Y-122679000D01*
X171740500Y-122679000D01*
X171737500Y-122678000D01*
X171735500Y-122678000D01*
X171732500Y-122677000D01*
X171730500Y-122676000D01*
X171728500Y-122675000D01*
X171726500Y-122674000D01*
X171724500Y-122672000D01*
X171722500Y-122671000D01*
X171720500Y-122669000D01*
X171718500Y-122668000D01*
X171716500Y-122666000D01*
X171714500Y-122664000D01*
X171713500Y-122662000D01*
X171711500Y-122660000D01*
X171710500Y-122658000D01*
X171708500Y-122656000D01*
X171707500Y-122654000D01*
X171706500Y-122652000D01*
X171705500Y-122650000D01*
X171704500Y-122647000D01*
X171704500Y-122645000D01*
X171703500Y-122642000D01*
X171703500Y-122640000D01*
X171702500Y-122637000D01*
X171702500Y-122635000D01*
X171702500Y-122633000D01*
X171702500Y-122370000D01*
X171702500Y-122367000D01*
X171702500Y-122365000D01*
X171703500Y-122362000D01*
X171703500Y-122360000D01*
X171704500Y-122357000D01*
X171704500Y-122355000D01*
X171705500Y-122352000D01*
X171706500Y-122350000D01*
X171707500Y-122347000D01*
X171709500Y-122345000D01*
X171710500Y-122343000D01*
X171712500Y-122341000D01*
X171713500Y-122339000D01*
X171715500Y-122337000D01*
X171717500Y-122335000D01*
X171719500Y-122333000D01*
X171721500Y-122331000D01*
X171723500Y-122330000D01*
X171725500Y-122328000D01*
X171727500Y-122327000D01*
X171729500Y-122325000D01*
X171732500Y-122324000D01*
X171734500Y-122323000D01*
X171737500Y-122322000D01*
X171739500Y-122322000D01*
X171742500Y-122321000D01*
X171744500Y-122321000D01*
X171747500Y-122320000D01*
X171749500Y-122320000D01*
X171752500Y-122320000D01*
X172217500Y-122320000D01*
X172220500Y-122320000D01*
X172222500Y-122320000D01*
X172225500Y-122321000D01*
G36*
X172225500Y-122321000D02*
G01*
X172227500Y-122321000D01*
X172230500Y-122322000D01*
X172232500Y-122322000D01*
X172235500Y-122323000D01*
X172237500Y-122324000D01*
X172240500Y-122325000D01*
X172242500Y-122327000D01*
X172244500Y-122328000D01*
X172246500Y-122330000D01*
X172248500Y-122331000D01*
X172250500Y-122333000D01*
X172252500Y-122335000D01*
X172254500Y-122337000D01*
X172256500Y-122339000D01*
X172257500Y-122341000D01*
X172259500Y-122343000D01*
X172260500Y-122345000D01*
X172262500Y-122347000D01*
X172263500Y-122350000D01*
X172264500Y-122352000D01*
X172265500Y-122355000D01*
X172265500Y-122357000D01*
X172266500Y-122360000D01*
X172266500Y-122362000D01*
X172267500Y-122365000D01*
X172267500Y-122367000D01*
X172267500Y-122370000D01*
X172267500Y-122630000D01*
X172267500Y-122633000D01*
X172267500Y-122635000D01*
X172266500Y-122638000D01*
X172266500Y-122640000D01*
X172265500Y-122643000D01*
X172265500Y-122645000D01*
X172264500Y-122648000D01*
X172263500Y-122650000D01*
X172262500Y-122653000D01*
X172260500Y-122655000D01*
X172259500Y-122657000D01*
X172257500Y-122659000D01*
X172256500Y-122661000D01*
X172254500Y-122663000D01*
X172252500Y-122665000D01*
X172250500Y-122667000D01*
X172248500Y-122669000D01*
X172246500Y-122670000D01*
X172244500Y-122672000D01*
X172242500Y-122673000D01*
X172240500Y-122675000D01*
X172237500Y-122676000D01*
X172235500Y-122677000D01*
X172232500Y-122678000D01*
X172230500Y-122678000D01*
X172227500Y-122679000D01*
X172225500Y-122679000D01*
X172222500Y-122680000D01*
X172220500Y-122680000D01*
X172217500Y-122680000D01*
X171750500Y-122680000D01*
X171747500Y-122680000D01*
X171745500Y-122680000D01*
X171742500Y-122679000D01*
X171740500Y-122679000D01*
X171737500Y-122678000D01*
X171735500Y-122678000D01*
X171732500Y-122677000D01*
X171730500Y-122676000D01*
X171728500Y-122675000D01*
X171726500Y-122674000D01*
X171724500Y-122672000D01*
X171722500Y-122671000D01*
X171720500Y-122669000D01*
X171718500Y-122668000D01*
X171716500Y-122666000D01*
X171714500Y-122664000D01*
X171713500Y-122662000D01*
X171711500Y-122660000D01*
X171710500Y-122658000D01*
X171708500Y-122656000D01*
X171707500Y-122654000D01*
X171706500Y-122652000D01*
X171705500Y-122650000D01*
X171704500Y-122647000D01*
X171704500Y-122645000D01*
X171703500Y-122642000D01*
X171703500Y-122640000D01*
X171702500Y-122637000D01*
X171702500Y-122635000D01*
X171702500Y-122633000D01*
X171702500Y-122370000D01*
X171702500Y-122367000D01*
X171702500Y-122365000D01*
X171703500Y-122362000D01*
X171703500Y-122360000D01*
X171704500Y-122357000D01*
X171704500Y-122355000D01*
X171705500Y-122352000D01*
X171706500Y-122350000D01*
X171707500Y-122347000D01*
X171709500Y-122345000D01*
X171710500Y-122343000D01*
X171712500Y-122341000D01*
X171713500Y-122339000D01*
X171715500Y-122337000D01*
X171717500Y-122335000D01*
X171719500Y-122333000D01*
X171721500Y-122331000D01*
X171723500Y-122330000D01*
X171725500Y-122328000D01*
X171727500Y-122327000D01*
X171729500Y-122325000D01*
X171732500Y-122324000D01*
X171734500Y-122323000D01*
X171737500Y-122322000D01*
X171739500Y-122322000D01*
X171742500Y-122321000D01*
X171744500Y-122321000D01*
X171747500Y-122320000D01*
X171749500Y-122320000D01*
X171752500Y-122320000D01*
X172217500Y-122320000D01*
X172220500Y-122320000D01*
X172222500Y-122320000D01*
X172225500Y-122321000D01*
G37*
X173060500Y-122321000D02*
X173062500Y-122321000D01*
X173065500Y-122322000D01*
X173067500Y-122322000D01*
X173070500Y-122323000D01*
X173072500Y-122324000D01*
X173075500Y-122325000D01*
X173077500Y-122327000D01*
X173079500Y-122328000D01*
X173081500Y-122330000D01*
X173083500Y-122331000D01*
X173085500Y-122333000D01*
X173087500Y-122335000D01*
X173089500Y-122337000D01*
X173091500Y-122339000D01*
X173092500Y-122341000D01*
X173094500Y-122343000D01*
X173095500Y-122345000D01*
X173097500Y-122347000D01*
X173098500Y-122350000D01*
X173099500Y-122352000D01*
X173100500Y-122355000D01*
X173100500Y-122357000D01*
X173101500Y-122360000D01*
X173101500Y-122362000D01*
X173102500Y-122365000D01*
X173102500Y-122367000D01*
X173102500Y-122370000D01*
X173102500Y-122630000D01*
X173102500Y-122633000D01*
X173102500Y-122635000D01*
X173101500Y-122638000D01*
X173101500Y-122640000D01*
X173100500Y-122643000D01*
X173100500Y-122645000D01*
X173099500Y-122648000D01*
X173098500Y-122650000D01*
X173097500Y-122653000D01*
X173095500Y-122655000D01*
X173094500Y-122657000D01*
X173092500Y-122659000D01*
X173091500Y-122661000D01*
X173089500Y-122663000D01*
X173087500Y-122665000D01*
X173085500Y-122667000D01*
X173083500Y-122669000D01*
X173081500Y-122670000D01*
X173079500Y-122672000D01*
X173077500Y-122673000D01*
X173075500Y-122675000D01*
X173072500Y-122676000D01*
X173070500Y-122677000D01*
X173067500Y-122678000D01*
X173065500Y-122678000D01*
X173062500Y-122679000D01*
X173060500Y-122679000D01*
X173057500Y-122680000D01*
X173055500Y-122680000D01*
X173052500Y-122680000D01*
X172584500Y-122680000D01*
X172582500Y-122680000D01*
X172580500Y-122680000D01*
X172577500Y-122679000D01*
X172575500Y-122679000D01*
X172572500Y-122678000D01*
X172570500Y-122678000D01*
X172567500Y-122677000D01*
X172565500Y-122676000D01*
X172563500Y-122675000D01*
X172561500Y-122674000D01*
X172559500Y-122672000D01*
X172557500Y-122671000D01*
X172555500Y-122669000D01*
X172553500Y-122668000D01*
X172551500Y-122666000D01*
X172549500Y-122664000D01*
X172548500Y-122662000D01*
X172546500Y-122660000D01*
X172545500Y-122658000D01*
X172543500Y-122656000D01*
X172542500Y-122654000D01*
X172541500Y-122652000D01*
X172540500Y-122650000D01*
X172539500Y-122647000D01*
X172539500Y-122645000D01*
X172538500Y-122642000D01*
X172538500Y-122640000D01*
X172537500Y-122637000D01*
X172537500Y-122635000D01*
X172537500Y-122633000D01*
X172537500Y-122370000D01*
X172537500Y-122367000D01*
X172537500Y-122365000D01*
X172538500Y-122362000D01*
X172538500Y-122360000D01*
X172539500Y-122357000D01*
X172539500Y-122355000D01*
X172540500Y-122352000D01*
X172541500Y-122350000D01*
X172542500Y-122347000D01*
X172544500Y-122345000D01*
X172545500Y-122343000D01*
X172547500Y-122341000D01*
X172548500Y-122339000D01*
X172550500Y-122337000D01*
X172552500Y-122335000D01*
X172554500Y-122333000D01*
X172556500Y-122331000D01*
X172558500Y-122330000D01*
X172560500Y-122328000D01*
X172562500Y-122327000D01*
X172564500Y-122325000D01*
X172567500Y-122324000D01*
X172569500Y-122323000D01*
X172572500Y-122322000D01*
X172574500Y-122322000D01*
X172577500Y-122321000D01*
X172579500Y-122321000D01*
X172582500Y-122320000D01*
X172584500Y-122320000D01*
X172587500Y-122320000D01*
X173052500Y-122320000D01*
X173055500Y-122320000D01*
X173057500Y-122320000D01*
X173060500Y-122321000D01*
G36*
X173060500Y-122321000D02*
G01*
X173062500Y-122321000D01*
X173065500Y-122322000D01*
X173067500Y-122322000D01*
X173070500Y-122323000D01*
X173072500Y-122324000D01*
X173075500Y-122325000D01*
X173077500Y-122327000D01*
X173079500Y-122328000D01*
X173081500Y-122330000D01*
X173083500Y-122331000D01*
X173085500Y-122333000D01*
X173087500Y-122335000D01*
X173089500Y-122337000D01*
X173091500Y-122339000D01*
X173092500Y-122341000D01*
X173094500Y-122343000D01*
X173095500Y-122345000D01*
X173097500Y-122347000D01*
X173098500Y-122350000D01*
X173099500Y-122352000D01*
X173100500Y-122355000D01*
X173100500Y-122357000D01*
X173101500Y-122360000D01*
X173101500Y-122362000D01*
X173102500Y-122365000D01*
X173102500Y-122367000D01*
X173102500Y-122370000D01*
X173102500Y-122630000D01*
X173102500Y-122633000D01*
X173102500Y-122635000D01*
X173101500Y-122638000D01*
X173101500Y-122640000D01*
X173100500Y-122643000D01*
X173100500Y-122645000D01*
X173099500Y-122648000D01*
X173098500Y-122650000D01*
X173097500Y-122653000D01*
X173095500Y-122655000D01*
X173094500Y-122657000D01*
X173092500Y-122659000D01*
X173091500Y-122661000D01*
X173089500Y-122663000D01*
X173087500Y-122665000D01*
X173085500Y-122667000D01*
X173083500Y-122669000D01*
X173081500Y-122670000D01*
X173079500Y-122672000D01*
X173077500Y-122673000D01*
X173075500Y-122675000D01*
X173072500Y-122676000D01*
X173070500Y-122677000D01*
X173067500Y-122678000D01*
X173065500Y-122678000D01*
X173062500Y-122679000D01*
X173060500Y-122679000D01*
X173057500Y-122680000D01*
X173055500Y-122680000D01*
X173052500Y-122680000D01*
X172584500Y-122680000D01*
X172582500Y-122680000D01*
X172580500Y-122680000D01*
X172577500Y-122679000D01*
X172575500Y-122679000D01*
X172572500Y-122678000D01*
X172570500Y-122678000D01*
X172567500Y-122677000D01*
X172565500Y-122676000D01*
X172563500Y-122675000D01*
X172561500Y-122674000D01*
X172559500Y-122672000D01*
X172557500Y-122671000D01*
X172555500Y-122669000D01*
X172553500Y-122668000D01*
X172551500Y-122666000D01*
X172549500Y-122664000D01*
X172548500Y-122662000D01*
X172546500Y-122660000D01*
X172545500Y-122658000D01*
X172543500Y-122656000D01*
X172542500Y-122654000D01*
X172541500Y-122652000D01*
X172540500Y-122650000D01*
X172539500Y-122647000D01*
X172539500Y-122645000D01*
X172538500Y-122642000D01*
X172538500Y-122640000D01*
X172537500Y-122637000D01*
X172537500Y-122635000D01*
X172537500Y-122633000D01*
X172537500Y-122370000D01*
X172537500Y-122367000D01*
X172537500Y-122365000D01*
X172538500Y-122362000D01*
X172538500Y-122360000D01*
X172539500Y-122357000D01*
X172539500Y-122355000D01*
X172540500Y-122352000D01*
X172541500Y-122350000D01*
X172542500Y-122347000D01*
X172544500Y-122345000D01*
X172545500Y-122343000D01*
X172547500Y-122341000D01*
X172548500Y-122339000D01*
X172550500Y-122337000D01*
X172552500Y-122335000D01*
X172554500Y-122333000D01*
X172556500Y-122331000D01*
X172558500Y-122330000D01*
X172560500Y-122328000D01*
X172562500Y-122327000D01*
X172564500Y-122325000D01*
X172567500Y-122324000D01*
X172569500Y-122323000D01*
X172572500Y-122322000D01*
X172574500Y-122322000D01*
X172577500Y-122321000D01*
X172579500Y-122321000D01*
X172582500Y-122320000D01*
X172584500Y-122320000D01*
X172587500Y-122320000D01*
X173052500Y-122320000D01*
X173055500Y-122320000D01*
X173057500Y-122320000D01*
X173060500Y-122321000D01*
G37*
%TD*%
D11*
%TO.C,LED1*%
X172783600Y-128860001D03*
D12*
X172683600Y-128385001D03*
X172683600Y-127934999D03*
D11*
X172783600Y-127459999D03*
%TD*%
D13*
%TO.C,R23*%
X170640000Y-128035000D03*
X170640000Y-126385000D03*
%TD*%
%TO.C,R22*%
X169060000Y-128025000D03*
X169060000Y-126375000D03*
%TD*%
%TO.C,R21*%
X167480000Y-128035000D03*
X167480000Y-126385000D03*
%TD*%
D14*
%TO.C,D5*%
X149482500Y-128980000D03*
X151057500Y-128980000D03*
%TD*%
%TO.C,D4*%
X143282500Y-129000000D03*
X144857500Y-129000000D03*
%TD*%
%TO.C,D3*%
X135352500Y-128970000D03*
X136927500Y-128970000D03*
%TD*%
D15*
%TO.C,S2*%
X142460000Y-103290000D03*
X142460000Y-104990000D03*
X137310000Y-103290000D03*
X137310000Y-104990000D03*
D16*
X139885000Y-102115000D03*
%TD*%
D15*
%TO.C,S1*%
X151160000Y-103300000D03*
X151160000Y-105000000D03*
X146010000Y-103300000D03*
X146010000Y-105000000D03*
D16*
X148585000Y-102125000D03*
%TD*%
D17*
%TO.C,R20*%
X146325000Y-128990000D03*
X147975000Y-128990000D03*
%TD*%
%TO.C,R19*%
X152515000Y-128980000D03*
X154165000Y-128980000D03*
%TD*%
%TO.C,R18*%
X138405000Y-128970000D03*
X140055000Y-128970000D03*
%TD*%
D18*
%TO.C,D2*%
X150300000Y-124820000D03*
X151600000Y-124820000D03*
X150950000Y-122160000D03*
%TD*%
D17*
%TO.C,R17*%
X140165000Y-107860000D03*
X141815000Y-107860000D03*
%TD*%
D19*
%TO.C,L3*%
X176840000Y-103478000D03*
X176840000Y-104342000D03*
%TD*%
D20*
%TO.C,AE1*%
X181596400Y-103930000D03*
X178243600Y-103930000D03*
%TD*%
D21*
%TO.C,IC3*%
X146990000Y-118900000D03*
D22*
X144990000Y-119900000D03*
X144990000Y-119400000D03*
X144990000Y-118900000D03*
X144990000Y-118400000D03*
X144990000Y-117900000D03*
D23*
X145990000Y-116900000D03*
X146490000Y-116900000D03*
X146990000Y-116900000D03*
X147490000Y-116900000D03*
X147990000Y-116900000D03*
D22*
X148990000Y-117900000D03*
X148990000Y-118400000D03*
X148990000Y-118900000D03*
X148990000Y-119400000D03*
X148990000Y-119900000D03*
D23*
X147990000Y-120900000D03*
X147490000Y-120900000D03*
X146990000Y-120900000D03*
X146490000Y-120900000D03*
X145990000Y-120900000D03*
%TD*%
D24*
%TO.C,Y3*%
X159748162Y-121555000D03*
X160568162Y-121555000D03*
X160568162Y-122225000D03*
X159748162Y-122225000D03*
%TD*%
D25*
%TO.C,C26*%
X181890000Y-114090000D03*
X180340000Y-114090000D03*
%TD*%
%TO.C,C4*%
X143395000Y-127210000D03*
X141845000Y-127210000D03*
%TD*%
D26*
%TO.C,C13*%
X152660000Y-114870000D03*
X154210000Y-114870000D03*
%TD*%
D25*
%TO.C,C7*%
X154165000Y-109240000D03*
X152615000Y-109240000D03*
%TD*%
D17*
%TO.C,R9*%
X162535000Y-107310000D03*
X164185000Y-107310000D03*
%TD*%
%TO.C,R15*%
X166555000Y-115560000D03*
X168205000Y-115560000D03*
%TD*%
D27*
%TO.C,IC2*%
X142150000Y-112930000D03*
X141650000Y-112930000D03*
X141150000Y-112930000D03*
X140650000Y-112930000D03*
D28*
X139950000Y-113630000D03*
X139950000Y-114130000D03*
X139950000Y-114630000D03*
X139950000Y-115130000D03*
D27*
X140650000Y-115830000D03*
X141150000Y-115830000D03*
X141650000Y-115830000D03*
X142150000Y-115830000D03*
D28*
X142850000Y-115130000D03*
X142850000Y-114630000D03*
X142850000Y-114130000D03*
X142850000Y-113630000D03*
D29*
X141400000Y-114380000D03*
%TD*%
D17*
%TO.C,R12*%
X166520000Y-109430000D03*
X168170000Y-109430000D03*
%TD*%
D19*
%TO.C,L1*%
X158590000Y-108502000D03*
X158590000Y-107638000D03*
%TD*%
D30*
%TO.C,C17*%
X168220000Y-118590000D03*
X168220000Y-117040000D03*
%TD*%
D31*
%TO.C,Y2*%
X157998000Y-104690000D03*
X159622000Y-104690000D03*
X159622000Y-103490000D03*
X157998000Y-103490000D03*
%TD*%
D25*
%TO.C,C27*%
X181885000Y-115690000D03*
X180335000Y-115690000D03*
%TD*%
D32*
%TO.C,C18*%
X163910000Y-108500000D03*
X164870000Y-108500000D03*
%TD*%
D33*
%TO.C,C10*%
X161858162Y-121445000D03*
X161858162Y-122405000D03*
%TD*%
D34*
%TO.C,R6*%
X172590000Y-118375000D03*
X172590000Y-120025000D03*
%TD*%
D25*
%TO.C,C24*%
X141945000Y-111320000D03*
X140395000Y-111320000D03*
%TD*%
%TO.C,C15*%
X156235000Y-117830000D03*
X154685000Y-117830000D03*
%TD*%
D35*
%TO.C,U1*%
X172820000Y-123500000D03*
X172820000Y-123000000D03*
X172820000Y-122000000D03*
X172820000Y-121500000D03*
X171985000Y-121500000D03*
X171985000Y-122000000D03*
X171985000Y-123000000D03*
X171985000Y-123500000D03*
%TD*%
D36*
%TO.C,C3*%
X146990000Y-123350000D03*
X146990000Y-124900000D03*
%TD*%
D30*
%TO.C,C19*%
X166630000Y-118570000D03*
X166630000Y-117020000D03*
%TD*%
D25*
%TO.C,C25*%
X141970000Y-109830000D03*
X140420000Y-109830000D03*
%TD*%
D37*
%TO.C,R5*%
X170035000Y-122460000D03*
X168385000Y-122460000D03*
%TD*%
D30*
%TO.C,C2*%
X145530000Y-124905000D03*
X145530000Y-123355000D03*
%TD*%
D38*
%TO.C,L2*%
X153503000Y-112070000D03*
X154367000Y-112070000D03*
%TD*%
D36*
%TO.C,C22*%
X134160000Y-105575000D03*
X134160000Y-107125000D03*
%TD*%
D26*
%TO.C,C12*%
X152660000Y-113370000D03*
X154210000Y-113370000D03*
%TD*%
D30*
%TO.C,C23*%
X134140000Y-103765000D03*
X134140000Y-102215000D03*
%TD*%
D13*
%TO.C,R1*%
X148480000Y-124960000D03*
X148480000Y-123310000D03*
%TD*%
D36*
%TO.C,C6*%
X142170000Y-117980000D03*
X142170000Y-119530000D03*
%TD*%
D17*
%TO.C,R7*%
X159348162Y-124080000D03*
X160998162Y-124080000D03*
%TD*%
%TO.C,R11*%
X166520000Y-110970000D03*
X168170000Y-110970000D03*
%TD*%
D30*
%TO.C,C1*%
X145450000Y-115340000D03*
X145450000Y-113790000D03*
%TD*%
D13*
%TO.C,R2*%
X146980000Y-115385000D03*
X146980000Y-113735000D03*
%TD*%
D17*
%TO.C,R8*%
X146400000Y-111170000D03*
X148050000Y-111170000D03*
%TD*%
D25*
%TO.C,C11*%
X154210000Y-110770000D03*
X152660000Y-110770000D03*
%TD*%
D13*
%TO.C,R3*%
X174080000Y-119995000D03*
X174080000Y-118345000D03*
%TD*%
D39*
%TO.C,D1*%
X173030000Y-125380000D03*
X174430000Y-125380000D03*
%TD*%
D25*
%TO.C,C8*%
X154165000Y-107740000D03*
X152615000Y-107740000D03*
%TD*%
D17*
%TO.C,R14*%
X166545000Y-114060000D03*
X168195000Y-114060000D03*
%TD*%
D36*
%TO.C,C5*%
X140620000Y-117980000D03*
X140620000Y-119530000D03*
%TD*%
D33*
%TO.C,C14*%
X156600000Y-103600000D03*
X156600000Y-104560000D03*
%TD*%
D25*
%TO.C,C21*%
X148000000Y-109570000D03*
X146450000Y-109570000D03*
%TD*%
D33*
%TO.C,C16*%
X161010000Y-103670000D03*
X161010000Y-104630000D03*
%TD*%
D37*
%TO.C,R4*%
X170015000Y-123970000D03*
X168365000Y-123970000D03*
%TD*%
D17*
%TO.C,R10*%
X166525000Y-112500000D03*
X168175000Y-112500000D03*
%TD*%
D40*
%TO.C,IC4*%
X140670000Y-123605000D03*
X141620000Y-123605000D03*
X142570000Y-123605000D03*
X142570000Y-121105000D03*
X140670000Y-121105000D03*
%TD*%
D41*
%TO.C,IC5*%
X178325000Y-108790000D03*
X177055000Y-108790000D03*
X175785000Y-108790000D03*
X174515000Y-108790000D03*
X174515000Y-115990000D03*
X175785000Y-115990000D03*
X177055000Y-115990000D03*
X178325000Y-115990000D03*
%TD*%
D42*
%TO.C,IC1*%
X157140000Y-110530000D03*
X157140000Y-110930000D03*
X157140000Y-111330000D03*
X157140000Y-111730000D03*
X157140000Y-112130000D03*
X157140000Y-112530000D03*
X157140000Y-112930000D03*
X157140000Y-113330000D03*
X157140000Y-113730000D03*
X157140000Y-114130000D03*
X157140000Y-114530000D03*
X157140000Y-114930000D03*
X157140000Y-115330000D03*
X157140000Y-115730000D03*
D43*
X157990000Y-116580000D03*
X158390000Y-116580000D03*
X158790000Y-116580000D03*
X159190000Y-116580000D03*
X159590000Y-116580000D03*
X159990000Y-116580000D03*
X160390000Y-116580000D03*
X160790000Y-116580000D03*
X161190000Y-116580000D03*
X161590000Y-116580000D03*
X161990000Y-116580000D03*
X162390000Y-116580000D03*
X162790000Y-116580000D03*
X163190000Y-116580000D03*
D42*
X164040000Y-115730000D03*
X164040000Y-115330000D03*
X164040000Y-114930000D03*
X164040000Y-114530000D03*
X164040000Y-114130000D03*
X164040000Y-113730000D03*
X164040000Y-113330000D03*
X164040000Y-112930000D03*
X164040000Y-112530000D03*
X164040000Y-112130000D03*
X164040000Y-111730000D03*
X164040000Y-111330000D03*
X164040000Y-110930000D03*
X164040000Y-110530000D03*
D43*
X163190000Y-109680000D03*
X162790000Y-109680000D03*
X162390000Y-109680000D03*
X161990000Y-109680000D03*
X161590000Y-109680000D03*
X161190000Y-109680000D03*
X160790000Y-109680000D03*
X160390000Y-109680000D03*
X159990000Y-109680000D03*
X159590000Y-109680000D03*
X159190000Y-109680000D03*
X158790000Y-109680000D03*
X158390000Y-109680000D03*
X157990000Y-109680000D03*
D44*
X160590000Y-113130000D03*
%TD*%
D45*
%TO.C,C9*%
X158458162Y-122395000D03*
X158458162Y-121435000D03*
%TD*%
D17*
%TO.C,R13*%
X166515000Y-107880000D03*
X168165000Y-107880000D03*
%TD*%
D13*
%TO.C,R16*%
X148510000Y-115375000D03*
X148510000Y-113725000D03*
%TD*%
D26*
%TO.C,C20*%
X152660000Y-116370000D03*
X154210000Y-116370000D03*
%TD*%
M02*
